<svg xmlns="http://www.w3.org/2000/svg" xmlns:xlink="http://www.w3.org/1999/xlink" width="82" height="82" viewBox="0 0 82 82"><defs><clipPath id="a"><path d="M0-682.665H49.1v49.1H0Z" transform="translate(0 682.665)"/></clipPath></defs><g transform="translate(-1124 -3425.986)"><g transform="translate(1113.849 3415.927)"><circle cx="36" cy="36" r="36" transform="translate(15.151 15.059)" fill="#aed139"/><path d="M36,0A36,36,0,1,0,72,36,36,36,0,0,0,36,0m0-5A40.989,40.989,0,0,1,64.991,64.991,41,41,0,1,1,20.039-1.776,40.748,40.748,0,0,1,36-5Z" transform="translate(15.151 15.059)" fill="#fff"/></g><g transform="translate(1140.449 4125.101)"><g transform="translate(0 -682.665)"><g clip-path="url(#a)"><g transform="translate(25.101 14.969)"><path d="M-118.177-55.138a13.455,13.455,0,0,1-.781,1.624c-1.1,2.012-2.135,3.561-4.377,2.34a6.732,6.732,0,0,1-1-.674,8.73,8.73,0,0,1-2.863-4.028,2.73,2.73,0,0,1,.116-2.058c1.046-1.922,5.084-1.765,7.4-.683.109.05.212.1.312.157a2.345,2.345,0,0,1,1.191,3.323" transform="translate(127.335 59.411)" fill="#97d729"/></g><g transform="translate(28.107 15.762)"><path d="M-79.4-44.9a13.454,13.454,0,0,1-.781,1.624c-1.1,2.012-2.135,3.561-4.377,2.34a6.732,6.732,0,0,1-1-.674c4.308-1.177,4.636-5.654,4.65-6.77.109.05.212.1.312.157A2.345,2.345,0,0,1-79.4-44.9" transform="translate(85.549 48.376)" fill="#8bc827"/></g><g transform="translate(25.101 14.968)"><path d="M-106.91-13.724h0a9.638,9.638,0,0,1,4.339,1.012,2.757,2.757,0,0,1,1.717,2.64,7.561,7.561,0,0,1-1.107,2.984c-.87,1.6-1.782,3.033-3.363,3.033a3.534,3.534,0,0,1-1.691-.493c-2.425-1.32-5.211-5.109-3.943-7.438C-110.348-13.107-108.91-13.724-106.91-13.724Zm1.586,8.669c.94,0,1.6-.883,2.485-2.511a6.842,6.842,0,0,0,.986-2.555c.024-.481-.091-1.111-1.2-1.713a8.583,8.583,0,0,0-3.861-.89c-1.594,0-2.749.443-3.17,1.216-.4.739-.181,1.9.606,3.175a8.693,8.693,0,0,0,2.936,2.906A2.615,2.615,0,0,0-105.324-5.055Z" transform="translate(110.778 13.224)"/></g><g transform="translate(25.704 16.565)"><path d="M5.31,3.391a.5.5,0,0,1-.239-.061L-.239.439a.5.5,0,0,1-.2-.678.5.5,0,0,1,.678-.2L5.55,2.452a.5.5,0,0,1-.239.939Z"/></g><g transform="translate(10.93 14.706)"><path d="M-119.276-53.522a2.728,2.728,0,0,1-.882,1.862,8.646,8.646,0,0,1-4.205,2.125,7.1,7.1,0,0,1-1.432.161c-2.553,0-2.725-1.857-2.725-4.148a13.4,13.4,0,0,1,.09-1.8,2.442,2.442,0,0,1,1.266-2.091,3.2,3.2,0,0,1,1.369-.258c2.552,0,6.519,1.857,6.519,4.148" transform="translate(128.52 57.671)" fill="#81b923"/></g><g transform="translate(12.286 14.706)"><path d="M-101.782-53.522a2.728,2.728,0,0,1-.882,1.862,8.646,8.646,0,0,1-4.205,2.125c.434-3.355-1.661-6.467-2.8-7.877a3.2,3.2,0,0,1,1.369-.258c2.552,0,6.519,1.857,6.519,4.148" transform="translate(109.67 57.671)" fill="#78a81f"/></g><g transform="translate(10.93 14.707)"><path d="M-35.163-.5c2.761,0,7.019,2,7.019,4.648S-32.4,8.8-35.163,8.8a2.757,2.757,0,0,1-2.77-1.5,7.562,7.562,0,0,1-.455-3.15A7.562,7.562,0,0,1-37.933,1,2.757,2.757,0,0,1-35.163-.5Zm0,8.3a8.693,8.693,0,0,0,3.968-1.149c1.3-.746,2.051-1.657,2.051-2.5s-.747-1.753-2.051-2.5A8.693,8.693,0,0,0-35.163.5c-1.916,0-2.225,1.075-2.225,3.648S-37.079,7.8-35.163,7.8Z" transform="translate(37.888)"/></g><g transform="translate(13.769 18.795)"><path d="M-78.016.5h-6.046a.5.5,0,0,1-.5-.5.5.5,0,0,1,.5-.5h6.046a.5.5,0,0,1,.5.5A.5.5,0,0,1-78.016.5Z" transform="translate(84.062)"/></g><g transform="translate(17.224 17.927)"><path d="M-67.379-81.966a1.756,1.756,0,0,1-2.507.306c-.07-.046-.14-.1-.21-.149a10.148,10.148,0,0,1-1.03-.932C-72.376-83.991-73.3-85.1-71.9-86.49a7.083,7.083,0,0,1,3.3-1.719,4.556,4.556,0,0,1,1.017-.109,2.1,2.1,0,0,1,1.5.535c1.249,1.249.1,4.426-1.294,5.817" transform="translate(72.601 88.318)" fill="#8bc827"/></g><g transform="translate(19.939 17.927)"><path d="M-32.349-81.966a1.756,1.756,0,0,1-2.507.306,8.185,8.185,0,0,0,1.287-6.549,4.556,4.556,0,0,1,1.017-.109,2.1,2.1,0,0,1,1.5.535c1.249,1.249.1,4.426-1.294,5.817" transform="translate(34.856 88.318)" fill="#81b923"/></g><g transform="translate(17.224 17.928)"><path d="M-68.772-80.767h0a4.228,4.228,0,0,1-2.707-1.62c-1.042-1.042-2.616-2.616-.776-4.455a7.32,7.32,0,0,1,4.62-1.975,2.62,2.62,0,0,1,1.9.681,3.363,3.363,0,0,1,.473,3.34,7.54,7.54,0,0,1-1.766,3.185A2.46,2.46,0,0,1-68.772-80.767Zm1.137-7.05a6.3,6.3,0,0,0-3.913,1.682c-.961.962-.633,1.633.776,3.041.7.7,1.378,1.327,2,1.327h0a1.533,1.533,0,0,0,1.041-.551,6.582,6.582,0,0,0,1.508-2.74,2.5,2.5,0,0,0-.215-2.371A1.638,1.638,0,0,0-67.634-87.816Z" transform="translate(72.598 88.316)"/></g><g transform="translate(20.278 18.691)"><path d="M-45.845,3.8a.5.5,0,0,1-.354-.146.5.5,0,0,1,0-.707l3.3-3.3a.5.5,0,0,1,.707,0,.5.5,0,0,1,0,.707l-3.3,3.3A.5.5,0,0,1-45.845,3.8Z" transform="translate(45.845)"/></g><g transform="translate(21.676 18.854)"><path d="M-71.412-94.973a1.513,1.513,0,0,1-.8,1.333,1.359,1.359,0,0,0-.72,1.191v13.735h-2.607v-5.592a1.328,1.328,0,0,0-.654-1.154,1.51,1.51,0,0,1-.759-1.312,1.513,1.513,0,0,1,.759-1.312,1.328,1.328,0,0,0,.654-1.154v-13.1h2.607V-97.5a1.358,1.358,0,0,0,.72,1.191,1.516,1.516,0,0,1,.8,1.334" transform="translate(76.946 102.333)" fill="#fbc66d"/></g><g transform="translate(23.088 18.854)"><path d="M-33.633,0V1.9a2.348,2.348,0,0,1-1.3.429,2.355,2.355,0,0,1-1.3-.429V0Z" transform="translate(36.24)" fill="#d8aa5e"/></g><g transform="translate(21.675 18.854)"><path d="M-51.869-168.147h-2.607a.5.5,0,0,1-.5-.5v-5.592a.827.827,0,0,0-.4-.72,2.02,2.02,0,0,1-1.01-1.745,2.019,2.019,0,0,1,1.01-1.745.828.828,0,0,0,.4-.721v-13.1a.5.5,0,0,1,.5-.5h2.607a.5.5,0,0,1,.5.5v4.835a.859.859,0,0,0,.458.752,2.014,2.014,0,0,1,1.057,1.773,2.014,2.014,0,0,1-1.057,1.773.859.859,0,0,0-.458.751v3.944a.5.5,0,0,1-.5.5.5.5,0,0,1-.5-.5v-3.944a1.858,1.858,0,0,1,.982-1.631,1.015,1.015,0,0,0,.533-.894,1.015,1.015,0,0,0-.533-.894,1.858,1.858,0,0,1-.982-1.631v-4.335h-1.607v12.6a1.83,1.83,0,0,1-.9,1.587,1.017,1.017,0,0,0-.509.878,1.017,1.017,0,0,0,.509.879,1.83,1.83,0,0,1,.9,1.587v5.092h1.607v-5.9a.5.5,0,0,1,.5-.5.5.5,0,0,1,.5.5v6.4A.5.5,0,0,1-51.869-168.147Z" transform="translate(55.889 192.266)"/></g><g transform="translate(20.261 40.798)"><path d="M-106.585-38.964a4.364,4.364,0,0,1-4.13,4.565,3.781,3.781,0,0,1-.925-.115,4.492,4.492,0,0,1-3.205-4.45,4.877,4.877,0,0,1,.747-2.617.859.859,0,0,1,.724-.4h5.319a.859.859,0,0,1,.724.4,4.877,4.877,0,0,1,.747,2.617" transform="translate(114.845 41.984)" fill="#eff5f6"/></g><g transform="translate(23.467 40.798)"><path d="M-65.225-38.964a4.364,4.364,0,0,1-4.13,4.565,3.781,3.781,0,0,1-.925-.115c3.735-2.525,3.181-5.591,2.74-7.469h.845a.859.859,0,0,1,.724.4,4.877,4.877,0,0,1,.747,2.617" transform="translate(70.28 41.984)" fill="#cae5e7"/></g><g transform="translate(20.261 40.798)"><path d="M-108.319-52.053a4.867,4.867,0,0,1-4.63-5.064A5.37,5.37,0,0,1-112.125-60a1.354,1.354,0,0,1,1.146-.635h5.319a1.354,1.354,0,0,1,1.146.635,5.371,5.371,0,0,1,.824,2.885,5.511,5.511,0,0,1-.19,1.436.5.5,0,0,1-.613.352.5.5,0,0,1-.352-.613,4.511,4.511,0,0,0,.155-1.175,4.373,4.373,0,0,0-.668-2.349.359.359,0,0,0-.3-.171h-5.319a.358.358,0,0,0-.3.171,4.372,4.372,0,0,0-.669,2.349,3.87,3.87,0,0,0,3.63,4.064,3.281,3.281,0,0,0,1.673-.458.5.5,0,0,1,.684.18.5.5,0,0,1-.18.684A4.327,4.327,0,0,1-108.319-52.053Z" transform="translate(112.449 60.137)"/></g><g transform="translate(11.592 3.119)"><path d="M-87.363-11.671c1.8,1.8,3.3,5.923,1.676,7.543a2.728,2.728,0,0,1-1.941.693,8.829,8.829,0,0,1-5.6-2.37c-1.805-1.805-.614-3.24,1.006-4.86a13.249,13.249,0,0,1,1.336-1.209,2.345,2.345,0,0,1,3.524.2" transform="translate(94.134 12.575)" fill="#bbec6b"/></g><g transform="translate(14.839 3.119)"><path d="M-45.468-11.671c1.8,1.8,3.3,5.923,1.676,7.543a2.728,2.728,0,0,1-1.941.693,8.874,8.874,0,0,0-3.259-8.438,2.345,2.345,0,0,1,3.524.2" transform="translate(48.992 12.575)" fill="#a1e62d"/></g><g transform="translate(11.592 3.119)"><path d="M-89.166-13.074A3.05,3.05,0,0,1-87-12.023,9.619,9.619,0,0,1-84.752-7.96c.5,1.831.294,3.318-.575,4.186a3.254,3.254,0,0,1-2.364.84,9.325,9.325,0,0,1-5.885-2.517,2.757,2.757,0,0,1-.9-3.018,7.562,7.562,0,0,1,1.906-2.549C-91.487-12.1-90.411-13.074-89.166-13.074Zm1.475,9.14a2.263,2.263,0,0,0,1.657-.547c.6-.6.711-1.768.317-3.217a8.693,8.693,0,0,0-1.994-3.618,2.122,2.122,0,0,0-1.455-.758c-.862,0-1.768.834-2.7,1.764-1.819,1.819-2.361,2.8-1.006,4.153A8.34,8.34,0,0,0-87.691-3.934Z" transform="translate(94.127 12.574)"/></g><g transform="translate(15.552 6.994)"><path d="M-55.166-54.666a.5.5,0,0,1-.354-.146l-4.275-4.275a.5.5,0,0,1,0-.707.5.5,0,0,1,.707,0l4.275,4.275a.5.5,0,0,1,0,.707A.5.5,0,0,1-55.166-54.666Z" transform="translate(59.441 59.441)"/></g><g transform="translate(27.802 3.82)"><path d="M-106.276-87.367a8.634,8.634,0,0,1-2.7,1.73,7.521,7.521,0,0,1-2.9.64,2.735,2.735,0,0,1-1.941-.693c-1.62-1.62-.128-5.738,1.677-7.543a3.073,3.073,0,0,1,1.261-.823,2.5,2.5,0,0,1,2.263.621,13.288,13.288,0,0,1,1.336,1.208c1.62,1.62,2.811,3.055,1.007,4.86" transform="translate(114.513 94.138)" fill="#81b923"/></g><g transform="translate(31.433 3.82)"><path d="M-59.424-87.367a8.634,8.634,0,0,1-2.7,1.73,8.689,8.689,0,0,0-1.9-8.42,2.5,2.5,0,0,1,2.263.621,13.289,13.289,0,0,1,1.336,1.208c1.62,1.62,2.811,3.055,1.007,4.86" transform="translate(64.029 94.138)" fill="#78a81f"/></g><g transform="translate(27.802 3.82)"><path d="M-28.774-13.074h0c1.245,0,2.321.973,3.4,2.057a7.562,7.562,0,0,1,1.906,2.549,2.757,2.757,0,0,1-.9,3.018,9.325,9.325,0,0,1-5.885,2.517,3.254,3.254,0,0,1-2.364-.84c-1.875-1.875-.275-6.3,1.677-8.25A3.05,3.05,0,0,1-28.774-13.074Zm-1.475,9.14a8.34,8.34,0,0,0,5.178-2.224c.89-.89.822-1.526.663-1.981a6.843,6.843,0,0,0-1.669-2.172c-.93-.93-1.835-1.764-2.7-1.764h0a2.122,2.122,0,0,0-1.455.758A8.693,8.693,0,0,0-32.223-7.7c-.394,1.449-.278,2.622.317,3.217A2.263,2.263,0,0,0-30.249-3.934Z" transform="translate(32.953 12.574)"/></g><g transform="translate(28.708 7.696)"><path d="M0-54.666a.5.5,0,0,1-.354-.146.5.5,0,0,1,0-.707l4.275-4.275a.5.5,0,0,1,.707,0,.5.5,0,0,1,0,.707L.354-54.812A.5.5,0,0,1,0-54.666Z" transform="translate(0 59.441)"/></g><g transform="translate(31.292 13.008)"><path d="M-83.3-51.2a11.976,11.976,0,0,1-.486,1.373c-.461,1.035-1.1,1.65-2.369,1.266a5.278,5.278,0,0,1-1.581-.845c-1.271-.96-2.323-2.471-1.94-3.731A2.327,2.327,0,0,1-88.629-54.4a6.014,6.014,0,0,1,4.425-.588l.126.041c1.619.567,1.3,2.011.779,3.74" transform="translate(89.755 55.173)" fill="#bbec6b"/></g><g transform="translate(33.311 13.237)"><path d="M-57.24-48.256a11.975,11.975,0,0,1-.486,1.373c-.461,1.035-1.1,1.65-2.369,1.266a5.278,5.278,0,0,1-1.581-.845c2.587-1.006,3.4-3.917,3.657-5.534,1.619.567,1.3,2.011.779,3.74" transform="translate(61.676 51.996)" fill="#a1e62d"/></g><g transform="translate(31.292 13.009)"><path d="M-45.76-84.639a2.933,2.933,0,0,1-.847-.137,6.554,6.554,0,0,1-2.858-1.978,3.5,3.5,0,0,1-1-3.221c.5-1.64,2.7-2.386,4.535-2.386a5.464,5.464,0,0,1,1.56.209c2.358.716,1.684,2.936,1.237,4.4C-43.527-86.436-44.073-84.639-45.76-84.639Zm-.166-6.723c-1.488,0-3.247.588-3.578,1.677a2.611,2.611,0,0,0,.8,2.283,5.588,5.588,0,0,0,2.387,1.669,1.943,1.943,0,0,0,.556.094c.8,0,1.191-.808,1.675-2.4.612-2.016.618-2.8-.571-3.157A4.46,4.46,0,0,0-45.925-91.362Z" transform="translate(50.062 91.862)"/></g><g transform="translate(31.606 15.161)"><path d="M4.17,1.767a.5.5,0,0,1-.146-.022L-.145.478A.5.5,0,0,1-.478-.145.5.5,0,0,1,.145-.478L4.315.788a.5.5,0,0,1-.145.979Z"/></g><g transform="translate(18.76 0.72)"><path d="M-145.327-47.736c0,3.465-2.521,8.85-5.632,8.85a3.7,3.7,0,0,1-2.528-1.2,11.987,11.987,0,0,1-3.1-7.652c0-3.466,2.521-3.7,5.631-3.7a18,18,0,0,1,2.443.123c1.887.265,3.189,1.087,3.189,3.577" transform="translate(156.59 51.436)" fill="#97d729"/></g><g transform="translate(21.863 0.842)"><path d="M-105.289-46.155c0,3.465-2.521,8.85-5.632,8.85a3.7,3.7,0,0,1-2.528-1.2,12.047,12.047,0,0,0,4.971-11.229c1.887.265,3.189,1.087,3.189,3.577" transform="translate(113.449 49.732)" fill="#8bc827"/></g><g transform="translate(18.761 0.719)"><path d="M-7.98-99.059a4.3,4.3,0,0,1-3.03-1.493,10.8,10.8,0,0,1-2.083-3.3.5.5,0,0,1,.267-.655.5.5,0,0,1,.655.267c1.3,3.083,3.017,4.181,4.191,4.181,1.209,0,2.5-1.048,3.548-2.874a11.993,11.993,0,0,0,1.583-5.476c0-1.828-.78-2.416-1.367-2.7a9.412,9.412,0,0,0-3.764-.5,9.412,9.412,0,0,0-3.764.5c-.587.283-1.367.871-1.367,2.7a8.118,8.118,0,0,0,.07,1.028.5.5,0,0,1-.432.56.5.5,0,0,1-.56-.432,9.119,9.119,0,0,1-.078-1.155,3.58,3.58,0,0,1,1.932-3.6,10.132,10.132,0,0,1,4.2-.6,10.132,10.132,0,0,1,4.2.6,3.58,3.58,0,0,1,1.932,3.6,12.871,12.871,0,0,1-1.715,5.973C-4.811-100.258-6.379-99.059-7.98-99.059Z" transform="translate(13.611 112.109)"/></g><g transform="translate(24.472 4.573)"><path d="M0-105.415a.5.5,0,0,1-.5-.5v-8.208a.5.5,0,0,1,.5-.5.5.5,0,0,1,.5.5v8.208A.5.5,0,0,1,0-105.415Z" transform="translate(0 114.124)"/></g><g transform="translate(13.944 9.816)"><path d="M-87.363-11.671c1.8,1.8,3.3,5.923,1.676,7.543a2.728,2.728,0,0,1-1.941.693,8.829,8.829,0,0,1-5.6-2.37c-1.805-1.805-.614-3.24,1.006-4.86a13.249,13.249,0,0,1,1.336-1.209,2.345,2.345,0,0,1,3.524.2" transform="translate(94.134 12.575)" fill="#97d729"/></g><g transform="translate(17.191 9.816)"><path d="M-45.468-11.671c1.8,1.8,3.3,5.923,1.676,7.543a2.728,2.728,0,0,1-1.941.693,8.874,8.874,0,0,0-3.259-8.438,2.345,2.345,0,0,1,3.524.2" transform="translate(48.992 12.575)" fill="#8bc827"/></g><g transform="translate(13.944 9.816)"><path d="M-89.166-13.074A3.05,3.05,0,0,1-87-12.023,9.619,9.619,0,0,1-84.752-7.96c.5,1.831.294,3.318-.575,4.186a3.254,3.254,0,0,1-2.364.84,9.325,9.325,0,0,1-5.885-2.517,2.757,2.757,0,0,1-.9-3.018,7.562,7.562,0,0,1,1.906-2.549C-91.487-12.1-90.411-13.074-89.166-13.074Zm1.475,9.14a2.263,2.263,0,0,0,1.657-.547c.6-.6.711-1.768.317-3.217a8.693,8.693,0,0,0-1.994-3.618,2.122,2.122,0,0,0-1.455-.758c-.862,0-1.768.834-2.7,1.764-1.819,1.819-2.361,2.8-1.006,4.153A8.34,8.34,0,0,0-87.691-3.934Z" transform="translate(94.127 12.574)"/></g><g transform="translate(17.903 13.691)"><path d="M-55.166-54.666a.5.5,0,0,1-.354-.146l-4.275-4.275a.5.5,0,0,1,0-.707.5.5,0,0,1,.707,0l4.275,4.275a.5.5,0,0,1,0,.707A.5.5,0,0,1-55.166-54.666Z" transform="translate(59.441 59.441)"/></g><g transform="translate(25.605 7.689)"><path d="M-106.272-87.364a8.743,8.743,0,0,1-2.882,1.8c-1.755.693-3.673.863-4.661-.125a2.727,2.727,0,0,1-.693-1.941,8.83,8.83,0,0,1,2.37-5.6,2.986,2.986,0,0,1,1.335-.843c1.224-.318,2.324.649,3.525,1.85a13.277,13.277,0,0,1,1.208,1.336,2.345,2.345,0,0,1-.2,3.524" transform="translate(114.508 94.134)" fill="#bbec6b"/></g><g transform="translate(29.31 7.689)"><path d="M-58.457-87.364a8.743,8.743,0,0,1-2.882,1.8c2.17-3.631-.3-7.044-1.649-8.512,1.224-.318,2.324.649,3.525,1.85a13.277,13.277,0,0,1,1.208,1.336,2.345,2.345,0,0,1-.2,3.524" transform="translate(62.988 94.134)" fill="#a1e62d"/></g><g transform="translate(25.605 7.689)"><path d="M-111.8-84.487a3.254,3.254,0,0,1-2.364-.84c-.868-.868-1.073-2.355-.575-4.187a9.619,9.619,0,0,1,2.252-4.063,3.05,3.05,0,0,1,2.162-1.051c1.245,0,2.321.973,3.4,2.057a7.562,7.562,0,0,1,1.906,2.549,2.757,2.757,0,0,1-.9,3.018A9.325,9.325,0,0,1-111.8-84.487Zm1.475-9.14a2.122,2.122,0,0,0-1.455.758,8.692,8.692,0,0,0-1.994,3.618c-.394,1.449-.278,2.622.317,3.217a2.263,2.263,0,0,0,1.657.547,8.34,8.34,0,0,0,5.178-2.224c.89-.89.822-1.526.663-1.981a6.843,6.843,0,0,0-1.669-2.172C-108.559-92.793-109.465-93.627-110.327-93.627Z" transform="translate(114.506 94.127)"/></g><g transform="translate(26.595 11.648)"><path d="M0-54.666a.5.5,0,0,1-.354-.146.5.5,0,0,1,0-.707l4.275-4.275a.5.5,0,0,1,.707,0,.5.5,0,0,1,0,.707L.354-54.812A.5.5,0,0,1,0-54.666Z" transform="translate(0 59.441)"/></g><g transform="translate(20.244 10.563)"><path d="M-107.046-35.163c0,2.552-1.857,6.519-4.148,6.519a2.728,2.728,0,0,1-1.862-.882,8.829,8.829,0,0,1-2.286-5.637c0-2.553,1.857-2.725,4.148-2.725a13.259,13.259,0,0,1,1.8.09,2.345,2.345,0,0,1,2.349,2.635" transform="translate(115.342 37.888)" fill="#bbec6b"/></g><g transform="translate(22.529 10.653)"><path d="M-77.553-34c0,2.552-1.857,6.519-4.148,6.519a2.728,2.728,0,0,1-1.862-.882A8.874,8.874,0,0,0-79.9-36.632,2.345,2.345,0,0,1-77.553-34" transform="translate(83.564 36.632)" fill="#a1e62d"/></g><g transform="translate(20.244 10.563)"><path d="M-111.185-38.388a7.562,7.562,0,0,1,3.15.455,2.757,2.757,0,0,1,1.5,2.77c0,2.761-2,7.019-4.648,7.019s-4.648-4.258-4.648-7.019a2.757,2.757,0,0,1,1.5-2.77A7.562,7.562,0,0,1-111.185-38.388Zm0,9.244c.842,0,1.753-.748,2.5-2.051a8.693,8.693,0,0,0,1.149-3.968c0-1.916-1.075-2.225-3.648-2.225s-3.648.309-3.648,2.225a8.693,8.693,0,0,0,1.149,3.968C-112.938-29.891-112.027-29.143-111.185-29.143Z" transform="translate(115.333 37.888)"/></g><g transform="translate(24.451 13.401)"><path d="M0-77.515a.5.5,0,0,1-.5-.5v-6.046a.5.5,0,0,1,.5-.5.5.5,0,0,1,.5.5v6.046A.5.5,0,0,1,0-77.515Z" transform="translate(0 84.061)"/></g></g></g></g></g></svg>