<svg xmlns="http://www.w3.org/2000/svg" width="82" height="82" viewBox="0 0 82 82"><g transform="translate(-813.051 -3425.986)"><g transform="translate(802.899 3415.927)"><circle cx="36" cy="36" r="36" transform="translate(15.151 15.059)" fill="#aed139"/><path d="M36,0A36,36,0,1,0,72,36,36,36,0,0,0,36,0m0-5A40.989,40.989,0,0,1,64.991,64.991,41,41,0,1,1,20.039-1.776,40.748,40.748,0,0,1,36-5Z" transform="translate(15.151 15.059)" fill="#fff"/></g><g transform="translate(822.032 3433.758)"><path d="M36.17,10.1c.51.08,1.02.18,1.52.3a25.534,25.534,0,1,1-5.74-.64Z" fill="#ffc655"/><circle cx="22.16" cy="22.16" r="22.16" transform="matrix(0.407, -0.914, 0.914, 0.407, 2.745, 46.177)" fill="#a9e5f3"/><path d="M43.27,41.35c0,5.23-5.04,9.46-11.27,9.46s-11.26-4.23-11.26-9.46Z" fill="#7097a0"/><path d="M32,7.02a5.314,5.314,0,0,1,4.53,6.24c-.01,0-5.87-.72-4.53-6.24Z" fill="#7097a0"/><path d="M38.22,9.31s2.29-3.94,7.09-1.54C45.31,7.78,43.61,11.4,38.22,9.31Z" fill="#7097a0"/><path d="M34.77,19.81s1.82-4.44,6.51-2.04c0,0-1.09,3.37-6.51,2.04Z" fill="#7097a0"/><path d="M30.09,18.78s4.68,0,4.08,4.7c-.01,0-4.74-.09-4.08-4.7Z" fill="#7097a0"/><path d="M33.62,28.97s.96-3.22,5.22-1.94C38.84,27.03,37.94,30.48,33.62,28.97Z" fill="#7097a0"/><path d="M31.27,26.31s-4.41.79-3.04,5A4.023,4.023,0,0,0,31.27,26.31Z" fill="#7097a0"/><path d="M25.46,21.81s-2.25-4.29,2.08-6.09A4.9,4.9,0,0,1,25.46,21.81Z" fill="#7097a0"/><path d="M19.01,23.6a7.186,7.186,0,0,1,7.85,1.95S22.46,28.57,19.01,23.6Z" fill="#7097a0"/><path d="M32,58.11A23.155,23.155,0,1,1,55.16,34.96,23.187,23.187,0,0,1,32,58.11ZM32,13.8A21.16,21.16,0,1,0,53.16,34.96,21.181,21.181,0,0,0,32,13.8Z"/><path d="M31.99,51.8c-6.76,0-12.26-4.69-12.26-10.46a1,1,0,0,1,1-1H43.27a1,1,0,0,1,1,1c0,5.77-5.51,10.46-12.28,10.46ZM21.8,42.35c.6,4.19,4.94,7.46,10.19,7.46s9.6-3.26,10.2-7.46Z"/><path d="M29.04,42.35a1,1,0,0,1-1-1c-.11-26.59-14.45-30.6-14.59-30.63a1,1,0,1,1,.5-1.94c.65.17,15.97,4.44,16.09,32.56A1,1,0,0,1,29.04,42.35Z"/><path d="M33.69,42.35a.991.991,0,0,1-.99-.91c-.11-1.16-2.51-28.61,9.48-38.93a1,1,0,1,1,1.3,1.52c-11.21,9.65-8.82,36.96-8.8,37.23a1,1,0,0,1-.9,1.09h-.09Z"/><path d="M36.53,14.26a.487.487,0,0,1-.12-.01,7.3,7.3,0,0,1-4.7-2.67,5.779,5.779,0,0,1-.68-4.8,1.007,1.007,0,0,1,1.1-.76,6.222,6.222,0,0,1,5.39,7.36,1.009,1.009,0,0,1-.99.88Zm-3.72-6a3.3,3.3,0,0,0,.54,2.19A4.488,4.488,0,0,0,35.58,12a4.009,4.009,0,0,0-2.77-3.74Z"/><path d="M41.3,10.96a9.453,9.453,0,0,1-3.44-.72,1.01,1.01,0,0,1-.58-.6.968.968,0,0,1,.08-.83c.95-1.64,3.94-4.16,8.4-1.93a1.006,1.006,0,0,1,.46,1.32,5.461,5.461,0,0,1-4.92,2.76ZM39.99,8.81a4.2,4.2,0,0,0,3.7-.61A3.965,3.965,0,0,0,39.99,8.81Z"/><path d="M37.1,21.12a10.7,10.7,0,0,1-2.57-.34,1,1,0,0,1-.68-1.35,5.949,5.949,0,0,1,3.14-3.07,5.813,5.813,0,0,1,4.76.53,1,1,0,0,1,.5,1.2c-.03.02-1.06,3.03-5.15,3.03Zm-.66-2.04a4.156,4.156,0,0,0,3.34-.85,3.048,3.048,0,0,0-3.34.85Z"/><path d="M34.16,24.48h-.02a5.96,5.96,0,0,1-4.07-1.81,4.866,4.866,0,0,1-.97-4.03,1,1,0,0,1,.99-.86,5.809,5.809,0,0,1,4.02,1.72,5.005,5.005,0,0,1,1.04,4.12A.994.994,0,0,1,34.16,24.48Zm-3.12-4.56a2.477,2.477,0,0,0,.55,1.44,3.259,3.259,0,0,0,1.61.95,2.477,2.477,0,0,0-.59-1.49,3.16,3.16,0,0,0-1.57-.9Z"/><path d="M35.64,30.35a7.171,7.171,0,0,1-2.34-.44,1.01,1.01,0,0,1-.63-1.23,4.366,4.366,0,0,1,2.03-2.41,5.69,5.69,0,0,1,4.43-.2.991.991,0,0,1,.68,1.21,4.353,4.353,0,0,1-2.07,2.57,4.459,4.459,0,0,1-2.1.5Zm-.43-2.03a2.729,2.729,0,0,0,1.57-.23,2.073,2.073,0,0,0,.49-.36A2.759,2.759,0,0,0,35.21,28.32Z"/><path d="M28.23,32.32a1,1,0,0,1-.95-.69,4.652,4.652,0,0,1,.26-3.98,5.67,5.67,0,0,1,3.55-2.32,1,1,0,0,1,1.16.78,4.966,4.966,0,0,1-3.81,6.18.761.761,0,0,1-.21.03Zm2.15-4.64a2.751,2.751,0,0,0-1.13,1,2.228,2.228,0,0,0-.28,1.28A2.741,2.741,0,0,0,30.38,27.68Z"/><path d="M25.46,22.81a1.068,1.068,0,0,1-.25-.03,1.007,1.007,0,0,1-.64-.5,6.256,6.256,0,0,1-.42-4.57,5.073,5.073,0,0,1,3-2.91.992.992,0,0,1,1.29.51,5.878,5.878,0,0,1-2.43,7.34A1.1,1.1,0,0,1,25.46,22.81Zm1.43-5.58a2.6,2.6,0,0,0-.86,1.15,3.4,3.4,0,0,0-.1,1.72,3.652,3.652,0,0,0,.96-2.87Z"/><path d="M23.81,27.47a6.739,6.739,0,0,1-5.62-3.3,1,1,0,0,1-.14-.84.979.979,0,0,1,.55-.64,8.138,8.138,0,0,1,8.97,2.16,1,1,0,0,1-.14,1.53,6.723,6.723,0,0,1-3.62,1.09ZM20.8,24.18a4.2,4.2,0,0,0,4.21,1.12A6.159,6.159,0,0,0,20.8,24.18Z"/><path d="M32,61.73a26.49,26.49,0,0,1-.05-52.98,1,1,0,1,1,0,2,24.5,24.5,0,1,0,5.52.62c-.49-.12-.97-.21-1.46-.29a1,1,0,1,1,.33-1.97c.44.07,1.02.17,1.6.32A26.486,26.486,0,0,1,32,61.73Z"/><path d="M31.95,48.57a6.39,6.39,0,0,1-2.06-.3,1,1,0,0,1,.7-1.87c.11.04,2.21.74,5.13-.9a1,1,0,1,1,.98,1.74A9.6,9.6,0,0,1,31.95,48.57Z"/></g></g></svg>