<svg xmlns="http://www.w3.org/2000/svg" width="82" height="82" viewBox="0 0 82 82"><g transform="translate(6232.051 8179.014)"><g transform="translate(-6242.202 -8189.073)"><circle cx="36" cy="36" r="36" transform="translate(15.151 15.059)" fill="#aed139"/><path d="M36,0A36,36,0,1,0,72,36,36,36,0,0,0,36,0m0-5A40.989,40.989,0,0,1,64.991,64.991,41,41,0,1,1,20.039-1.776,40.748,40.748,0,0,1,36-5Z" transform="translate(15.151 15.059)" fill="#fff"/></g><g transform="translate(-6212.102 -8179.807)"><path d="M33.612,54.334a13,13,0,1,1-26.008,0c0-7.182,5.822-24.13,13-24.13S33.612,47.153,33.612,54.334Z" transform="translate(-6.979 -6.978)" fill="#4e901e"/><path d="M151.673,72.366c-2.46,5.367-4.112,11.856-4.112,16.148a16.306,16.306,0,0,0,5.632,12.331,13.009,13.009,0,0,0,8.867-12.332c0-5.282-3.15-15.848-7.673-21.068A34.726,34.726,0,0,0,151.673,72.366Z" transform="translate(-135.427 -41.157)" fill="#47821c"/><path d="M57.827,101.224a9.68,9.68,0,0,1-9.669-9.669c0-2.842,1.2-8.347,3.506-13.369,2.338-5.1,4.834-7.426,6.164-7.426s3.825,2.324,6.164,7.426c2.3,5.022,3.506,10.527,3.506,13.369A9.68,9.68,0,0,1,57.827,101.224Z" transform="translate(-44.198 -44.198)" fill="#a4e276"/><path d="M152.574,104.888q-.458.882-.9,1.841c-2.46,5.367-4.112,11.856-4.112,16.148a16.25,16.25,0,0,0,3.081,9.538,9.684,9.684,0,0,0,8.083-9.538c0-2.842-1.2-8.347-3.506-13.369A26.1,26.1,0,0,0,152.574,104.888Z" transform="translate(-135.429 -75.521)" fill="#91dc5a"/><path d="M85.359,104.374c-1.638-3.574-3.137-5.25-3.928-5.9a.519.519,0,0,0-.7.016c-.8.66-2.284,2.338-3.908,5.881-2.154,4.7-3.316,9.948-3.316,12.5a7.585,7.585,0,0,0,15.17,0C88.675,114.322,87.512,109.073,85.359,104.374Z" transform="translate(-67.461 -69.518)" fill="#ffdaaa"/><path d="M147.561,146.964a16.237,16.237,0,0,0,1.866,7.576,7.594,7.594,0,0,0,7.214-7.576c0-2.552-1.162-7.8-3.316-12.5a26.506,26.506,0,0,0-1.8-3.329C149.15,136.437,147.561,142.756,147.561,146.964Z" transform="translate(-135.427 -99.608)" fill="#ffc477"/><circle cx="5.106" cy="5.106" r="5.106" transform="translate(8.523 42.177)" fill="#cc7400"/><path d="M149.057,260.67a5.127,5.127,0,0,0-.939.088,27.728,27.728,0,0,0-.556,5.09,16.269,16.269,0,0,0,.779,4.983,5.106,5.106,0,1,0,.716-10.161Z" transform="translate(-135.428 -218.493)" fill="#aa6100"/><path d="M214.124,54.334a13,13,0,0,1-26.008,0c0-7.182,5.822-24.13,13-24.13S214.124,47.153,214.124,54.334Z" transform="translate(-172.647 -6.978)" fill="#5eac24"/><g transform="translate(15.469 23.226)"><path d="M195.117,54.367c0-5.977,4.032-18.718,9.525-22.825A5.858,5.858,0,0,0,201.12,30.2c-7.182,0-13,16.948-13,24.13A13.011,13.011,0,0,0,204.56,66.877,13.009,13.009,0,0,1,195.117,54.367Z" transform="translate(-188.116 -30.204)" fill="#4e901e"/><circle cx="1.401" cy="1.401" r="1.401" transform="translate(11.603 23.189)" fill="#4e901e"/><circle cx="1.401" cy="1.401" r="1.401" transform="translate(19.513 20.202)" fill="#4e901e"/><circle cx="1.401" cy="1.401" r="1.401" transform="translate(13.004 13.039)" fill="#4e901e"/><path d="M380.959,277.129a.623.623,0,1,1,.443-.183A.632.632,0,0,1,380.959,277.129Z" transform="translate(-364.528 -255.676)" fill="#4e901e"/><path d="M405.053,339.929a.623.623,0,1,1,.443-.183A.632.632,0,0,1,405.053,339.929Z" transform="translate(-386.641 -313.313)" fill="#4e901e"/><path d="M308.335,269.525a.623.623,0,1,1,.443-.183A.632.632,0,0,1,308.335,269.525Z" transform="translate(-297.876 -248.699)" fill="#4e901e"/><path d="M420.261,207.064a.623.623,0,1,1,.443-.183A.631.631,0,0,1,420.261,207.064Z" transform="translate(-400.598 -191.374)" fill="#4e901e"/><path d="M375.223,124.435a.623.623,0,1,1,.443-.183A.632.632,0,0,1,375.223,124.435Z" transform="translate(-359.264 -115.539)" fill="#4e901e"/><path d="M363.92,372.88a.623.623,0,1,1,.443-.183A.632.632,0,0,1,363.92,372.88Z" transform="translate(-348.89 -343.554)" fill="#4e901e"/><path d="M448.428,372.12a.6.6,0,0,1-.213-.858,9.908,9.908,0,0,0,.483-.906.625.625,0,1,1,1.133.53,11.2,11.2,0,0,1-.544,1.021A.649.649,0,0,1,448.428,372.12Z" transform="translate(-426.741 -342.055)" fill="#4e901e"/><path d="M387,403.389a.659.659,0,0,1,.343-.815,9.964,9.964,0,0,0,3.741-2.684.625.625,0,0,1,.944.82,11.223,11.223,0,0,1-4.212,3.022C387.741,403.763,387.149,403.95,387,403.389Z" transform="translate(-370.623 -369.293)" fill="#4e901e"/></g><path d="M38.236,32.338C36.569,28.7,33.085,22.6,28.473,22.6c-3.022,0-5.559,2.618-7.419,5.446-2.341-3.567-4.9-5.446-7.425-5.446s-5.02,1.807-7.376,5.37a.625.625,0,0,0,1.043.69c1.45-2.194,3.726-4.809,6.333-4.809,2.741,0,5.122,2.849,6.694,5.373-.434.738-.82,1.468-1.155,2.148-1.9-3.38-3.974-5.437-5.539-5.437-1.92,0-4.563,3.058-6.732,7.791-2.339,5.1-3.562,10.719-3.562,13.629A10.294,10.294,0,0,0,6.887,55.13a.614.614,0,0,0,.882-.062.639.639,0,0,0-.062-.882,9.044,9.044,0,0,1-3.121-6.829c0-2.775,1.185-8.168,3.449-13.108a22.049,22.049,0,0,1,3.359-5.472c1.041-1.172,1.837-1.59,2.236-1.59.77,0,2.762,1.525,4.879,5.6q-.219.493-.428,1a15.861,15.861,0,0,0-3.714-5.308l-.028-.022a1.144,1.144,0,0,0-1.469.041c-.621.515-2.261,2.14-4.077,6.1C6.6,39.376,5.419,44.738,5.419,47.356A8.208,8.208,0,0,0,17.068,54.81q.232.354.484.692a9.027,9.027,0,0,1-8.3-.232.625.625,0,0,0-.607,1.093,10.276,10.276,0,0,0,9.719.128,13.757,13.757,0,0,0,1.594,1.5A12.379,12.379,0,0,1,1.251,47.356c0-3.754,1.563-9.76,3.8-14.6a.625.625,0,1,0-1.135-.524C1.61,37.219,0,43.441,0,47.356A13.631,13.631,0,0,0,21.056,58.785,13.622,13.622,0,0,0,42.1,47.356C42.1,43.48,40.512,37.3,38.236,32.338ZM13.629,54.316a6.967,6.967,0,0,1-6.96-6.96c0-2.486,1.142-7.621,3.259-12.24,1.673-3.651,3.122-5.138,3.7-5.628,2.031,1.723,3.817,5.882,3.824,5.9a48.672,48.672,0,0,0-1.915,6.5,5.731,5.731,0,1,0,.338,10.678q.249.6.552,1.171A6.969,6.969,0,0,1,13.629,54.316Zm1.82-2.939a4.479,4.479,0,1,1-.161-8.257,24.206,24.206,0,0,0-.445,4.237A13.584,13.584,0,0,0,15.449,51.377Zm13.024,8.358A12.393,12.393,0,0,1,16.094,47.357c0-3.716,1.543-9.678,3.752-14.5,2.623-5.724,5.768-9.007,8.627-9.007s6,3.283,8.627,9.007c2.209,4.82,3.752,10.782,3.752,14.5A12.393,12.393,0,0,1,28.472,59.735Z" transform="translate(0 0)"/><path d="M58.752,107.153a.588.588,0,0,0,.846-.257c.1-.179.195-.36.294-.538a.625.625,0,1,0-1.091-.611c-.1.185-.206.373-.306.559A.624.624,0,0,0,58.752,107.153Z" transform="translate(-53.618 -76.016)"/></g></g></svg>