<svg height="63.939" viewBox="0 0 35.653 63.939" width="35.653" xmlns="http://www.w3.org/2000/svg"><g fill="#56681c"><path d="m275.708 70.439h-5.739v-63.939h5.739v52.53h-2v-50.53h-1.739v59.939h1.739v-7.539h2z" transform="translate(-251.273 -6.5)"/><path d="m3.739 1h-3.739v-2h3.739z" transform="translate(19.696 8.61)"/><path d="m3.739 1h-3.739v-2h3.739z" transform="translate(19.696 12.333)"/><path d="m3.739 1h-3.739v-2h3.739z" transform="translate(19.696 16.074)"/><path d="m179.017 84.834h-5.735v-46.948h2v44.948h1.735v-50.925a2.782 2.782 0 0 0 -.815-1.975l-4.552-4.574-1.183 1.183 4.814 4.814v4.675h-2v-3.846l-5.643-5.643 4.015-4.015 5.965 6a4.77 4.77 0 0 1 1.4 3.386z" transform="translate(-162.06 -20.894)"/><path d="m342.7 179.927h3.262v3.262a5.294 5.294 0 0 1 -5.288 5.288h-3.262v-3.262a5.294 5.294 0 0 1 5.288-5.288zm1.262 2h-1.262a3.292 3.292 0 0 0 -3.288 3.288v1.262h1.262a3.292 3.292 0 0 0 3.288-3.288z" transform="translate(-310.31 -158.311)"/><path d="m.707 5.374-1.414-1.414 4.667-4.667 1.414 1.414z" transform="translate(23.436 29.167)"/><path d="m342.7 284.927h3.262v3.262a5.294 5.294 0 0 1 -5.288 5.288h-3.262v-3.262a5.294 5.294 0 0 1 5.288-5.288zm1.262 2h-1.262a3.292 3.292 0 0 0 -3.288 3.288v1.262h1.262a3.292 3.292 0 0 0 3.288-3.288z" transform="translate(-310.31 -250.223)"/><path d="m.707 5.374-1.414-1.414 4.667-4.667 1.414 1.414z" transform="translate(23.436 42.254)"/><path d="m119.969 239.927h3.262a5.294 5.294 0 0 1 5.288 5.288v3.262h-3.262a5.294 5.294 0 0 1 -5.288-5.288zm6.551 6.551v-1.262a3.292 3.292 0 0 0 -3.288-3.288h-1.262v1.262a3.292 3.292 0 0 0 3.288 3.288z" transform="translate(-119.969 -210.832)"/><path d="m3.96 5.374-4.667-4.667 1.414-1.414 4.667 4.667z" transform="translate(7.551 36.646)"/><path d="m119.969 344.926h3.262a5.294 5.294 0 0 1 5.288 5.288v3.262h-3.262a5.294 5.294 0 0 1 -5.288-5.288zm6.551 6.551v-1.262a3.292 3.292 0 0 0 -3.288-3.288h-1.262v1.262a3.292 3.292 0 0 0 3.288 3.288z" transform="translate(-119.969 -302.744)"/><path d="m3.96 5.374-4.667-4.667 1.414-1.414 4.667 4.667z" transform="translate(7.551 49.733)"/></g></svg>