<svg height="82" viewBox="0 0 82 82" width="82" xmlns="http://www.w3.org/2000/svg"><circle cx="41" cy="41" fill="#aed139" r="36"/><path d="m36 0a36 36 0 1 0 36 36 36 36 0 0 0 -36-36m0-5a40.989 40.989 0 0 1 28.991 69.991 41 41 0 1 1 -44.952-66.767 40.748 40.748 0 0 1 15.961-3.224z" fill="#fff" transform="translate(5 5)"/><path d="m41.716 400a1.716 1.716 0 1 1 -1.716 1.716 1.716 1.716 0 0 1 1.716-1.716z" fill="#73665c" transform="translate(-16.951 -346.972)"/><circle cx="58.704" cy="46.486" fill="#73665c" r="2.346"/><path d="m68.617 40.858-3.433 4.291-9.074-.395-7.66-.333-3-.13-6.865 2.574-8.585-4.291 3.433-1.716 5.149 2.574 6.865-2.574 18.021.858 2.574-1.716z" fill="#73665c" transform="translate(-7.809 -17.865)"/><g fill="#a5c63b"><path d="m73.24 140.058a2.61 2.61 0 0 1 -3.182 3.182 2.61 2.61 0 0 1 3.182-3.182z" transform="translate(-44.374 -109.281)"/><path d="m164.058 108.277a2.737 2.737 0 0 1 .681 2.5 2.609 2.609 0 0 1 -3.182-3.181 2.736 2.736 0 0 1 2.501.681z" transform="translate(-128.02 -79.606)"/><path d="m354.058 132.237a2.736 2.736 0 0 1 .681 2.5 2.61 2.61 0 0 1 -3.182-3.182 2.736 2.736 0 0 1 2.501.682z" transform="translate(-301.716 -101.509)"/><path d="m145.039 180.916a5.9 5.9 0 0 1 -1.317-4.062c.007-.124.01-.25.009-.377a6.5 6.5 0 0 0 -13.008.027c0 .118 0 .235.009.352a5.852 5.852 0 0 1 -1.31 4.05 10.118 10.118 0 1 0 15.617.009z" transform="translate(-96.586 -136.71)"/></g><path d="m451.064 170.025a.858.858 0 1 1 -1.04.625.858.858 0 0 1 1.04-.625z" transform="translate(-391.764 -136.709)"/><path d="m451.066 390.025a.858.858 0 1 1 -1.041.624.859.859 0 0 1 1.041-.624z" transform="translate(-391.766 -337.829)"/><path d="m401.066 440.025a.858.858 0 1 1 -1.041.624.859.859 0 0 1 1.041-.624z" transform="translate(-346.057 -383.538)"/><path d="m381.066 240.025a.858.858 0 1 1 -1.041.624.859.859 0 0 1 1.041-.624z" transform="translate(-327.773 -200.701)"/><path d="m191.066 290.025a.858.858 0 1 1 -1.041.624.859.859 0 0 1 1.041-.624z" transform="translate(-154.077 -246.411)"/><path d="m111.066 260.025a.858.858 0 1 1 -1.041.624.859.859 0 0 1 1.041-.624z" transform="translate(-80.943 -218.985)"/><path d="m61.066 340.025a.858.858 0 1 1 -1.041.624.859.859 0 0 1 1.041-.624z" transform="translate(-35.233 -292.12)"/><path d="m51.066 230.025a.858.858 0 1 1 -1.041.624.859.859 0 0 1 1.041-.624z" transform="translate(-26.092 -191.56)"/><path d="m128.084 189.177h-.07a10.976 10.976 0 0 1 -8.4-17.959 4.99 4.99 0 0 0 1.115-3.459c-.007-.138-.011-.271-.011-.4a7.362 7.362 0 0 1 14.724-.031c0 .137 0 .282-.011.427a5.026 5.026 0 0 0 1.123 3.47 10.975 10.975 0 0 1 -8.476 17.949zm0-27.461a5.652 5.652 0 0 0 -5.646 5.646c0 .1 0 .2.008.308a6.7 6.7 0 0 1 -1.506 4.641 9.26 9.26 0 0 0 7.083 15.15h.059a9.258 9.258 0 0 0 7.151-15.141 6.739 6.739 0 0 1 -1.512-4.653c.006-.115.009-.221.008-.326a5.657 5.657 0 0 0 -5.644-5.625z" transform="translate(-87.443 -127.568)"/><path d="m168.46 332.062h-.006a7.182 7.182 0 0 1 -5.493-11.751.858.858 0 1 1 1.323 1.093 5.465 5.465 0 0 0 4.18 8.942.858.858 0 0 1 -.005 1.716z" transform="translate(-127.86 -273.836)"/><path d="m29.44 38.582a.858.858 0 0 1 -.384-.091l-8.582-4.291a.858.858 0 0 1 0-1.535l3.433-1.716a.858.858 0 0 1 .768 0l4.814 2.407 6.511-2.442a.858.858 0 0 1 .342-.054l17.739.845 2.34-1.56a.858.858 0 0 1 .747-.1l2.574.858a.858.858 0 0 1 .4 1.35l-3.433 4.291a.862.862 0 0 1 -.707.321l-19.563-.851-6.7 2.513a.86.86 0 0 1 -.3.055zm-6.663-5.149 6.712 3.356 6.511-2.443a.857.857 0 0 1 .339-.054l19.3.839 2.392-2.99-1.009-.336-2.222 1.484a.857.857 0 0 1 -.517.143l-17.845-.85-6.7 2.512a.858.858 0 0 1 -.685-.036l-4.765-2.383z" transform="translate(1.333 -8.724)"/><path d="m235.858 89.971a.858.858 0 0 1 -.858-.858v-6.735a.858.858 0 0 1 1.716 0v6.735a.858.858 0 0 1 -.858.858z" transform="translate(-195.217 -55.822)"/><path d="m61.528 135.018a4.135 4.135 0 0 1 -.788-.077.858.858 0 0 1 -.678-.678 3.573 3.573 0 0 1 .916-3.272 3.479 3.479 0 0 1 2.485-.991 4.125 4.125 0 0 1 .788.077.858.858 0 0 1 .678.678 3.571 3.571 0 0 1 -.916 3.273 3.475 3.475 0 0 1 -2.485.99zm1.754-3.3a1.656 1.656 0 0 0 -1.574 1.573 1.656 1.656 0 0 0 1.574-1.573z" transform="translate(-35.219 -100.139)"/><path d="m344.961 126.517a3.478 3.478 0 0 1 -2.485-.993 3.571 3.571 0 0 1 -.916-3.273.858.858 0 0 1 .678-.678 4.128 4.128 0 0 1 .788-.077 3.475 3.475 0 0 1 2.484.993 3.571 3.571 0 0 1 .916 3.273.858.858 0 0 1 -.678.678 4.125 4.125 0 0 1 -.787.077zm-1.755-3.3a1.656 1.656 0 0 0 1.574 1.573 1.656 1.656 0 0 0 -1.574-1.573z" transform="translate(-292.561 -92.368)"/><path d="m154.962 102.557a3.475 3.475 0 0 1 -2.484-.993 3.57 3.57 0 0 1 -.916-3.272.858.858 0 0 1 .678-.678 4.128 4.128 0 0 1 .788-.077 3.475 3.475 0 0 1 2.484.993 3.572 3.572 0 0 1 .916 3.272.858.858 0 0 1 -.678.678 4.129 4.129 0 0 1 -.788.077zm-1.754-3.3a1.656 1.656 0 0 0 1.573 1.573 1.656 1.656 0 0 0 -1.573-1.573z" transform="translate(-118.867 -70.465)"/><path d="m32.574 395.149a2.574 2.574 0 1 1 2.574-2.574 2.577 2.577 0 0 1 -2.574 2.574zm0-3.433a.858.858 0 1 0 .858.858.859.859 0 0 0 -.858-.858z" transform="translate(-7.809 -337.83)"/><path d="m423 296.007a3 3 0 1 1 3-3 3.007 3.007 0 0 1 -3 3zm0-4.291a1.287 1.287 0 1 0 1.291 1.284 1.289 1.289 0 0 0 -1.291-1.284z" transform="translate(-364.341 -246.412)"/><path d="m365.146 24.288a.854.854 0 0 1 -.441-.122l-4.291-2.574a.858.858 0 1 1 .883-1.472l4.291 2.574a.858.858 0 0 1 -.442 1.594z" transform="translate(-309.488 .421)"/><path d="m300.858 89.227a.858.858 0 0 1 -.611-1.461l2.082-2.111a.858.858 0 0 1 1.222 1.205l-2.082 2.111a.856.856 0 0 1 -.611.256z" transform="translate(-254.639 -59.369)"/><path d="m120.855 44.288a.859.859 0 0 1 -.814-1.13l.858-2.574a.858.858 0 0 1 1.628.543l-.858 2.574a.858.858 0 0 1 -.814.587z" transform="translate(-90.082 -17.863)"/></svg>