<svg xmlns="http://www.w3.org/2000/svg" xmlns:xlink="http://www.w3.org/1999/xlink" width="190" height="93" viewBox="0 0 190 93"><defs><clipPath id="a"><path d="M0-682.665H72.684v72.684H0Z" transform="translate(0 682.665)"/></clipPath></defs><g transform="translate(-1230.051 -1636)"><rect width="190" height="93" transform="translate(1230.051 1636)" fill="#e8f3f1"/><g transform="translate(1289.051 2328.666)"><path d="M462.171-581.121H437.318v-4.519h24.853Z" transform="translate(-390.756 -86.695)" fill="#cdd2e1"/><path d="M462.171-300.738H437.318v-9.037h24.853Z" transform="translate(-390.756 -333.188)" fill="#cdd2e1"/><path d="M462.171-518.346H437.318V-543.2h24.853Z" transform="translate(-390.756 -124.617)" fill="#b5efff"/><path d="M642.3-518.346H638.91V-543.2H642.3Z" transform="translate(-570.885 -124.617)" fill="#80dbff"/><path d="M642.3-581.121h-3.389v-4.519H642.3Z" transform="translate(-570.885 -86.695)" fill="#afb4c8"/><path d="M642.3-300.738h-3.389v-9.037H642.3Z" transform="translate(-570.885 -333.188)" fill="#afb4c8"/><g transform="translate(0.245 -622.629)"><path d="M-483.5,0l-2.259,2.259h-18.075L-506.1,0h-14.686l-2.259,2.259h-3.389L-528.692,0h-12.427V12.426h72.3V0Z" transform="translate(541.119)" fill="#a65d4e"/></g><path d="M2.3-30.523H74.6v-3.389H2.3Z" transform="translate(-2.055 -579.679)" fill="#e0aea2"/><path d="M2.3-62.352H74.6v-3.389H2.3Z" transform="translate(-2.055 -551.239)" fill="#c38778"/><g transform="translate(0 -682.665)"><g transform="translate(0 0)" clip-path="url(#a)"><g transform="translate(23.968 26.146)"><path d="M-56.883-85.325h-6.778v-4.519s2.259-5.648,10.167-5.648h2.259l4.519,4.519a12.515,12.515,0,0,1-10.167,5.648" transform="translate(63.661 95.492)" fill="#c2fa93"/></g><g transform="translate(23.968 28.562)"><path d="M-124.561,0a12.186,12.186,0,0,1-9.194,4.362H-139.4V7.751h6.778A12.515,12.515,0,0,0-122.458,2.1Z" transform="translate(139.404)" fill="#8edf78"/></g><g transform="translate(7.023 26.146)"><path d="M-142.206-75.844v1.13h-6.778a12.514,12.514,0,0,1-10.167-5.649l4.519-4.519h2.259c7.908,0,10.167,5.648,10.167,5.648Z" transform="translate(159.152 84.881)" fill="#c2fa93"/></g><g transform="translate(23.968 43.091)"><path d="M-56.883-85.325h-6.778v-4.519s2.259-5.648,10.167-5.648h2.259l4.519,4.519a12.515,12.515,0,0,1-10.167,5.648" transform="translate(63.661 95.492)" fill="#c2fa93"/></g><g transform="translate(23.968 45.507)"><path d="M-124.561,0a12.186,12.186,0,0,1-9.194,4.362H-139.4V7.751h6.778A12.515,12.515,0,0,0-122.458,2.1Z" transform="translate(139.404)" fill="#8edf78"/></g><g transform="translate(7.023 43.091)"><path d="M-142.206-75.844v1.13h-6.778a12.514,12.514,0,0,1-10.167-5.649l4.519-4.519h2.259c7.908,0,10.167,5.648,10.167,5.648Z" transform="translate(159.152 84.881)" fill="#c2fa93"/></g><g transform="translate(55.599 23.887)"><path d="M-56.883-28.442a3.389,3.389,0,0,1-3.389,3.389,3.389,3.389,0,0,1-3.389-3.389,3.389,3.389,0,0,1,3.389-3.389,3.389,3.389,0,0,1,3.389,3.389" transform="translate(63.661 31.831)" fill="#ffee6e"/></g><g transform="translate(7.023 43.091)"><path d="M-38.337-1h2.674a12.566,12.566,0,0,1,8.722,3.084,9.607,9.607,0,0,1,2.374,3.193l.072.179v5.711h-7.778A12.8,12.8,0,0,1-40.54,8.111,13.5,13.5,0,0,1-43.3,5.033l-.4-.67ZM-26.5,5.868A8.188,8.188,0,0,0-28.36,3.5a10.626,10.626,0,0,0-7.3-2.5h-1.845l-3.631,3.631A12.637,12.637,0,0,0-39.205,6.62a10.671,10.671,0,0,0,6.931,2.548H-26.5Z" transform="translate(42.441)" fill="#231f20"/></g><g transform="translate(23.968 43.091)"><path d="M6.778-84.325H-1v-5.711l.072-.179a9.607,9.607,0,0,1,2.374-3.193,12.566,12.566,0,0,1,8.722-3.084h2.674L18.2-91.128l-.4.67a13.5,13.5,0,0,1-2.759,3.078A12.8,12.8,0,0,1,6.778-84.325ZM1-86.325H6.778a10.671,10.671,0,0,0,6.931-2.548,12.634,12.634,0,0,0,1.934-1.989l-3.631-3.631H10.167a10.626,10.626,0,0,0-7.3,2.5A8.189,8.189,0,0,0,1-89.624Z" transform="translate(0 95.492)" fill="#231f20"/></g><g transform="translate(7.023 26.146)"><path d="M-38.337-1h2.674a12.566,12.566,0,0,1,8.722,3.084,9.607,9.607,0,0,1,2.374,3.193l.072.179v5.711h-7.778A12.8,12.8,0,0,1-40.54,8.111,13.5,13.5,0,0,1-43.3,5.033l-.4-.67ZM-26.5,5.868A8.188,8.188,0,0,0-28.36,3.5a10.626,10.626,0,0,0-7.3-2.5h-1.845l-3.631,3.631A12.637,12.637,0,0,0-39.205,6.62a10.671,10.671,0,0,0,6.931,2.548H-26.5Z" transform="translate(42.441)" fill="#231f20"/></g><g transform="translate(23.968 26.146)"><path d="M6.778-84.325H-1v-5.711l.072-.179a9.607,9.607,0,0,1,2.374-3.193,12.566,12.566,0,0,1,8.722-3.084h2.674L18.2-91.128l-.4.67a13.5,13.5,0,0,1-2.759,3.078A12.8,12.8,0,0,1,6.778-84.325ZM1-86.325H6.778a10.671,10.671,0,0,0,6.931-2.548,12.634,12.634,0,0,0,1.934-1.989l-3.631-3.631H10.167a10.626,10.626,0,0,0-7.3,2.5A8.189,8.189,0,0,0,1-89.624Z" transform="translate(0 95.492)" fill="#231f20"/></g><g transform="translate(23.968 36.313)"><path d="M1,11.3H-1V0H1Z" transform="translate(0)" fill="#231f20"/></g><g transform="translate(23.968 53.258)"><path d="M1-56.883H-1v-6.778H1Z" transform="translate(0 63.661)" fill="#231f20"/></g><g transform="translate(23.968 30.665)"><path d="M.706-37.214-.707-38.63c.2-.2,4.881-4.812,10.874-4.812v2C5.015-41.441.749-37.257.706-37.214Z" transform="translate(0 42.441)" fill="#231f20"/></g><g transform="translate(13.801 30.665)"><path d="M-86.031-37.214h0c-.083-.082-4.333-4.226-9.46-4.226v-2c5.994,0,10.678,4.615,10.874,4.812Z" transform="translate(95.492 42.441)" fill="#231f20"/></g><g transform="translate(23.968 47.61)"><path d="M.706-37.214-.707-38.63c.2-.2,4.881-4.812,10.874-4.812v2C5.015-41.441.749-37.257.706-37.214Z" transform="translate(0 42.441)" fill="#231f20"/></g><g transform="translate(13.801 47.61)"><path d="M-86.031-37.214h0c-.083-.082-4.333-4.226-9.46-4.226v-2c5.994,0,10.678,4.615,10.874,4.812Z" transform="translate(95.492 42.441)" fill="#231f20"/></g><g transform="translate(46.562 10.33)"><path d="M-80.249,39.409H-107.1V-1h8.908V1H-105.1V37.409h22.853V1H-94.806V-1h14.556Z" transform="translate(106.102)" fill="#231f20"/></g><g transform="translate(47.692 60.036)"><path d="M8.322-17.961H0v-2H7.494L9.753-22.22h15.1v2H10.581Z" transform="translate(0 21.22)" fill="#231f20"/></g><g transform="translate(0.245 60.036)"><path d="M44.058,3.259H36.865L34.606,1H20.749L18.489,3.259H14.272L12.012,1H0V-1H12.841L15.1,1.259h2.561L19.92-1H35.434l2.259,2.259h6.364Z" fill="#231f20"/></g><g transform="translate(46.562 14.849)"><path d="M24.853,1H0V-1H24.853Z" fill="#231f20"/></g><g transform="translate(46.562 39.702)"><path d="M24.853,1H0V-1H24.853Z" transform="translate(0 0)" fill="#231f20"/></g><g transform="translate(56.729 44.221)"><path d="M4.519,1H0V-1H4.519Z" transform="translate(0 0)" fill="#fff"/></g><g transform="translate(0.245 67.944)"><path d="M20.334,1H0V-1H20.334Z" fill="#231f20"/></g><g transform="translate(56.729 66.814)"><path d="M15.816,1H0V-1H15.816Z" transform="translate(0 0)" fill="#231f20"/></g><g transform="translate(52.21 66.814)"><path d="M2.259,1H0V-1H2.259Z" transform="translate(0 0)" fill="#231f20"/></g><g transform="translate(22.839 67.944)"><path d="M2.259,1H0V-1H2.259Z" fill="#fff"/></g><g transform="translate(35.265 69.074)"><path d="M2.259,1H0V-1H2.259Z" transform="translate(0 0)" fill="#231f20"/></g><g transform="translate(39.784 69.074)"><path d="M2.259,1H0V-1H2.259Z" transform="translate(0 0)" fill="#fff"/></g><g transform="translate(55.599 23.887)"><path d="M-60.272-32.831a4.394,4.394,0,0,1,4.389,4.389,4.394,4.394,0,0,1-4.389,4.389,4.394,4.394,0,0,1-4.389-4.389A4.394,4.394,0,0,1-60.272-32.831Zm0,6.778a2.392,2.392,0,0,0,2.389-2.389,2.392,2.392,0,0,0-2.389-2.389,2.392,2.392,0,0,0-2.389,2.389A2.392,2.392,0,0,0-60.272-26.052Z" transform="translate(63.661 31.831)" fill="#231f20"/></g><g transform="translate(58.988 20.498)"><path d="M1-28.442H-1v-3.389H1Z" transform="translate(0 31.831)" fill="#231f20"/></g><g transform="translate(58.988 30.665)"><path d="M1-28.442H-1v-3.389H1Z" transform="translate(0 31.831)" fill="#231f20"/></g><g transform="translate(62.377 27.276)"><path d="M3.389,1H0V-1H3.389Z" fill="#231f20"/></g><g transform="translate(52.21 27.276)"><path d="M3.389,1H0V-1H3.389Z" fill="#231f20"/></g><g transform="translate(54.47 22.757)"><path d="M-19.668-18.254l-2.259-2.259,1.414-1.414,2.259,2.259Z" transform="translate(21.22 21.22)" fill="#231f20"/></g><g transform="translate(61.248 22.757)"><path d="M.707-18.253-.707-19.668l2.259-2.259,1.414,1.414Z" transform="translate(0 21.22)" fill="#231f20"/></g><g transform="translate(61.248 29.535)"><path d="M1.552,2.967-.707.707.707-.707,2.967,1.552Z" fill="#231f20"/></g><g transform="translate(54.47 29.535)"><path d="M-20.513,2.967l-1.414-1.414,2.259-2.259L-18.253.707Z" transform="translate(21.22)" fill="#231f20"/></g><g transform="translate(20.579 19.368)"><path d="M0,0H6.778A3.389,3.389,0,0,1,0,0" fill="#ffee6e"/></g><g transform="translate(13.801 14.849)"><path d="M-170.648,0V4.519h-20.334V0h20.334Z" transform="translate(190.982)" fill="#dce1eb"/></g><g transform="translate(16.06 6.941)"><path d="M-132.727-66.363h-15.816a7.9,7.9,0,0,1,7.908-7.908,7.9,7.9,0,0,1,7.908,7.908" transform="translate(148.542 74.27)" fill="#cdd2e1"/></g><g transform="translate(16.82 6.941)"><path d="M16.056-34.531h-2a6.864,6.864,0,0,0-2.022-4.886,6.864,6.864,0,0,0-4.886-2.022,6.888,6.888,0,0,0-3.741,1.1,6.914,6.914,0,0,0-2.5,2.85L-.9-38.349a8.913,8.913,0,0,1,3.227-3.674,8.884,8.884,0,0,1,4.825-1.416,8.851,8.851,0,0,1,6.3,2.607A8.851,8.851,0,0,1,16.056-34.531Z" transform="translate(0 42.439)" fill="#231f20"/></g><g transform="translate(13.801 14.849)"><path d="M-170.762-1h22.334V5.519h-22.334Zm20.334,2h-18.334V3.519h18.334Z" transform="translate(169.762)" fill="#231f20"/></g><g transform="translate(20.579 19.368)"><path d="M-60.272,4.389A4.394,4.394,0,0,1-64.661,0h2a2.392,2.392,0,0,0,2.389,2.389A2.392,2.392,0,0,0-57.883,0h2A4.394,4.394,0,0,1-60.272,4.389Z" transform="translate(63.661)" fill="#231f20"/></g><g transform="translate(23.968 0.163)"><path d="M1-56.883H-1v-6.778H1Z" transform="translate(0 63.661)" fill="#231f20"/></g></g></g></g></g></svg>