<svg xmlns="http://www.w3.org/2000/svg" xmlns:xlink="http://www.w3.org/1999/xlink" width="132" height="132" viewBox="0 0 132 132"><defs><clipPath id="a"><path d="M0-682.665H105.372v105.372H0Z" transform="translate(0 682.665)"/></clipPath></defs><g transform="translate(-13900.508 8127.635)"><rect width="132" height="132" transform="translate(13900.508 -8127.635)" fill="none"/><g transform="translate(13914.508 -7431.97)"><g transform="translate(0 -682.665)"><g clip-path="url(#a)"><g transform="translate(14.889 72.634)"><path d="M-187.88-170.9h-25.783a4.211,4.211,0,0,1-4.162-3.555l-4.349-27.64h42.8l-4.349,27.64a4.211,4.211,0,0,1-4.162,3.555" transform="translate(222.173 202.097)" fill="#e6b67c"/></g><g transform="translate(40.95 72.634)"><path d="M-46.624,0l-4.349,27.64a4.211,4.211,0,0,1-4.162,3.555H-46.9a4.211,4.211,0,0,0,4.162-3.555L-38.392,0Z" transform="translate(55.135)" fill="#deac6f"/></g><g transform="translate(9.87 64.27)"><path d="M-277.97-45.821H-326.6a2.105,2.105,0,0,1-2.1-2.105V-52.08a2.1,2.1,0,0,1,2.1-2.105h48.632a2.105,2.105,0,0,1,2.105,2.105v4.153a2.105,2.105,0,0,1-2.105,2.105" transform="translate(328.707 54.185)" fill="#d1974f"/></g><g transform="translate(52.375 64.27)"><path d="M-45.1,0h-8.232a2.105,2.105,0,0,1,2.105,2.105V6.259a2.105,2.105,0,0,1-2.105,2.105H-45.1A2.105,2.105,0,0,0-43,6.259V2.105A2.105,2.105,0,0,0-45.1,0" transform="translate(53.333)" fill="#b88545"/></g><g transform="translate(30.579 1.544)"><path d="M-90.779-91.711c-1.343,8.534-10.633,14.163-10.633,14.163s-7.111-8.206-5.768-16.74,10.633-14.163,10.633-14.163,7.111,8.206,5.768,16.74" transform="translate(107.349 108.45)" fill="#45ad4c"/></g><g transform="translate(21.51 7.883)"><path d="M-80.826-47.719c3.725,6.783.227,15.854.227,15.854s-9.538-1.927-13.263-8.71-.227-15.854-.227-15.854,9.538,1.927,13.263,8.71" transform="translate(95.579 56.429)" fill="#90ef96"/></g><g transform="translate(22.152 7.883)"><path d="M-77.312-47.719c-3.725-6.783-13.263-8.71-13.263-8.71a23.173,23.173,0,0,0-.849,2.946,15.764,15.764,0,0,1,5.879,5.764c2.4,4.364,1.8,9.674,1.075,12.907a26.356,26.356,0,0,0,7.384,2.946s3.5-9.071-.227-15.854" transform="translate(91.424 56.429)" fill="#87de8d"/></g><g transform="translate(18.169 32.921)"><path d="M-4.038-65.637c2.206,5.449,9.23,7.751,9.23,7.751S8.64-64.418,6.434-69.867-2.8-77.617-2.8-77.617s-3.448,6.532-1.242,11.981" transform="translate(4.775 77.617)" fill="#45ad4c"/></g><g transform="translate(1.544 40.173)"><path d="M-86.108-4.291C-78.825-1.658-75.451,7.459-75.451,7.459s-8.434,4.849-15.717,2.216S-101.825-2.076-101.825-2.076s8.434-4.849,15.717-2.216" transform="translate(101.825 5.075)" fill="#90ef96"/></g><g transform="translate(8.181 40.173)"><path d="M-49.743-4.291a16.323,16.323,0,0,0-9.079-.271c.284.08.566.169.847.271C-50.692-1.658-47.318,7.46-47.318,7.46a26.383,26.383,0,0,1-6.638,2.486c7.074,1.994,14.87-2.486,14.87-2.486S-42.46-1.658-49.743-4.291" transform="translate(58.823 5.074)" fill="#87de8d"/></g><g transform="translate(44.063 24.177)"><path d="M-83.368-83.274C-88.844-77.8-98.541-78.62-98.541-78.62s-.817-9.686,4.66-15.157,15.174-4.654,15.174-4.654.817,9.686-4.659,15.157" transform="translate(98.585 98.474)" fill="#90ef96"/></g><g transform="translate(44.069 24.177)"><path d="M-108.863-.235A26.33,26.33,0,0,0-117.057.6c.054,2.468-.193,9.818-4.7,14.317a15.6,15.6,0,0,1-6.979,3.815c.012.533.037.839.037.839s9.7.816,15.174-4.654,4.659-15.157,4.659-15.157" transform="translate(128.733 0.278)" fill="#87de8d"/></g><g transform="translate(70.59 1.612)"><path d="M-158.547,0h-19.48a4.3,4.3,0,0,0-4.3,4.3V82.208l-5.16,3.719,5.16,3.719v8.188a4.3,4.3,0,0,0,4.3,4.3h19.48a4.3,4.3,0,0,0,4.3-4.3V4.3a4.3,4.3,0,0,0-4.3-4.3" transform="translate(187.486)" fill="#e9f1ff"/></g><g transform="translate(91.297 1.612)"><path d="M-45.1,0h-8.232a4.3,4.3,0,0,1,4.3,4.3V97.834a4.3,4.3,0,0,1-4.3,4.3H-45.1a4.3,4.3,0,0,0,4.3-4.3V4.3A4.3,4.3,0,0,0-45.1,0" transform="translate(53.333)" fill="#dde9ff"/></g><g transform="translate(86.237 11.255)"><path d="M-38.926-47.441a3.553,3.553,0,0,1-3.553,3.552,3.552,3.552,0,0,1-3.552-3.552c0-1.962,3.552-8.659,3.552-8.659s3.553,6.7,3.553,8.659" transform="translate(46.031 56.1)" fill="#fff"/></g><g transform="translate(85.716 48.72)"><path d="M-44.632-22.316a4.073,4.073,0,0,1-4.073,4.073,4.073,4.073,0,0,1-4.073-4.073,4.073,4.073,0,0,1,4.073-4.073,4.073,4.073,0,0,1,4.073,4.073" transform="translate(52.779 26.389)" fill="#fff"/></g><g transform="translate(14.889 72.634)"><path d="M-227.6-65.755h-25.783A5.219,5.219,0,0,1-256.774-67a5.21,5.21,0,0,1-1.762-3.15l-4.349-27.64a1,1,0,0,1,.228-.805,1,1,0,0,1,.76-.35h42.8a1,1,0,0,1,.76.35,1,1,0,0,1,.228.805l-2.379,15.119a1,1,0,0,1-1.143.832,1,1,0,0,1-.832-1.143l2.2-13.963h-40.464l4.167,26.484a3.2,3.2,0,0,0,3.174,2.71H-227.6a3.2,3.2,0,0,0,3.174-2.71l.7-4.44a1,1,0,0,1,1.143-.832,1,1,0,0,1,.832,1.143l-.7,4.44A5.211,5.211,0,0,1-224.216-67,5.219,5.219,0,0,1-227.6-65.755Z" transform="translate(261.897 97.949)"/></g><g transform="translate(9.87 64.27)"><path d="M-277.97-44.821H-326.6a3.109,3.109,0,0,1-3.1-3.105V-52.08a3.109,3.109,0,0,1,3.1-3.105h48.632a3.109,3.109,0,0,1,3.105,3.105v4.153A3.109,3.109,0,0,1-277.97-44.821ZM-326.6-53.185a1.106,1.106,0,0,0-1.1,1.105v4.153a1.106,1.106,0,0,0,1.1,1.105h48.632a1.106,1.106,0,0,0,1.105-1.105V-52.08a1.106,1.106,0,0,0-1.105-1.105Z" transform="translate(328.707 54.185)"/></g><g transform="translate(36.281 32.629)"><path d="M0-172.276a1,1,0,0,1-1-1V-204.9a1,1,0,0,1,1-1,1,1,0,0,1,1,1v31.628A1,1,0,0,1,0-172.276Z" transform="translate(0 204.903)"/></g><g transform="translate(31.931 1.543)"><path d="M4.586-34.86a1,1,0,0,1-.856-.482,1,1,0,0,1,.337-1.373,28.311,28.311,0,0,0,4.66-3.77,23.142,23.142,0,0,0,3.425-4.271A14.866,14.866,0,0,0,14.23-50.18a14.86,14.86,0,0,0-.312-5.8,23.122,23.122,0,0,0-1.947-5.115,29.767,29.767,0,0,0-2.732-4.333,29.568,29.568,0,0,0-2.8,2.215A22.85,22.85,0,0,0,.91-56.043a1,1,0,0,1-1.325.494A1,1,0,0,1-.91-56.874a24.877,24.877,0,0,1,6.054-7.857,28.459,28.459,0,0,1,3.787-2.887,1,1,0,0,1,1.274.2,29.72,29.72,0,0,1,3.521,5.366,25.179,25.179,0,0,1,2.129,5.577,16.857,16.857,0,0,1,.351,6.607,16.863,16.863,0,0,1-2.364,6.181,25.2,25.2,0,0,1-3.74,4.655,29.749,29.749,0,0,1-5,4.027A1,1,0,0,1,4.586-34.86Z" transform="translate(0 66.764)"/></g><g transform="translate(21.511 7.883)"><path d="M1.185-81.65a1,1,0,0,1-.2-.02,26.6,26.6,0,0,1-5.15-1.744,23.456,23.456,0,0,1-4.42-2.575,15.954,15.954,0,0,1-3.926-4.138,1,1,0,0,1,.3-1.381,1,1,0,0,1,1.381.3c3,4.7,9.109,6.747,11.354,7.361a26.575,26.575,0,0,0,.952-4.369c.347-2.681.385-6.559-1.4-9.812S-5-103.328-7.451-104.476a26.65,26.65,0,0,0-4.2-1.546A25.407,25.407,0,0,0-12.794-98.6a1,1,0,0,1-.991,1.009,1,1,0,0,1-1.009-.991,26.94,26.94,0,0,1,1.556-9,1,1,0,0,1,1.131-.62,26.783,26.783,0,0,1,5.459,1.885,22.7,22.7,0,0,1,4.587,2.8,15.222,15.222,0,0,1,3.9,4.522,15.2,15.2,0,0,1,1.725,5.712,22.645,22.645,0,0,1-.1,5.37,26.712,26.712,0,0,1-1.342,5.613A1,1,0,0,1,1.185-81.65Z" transform="translate(13.795 107.214)"/></g><g transform="translate(18.169 32.921)"><path d="M-54.606-107.1a1,1,0,0,1-.466-.116,1,1,0,0,1-.418-1.351c.055-.106,3.193-6.214,1.2-11.138-1.578-3.9-5.954-6.087-7.789-6.857a17.5,17.5,0,0,0-1.485,7.1,1,1,0,0,1-.963,1.036,1,1,0,0,1-1.036-.963,19.823,19.823,0,0,1,2.086-8.909,1,1,0,0,1,1.2-.484,20.61,20.61,0,0,1,4,1.932,14,14,0,0,1,5.843,6.394,13.982,13.982,0,0,1,.249,8.654,20.564,20.564,0,0,1-1.533,4.168A1,1,0,0,1-54.606-107.1Z" transform="translate(64.572 127.83)"/></g><g transform="translate(1.544 40.173)"><path d="M-90.838-6.075a14.875,14.875,0,0,1,5.07.843A15.234,15.234,0,0,1-80.7-2.083a22.675,22.675,0,0,1,3.477,4.1,26.726,26.726,0,0,1,2.705,5.1,1,1,0,0,1-.439,1.214,25.8,25.8,0,0,1-11.486,3.132,14.875,14.875,0,0,1-5.07-.843,15.235,15.235,0,0,1-5.072-3.149,22.675,22.675,0,0,1-3.477-4.1,26.724,26.724,0,0,1-2.705-5.1,1,1,0,0,1,.439-1.214A25.8,25.8,0,0,1-90.838-6.075ZM-76.73,7A26.593,26.593,0,0,0-78.905,3.09c-1.513-2.241-4.05-5.178-7.543-6.44a12.885,12.885,0,0,0-4.39-.724,23.627,23.627,0,0,0-9.708,2.463,26.592,26.592,0,0,0,2.175,3.906c1.513,2.241,4.05,5.178,7.543,6.441a12.885,12.885,0,0,0,4.39.724A23.627,23.627,0,0,0-76.73,7Z" transform="translate(101.825 5.075)"/></g><g transform="translate(28.428 53.002)"><path d="M7.774,8.67a1,1,0,0,1-.7-.288L-.7.712A1,1,0,0,1-.712-.7,1,1,0,0,1,.7-.712l7.774,7.67a1,1,0,0,1-.7,1.712Z"/></g><g transform="translate(44.063 24.177)"><path d="M-97.173-77.577c-.888,0-1.429-.045-1.452-.047a1,1,0,0,1-.912-.912,26.709,26.709,0,0,1,.284-5.764,22.651,22.651,0,0,1,1.409-5.183,15.214,15.214,0,0,1,3.256-5,16.69,16.69,0,0,1,7.871-4.191,27.676,27.676,0,0,1,6.641-.8c.888,0,1.429.045,1.452.047a1,1,0,0,1,.912.912A26.708,26.708,0,0,1-78-92.751a22.651,22.651,0,0,1-1.409,5.183,15.215,15.215,0,0,1-3.256,5,16.69,16.69,0,0,1-7.871,4.191A27.677,27.677,0,0,1-97.173-77.577Zm-.407-2c.124,0,.26,0,.407,0,2.613,0,9.119-.429,13.1-4.4,2.626-2.624,3.676-6.357,4.095-9.028a26.569,26.569,0,0,0,.31-4.461c-.124,0-.26,0-.407,0-2.613,0-9.119.429-13.1,4.4-2.626,2.623-3.676,6.357-4.095,9.028A26.571,26.571,0,0,0-97.58-79.58Z" transform="translate(98.585 98.474)"/></g><g transform="translate(36.811 44.032)"><path d="M-47.267,8.383a1,1,0,0,1-.7-.289,1,1,0,0,1-.008-1.414l7.3-7.383a1,1,0,0,1,1.414-.008A1,1,0,0,1-39.259.7l-7.3,7.383A1,1,0,0,1-47.267,8.383Z" transform="translate(47.267)"/></g><g transform="translate(34.47 92.799)"><path d="M-8.169-16.913a1.544,1.544,0,0,0,0-3.087,1.544,1.544,0,0,0,0,3.087" transform="translate(9.66 20)"/></g><g transform="translate(31.938 88.374)"><path d="M-55.244-8.653a1,1,0,0,1-.708-.294,1,1,0,0,1,0-1.414,6.994,6.994,0,0,1,4.97-2.054,6.994,6.994,0,0,1,4.969,2.054,1,1,0,0,1,0,1.414,1,1,0,0,1-1.414,0,5.048,5.048,0,0,0-7.115,0A1,1,0,0,1-55.244-8.653Z" transform="translate(55.244 11.415)"/></g><g transform="translate(28.658 82.12)"><path d="M-82.662-16.081a1,1,0,0,1-.706-.292A9.624,9.624,0,0,0-90.206-19.2a9.623,9.623,0,0,0-6.838,2.826,1,1,0,0,1-1.414,0,1,1,0,0,1,0-1.414,11.61,11.61,0,0,1,8.25-3.41,11.611,11.611,0,0,1,8.25,3.41,1,1,0,0,1,0,1.414A1,1,0,0,1-82.662-16.081Z" transform="translate(97.75 20.199)"/></g><g transform="translate(70.59 1.612)"><path d="M-186.4-202.513h-19.48a5.305,5.305,0,0,1-5.3-5.3v-7.676l-4.744-3.42a1,1,0,0,1-.415-.811,1,1,0,0,1,.415-.811l4.744-3.42v-77.4a5.305,5.305,0,0,1,5.3-5.3h19.48a5.305,5.305,0,0,1,5.3,5.3v42.878a1,1,0,0,1-1,1,1,1,0,0,1-1-1v-42.878a3.3,3.3,0,0,0-3.3-3.3h-19.48a3.3,3.3,0,0,0-3.3,3.3v77.909a1,1,0,0,1-.415.811l-4.034,2.908,4.034,2.908a1,1,0,0,1,.415.811v8.188a3.3,3.3,0,0,0,3.3,3.3h19.48a3.3,3.3,0,0,0,3.3-3.3v-42.454a1,1,0,0,1,1-1,1,1,0,0,1,1,1v42.454A5.305,5.305,0,0,1-186.4-202.513Z" transform="translate(215.341 305.646)"/></g><g transform="translate(86.237 11.255)"><path d="M-42.478-42.888a4.558,4.558,0,0,1-4.552-4.552c0-.621.194-1.865,1.869-5.485.889-1.922,1.764-3.573,1.8-3.643a1,1,0,0,1,.883-.531,1,1,0,0,1,.883.531c.037.069.911,1.72,1.8,3.643,1.675,3.62,1.869,4.864,1.869,5.485A4.558,4.558,0,0,1-42.478-42.888Zm0-11.012c-1.251,2.53-2.551,5.51-2.551,6.46a2.555,2.555,0,0,0,2.552,2.552,2.555,2.555,0,0,0,2.553-2.552c0-.236-.121-1.269-1.684-4.645C-41.911-52.737-42.213-53.362-42.48-53.9Z" transform="translate(46.031 56.1)"/></g><g transform="translate(85.716 48.72)"><path d="M-48.705-27.389a5.079,5.079,0,0,1,5.073,5.073,5.079,5.079,0,0,1-5.073,5.073,5.079,5.079,0,0,1-5.073-5.073A5.079,5.079,0,0,1-48.705-27.389Zm0,8.147a3.077,3.077,0,0,0,3.073-3.073,3.077,3.077,0,0,0-3.073-3.073,3.077,3.077,0,0,0-3.073,3.073A3.077,3.077,0,0,0-48.705-19.243Z" transform="translate(52.779 26.389)"/></g><g transform="translate(89.789 44.767)"><path d="M0,4.953a1,1,0,0,1-1-1V0A1,1,0,0,1,0-1,1,1,0,0,1,1,0V3.953A1,1,0,0,1,0,4.953Z"/></g><g transform="translate(89.789 56.866)"><path d="M0,4.953a1,1,0,0,1-1-1V0A1,1,0,0,1,0-1,1,1,0,0,1,1,0V3.953A1,1,0,0,1,0,4.953Z" transform="translate(0 0)"/></g><g transform="translate(93.862 52.793)"><path d="M-21.658,1h-3.953a1,1,0,0,1-1-1,1,1,0,0,1,1-1h3.953a1,1,0,0,1,1,1A1,1,0,0,1-21.658,1Z" transform="translate(25.611)"/></g><g transform="translate(81.763 52.793)"><path d="M-21.658,1h-3.953a1,1,0,0,1-1-1,1,1,0,0,1,1-1h3.953a1,1,0,0,1,1,1A1,1,0,0,1-21.658,1Z" transform="translate(25.611)"/></g><g transform="translate(92.669 55.673)"><path d="M-15.314-14.314a1,1,0,0,1-.707-.293l-2.8-2.8a1,1,0,0,1,0-1.414,1,1,0,0,1,1.414,0l2.8,2.8a1,1,0,0,1,0,1.414A1,1,0,0,1-15.314-14.314Z" transform="translate(18.109 18.109)"/></g><g transform="translate(84.113 47.117)"><path d="M-15.314-14.315a1,1,0,0,1-.707-.293l-2.8-2.8a1,1,0,0,1,0-1.414,1,1,0,0,1,1.414,0l2.8,2.8a1,1,0,0,1,0,1.414A1,1,0,0,1-15.314-14.315Z" transform="translate(18.109 18.111)"/></g><g transform="translate(92.669 47.117)"><path d="M-18.109,3.8a1,1,0,0,1-.707-.293,1,1,0,0,1,0-1.414l2.8-2.8a1,1,0,0,1,1.414,0,1,1,0,0,1,0,1.414l-2.8,2.8A1,1,0,0,1-18.109,3.8Z" transform="translate(18.109)"/></g><g transform="translate(84.113 55.673)"><path d="M-18.109,3.8a1,1,0,0,1-.707-.293,1,1,0,0,1,0-1.414l2.8-2.8a1,1,0,0,1,1.414,0,1,1,0,0,1,0,1.414l-2.8,2.8A1,1,0,0,1-18.109,3.8Z" transform="translate(18.109)"/></g><g transform="translate(84.615 36.093)"><path d="M10.328,1H0A1,1,0,0,1-1,0,1,1,0,0,1,0-1H10.328a1,1,0,0,1,1,1A1,1,0,0,1,10.328,1Z"/></g><g transform="translate(84.615 69.493)"><path d="M10.328,1H0A1,1,0,0,1-1,0,1,1,0,0,1,0-1H10.328a1,1,0,0,1,1,1A1,1,0,0,1,10.328,1Z"/></g><g transform="translate(86.237 82.12)"><path d="M-46.031,12.537a1,1,0,0,1-.523-.149,1,1,0,0,1-.327-1.376l7.1-11.537A1,1,0,0,1-38.4-.851,1,1,0,0,1-38.074.524l-7.1,11.537A1,1,0,0,1-46.031,12.537Z" transform="translate(46.031)"/></g><g transform="translate(84.746 81.299)"><path d="M-8.168-16.913a1.544,1.544,0,0,0,0-3.087,1.544,1.544,0,0,0,0,3.087" transform="translate(9.659 20)"/></g><g transform="translate(91.85 91.39)"><path d="M-8.169-16.913a1.544,1.544,0,0,0,0-3.087,1.544,1.544,0,0,0,0,3.087" transform="translate(9.66 20)"/></g></g></g></g></g></svg>