<svg xmlns="http://www.w3.org/2000/svg" width="132" height="132" viewBox="0 0 132 132"><g transform="translate(-12452.465 8127.787)"><rect width="132" height="132" transform="translate(12452.465 -8127.787)" fill="none"/><g transform="translate(12460.707 -8119.535)"><path d="M29,43.07l-1.319,1.856H25.918l-2.2-1.856-3.126,1.856L18.641,41.6l-2.3-.586H13.952l-2.394-1.856,1.759-2.54-1.759-2.1L8.628,32.081V28.759l2.2-1.221-2.2-2.833,2.2-2.882,2.491-3.418-1.759-2.686,2.394-3.273,5.6,1.242L21.4,8.937h3.726L29,12.988,32.8,9.737l3.351,1.326,1.975,3.476v4.476l4.2,2.325.588,2.532-2.751,3.666.406,3.492,1.251,4.689-2.782,1.625-4.408,1.819Z" transform="translate(-0.267 -0.312)" fill="#abc838" fill-rule="evenodd"/><path d="M51.93,50.46l3.815,2.325,5.068,1.073h3.518l6.617-2.146,4.77-1.253L78.1,46.526V43.9H75.718l-4.77-.834L66.12,43.9l-7.036,1.133-4.233,1.491L51.93,49.347Z" transform="translate(-6.442 -5.179)" fill="#9e8f6e" fill-rule="evenodd"/><path d="M38.758,109.184l4.221,1.237h5.168l5.458-1.237h5.168l4.149,1.237,4.294-1.237h5.074l1.35,1.237H91.759l-2.841-1.237-5.3-4.492L79.66,98.451,76.167,87.458l-.932-11.365V65.426l1.863-8.8V48.565l-.931-3.121-2.528,2.515-7.487,3.448-7.38,1.164-9.482-2.8v5.03l-1.144,3.448L30.707,33.834l3.105,15.942,3.773,8,5.393,6.251H49.29l-1.144,6.614V82.055l-.719,2.33-.605,6.8L44.446,97.24l-4.518,8.71Z" transform="translate(-3.415 -3.863)" fill="#b19455" fill-rule="evenodd"/><path d="M14.48,125.6c5.4,0,10.261-2.091,15.555-2.666a17.669,17.669,0,0,1,5.386.484,31.164,31.164,0,0,0,6.063.846c4.212,0,8.115-1.712,12.286-1.865a5.947,5.947,0,0,1,2.995,1.091,6.174,6.174,0,0,0,3,.832,8.852,8.852,0,0,0,3.625-1.09,6.39,6.39,0,0,1,2.537-.842,5.887,5.887,0,0,1,2.5.7,9.527,9.527,0,0,0,3.662,1c12.283.151,24.652-.13,36.957-.13a1.358,1.358,0,0,0,0-2.716c-12.294,0-24.652.281-36.924.131A6.846,6.846,0,0,1,69.5,120.6a8.559,8.559,0,0,0-3.664-.926,9.069,9.069,0,0,0-3.622,1.106,6.171,6.171,0,0,1-2.512.825,4.6,4.6,0,0,1-2.238-.817,7.307,7.307,0,0,0-3.8-1.1c-4.137.152-8.007,1.862-12.186,1.862a28.387,28.387,0,0,1-5.531-.794,20.384,20.384,0,0,0-6.212-.52c-5.2.563-9.964,2.649-15.262,2.649a1.358,1.358,0,0,0,0,2.716Z" transform="translate(-0.908 -16.103)" fill-rule="evenodd"/><path d="M36.866,110.716a6.925,6.925,0,0,0,.617-.6c.472-.56.892-1.2,1.134-1.5a31.915,31.915,0,0,0,5.622-10.233c4.951-15.326,3.783-31.969,3.783-47.85a1.358,1.358,0,1,1,2.715,0c0,16.16,1.125,33.09-3.913,48.685A34.563,34.563,0,0,1,40.746,110.3a17.166,17.166,0,0,1-1.928,2.338,2.807,2.807,0,0,1-1.78.781,1.358,1.358,0,0,1-.172-2.7Z" transform="translate(-4.124 -6.05)" fill-rule="evenodd"/><path d="M100.294,109.924a10.876,10.876,0,0,1-7.413-3.376,26.548,26.548,0,0,1-6.718-11.6,80.9,80.9,0,0,1-2.239-29.115c.643-7.17,3.111-14.021,1.07-21.154a1.358,1.358,0,1,0-2.612.748,23.548,23.548,0,0,1,.384,9.765c-.452,3.437-1.232,6.879-1.548,10.4a83.556,83.556,0,0,0,2.324,30.074,29.462,29.462,0,0,0,7.47,12.853,13.55,13.55,0,0,0,9.281,4.12,1.358,1.358,0,1,0,0-2.715Z" transform="translate(-10.559 -5.269)" fill-rule="evenodd"/><path d="M50.351,50.571a11.5,11.5,0,0,0,7.819,4.517,26.126,26.126,0,0,0,14.913-2.117,14.622,14.622,0,0,0,7.479-7.4,1.358,1.358,0,0,0-2.51-1.036A11.93,11.93,0,0,1,71.9,50.525a23.221,23.221,0,0,1-13.253,1.89,8.959,8.959,0,0,1-6.136-3.485,1.358,1.358,0,0,0-2.163,1.642Z" transform="translate(-6.177 -5.269)" fill-rule="evenodd"/><path d="M80.091,43.572c-1.609-1.138-4.869-1.723-6.8-2.115-3.728-.756-7.8-.261-11.5.418a21.412,21.412,0,0,0-6.562,1.988c-2.161,1.181-4.4,2.591-5.108,5.15a1.358,1.358,0,1,0,2.618.726c.5-1.819,2.255-2.654,3.792-3.494a18.718,18.718,0,0,1,5.751-1.7c3.367-.619,7.071-1.116,10.465-.428,1.63.33,4.416.711,5.774,1.67a1.358,1.358,0,0,0,1.567-2.217Z" transform="translate(-6.177 -4.895)" fill-rule="evenodd"/><path d="M52.783,64.105c.2.167.9.745,1.044.873a10.036,10.036,0,0,0,4.566,2.636,1.358,1.358,0,0,1-.553,2.659A12.73,12.73,0,0,1,52.015,67a10.94,10.94,0,0,1-1.466-1.322,1.84,1.84,0,0,1-.39-1.085,1.358,1.358,0,0,1,2.624-.489Z" transform="translate(-6.189 -8.055)" fill-rule="evenodd"/><path d="M77.463,84.115a4.444,4.444,0,0,0,2-1.993,1.358,1.358,0,1,1,2.436,1.2,7.164,7.164,0,0,1-3.316,3.271c-.157.077-1.462.4-1.723.466a1.357,1.357,0,0,1-1.865-1.794,1.426,1.426,0,0,1,.708-.674C75.964,84.47,77.218,84.173,77.463,84.115Z" transform="translate(-9.711 -10.641)" fill-rule="evenodd"/><path d="M47.936,102.17a4.6,4.6,0,0,0,1.85,3.5,12.1,12.1,0,0,0,4.536,2.184,1.358,1.358,0,1,0,.637-2.64,9.1,9.1,0,0,1-3.43-1.627,1.952,1.952,0,0,1-.876-1.415,1.358,1.358,0,0,0-2.716,0Z" transform="translate(-5.872 -13.414)" fill-rule="evenodd"/><path d="M48.445,54.934a1.358,1.358,0,0,1-.731,2.615,2.935,2.935,0,0,1-.977-.49c-.432-.318-.881-.8-1.18-1.047A42.484,42.484,0,0,1,41,51.451C34.609,44.216,30.973,34.331,27.845,25.3a1.358,1.358,0,0,1,2.566-.889c3.016,8.709,6.463,18.269,12.623,25.245A39.708,39.708,0,0,0,47.3,53.925c.28.234,1.074.942,1.149,1.009Z" transform="translate(-2.996 -2.388)" fill-rule="evenodd"/><path d="M27.332,25.025A55.313,55.313,0,0,0,29.06,36.654c1.35,6.2,3.1,14.217,6.885,20.18,2.669,4.2,6.334,7.4,11.484,8.447a1.358,1.358,0,1,0,.54-2.661C42.448,61.5,39,57.392,36.623,52.452c-2.516-5.234-3.829-11.416-4.909-16.376a52.6,52.6,0,0,1-1.666-11.051,1.358,1.358,0,1,0-2.715,0Z" transform="translate(-2.934 -2.413)" fill-rule="evenodd"/><path d="M18.725,11.607c.109-1.987.866-4.063,3-4.7a4.073,4.073,0,0,1,3.312.508,9.756,9.756,0,0,1,2.927,3.011c.136.212.307.555.507.9l.017.028c.043-.053.083-.105.115-.151.276-.4.509-.8.668-1.007a5.458,5.458,0,0,1,3.039-2.2,4.4,4.4,0,0,1,3.809,1.022,9.681,9.681,0,0,1,3.262,8.092,2.772,2.772,0,0,1-.123.559,4.647,4.647,0,0,1,.75.171,6.145,6.145,0,0,1,3.857,3.839,6.309,6.309,0,0,1-1.508,5.956c-.278.3-.68.618-1.044.963-.152.143-.329.266-.377.44A.952.952,0,0,0,41,29.55a7.027,7.027,0,0,0,.5,1.142,9.994,9.994,0,0,1,1.243,3.182,4.717,4.717,0,0,1-2.511,4.639,17.423,17.423,0,0,1-6.749,1.882,1.358,1.358,0,1,1-.293-2.7,17.394,17.394,0,0,0,4.82-1.084c1.145-.5,2.149-1.192,2.029-2.487a10.883,10.883,0,0,0-1.254-2.8,4.488,4.488,0,0,1-.462-3.012,3.5,3.5,0,0,1,.881-1.443c.379-.4.857-.748,1.166-1.079a3.529,3.529,0,0,0,.9-3.315,3.3,3.3,0,0,0-2.089-2.049,3.562,3.562,0,0,0-1.107-.117,9.072,9.072,0,0,1-1.2-.081,1.3,1.3,0,0,1-.958-1.307,2.708,2.708,0,0,1,.275-1.085c.091-.2.206-.411.315-.625a1.236,1.236,0,0,0,.171-.37,6.777,6.777,0,0,0-2.234-5.688,2.062,2.062,0,0,0-1.287-.544,2.428,2.428,0,0,0-1.712,1.211,11.868,11.868,0,0,1-1.488,1.951,2.254,2.254,0,0,1-1.812.609,2.359,2.359,0,0,1-1.372-.779,11.694,11.694,0,0,1-1.094-1.708A7.681,7.681,0,0,0,24.022,10,1.723,1.723,0,0,0,22.5,9.507a1.322,1.322,0,0,0-.85.947,5.036,5.036,0,0,0-.222,1.376,9.861,9.861,0,0,1-.119,2.185,1.594,1.594,0,0,1-1.141,1.121,2.22,2.22,0,0,1-1.54-.278c-.515-.281-1.134-.84-1.409-.994a6.378,6.378,0,0,0-2.017-.744,2.088,2.088,0,0,0-1.534.211c-1.037.7-.953,2.011-.5,3.071a13.83,13.83,0,0,1,.995,1.942,1.666,1.666,0,0,1-.215,1.5,2.335,2.335,0,0,1-.971.687c-.309.126-.949.334-1.051.368a5.213,5.213,0,0,0-1.511,2.042,2.926,2.926,0,0,0-.3,1.424c.08.679.738,1.182,1.281,1.528a4.034,4.034,0,0,0,.745.373c.2.077.726.27.8.321a1.278,1.278,0,0,1,.556,1.318,1.3,1.3,0,0,1-.577.916,1.274,1.274,0,0,1-.8.241,5,5,0,0,1-1.237-.189,1.4,1.4,0,0,0-.742-.089.836.836,0,0,0-.6.609,2.29,2.29,0,0,0,.081,1.434c.821,2.21,2.846,3.26,4.716,4.344a1.293,1.293,0,0,1,.607.686,1.317,1.317,0,0,1,.027.958,1.288,1.288,0,0,1-1,.89c-.078.017-.677-.021-.856-.033a.672.672,0,0,0-.292.073c-.113.063-.287.132-.2.238a4.665,4.665,0,0,0,3.949,1.446l.372-.365c0-.189,0-.34,0-.415A1.361,1.361,0,0,1,19.1,37.557a1.77,1.77,0,0,1,.609,2.287l-.023.052.007.406a8.9,8.9,0,0,0,.342,1.566,1.883,1.883,0,0,0,.532.9,2.742,2.742,0,0,0,.22-.257c.116-.162.225-.336.33-.508a8.132,8.132,0,0,1,.941-1.339,1.333,1.333,0,0,1,1.494-.342,1.857,1.857,0,0,1,.81.623,11.86,11.86,0,0,1,.818,1.425c.34.612.712,1.4,1.386,1.663a1.439,1.439,0,0,0,.171-.181,2.06,2.06,0,0,0,.227-.42l.09-.428a1.358,1.358,0,0,1,1.3-1.735,1.35,1.35,0,0,1,1.193.647,1.708,1.708,0,0,1,.255.953,6.992,6.992,0,0,1-.295,1.509c-.582,1.488-2.031,2.852-3.789,2.238a5.612,5.612,0,0,1-2.7-2.562,4.837,4.837,0,0,1-.724.833,2.546,2.546,0,0,1-1.551.669,2.667,2.667,0,0,1-1.8-.613,5.261,5.261,0,0,1-1.654-2.88c-.024.006-.047.011-.069.015a7.57,7.57,0,0,1-6.669-2.352,2.663,2.663,0,0,1,.086-3.672,9.153,9.153,0,0,1-3.553-4.281A4.386,4.386,0,0,1,8.3,26.69a4.131,4.131,0,0,1-.873-2.009,5.669,5.669,0,0,1,.5-2.81A8.038,8.038,0,0,1,10.4,18.66a3.221,3.221,0,0,1,.721-.356c-.192-.35-.382-.7-.419-.786-.977-2.24-.745-4.947,1.455-6.435a4.5,4.5,0,0,1,2.815-.716,8.657,8.657,0,0,1,3.584,1.13c.041.023.1.061.174.11Zm9.014,32.229a1.268,1.268,0,0,0,.618.149A1.349,1.349,0,0,1,27.739,43.836Z" transform="translate(0 0)" fill-rule="evenodd"/><path d="M17.66,22.065c.29.46.58.92.877,1.376a1.358,1.358,0,0,0,2.275-1.485c-.29-.443-.572-.89-.854-1.338a1.358,1.358,0,1,0-2.3,1.447Z" transform="translate(-1.525 -1.887)" fill-rule="evenodd"/><path d="M18.411,32.364a13.26,13.26,0,0,0,1.462-.119,1.358,1.358,0,1,0-.3-2.7,10.536,10.536,0,0,1-1.161.1,1.358,1.358,0,1,0,0,2.715Z" transform="translate(-1.468 -3.25)" fill-rule="evenodd"/><path d="M26.4,37.276v-.011a1.358,1.358,0,0,0-2.716,0v.011a1.358,1.358,0,1,0,2.716,0Z" transform="translate(-2.414 -4.158)" fill-rule="evenodd"/><path d="M26.259,19.48a1.358,1.358,0,0,1,2.259-1.5,1.644,1.644,0,0,1,.2.342,1.358,1.358,0,0,1-2.455,1.159Zm.039.061c.011.017.024.034.037.052Zm-.023-.037.006.01Z" transform="translate(-2.754 -1.523)" fill-rule="evenodd"/><path d="M34.278,20.31a1.357,1.357,0,0,1,2.7.224,2.439,2.439,0,0,1-.348,1.142,1.358,1.358,0,1,1-2.372-1.322Z" transform="translate(-3.897 -1.772)" fill-rule="evenodd"/><path d="M37.323,27.711c-.014.022-.026.046-.039.069a1.358,1.358,0,1,0,2.354,1.354l.022-.041a1.358,1.358,0,0,0-2.337-1.382Z" transform="translate(-4.328 -2.894)" fill-rule="evenodd"/><path d="M39.466,34.9a1.358,1.358,0,0,1,1.35,2.348,1.573,1.573,0,0,1-.376.183,1.358,1.358,0,0,1-.975-2.532Zm-.093.05-.016.009Z" transform="translate(-4.548 -3.995)" fill-rule="evenodd"/></g></g></svg>