<svg xmlns="http://www.w3.org/2000/svg" width="132" height="132" viewBox="0 0 132 132"><g transform="translate(-12426.93 7718.6)"><rect width="132" height="132" transform="translate(12426.93 -7718.6)" fill="none"/><g transform="translate(12417.612 -7712.6)"><g transform="translate(29.016 8.703)"><g transform="translate(0 0)"><path d="M52.092,15.019h61.327v95.857a1.062,1.062,0,0,1-1.062,1.062H36.379a1.062,1.062,0,0,1-1.062-1.062V31.794A16.775,16.775,0,0,1,52.092,15.019Z" transform="translate(-35.317 -15.019)" fill="#eceff1" fill-rule="evenodd"/><path d="M190.837,31.794a16.775,16.775,0,0,0-16.775-16.775H114.326A16.773,16.773,0,0,1,131.1,31.794v5.247h59.742Z" transform="translate(-97.551 -15.019)" fill="#d1d1d6" fill-rule="evenodd"/><g transform="translate(5.533 26.967)"><path d="M64.23,142.109a17.448,17.448,0,0,1,15.8,17.564,17.966,17.966,0,0,1-2.876-.039,17.451,17.451,0,0,1-15.774-16.507,1.058,1.058,0,0,1,1.046-1.1A16.687,16.687,0,0,1,64.23,142.109Z" transform="translate(-61.377 -142.029)" fill="#6cf5c2" fill-rule="evenodd"/><path d="M79.339,159.705a17.451,17.451,0,0,1-17.961-16.577,1.058,1.058,0,0,1,1.046-1.1q.446-.005.9.015a1.057,1.057,0,0,0-.88,1.083,17.451,17.451,0,0,0,15.774,16.507q.565.055,1.125.071Z" transform="translate(-61.377 -142.029)" fill="#00e499" fill-rule="evenodd"/></g><g transform="translate(29.22 30.732)"><path d="M181.881,160.068c.328-.107.657-.2.987-.276a1.055,1.055,0,0,1,1.29.859,12.935,12.935,0,0,1-8.8,14.183,13.325,13.325,0,0,1-2.075.492A12.931,12.931,0,0,1,181.881,160.068Z" transform="translate(-172.942 -159.762)" fill="#6cf5c2" fill-rule="evenodd"/><path d="M183.646,159.875q.169-.045.339-.084a1.055,1.055,0,0,1,1.29.859,12.935,12.935,0,0,1-8.8,14.183,13.325,13.325,0,0,1-2.075.492q-.023-.1-.045-.2.531-.124,1.058-.295a12.935,12.935,0,0,0,8.8-14.183,1.055,1.055,0,0,0-.567-.776Z" transform="translate(-174.058 -159.762)" fill="#00e499" fill-rule="evenodd"/></g></g><g transform="translate(57.948 66.575)"><path d="M325.911,363.911a17.665,17.665,0,1,0-17.666-17.666A17.7,17.7,0,0,0,325.911,363.911Z" transform="translate(-308.245 -328.581)" fill="#8ac9fe" fill-rule="evenodd"/><path d="M385.458,328.581a17.665,17.665,0,1,1,0,35.33q-.817,0-1.615-.075a17.665,17.665,0,0,0,0-35.182Q384.641,328.582,385.458,328.581Z" transform="translate(-367.792 -328.581)" fill="#60b7ff" fill-rule="evenodd"/></g></g><path d="M91.656,107.315H29.016a1.7,1.7,0,0,1-1.7-1.7V25.474A18.473,18.473,0,0,1,45.791,7h59.736A18.473,18.473,0,0,1,124,25.474v5.247a1.7,1.7,0,0,1-1.7,1.7H108.817v41.61a19.369,19.369,0,1,1-17.161,33.286ZM45.791,10.4A15.076,15.076,0,0,0,30.714,25.474v78.445H88.677a19.365,19.365,0,0,1,15.956-30.343q.4,0,.787.016V32.419H62.56a1.7,1.7,0,0,1-1.7-1.7V25.474A15.075,15.075,0,0,0,45.791,10.4Zm10.674,0a18.453,18.453,0,0,1,7.794,15.077v3.548H120.6V25.474A15.076,15.076,0,0,0,105.526,10.4ZM34.6,93.791a1.7,1.7,0,0,1,2.4-2.4l1.7,1.694L41.829,89.2a1.7,1.7,0,0,1,2.642,2.136L40.15,96.683a1.7,1.7,0,0,1-2.521.134Zm15.489-2.978a1.7,1.7,0,1,1,0-3.4H81.06a1.7,1.7,0,0,1,0,3.4ZM78.41,53.422a1.7,1.7,0,1,1,0-3.4H98.666a1.7,1.7,0,0,1,0,3.4ZM51.779,55.041c-.536-.005-1.076-.033-1.618-.085A19.14,19.14,0,0,1,32.839,35.683a1.693,1.693,0,0,1,1.573-1.666,18.862,18.862,0,0,1,3.151.044A19.141,19.141,0,0,1,54.892,53.33a1.7,1.7,0,0,1-.025.273q.746,1.347,1.427,2.886.282-.741.569-1.425a14.625,14.625,0,0,1,9.786-16.936h0a14.417,14.417,0,0,1,2.341-.556,1.693,1.693,0,0,1,1.9,1.283,14.625,14.625,0,0,1-9.71,17.258q-.612.2-1.23.341c-.5,1.2-.995,2.549-1.47,4.061h4.283a1.7,1.7,0,1,1,0,3.4H49.24a1.7,1.7,0,1,1,0-3.4h5a33.265,33.265,0,0,0-2.458-5.472Zm-1.292-7.515a15.754,15.754,0,0,0-13.246-10.1h0q-.477-.046-.949-.064A15.761,15.761,0,0,0,49.361,51.438,25.534,25.534,0,0,0,41.293,44.7a1.693,1.693,0,0,1,1.61-2.978,28.909,28.909,0,0,1,7.584,5.8Zm11.784,4.416a11.249,11.249,0,0,0,5.591-10.648l-.16.051h0a11.222,11.222,0,0,0-7.223,7.232,22.946,22.946,0,0,1,2.855-3.16,1.693,1.693,0,1,1,2.3,2.488,20,20,0,0,0-3.355,4.035ZM78.41,61.1a1.7,1.7,0,1,1,0-3.4H98.666a1.7,1.7,0,0,1,0,3.4ZM34.6,76.511a1.7,1.7,0,1,1,2.4-2.4l1.7,1.694,3.135-3.877a1.7,1.7,0,0,1,2.642,2.136L40.15,79.4a1.7,1.7,0,0,1-2.521.134Zm15.489-2.978a1.7,1.7,0,1,1,0-3.4H81.06a1.7,1.7,0,0,1,0,3.4ZM78.41,45.744a1.7,1.7,0,1,1,0-3.4H98.666a1.7,1.7,0,0,1,0,3.4ZM50.087,81.19a1.7,1.7,0,1,1,0-3.4H71.963a1.7,1.7,0,1,1,0,3.4Zm0,17.28a1.7,1.7,0,1,1,0-3.4H71.963a1.7,1.7,0,1,1,0,3.4Zm54.546-21.5a15.97,15.97,0,1,0,15.97,15.97A15.978,15.978,0,0,0,104.633,76.972ZM94.686,93.3a1.7,1.7,0,0,1,2.4-2.4l5.878,5.867,9.094-11.247a1.7,1.7,0,1,1,2.641,2.136l-10.28,12.713a1.7,1.7,0,0,1-2.521.134Z" transform="translate(0 0)" fill-rule="evenodd"/></g></g></svg>