<svg xmlns="http://www.w3.org/2000/svg" width="106.077" height="85.981" viewBox="0 0 106.077 85.981"><g transform="translate(-0.001 -0.498)"><g transform="translate(1.554 2.054)"><path d="M14.251,235.117A6.771,6.771,0,0,0,7.5,241.874v22.3a6.772,6.772,0,0,0,6.754,6.757h89.456a6.777,6.777,0,0,0,6.76-6.757v-22.3a6.777,6.777,0,0,0-6.76-6.757H14.251Zm0,0" transform="translate(-7.496 -188.064)" fill="#a66d30" fill-rule="evenodd"/><path d="M103.492,11.607c1.327,11.652,13.279,19.907,19.358,12.1l.029-.035a8.725,8.725,0,0,0,.7-1.04c3.923-6.728-2.549-15.342-16.55-14.578-2.29.129-3.688,1.1-3.536,3.554Zm0,0" transform="translate(-83.594 -8.005)" fill="#8fde56" fill-rule="evenodd"/><path d="M103.492,11.7c1.327,11.652,13.279,19.907,19.358,12.1l.029-.035c.206-.27.393-.541.564-.817-6.3,2.215-14.695-5.107-15.793-14.76a.23.23,0,0,0-.006-.065c-.2.006-.411.018-.617.023-2.29.129-3.688,1.1-3.536,3.554Zm0,0" transform="translate(-83.594 -8.097)" fill="#47a831" fill-rule="evenodd"/><path d="M196.894,181c-30.6,42.294,36.424,43.8,6.8-.142C200.935,176.908,199.186,177.836,196.894,181Zm0,0" transform="translate(-151.15 -142.975)" fill="#f5df87" fill-rule="evenodd"/><path d="M203.337,180.341c-2.555-3.367-4.252-2.385-6.443.641-17.249,23.837-3.476,34.726,6.52,31.8-8.146-1.98-14.325-12.773-.458-31.934C203.084,180.676,203.208,180.506,203.337,180.341Zm0,0" transform="translate(-151.149 -142.96)" fill="#d9a13f" fill-rule="evenodd"/><path d="M304.4,11.607c-1.327,11.652-13.273,19.907-19.357,12.1l-.029-.035a9.457,9.457,0,0,1-.7-1.04c-3.924-6.728,2.548-15.342,16.55-14.578,2.29.129,3.688,1.1,3.535,3.554Zm0,0" transform="translate(-226.066 -8.005)" fill="#8fde56" fill-rule="evenodd"/><path d="M309.243,11.7c-1.327,11.652-13.273,19.907-19.357,12.1l-.029-.035c-.206-.27-.394-.541-.564-.817,6.3,2.215,14.695-5.107,15.792-14.76a.2.2,0,0,1,.006-.065c.2.006.41.018.616.023,2.291.129,3.689,1.1,3.536,3.554Zm0,0" transform="translate(-230.91 -8.097)" fill="#47a831" fill-rule="evenodd"/><path d="M7.5,356.678a6.772,6.772,0,0,0,6.754,6.757h89.456a6.777,6.777,0,0,0,6.76-6.757v-4.889a6.781,6.781,0,0,1-6.76,6.757H14.251A6.775,6.775,0,0,1,7.5,351.789Zm0,0" transform="translate(-7.496 -280.563)" fill="#6e3e0b" fill-rule="evenodd"/></g><path d="M75.538,348.589H76.3a1.554,1.554,0,0,0,0-3.109h-.763a1.554,1.554,0,0,0,0,3.109Zm0,0" transform="translate(-58.656 -273.508)"/><path d="M117.2,273.378a1.554,1.554,0,1,0,0-3.108h-.757a1.554,1.554,0,0,0,0,3.108Zm0,0" transform="translate(-91.087 -213.88)"/><path d="M60.111,296.844h-.758a1.554,1.554,0,0,0,0,3.108h.758a1.554,1.554,0,0,0,0-3.108Zm0,0" transform="translate(-45.825 -234.948)"/><path d="M420.237,345.48a1.554,1.554,0,0,0,0,3.108h.758a1.554,1.554,0,0,0,0-3.108Zm0,0" transform="translate(-331.94 -273.508)"/><path d="M380.116,273.378a1.554,1.554,0,1,0,0-3.108h-.758a1.554,1.554,0,1,0,0,3.108Zm0,0" transform="translate(-299.53 -213.88)"/><path d="M436.449,299.952h.758a1.554,1.554,0,0,0,0-3.108h-.758a1.554,1.554,0,0,0,0,3.108Zm0,0" transform="translate(-344.792 -234.948)"/><path d="M97.765,47.552H60.24a61,61,0,0,0-4.853-8.487l-.015-.021a8.305,8.305,0,0,0-3.15-2.959V23.04l7.124-4.279a8.948,8.948,0,0,0,7.142,3.605,10.1,10.1,0,0,0,2.74-.392A15.9,15.9,0,0,0,77.2,16.237,21.1,21.1,0,0,0,81.43,5.831c0-.026.006-.053.007-.079a4.769,4.769,0,0,0-1.065-3.6A5.453,5.453,0,0,0,76.436.549c-10.154-.557-16.061,3.592-18.2,7.659a9.339,9.339,0,0,0-.448,7.862l-7.12,4.277-7.12-4.276A9.332,9.332,0,0,0,43.1,8.211C40.968,4.143,35.064-.006,24.9.549a5.448,5.448,0,0,0-3.934,1.606,4.768,4.768,0,0,0-1.064,3.6c0,.027,0,.053.006.079a21.109,21.109,0,0,0,4.235,10.405,15.91,15.91,0,0,0,7.968,5.739,10.088,10.088,0,0,0,2.739.391,8.951,8.951,0,0,0,7.143-3.6l7.123,4.279V36.168a9.265,9.265,0,0,0-3.076,3A58.864,58.864,0,0,0,40.9,47.552H30.243a1.554,1.554,0,0,0,0,3.109h9.279a27.859,27.859,0,0,0-1.889,7.5,16.9,16.9,0,0,0,.637,6.851l-2.15,2.273L34.379,66.1a3.648,3.648,0,0,0-3.446-.572c-.122.028-.255.057-.4.088l-1.856.394a1.554,1.554,0,0,0,.644,3.041l1.855-.393.443-.1a3.969,3.969,0,0,1,.613-.117,1.527,1.527,0,0,1,.4.225l1.327.9-.875.924a4.482,4.482,0,0,0-1.188,4.2l.2,2.126a1.554,1.554,0,0,0,1.545,1.4c.049,0,.1,0,.151-.006a1.555,1.555,0,0,0,1.4-1.7l-.2-2.127c-.115-1.194-.121-1.265.35-1.763l4.351-4.6a12.587,12.587,0,0,0,1.745,2.17,12.988,12.988,0,0,0,9.146,3.669,12.8,12.8,0,0,0,7.539-2.4l0,0,.007-.006.036-.025a12.353,12.353,0,0,0,3.99-5.033l4.069,4.3c.47.494.463.566.348,1.755l-.2,2.133a1.554,1.554,0,0,0,1.4,1.695c.05,0,.1.007.15.007A1.554,1.554,0,0,0,69.458,74.9l.2-2.129a4.473,4.473,0,0,0-1.186-4.194l-.879-.928,1.327-.906a1.49,1.49,0,0,1,.391-.22,3.581,3.581,0,0,1,.619.115c.136.031.283.065.444.1l1.857.393a1.554,1.554,0,0,0,.644-3.041L71.023,63.7c-.146-.031-.279-.061-.4-.089a3.662,3.662,0,0,0-3.444.567l-1.742,1.19-2.266-2.394c.483-2.9.335-6.961-1.637-12.31H97.764a5.21,5.21,0,0,1,5.206,5.2v22.3a5.211,5.211,0,0,1-5.206,5.2H8.308a5.208,5.208,0,0,1-5.2-5.2v-22.3a5.208,5.208,0,0,1,5.2-5.2H21.516a1.554,1.554,0,1,0,0-3.108H8.308A8.318,8.318,0,0,0,0,55.864v22.3a8.318,8.318,0,0,0,8.308,8.311H97.765a8.321,8.321,0,0,0,8.313-8.311v-22.3a8.322,8.322,0,0,0-8.313-8.312ZM60.988,9.654c1.689-3.212,6.588-6.476,15.276-6a2.646,2.646,0,0,1,1.785.566,1.817,1.817,0,0,1,.289,1.3C77.507,12.68,72.6,17.8,68.387,18.984a5.846,5.846,0,0,1-6.346-1.84l5.608-3.368a1.554,1.554,0,0,0-1.6-2.665l-5.54,3.328a6.223,6.223,0,0,1,.479-4.784Zm-28.036,9.33C28.744,17.8,23.832,12.68,23,5.521a1.816,1.816,0,0,1,.29-1.3,2.643,2.643,0,0,1,1.783-.567c8.693-.473,13.594,2.79,15.282,6a6.21,6.21,0,0,1,.477,4.781l-5.542-3.329a1.554,1.554,0,0,0-1.6,2.666L39.3,17.144a5.849,5.849,0,0,1-6.346,1.84ZM57.53,67.874l-1.906-2.78.427-4.366a1.553,1.553,0,0,0-1.093-1.638l-4.088-1.246a1.555,1.555,0,0,0-.906,2.974l2.871.875-.358,3.663a1.553,1.553,0,0,0,.265,1.03l2.3,3.35a10.026,10.026,0,0,1-11.418-1.73,9.66,9.66,0,0,1-2.057-3.018,1.54,1.54,0,0,0-.169-.4c-2.185-5.668.309-14.125,7.162-23.6,1.329-1.833,1.951-2.109,2.206-2.109h0c.117,0,.768.1,2.055,1.937A56.644,56.644,0,0,1,57.767,49.6a1.624,1.624,0,0,0,.11.252c2.657,6.151,2.724,10.468,2.1,13.264,0,0,0,0,0,0a10.036,10.036,0,0,1-2.447,4.749Zm0,0" transform="translate(0 0)"/></g></svg>