<svg xmlns="http://www.w3.org/2000/svg" width="132" height="132" viewBox="0 0 132 132"><g transform="translate(-13180.246 8127.635)"><rect width="132" height="132" transform="translate(13180.246 -8127.635)" fill="none"/><g transform="translate(13219.59 -8097.577)"><g transform="translate(-26.344 -14.487)"><g transform="translate(46.678 7.09)"><path d="M365.241,36.438l-18.6,18.6-12.4-12.4,18.6-18.6a8.769,8.769,0,1,1,12.4,12.4Z" transform="translate(-309.803 -21.466)" fill="#ecbe6b"/><path d="M367.149,26.9a8.768,8.768,0,0,0-9.536,1.912l-18.6,18.6-4.778-4.778,18.6-18.6A8.774,8.774,0,0,1,367.149,26.9Z" transform="translate(-309.8 -21.464)" fill="#eab14d"/><path d="M351.55,116.313l-4.912,4.912-12.4-12.4,4.912-4.912a3.977,3.977,0,0,1,.319.289l11.792,11.792A4.015,4.015,0,0,1,351.55,116.313Z" transform="translate(-309.802 -87.651)" fill="#eab14d"/><path d="M231.43,145.772l-15.96,15.96a8.77,8.77,0,0,0-1.975,9.371l-2.118,2.118a3.54,3.54,0,0,0,5.006,5.006l2.118-2.118a8.769,8.769,0,0,0,9.371-1.975l15.96-15.96-3.207-9.194Z" transform="translate(-210.34 -121.257)" fill="#b1e4fa"/><path d="M211.38,178.226a3.542,3.542,0,0,1,0-5.007L213.5,171.1a8.769,8.769,0,0,1,1.975-9.369l15.96-15.96,9.2,3.207-5.152.836-15.96,15.96c-2.533,2.533-4.182,5.239-4.385,6.959l-2.118,2.118C211.63,176.232,210.9,177.744,211.38,178.226Z" transform="translate(-210.343 -121.256)" fill="#9dc6fb"/><path d="M325.568,129.692,313.776,117.9a4.233,4.233,0,1,1,5.987-5.987L331.555,123.7a4.233,4.233,0,0,1-5.987,5.987Z" transform="translate(-292.381 -93.079)" fill="#ecbe6b"/><path d="M319.263,123.4l-5.488-5.488a4.233,4.233,0,0,1,5.987-5.987l5.488,5.488a4.233,4.233,0,0,0-5.987,5.987Z" transform="translate(-292.38 -93.088)" fill="#eab14d"/></g><path d="M209.668,337.233a7.08,7.08,0,0,0-3.477,6.1q0,.163.007.324c.206,4.571,7.1,4.444,7.145-.132,0-.026,0-.052,0-.078A7.083,7.083,0,0,0,209.668,337.233Z" transform="translate(-160.332 -267.869)" fill="#e28086"/><path d="M209.4,347.021a3.412,3.412,0,0,1-3.557-3.365c0-.107-.006-.215-.006-.323a7.08,7.08,0,0,1,3.476-6.1c.018.01.037.02.055.032a15.342,15.342,0,0,0-1.006,6.066c0,.108,0,.217,0,.323C208.394,345.894,208.895,347.007,209.4,347.021Z" transform="translate(-160.047 -267.87)" fill="#dd636e"/><path d="M223.787,337.29a.331.331,0,0,0-.045-.026c.006-.012.01-.022.016-.032C223.768,337.251,223.778,337.27,223.787,337.29Z" transform="translate(-174.421 -267.869)" fill="#dd636e"/><g transform="translate(0 0)"><g transform="translate(33.066 0)"><ellipse cx="18.07" cy="10.43" rx="18.07" ry="10.43" transform="translate(0 25.55) rotate(-45)" fill="#95d6a4"/></g><g transform="translate(0 16.26)"><ellipse cx="10.43" cy="18.07" rx="10.43" ry="18.07" transform="translate(0 14.749) rotate(-45)" fill="#95d6a4"/></g><g transform="translate(18.051 56.458)"><ellipse cx="4.175" cy="7.233" rx="4.175" ry="7.233" transform="matrix(0.423, -0.906, 0.906, 0.423, 0, 7.566)" fill="#95d6a4"/></g></g><path d="M120.482,429.628h-44a5.5,5.5,0,0,1-5.5-5.5v-9.982h55v9.982A5.5,5.5,0,0,1,120.482,429.628Z" transform="translate(-51.787 -329.613)" fill="#f9f6f6"/><path d="M91.436,429.627H76.481a5.5,5.5,0,0,1-5.5-5.5v-9.984H85.938v9.984A5.5,5.5,0,0,0,91.436,429.627Z" transform="translate(-51.787 -329.613)" fill="#dddaec"/></g><g transform="translate(-21.149 -9.3)"><path d="M260.8,16.99a10.261,10.261,0,0,0-14.492,0L231.165,32.138a5.715,5.715,0,0,0-7.615,7.615L208.4,54.9a10.258,10.258,0,0,0-2.62,10.016l-1.473,1.473a5.019,5.019,0,1,0,7.1,7.1l1.473-1.473a10.258,10.258,0,0,0,10.016-2.62l15.144-15.144a5.714,5.714,0,0,0,7.615-7.616l7.969-7.969a1.479,1.479,0,0,0-2.092-2.092L243.8,44.306,233.49,34,248.4,19.083a7.29,7.29,0,0,1,10.309,10.309l-3,3a1.479,1.479,0,0,0,2.092,2.092l3-3a10.249,10.249,0,0,0,0-14.493Zm-40,50.308a7.3,7.3,0,0,1-7.792,1.642,1.479,1.479,0,0,0-1.58.333l-2.118,2.118a2.061,2.061,0,1,1-2.914-2.914l2.118-2.118a1.479,1.479,0,0,0,.333-1.58,7.3,7.3,0,0,1,1.642-7.791L225.41,42.075l10.31,10.31Zm21.642-16.264a2.754,2.754,0,0,1-3.894,0L226.761,39.242a2.754,2.754,0,0,1,3.884-3.905l11.814,11.814A2.757,2.757,0,0,1,242.448,51.034Z" transform="translate(-162.839 -13.565)"/><path d="M203.738,342.478h.092a4.9,4.9,0,0,0,4.973-4.953v-.1a8.57,8.57,0,0,0-4.442-7.508,1.48,1.48,0,0,0-1.467.024,8.607,8.607,0,0,0-4.2,7.37q0,.2.009.391A4.887,4.887,0,0,0,203.738,342.478Zm-.06-9.481a5.609,5.609,0,0,1,2.167,4.427v.062a2.1,2.1,0,0,1-4.189.082q-.006-.128-.006-.258A5.638,5.638,0,0,1,203.678,333Z" transform="translate(-159.507 -267.036)"/><path d="M69,89.683H36.729V41.391a22.341,22.341,0,0,0,25.5-27.774,1.479,1.479,0,0,0-1.048-1.047A22.343,22.343,0,0,0,33.77,39.732V89.683H29.214V56A22.343,22.343,0,0,0,1.8,28.834,1.479,1.479,0,0,0,.753,29.881a22.355,22.355,0,0,0,25.5,27.774v9.015a9.812,9.812,0,0,0-12.475-1.005,1.479,1.479,0,0,0-.627,1.342,9.835,9.835,0,0,0,13.1,8.4V89.683H14a1.479,1.479,0,0,0-1.479,1.479v9.981a6.986,6.986,0,0,0,6.977,6.979H22.58a1.479,1.479,0,1,0,0-2.958H19.5a4.025,4.025,0,0,1-4.019-4.021v-8.5H67.519v8.5a4.025,4.025,0,0,1-4.019,4.021h-35a1.479,1.479,0,1,0,0,2.958h35a6.986,6.986,0,0,0,6.977-6.979V91.162A1.479,1.479,0,0,0,69,89.683ZM41.7,20.445A19.459,19.459,0,0,1,59.58,15.222a19.383,19.383,0,0,1-21.318,23.41l4.248-4.248h7.063a1.479,1.479,0,1,0,0-2.958h-4.1l3.684-3.684h7.063a1.479,1.479,0,1,0,0-2.958h-4.1l3.558-3.558a1.479,1.479,0,0,0-2.092-2.092l-3.558,3.558v-4.1a1.479,1.479,0,0,0-2.958,0v7.062l-3.684,3.684v-4.1a1.479,1.479,0,0,0-2.958,0v7.062l-4.248,4.248a19.463,19.463,0,0,1,5.528-16.1ZM20.041,72.382a6.9,6.9,0,0,1-3.8-4.752,6.871,6.871,0,0,1,9.89,4.619A6.9,6.9,0,0,1,20.041,72.382ZM8.63,49.369A19.46,19.46,0,0,1,3.406,31.487a19.383,19.383,0,0,1,23.41,21.319l-4.247-4.247V41.5a1.479,1.479,0,0,0-2.958,0V45.6l-3.684-3.684V34.853a1.479,1.479,0,0,0-2.958,0v4.106L9.41,35.4a1.479,1.479,0,1,0-2.092,2.092l3.558,3.558h-4.1a1.479,1.479,0,1,0,0,2.958h7.061l3.684,3.684h-4.1a1.479,1.479,0,0,0,0,2.958h7.061L24.724,54.9A19.461,19.461,0,0,1,8.63,49.369Z" transform="translate(0 -11.816)"/></g></g></g></svg>