<svg height="93" viewBox="0 0 190 93" width="190" xmlns="http://www.w3.org/2000/svg" xmlns:xlink="http://www.w3.org/1999/xlink"><clipPath id="a"><path d="m0-682.665h72.684v72.684h-72.684z" transform="translate(0 682.665)"/></clipPath><path d="m0 0h190v93h-190z" fill="#e8f3f1"/><path d="m462.171-581.121h-24.853v-4.519h24.853z" fill="#cdd2e1" transform="translate(-331.756 605.971)"/><path d="m462.171-300.738h-24.853v-9.037h24.853z" fill="#cdd2e1" transform="translate(-331.756 359.478)"/><path d="m462.171-518.346h-24.853v-24.854h24.853z" fill="#b5efff" transform="translate(-331.756 568.049)"/><path d="m642.3-518.346h-3.39v-24.854h3.39z" fill="#80dbff" transform="translate(-511.885 568.049)"/><path d="m642.3-581.121h-3.389v-4.519h3.389z" fill="#afb4c8" transform="translate(-511.885 605.971)"/><path d="m642.3-300.738h-3.389v-9.037h3.389z" fill="#afb4c8" transform="translate(-511.885 359.478)"/><path d="m-483.5 0-2.259 2.259h-18.075l-2.266-2.259h-14.686l-2.259 2.259h-3.389l-2.258-2.259h-12.427v12.426h72.3v-12.426z" fill="#a65d4e" transform="translate(600.364 70.037)"/><path d="m2.3-30.523h72.3v-3.389h-72.3z" fill="#e0aea2" transform="translate(56.945 112.987)"/><path d="m2.3-62.352h72.3v-3.389h-72.3z" fill="#c38778" transform="translate(56.945 141.427)"/><g clip-path="url(#a)" transform="translate(59 10.001)"><path d="m-56.883-85.325h-6.778v-4.519s2.259-5.648 10.167-5.648h2.259l4.519 4.519a12.515 12.515 0 0 1 -10.167 5.648" fill="#c2fa93" transform="translate(87.629 121.638)"/><path d="m-124.561 0a12.186 12.186 0 0 1 -9.194 4.362h-5.645v3.389h6.778a12.515 12.515 0 0 0 10.164-5.651z" fill="#8edf78" transform="translate(163.372 28.562)"/><path d="m-142.206-75.844v1.13h-6.778a12.514 12.514 0 0 1 -10.167-5.649l4.519-4.519h2.259c7.908 0 10.167 5.648 10.167 5.648z" fill="#c2fa93" transform="translate(166.175 111.027)"/><path d="m-56.883-85.325h-6.778v-4.519s2.259-5.648 10.167-5.648h2.259l4.519 4.519a12.515 12.515 0 0 1 -10.167 5.648" fill="#c2fa93" transform="translate(87.629 138.583)"/><path d="m-124.561 0a12.186 12.186 0 0 1 -9.194 4.362h-5.645v3.389h6.778a12.515 12.515 0 0 0 10.164-5.651z" fill="#8edf78" transform="translate(163.372 45.507)"/><path d="m-142.206-75.844v1.13h-6.778a12.514 12.514 0 0 1 -10.167-5.649l4.519-4.519h2.259c7.908 0 10.167 5.648 10.167 5.648z" fill="#c2fa93" transform="translate(166.175 127.972)"/><path d="m-56.883-28.442a3.389 3.389 0 0 1 -3.389 3.389 3.389 3.389 0 0 1 -3.389-3.389 3.389 3.389 0 0 1 3.389-3.389 3.389 3.389 0 0 1 3.389 3.389" fill="#ffee6e" transform="translate(119.26 55.718)"/><g fill="#231f20"><path d="m-38.337-1h2.674a12.566 12.566 0 0 1 8.722 3.084 9.607 9.607 0 0 1 2.374 3.193l.072.179v5.711h-7.778a12.8 12.8 0 0 1 -8.267-3.056 13.5 13.5 0 0 1 -2.76-3.078l-.4-.67zm11.837 6.868a8.188 8.188 0 0 0 -1.86-2.368 10.626 10.626 0 0 0 -7.3-2.5h-1.845l-3.631 3.631a12.637 12.637 0 0 0 1.931 1.989 10.671 10.671 0 0 0 6.931 2.548h5.774z" transform="translate(49.464 43.091)"/><path d="m6.778-84.325h-7.778v-5.711l.072-.179a9.607 9.607 0 0 1 2.374-3.193 12.566 12.566 0 0 1 8.722-3.084h2.674l5.358 5.364-.4.67a13.5 13.5 0 0 1 -2.759 3.078 12.8 12.8 0 0 1 -8.263 3.055zm-5.778-2h5.778a10.671 10.671 0 0 0 6.931-2.548 12.634 12.634 0 0 0 1.934-1.989l-3.631-3.631h-1.845a10.626 10.626 0 0 0 -7.3 2.5 8.189 8.189 0 0 0 -1.867 2.369z" transform="translate(23.968 138.583)"/><path d="m-38.337-1h2.674a12.566 12.566 0 0 1 8.722 3.084 9.607 9.607 0 0 1 2.374 3.193l.072.179v5.711h-7.778a12.8 12.8 0 0 1 -8.267-3.056 13.5 13.5 0 0 1 -2.76-3.078l-.4-.67zm11.837 6.868a8.188 8.188 0 0 0 -1.86-2.368 10.626 10.626 0 0 0 -7.3-2.5h-1.845l-3.631 3.631a12.637 12.637 0 0 0 1.931 1.989 10.671 10.671 0 0 0 6.931 2.548h5.774z" transform="translate(49.464 26.146)"/><path d="m6.778-84.325h-7.778v-5.711l.072-.179a9.607 9.607 0 0 1 2.374-3.193 12.566 12.566 0 0 1 8.722-3.084h2.674l5.358 5.364-.4.67a13.5 13.5 0 0 1 -2.759 3.078 12.8 12.8 0 0 1 -8.263 3.055zm-5.778-2h5.778a10.671 10.671 0 0 0 6.931-2.548 12.634 12.634 0 0 0 1.934-1.989l-3.631-3.631h-1.845a10.626 10.626 0 0 0 -7.3 2.5 8.189 8.189 0 0 0 -1.867 2.369z" transform="translate(23.968 121.638)"/><path d="m1 11.3h-2v-11.3h2z" transform="translate(23.968 36.313)"/><path d="m1-56.883h-2v-6.778h2z" transform="translate(23.968 116.919)"/><path d="m.706-37.214-1.413-1.416c.2-.2 4.881-4.812 10.874-4.812v2c-5.152.001-9.418 4.185-9.461 4.228z" transform="translate(23.968 73.106)"/><path d="m-86.031-37.214c-.083-.082-4.333-4.226-9.46-4.226v-2c5.994 0 10.678 4.615 10.874 4.812z" transform="translate(109.293 73.106)"/><path d="m.706-37.214-1.413-1.416c.2-.2 4.881-4.812 10.874-4.812v2c-5.152.001-9.418 4.185-9.461 4.228z" transform="translate(23.968 90.051)"/><path d="m-86.031-37.214c-.083-.082-4.333-4.226-9.46-4.226v-2c5.994 0 10.678 4.615 10.874 4.812z" transform="translate(109.293 90.051)"/><path d="m-80.249 39.409h-26.851v-40.409h8.908v2h-6.908v36.409h22.853v-36.409h-12.559v-2h14.556z" transform="translate(152.664 10.33)"/><path d="m8.322-17.961h-8.322v-2h7.494l2.259-2.259h15.1v2h-14.272z" transform="translate(47.692 81.256)"/><path d="m44.058 3.259h-7.193l-2.259-2.259h-13.857l-2.26 2.259h-4.217l-2.26-2.259h-12.012v-2h12.841l2.259 2.259h2.561l2.259-2.259h15.514l2.259 2.259h6.364z" transform="translate(.245 60.036)"/><path d="m24.853 1h-24.853v-2h24.853z" transform="translate(46.562 14.849)"/><path d="m24.853 1h-24.853v-2h24.853z" transform="translate(46.562 39.702)"/></g><path d="m4.519 1h-4.519v-2h4.519z" fill="#fff" transform="translate(56.729 44.221)"/><path d="m20.334 1h-20.334v-2h20.334z" fill="#231f20" transform="translate(.245 67.944)"/><path d="m15.816 1h-15.816v-2h15.816z" fill="#231f20" transform="translate(56.729 66.814)"/><path d="m2.259 1h-2.259v-2h2.259z" fill="#231f20" transform="translate(52.21 66.814)"/><path d="m2.259 1h-2.259v-2h2.259z" fill="#fff" transform="translate(22.839 67.944)"/><path d="m2.259 1h-2.259v-2h2.259z" fill="#231f20" transform="translate(35.265 69.074)"/><path d="m2.259 1h-2.259v-2h2.259z" fill="#fff" transform="translate(39.784 69.074)"/><path d="m-60.272-32.831a4.394 4.394 0 0 1 4.389 4.389 4.394 4.394 0 0 1 -4.389 4.389 4.394 4.394 0 0 1 -4.389-4.389 4.394 4.394 0 0 1 4.389-4.389zm0 6.778a2.392 2.392 0 0 0 2.389-2.389 2.392 2.392 0 0 0 -2.389-2.389 2.392 2.392 0 0 0 -2.389 2.389 2.392 2.392 0 0 0 2.389 2.39z" fill="#231f20" transform="translate(119.26 55.718)"/><path d="m1-28.442h-2v-3.389h2z" fill="#231f20" transform="translate(58.988 52.329)"/><path d="m1-28.442h-2v-3.389h2z" fill="#231f20" transform="translate(58.988 62.496)"/><path d="m3.389 1h-3.389v-2h3.389z" fill="#231f20" transform="translate(62.377 27.276)"/><path d="m3.389 1h-3.389v-2h3.389z" fill="#231f20" transform="translate(52.21 27.276)"/><path d="m-19.668-18.254-2.259-2.259 1.414-1.414 2.259 2.259z" fill="#231f20" transform="translate(75.69 43.977)"/><path d="m.707-18.253-1.414-1.415 2.259-2.259 1.414 1.414z" fill="#231f20" transform="translate(61.248 43.977)"/><path d="m1.552 2.967-2.259-2.26 1.414-1.414 2.26 2.259z" fill="#231f20" transform="translate(61.248 29.535)"/><path d="m-20.513 2.967-1.414-1.414 2.259-2.259 1.415 1.413z" fill="#231f20" transform="translate(75.69 29.535)"/><path d="m0 0h6.778a3.389 3.389 0 0 1 -6.778 0" fill="#ffee6e" transform="translate(20.579 19.368)"/><path d="m-170.648 0v4.519h-20.334v-4.519z" fill="#dce1eb" transform="translate(204.783 14.849)"/><path d="m-132.727-66.363h-15.816a7.9 7.9 0 0 1 7.908-7.908 7.9 7.9 0 0 1 7.908 7.908" fill="#cdd2e1" transform="translate(164.602 81.211)"/><path d="m16.056-34.531h-2a6.864 6.864 0 0 0 -2.022-4.886 6.864 6.864 0 0 0 -4.886-2.022 6.888 6.888 0 0 0 -3.741 1.1 6.914 6.914 0 0 0 -2.5 2.85l-1.807-.86a8.913 8.913 0 0 1 3.227-3.674 8.884 8.884 0 0 1 4.825-1.416 8.851 8.851 0 0 1 6.3 2.607 8.851 8.851 0 0 1 2.604 6.301z" fill="#231f20" transform="translate(16.82 49.38)"/><path d="m-170.762-1h22.334v6.519h-22.334zm20.334 2h-18.334v2.519h18.334z" fill="#231f20" transform="translate(183.563 14.849)"/><path d="m-60.272 4.389a4.394 4.394 0 0 1 -4.389-4.389h2a2.392 2.392 0 0 0 2.389 2.389 2.392 2.392 0 0 0 2.389-2.389h2a4.394 4.394 0 0 1 -4.389 4.389z" fill="#231f20" transform="translate(84.24 19.368)"/><path d="m1-56.883h-2v-6.778h2z" fill="#231f20" transform="translate(23.968 63.824)"/></g></svg>