<svg height="132" viewBox="0 0 132 132" width="132" xmlns="http://www.w3.org/2000/svg"><path d="m0 0h132v132h-132z" fill="none"/><g fill-rule="evenodd" transform="translate(-9.318 6)"><path d="m52.092 15.019h61.327v95.857a1.062 1.062 0 0 1 -1.062 1.062h-75.978a1.062 1.062 0 0 1 -1.062-1.062v-79.082a16.775 16.775 0 0 1 16.775-16.775z" fill="#eceff1" transform="translate(-6.301 -6.316)"/><path d="m190.837 31.794a16.775 16.775 0 0 0 -16.775-16.775h-59.736a16.773 16.773 0 0 1 16.774 16.775v5.247h59.742z" fill="#d1d1d6" transform="translate(-68.535 -6.316)"/><path d="m64.23 142.109a17.448 17.448 0 0 1 15.8 17.564 17.966 17.966 0 0 1 -2.876-.039 17.451 17.451 0 0 1 -15.774-16.507 1.058 1.058 0 0 1 1.046-1.1 16.687 16.687 0 0 1 1.804.082z" fill="#6cf5c2" transform="translate(-26.828 -106.359)"/><path d="m79.339 159.705a17.451 17.451 0 0 1 -17.961-16.577 1.058 1.058 0 0 1 1.046-1.1q.446-.005.9.015a1.057 1.057 0 0 0 -.88 1.083 17.451 17.451 0 0 0 15.774 16.507q.565.055 1.125.071z" fill="#00e499" transform="translate(-26.828 -106.359)"/><path d="m181.881 160.068c.328-.107.657-.2.987-.276a1.055 1.055 0 0 1 1.29.859 12.935 12.935 0 0 1 -8.8 14.183 13.325 13.325 0 0 1 -2.075.492 12.931 12.931 0 0 1 8.598-15.258z" fill="#6cf5c2" transform="translate(-114.706 -120.327)"/><path d="m183.646 159.875q.169-.045.339-.084a1.055 1.055 0 0 1 1.29.859 12.935 12.935 0 0 1 -8.8 14.183 13.325 13.325 0 0 1 -2.075.492q-.023-.1-.045-.2.531-.124 1.058-.295a12.935 12.935 0 0 0 8.8-14.183 1.055 1.055 0 0 0 -.567-.776z" fill="#00e499" transform="translate(-115.822 -120.327)"/><path d="m325.911 363.911a17.665 17.665 0 1 0 -17.666-17.666 17.7 17.7 0 0 0 17.666 17.666z" fill="#8ac9fe" transform="translate(-221.281 -253.303)"/><path d="m385.458 328.581a17.665 17.665 0 1 1 0 35.33q-.817 0-1.615-.075a17.665 17.665 0 0 0 0-35.182q.798-.072 1.615-.073z" fill="#60b7ff" transform="translate(-280.828 -253.303)"/><path d="m91.656 107.315h-62.64a1.7 1.7 0 0 1 -1.7-1.7v-80.141a18.473 18.473 0 0 1 18.475-18.474h59.736a18.473 18.473 0 0 1 18.473 18.474v5.247a1.7 1.7 0 0 1 -1.7 1.7h-13.483v41.61a19.369 19.369 0 1 1 -17.161 33.286zm-45.865-96.915a15.076 15.076 0 0 0 -15.077 15.074v78.445h57.963a19.365 19.365 0 0 1 15.956-30.343q.4 0 .787.016v-41.173h-42.86a1.7 1.7 0 0 1 -1.7-1.7v-5.245a15.075 15.075 0 0 0 -15.069-15.074zm10.674 0a18.453 18.453 0 0 1 7.794 15.077v3.548h56.341v-3.551a15.076 15.076 0 0 0 -15.074-15.074zm-21.865 83.391a1.7 1.7 0 0 1 2.4-2.4l1.7 1.694 3.129-3.885a1.7 1.7 0 0 1 2.642 2.136l-4.321 5.347a1.7 1.7 0 0 1 -2.521.134zm15.489-2.978a1.7 1.7 0 1 1 0-3.4h30.971a1.7 1.7 0 0 1 0 3.4zm28.321-37.391a1.7 1.7 0 1 1 0-3.4h20.256a1.7 1.7 0 0 1 0 3.4zm-26.631 1.619c-.536-.005-1.076-.033-1.618-.085a19.14 19.14 0 0 1 -17.322-19.273 1.693 1.693 0 0 1 1.573-1.666 18.862 18.862 0 0 1 3.151.044 19.141 19.141 0 0 1 17.329 19.269 1.7 1.7 0 0 1 -.025.273q.746 1.347 1.427 2.886.282-.741.569-1.425a14.625 14.625 0 0 1 9.786-16.936 14.417 14.417 0 0 1 2.341-.556 1.693 1.693 0 0 1 1.9 1.283 14.625 14.625 0 0 1 -9.71 17.258q-.612.2-1.23.341c-.5 1.2-.995 2.549-1.47 4.061h4.283a1.7 1.7 0 1 1 0 3.4h-13.523a1.7 1.7 0 1 1 0-3.4h5a33.265 33.265 0 0 0 -2.458-5.472zm-1.292-7.515a15.754 15.754 0 0 0 -13.246-10.1q-.477-.046-.949-.064a15.761 15.761 0 0 0 13.069 14.076 25.534 25.534 0 0 0 -8.068-6.738 1.693 1.693 0 0 1 1.61-2.978 28.909 28.909 0 0 1 7.584 5.8zm11.784 4.416a11.249 11.249 0 0 0 5.591-10.648l-.16.051a11.222 11.222 0 0 0 -7.223 7.232 22.946 22.946 0 0 1 2.855-3.16 1.693 1.693 0 1 1 2.3 2.488 20 20 0 0 0 -3.355 4.035zm16.139 9.158a1.7 1.7 0 1 1 0-3.4h20.256a1.7 1.7 0 0 1 0 3.4zm-43.81 15.411a1.7 1.7 0 1 1 2.4-2.4l1.7 1.694 3.135-3.877a1.7 1.7 0 0 1 2.642 2.136l-4.327 5.336a1.7 1.7 0 0 1 -2.521.134zm15.489-2.978a1.7 1.7 0 1 1 0-3.4h30.971a1.7 1.7 0 0 1 0 3.4zm28.321-27.789a1.7 1.7 0 1 1 0-3.4h20.256a1.7 1.7 0 0 1 0 3.4zm-28.323 35.446a1.7 1.7 0 1 1 0-3.4h21.876a1.7 1.7 0 1 1 0 3.4zm0 17.28a1.7 1.7 0 1 1 0-3.4h21.876a1.7 1.7 0 1 1 0 3.4zm54.546-21.5a15.97 15.97 0 1 0 15.97 15.97 15.978 15.978 0 0 0 -15.97-15.968zm-9.947 16.33a1.7 1.7 0 0 1 2.4-2.4l5.878 5.867 9.094-11.247a1.7 1.7 0 1 1 2.641 2.136l-10.28 12.713a1.7 1.7 0 0 1 -2.521.134z"/></g></svg>