<svg height="132" viewBox="0 0 132 132" width="132" xmlns="http://www.w3.org/2000/svg"><path d="m0 0h132v132h-132z" fill="none"/><path d="m365.241 36.438-18.6 18.6-12.4-12.4 18.6-18.6a8.769 8.769 0 1 1 12.4 12.4z" fill="#ecbe6b" transform="translate(-250.125 1.195)"/><path d="m367.149 26.9a8.768 8.768 0 0 0 -9.536 1.912l-18.6 18.6-4.778-4.778 18.6-18.6a8.774 8.774 0 0 1 14.314 2.866z" fill="#eab14d" transform="translate(-250.122 1.197)"/><path d="m351.55 116.313-4.912 4.912-12.4-12.4 4.912-4.912a3.977 3.977 0 0 1 .319.289l11.792 11.792a4.015 4.015 0 0 1 .289.319z" fill="#eab14d" transform="translate(-250.124 -64.99)"/><path d="m231.43 145.772-15.96 15.96a8.77 8.77 0 0 0 -1.975 9.371l-2.118 2.118a3.54 3.54 0 0 0 5.006 5.006l2.118-2.118a8.769 8.769 0 0 0 9.371-1.975l15.96-15.96-3.207-9.194z" fill="#b1e4fa" transform="translate(-150.662 -98.596)"/><path d="m211.38 178.226a3.542 3.542 0 0 1 0-5.007l2.12-2.119a8.769 8.769 0 0 1 1.975-9.369l15.96-15.96 9.2 3.207-5.152.836-15.96 15.96c-2.533 2.533-4.182 5.239-4.385 6.959l-2.118 2.118c-1.39 1.381-2.12 2.893-1.64 3.375z" fill="#9dc6fb" transform="translate(-150.665 -98.595)"/><path d="m325.568 129.692-11.792-11.792a4.233 4.233 0 1 1 5.987-5.987l11.792 11.787a4.233 4.233 0 0 1 -5.987 5.987z" fill="#ecbe6b" transform="translate(-232.703 -70.418)"/><path d="m319.263 123.4-5.488-5.488a4.233 4.233 0 0 1 5.987-5.987l5.488 5.488a4.233 4.233 0 0 0 -5.987 5.987z" fill="#eab14d" transform="translate(-232.702 -70.427)"/><path d="m209.668 337.233a7.08 7.08 0 0 0 -3.477 6.1q0 .163.007.324c.206 4.571 7.1 4.444 7.145-.132 0-.026 0-.052 0-.078a7.083 7.083 0 0 0 -3.675-6.214z" fill="#e28086" transform="translate(-147.332 -252.298)"/><path d="m209.4 347.021a3.412 3.412 0 0 1 -3.557-3.365c0-.107-.006-.215-.006-.323a7.08 7.08 0 0 1 3.476-6.1c.018.01.037.02.055.032a15.342 15.342 0 0 0 -1.006 6.066v.323c.032 2.24.533 3.353 1.038 3.367z" fill="#dd636e" transform="translate(-147.047 -252.299)"/><path d="m223.787 337.29a.331.331 0 0 0 -.045-.026c.006-.012.01-.022.016-.032.01.019.02.038.029.058z" fill="#dd636e" transform="translate(-161.421 -252.298)"/><g fill="#95d6a4"><ellipse cx="18.07" cy="10.43" rx="18.07" ry="10.43" transform="matrix(.70710678 -.70710678 .70710678 .70710678 46.066 41.121)"/><ellipse cx="10.43" cy="18.07" rx="10.43" ry="18.07" transform="matrix(.70710678 -.70710678 .70710678 .70710678 13 46.58)"/><ellipse cx="4.175" cy="7.233" rx="4.175" ry="7.233" transform="matrix(.423 -.906 .906 .423 31.051 79.595)"/></g><path d="m120.482 429.628h-44a5.5 5.5 0 0 1 -5.5-5.5v-9.982h55v9.982a5.5 5.5 0 0 1 -5.5 5.5z" fill="#f9f6f6" transform="translate(-38.787 -314.042)"/><path d="m91.436 429.627h-14.955a5.5 5.5 0 0 1 -5.5-5.5v-9.984h14.957v9.984a5.5 5.5 0 0 0 5.498 5.5z" fill="#dddaec" transform="translate(-38.787 -314.042)"/><path d="m260.8 16.99a10.261 10.261 0 0 0 -14.492 0l-15.143 15.148a5.715 5.715 0 0 0 -7.615 7.615l-15.15 15.147a10.258 10.258 0 0 0 -2.62 10.016l-1.473 1.473a5.019 5.019 0 1 0 7.1 7.1l1.473-1.473a10.258 10.258 0 0 0 10.016-2.62l15.144-15.144a5.714 5.714 0 0 0 7.615-7.616l7.969-7.969a1.479 1.479 0 0 0 -2.092-2.092l-7.732 7.731-10.31-10.306 14.91-14.917a7.29 7.29 0 0 1 10.309 10.309l-3 3a1.479 1.479 0 0 0 2.092 2.092l3-3a10.249 10.249 0 0 0 0-14.493zm-40 50.308a7.3 7.3 0 0 1 -7.792 1.642 1.479 1.479 0 0 0 -1.58.333l-2.118 2.118a2.061 2.061 0 1 1 -2.914-2.914l2.118-2.118a1.479 1.479 0 0 0 .333-1.58 7.3 7.3 0 0 1 1.642-7.791l14.921-14.913 10.31 10.31zm21.642-16.264a2.754 2.754 0 0 1 -3.894 0l-11.787-11.792a2.754 2.754 0 0 1 3.884-3.905l11.814 11.814a2.757 2.757 0 0 1 -.011 3.883z" transform="translate(-144.644 7.193)"/><path d="m203.738 342.478h.092a4.9 4.9 0 0 0 4.973-4.953v-.1a8.57 8.57 0 0 0 -4.442-7.508 1.48 1.48 0 0 0 -1.467.024 8.607 8.607 0 0 0 -4.2 7.37q0 .2.009.391a4.887 4.887 0 0 0 5.035 4.776zm-.06-9.481a5.609 5.609 0 0 1 2.167 4.427v.062a2.1 2.1 0 0 1 -4.189.082q-.006-.128-.006-.258a5.638 5.638 0 0 1 2.028-4.31z" transform="translate(-141.312 -246.278)"/><path d="m69 89.683h-32.271v-48.292a22.341 22.341 0 0 0 25.5-27.774 1.479 1.479 0 0 0 -1.048-1.047 22.343 22.343 0 0 0 -27.411 27.162v49.951h-4.556v-33.683a22.343 22.343 0 0 0 -27.414-27.166 1.479 1.479 0 0 0 -1.047 1.047 22.355 22.355 0 0 0 25.5 27.774v9.015a9.812 9.812 0 0 0 -12.475-1.005 1.479 1.479 0 0 0 -.627 1.342 9.835 9.835 0 0 0 13.1 8.4v14.276h-12.251a1.479 1.479 0 0 0 -1.479 1.479v9.981a6.986 6.986 0 0 0 6.977 6.979h3.082a1.479 1.479 0 1 0 0-2.958h-3.08a4.025 4.025 0 0 1 -4.019-4.021v-8.5h52.038v8.5a4.025 4.025 0 0 1 -4.019 4.021h-35a1.479 1.479 0 1 0 0 2.958h35a6.986 6.986 0 0 0 6.977-6.979v-9.981a1.479 1.479 0 0 0 -1.477-1.479zm-27.3-69.238a19.459 19.459 0 0 1 17.88-5.223 19.383 19.383 0 0 1 -21.318 23.41l4.248-4.248h7.063a1.479 1.479 0 1 0 0-2.958h-4.1l3.684-3.684h7.063a1.479 1.479 0 1 0 0-2.958h-4.1l3.558-3.558a1.479 1.479 0 0 0 -2.092-2.092l-3.558 3.558v-4.1a1.479 1.479 0 0 0 -2.958 0v7.062l-3.684 3.684v-4.1a1.479 1.479 0 0 0 -2.958 0v7.062l-4.248 4.248a19.463 19.463 0 0 1 5.528-16.1zm-21.659 51.937a6.9 6.9 0 0 1 -3.8-4.752 6.871 6.871 0 0 1 9.89 4.619 6.9 6.9 0 0 1 -6.09.133zm-11.411-23.013a19.46 19.46 0 0 1 -5.224-17.882 19.383 19.383 0 0 1 23.41 21.319l-4.247-4.247v-7.059a1.479 1.479 0 0 0 -2.958 0v4.1l-3.684-3.684v-7.063a1.479 1.479 0 0 0 -2.958 0v4.106l-3.559-3.559a1.479 1.479 0 1 0 -2.092 2.092l3.558 3.558h-4.1a1.479 1.479 0 1 0 0 2.958h7.061l3.684 3.684h-4.1a1.479 1.479 0 0 0 0 2.958h7.061l4.242 4.25a19.461 19.461 0 0 1 -16.094-5.531z" transform="translate(18.195 8.942)"/></svg>