<svg height="72.923" viewBox="0 0 70.021 72.923" width="70.021" xmlns="http://www.w3.org/2000/svg"><g fill="#b4e555"><path d="m361.686 87.225 1.26-.728a1.158 1.158 0 0 0 -.066-2.041l-6.834-3.379a1.3 1.3 0 0 0 -1.877 1.084l-.491 7.608a1.158 1.158 0 0 0 1.734 1.077l1.391-.8a.286.286 0 0 1 .392.1 28.962 28.962 0 0 1 -11.19 39.681 2.532 2.532 0 0 0 -1.087 3.256 2.534 2.534 0 0 0 3.533 1.179 34.031 34.031 0 0 0 13.13-46.652.284.284 0 0 1 .105-.385z" transform="translate(-297.027 -69.461)"/><path d="m59.939 257.135-6.339-4.229a1.158 1.158 0 0 0 -1.8.963v1.6l-.287.286a28.945 28.945 0 0 1 -28.77-28.945q0-.285.005-.569a2.538 2.538 0 0 0 -2.277-2.583 2.529 2.529 0 0 0 -2.787 2.457q-.007.347-.007.695a34.01 34.01 0 0 0 34.01 34.01h.113v1.745a1.158 1.158 0 0 0 1.8.963l6.343-4.229a1.3 1.3 0 0 0 -.004-2.164z" transform="translate(-16.674 -191.803)"/><path d="m28.827 33.5 6.833-3.38a1.158 1.158 0 0 0 .066-2.041l-1.39-.8a.287.287 0 0 1 -.1-.392 28.96 28.96 0 0 1 39.964-10.147 2.527 2.527 0 0 0 3.356-.692 2.531 2.531 0 0 0 -.733-3.642 34.028 34.028 0 0 0 -46.981 11.948.285.285 0 0 1 -.388.1l-1.261-.728a1.158 1.158 0 0 0 -1.734 1.077l.491 7.608a1.3 1.3 0 0 0 1.877 1.089z" transform="translate(-24.203 -6.5)"/></g><path d="m347.228 135.58a3.531 3.531 0 0 1 -3.217-2.075v-.008a3.532 3.532 0 0 1 1.515-4.542 27.965 27.965 0 0 0 11.153-37.681l-.762.44a2.158 2.158 0 0 1 -3.232-2.008l.491-7.608a2.3 2.3 0 0 1 3.318-1.916l6.834 3.379a2.158 2.158 0 0 1 .123 3.8l-.649.375a34.943 34.943 0 0 1 2.131 4.708 1 1 0 1 1 -1.878.687 32.949 32.949 0 0 0 -2.473-5.263 1 1 0 0 1 .364-1.37l1.506-.87a.158.158 0 0 0 -.009-.278l-6.843-3.375a.3.3 0 0 0 -.436.252l-.491 7.608a.158.158 0 0 0 .236.147l1.639-.946a1 1 0 0 1 1.364.362 29.952 29.952 0 0 1 -11.427 41.309 1.541 1.541 0 0 0 -.661 1.965v.006a1.533 1.533 0 0 0 2.138.714 33.068 33.068 0 0 0 16.409-35.568 1 1 0 1 1 1.959-.4 35.022 35.022 0 0 1 -17.4 37.719 3.536 3.536 0 0 1 -1.702.437z" transform="translate(-297.027 -69.461)"/><path d="m52.954 264.727a2.159 2.159 0 0 1 -2.158-2.158v-.755a34.982 34.982 0 0 1 -34.122-35c0-.233 0-.473.007-.715a3.533 3.533 0 0 1 7.064.165c0 .184-.005.369-.005.55a27.821 27.821 0 0 0 1.882 10.1 1 1 0 0 1 -1.865.723 29.813 29.813 0 0 1 -2.018-10.828c0-.193 0-.391.006-.588a1.534 1.534 0 0 0 -2.553-1.189 1.5 1.5 0 0 0 -.511 1.1c0 .228-.007.455-.007.675a32.982 32.982 0 0 0 33.01 33.01h.108a1 1 0 0 1 1 1v1.745a.158.158 0 0 0 .245.131l6.343-4.229a.3.3 0 0 0 0-.5l-6.343-4.229a.158.158 0 0 0 -.245.131v1.888a1 1 0 0 1 -1 1h-.113a29.929 29.929 0 0 1 -25.639-14.468 1 1 0 1 1 1.712-1.035 27.927 27.927 0 0 0 23.048 13.494v-.875a2.158 2.158 0 0 1 3.355-1.8l6.343 4.229a2.3 2.3 0 0 1 0 3.832l-6.343 4.229a2.155 2.155 0 0 1 -1.201.367z" transform="translate(-16.674 -191.804)"/><path d="m28.25 34.634a2.3 2.3 0 0 1 -2.3-2.155l-.491-7.608a2.158 2.158 0 0 1 3.232-2.008l.651.376a35.028 35.028 0 0 1 47.998-11.688 3.533 3.533 0 0 1 -3.66 6.049 27.965 27.965 0 0 0 -30.532 1.048 1 1 0 1 1 -1.148-1.64 29.965 29.965 0 0 1 32.72-1.122 1.534 1.534 0 0 0 2.28-1.629 1.5 1.5 0 0 0 -.7-1 33.016 33.016 0 0 0 -45.732 11.843 1 1 0 0 1 -1.367.368l-1.506-.87a.158.158 0 0 0 -.236.147l.491 7.608a.3.3 0 0 0 .436.252l6.834-3.379a.158.158 0 0 0 .009-.278l-1.641-.948a1 1 0 0 1 -.367-1.363 30.062 30.062 0 0 1 4.834-6.312 1 1 0 0 1 1.413 1.415 28.078 28.078 0 0 0 -4 5.036l.76.439a2.158 2.158 0 0 1 -.123 3.8l-6.834 3.379a2.3 2.3 0 0 1 -1.021.24z" transform="translate(-24.204 -6.5)"/><path d="m176.78 281.155a.426.426 0 0 0 -.35-.426c-1.522-.279-7.672-1.13-11.638 2.4-3.3 2.941-4.01 7.526-4.149 9.822a.025.025 0 0 1 -.049 0c-.141-2.3-.85-6.88-4.153-9.822-2.466-2.2-5.777-2.7-8.294-2.695l-3.407.649s-.083 6.532 4.47 10.586c2.87 2.556 8.929 3.056 8.929 3.056.409-.031.78-.073 1.1-.117a4.444 4.444 0 0 0 1.376-.4 4.437 4.437 0 0 0 1.376.4c2.332.317 7.13.511 10.463-2.457 3.957-3.518 4.303-9.486 4.326-10.996z" fill="#b4e555" transform="translate(-125.606 -252.044)"/><path d="m146.427 280.437a19.2 19.2 0 0 0 -3.343.294.426.426 0 0 0 -.351.427c.023 1.512.37 7.478 4.323 11 2.871 2.557 6.829 2.767 9.363 2.574-5.674-1.893-9.512-5.391-9.992-14.295z" fill="#a3db4b" transform="translate(-123.888 -252.046)"/><path d="m259.844 295.783a18.372 18.372 0 0 1 -4.12-.449 1 1 0 0 1 -.753-.917c-.013-.254-.289-6.279 3.2-10.647a1 1 0 1 1 1.563 1.247c-2.332 2.923-2.709 6.878-2.76 8.526a17.677 17.677 0 0 0 3.244.235 10.457 10.457 0 0 0 6.93-2.372 12.5 12.5 0 0 0 3.546-6.616 19.125 19.125 0 0 0 .425-3.157 15.711 15.711 0 0 0 -7.82.711 1 1 0 1 1 -.761-1.85 18.1 18.1 0 0 1 9.823-.67 1 1 0 0 1 .774.943 19.662 19.662 0 0 1 -.476 4.4 14.274 14.274 0 0 1 -4.18 7.73 12.575 12.575 0 0 1 -8.273 2.879q-.186.007-.362.007z" transform="translate(-220.957 -252.044)"/><path d="m146.434 279.435c2.57 0 6.208.511 8.944 2.948a13.862 13.862 0 0 1 4.111 7.682 18.773 18.773 0 0 1 .4 4.351 1 1 0 0 1 -.754.917 18.415 18.415 0 0 1 -4.123.449 12.931 12.931 0 0 1 -8.631-2.882 14.274 14.274 0 0 1 -4.18-7.73 19.663 19.663 0 0 1 -.476-4.4 1 1 0 0 1 .774-.943 19.072 19.072 0 0 1 3.935-.392zm11.457 14.109a18.157 18.157 0 0 0 -.372-3.125 12.069 12.069 0 0 0 -3.472-6.542c-2.266-2.018-5.391-2.442-7.614-2.442a18.646 18.646 0 0 0 -2.693.2 19.127 19.127 0 0 0 .425 3.158 12.5 12.5 0 0 0 3.546 6.616 10.984 10.984 0 0 0 7.3 2.376 17.754 17.754 0 0 0 2.88-.241z" transform="translate(-123.878 -252.045)"/><path d="m0 7.756a1 1 0 0 1 -.767-.356 1 1 0 0 1 .125-1.411l8.076-6.756a1 1 0 0 1 1.409.125 1 1 0 0 1 -.125 1.409l-8.076 6.756a1 1 0 0 1 -.642.233z" transform="translate(35.013 35.564)"/><path d="m8.08 7.756a1 1 0 0 1 -.641-.233l-8.08-6.756a1 1 0 0 1 -.126-1.408 1 1 0 0 1 1.408-.126l8.081 6.756a1 1 0 0 1 -.642 1.767z" transform="translate(26.932 35.564)"/></svg>