<svg xmlns="http://www.w3.org/2000/svg" width="190" height="190" viewBox="0 0 190 190"><g transform="translate(-1125.051 -4221)"><g transform="translate(1086.1 4241)"><g transform="translate(85.122 2.819)"><g transform="translate(42.835)"><path d="M249.3,10.955l-2.865-1.4h-8.867a2.047,2.047,0,0,0-1.973,2.114V56.059a2.047,2.047,0,0,0,1.973,2.114h15.784c1.09,0-2.769-3.725-2.769-4.892l.075-38.772c0-1.168-.268-3.554-1.357-3.554Z" transform="translate(-235.599 -9.56)" fill="#bd8661"/></g><g transform="translate(52.453 0)"><path d="M278.333,11.674V56.06a2.047,2.047,0,0,1-1.973,2.114h-8.138a2.046,2.046,0,0,0,1.973-2.114V11.674a2.046,2.046,0,0,0-1.973-2.114h8.138A2.047,2.047,0,0,1,278.333,11.674Z" transform="translate(-268.221 -9.56)" fill="#ad774e"/></g><g transform="translate(33.956 48.226)"><path d="M234.57,175.532l-8.278-2.405H207.567a2.034,2.034,0,0,0-2.083,1.981v11.885a2.034,2.034,0,0,0,2.083,1.981h33.323a2.034,2.034,0,0,0,2.083-1.981l-5.059-8.281C237.913,177.618,235.72,175.532,234.57,175.532Z" transform="translate(-205.484 -173.127)" fill="#c3d1db"/></g><g transform="translate(52.96 48.226)"><path d="M288.424,175.109v11.885a2.033,2.033,0,0,1-2.083,1.981h-16.4a2.033,2.033,0,0,0,2.083-1.981V175.109a2.033,2.033,0,0,0-2.083-1.981h16.4a2.033,2.033,0,0,1,2.083,1.981Z" transform="translate(-269.94 -173.128)" fill="#9eabb8"/></g><g transform="translate(14.664 63.01)"><path d="M213.884,223.268H142.29a2.226,2.226,0,0,0-2.237,2.214c0,26.652,0,22.847,0,23.239.371,25.482.338,23.862.368,24.072a36.929,36.929,0,0,0,5.731,15.213,2.244,2.244,0,0,0,1.877,1.01h60.117a2.244,2.244,0,0,0,1.878-1.01,37.249,37.249,0,0,0,6.1-20.339V225.482A2.227,2.227,0,0,0,213.884,223.268Z" transform="translate(-140.051 -223.268)" fill="#d9e1e8"/></g><g transform="translate(46.961 63.01)"><path d="M293.367,225.482v42.184a37.225,37.225,0,0,1-6.1,20.339,2.237,2.237,0,0,1-1.877,1.01h-35.8a2.238,2.238,0,0,0,1.877-1.01c3.969-6.056,5.238-13.087,5.261-20.339V225.482c0-1.223-.162-2.214-1.4-2.214h35.8A2.225,2.225,0,0,1,293.367,225.482Z" transform="translate(-249.594 -223.268)" fill="#c3d1db"/></g><g transform="translate(20.863 113.645)"><path d="M224.751,414.536c0,6.461-5.712,11.717-12.735,11.717h-38.2c-7.023,0-12.735-5.256-12.735-11.717,0-7.995,8.542-13.643,16.77-11.114a16.817,16.817,0,0,1,10.254-7.767c7.957-2.177,16.216,1.3,19.88,7.767C216.181,400.9,224.751,406.518,224.751,414.536Z" transform="translate(-161.077 -395.005)" fill="#bd8661"/></g><g transform="translate(49.415 113.644)"><path d="M293.039,414.534c0,6.461-5.712,11.717-12.735,11.717H257.917c2.316-5.3,5.195-14.056,3.279-22.345-.366-1.577.212-5.566-.746-8.883a17.347,17.347,0,0,1,15.818,8.4C284.468,400.9,293.039,406.516,293.039,414.534Z" transform="translate(-257.917 -395.002)" fill="#ad774e"/></g><g transform="translate(40.605 58.003)"><path d="M245.537,230.295c-3.147,2.91-4.048,4.551-5.44,4.551s-5.64,0-8.787-2.91c-3.79-3.506-3.365-8.751-3.131-10.971.01-.081.018-.156.025-.226.608-5.61,3.911-10.353,8.305-13.918.96-.779,1.918.217,2.584-.212a2.013,2.013,0,0,1,2.179,0c2.556,1.646,4.647,5.178,6.668,11.84a17.235,17.235,0,0,1,.651,3.182C248.935,224.774,249.091,227.008,245.537,230.295Z" transform="translate(-228.035 -206.288)" fill="#92e200"/></g><g transform="translate(48.95 56.402)"><path d="M258.192,230.434a10.087,10.087,0,0,0,3.77-2.353c3.343-3.34,3.124-8.093,2.9-10.4-.02-.2-.04-.377-.058-.538-.613-5.671-3.989-10.471-8.463-14.044a28.27,28.27,0,0,1,2.626-1.918,2.013,2.013,0,0,1,2.179,0c5.519,3.554,10.086,9.1,10.8,15.731.018.161.038.339.058.538.231,2.37.457,7.309-3.164,10.659-2.406,2.225-5.537,2.91-8.784,2.91-.41,0-1.063,0-1.865-.073v-.51Z" transform="translate(-256.34 -200.858)" fill="#6bc800"/></g><g transform="translate(70.327 83.835)"><path d="M347.8,315.725c-1.794,1.9-1.735,2.847-5.682,2.847-.128,0-.257,0-.388-.005-2.533-.1-4.564-.057-6.1-1.136-1.168-.82-2,.378-2.445-.067-6.04-6.041-5.57-12.611.1-17.851.6-.555,1.142-.993,1.535-1.307,5.442-4.376,12.931-5.063,19.551-3.633.8.175-.6,1.575-.421,2.379,1.433,6.641-1.57,13.949-6.149,18.773Z" transform="translate(-328.841 -293.9)" fill="#92e200"/></g><g transform="translate(2.034 86.617)"><path d="M117.917,326.085c-1,1-3.706,1.415-8.033,1.585-.127.005-.254.005-.378.005-3.687,0-3.808-.769-5.56-2.567-.714-.729-1.839-1.168-2.212-1.63-.292-.361-1.728-2.13-1.98-2.5-4.482-6.556-1.812-10.875-1.106-14.148.167-.78-2.046-2.667-1.266-2.837,6.5-1.4,13.714-.688,18.954,3.522a22.907,22.907,0,0,1,2.356,2.125c4.61,4.852,4.8,10.888-.775,16.448Z" transform="translate(-97.214 -303.336)" fill="#92e200"/></g><g transform="translate(73.615 83.942)"><path d="M361.212,314.609a24.713,24.713,0,0,1-2.486,3.1c-5.242,5.54-11.75,5.838-17.676-.086-.341-.341-.716-.724-1.056-1.121,4.083,1.773,8.687,1.038,12.846-3.358.639-.673,1.134-1.288,1.482-1.721,3.86-4.777,4.835-11.1,4.044-17.158a29.594,29.594,0,0,1,3.866.566,2.1,2.1,0,0,1,1.608,1.605C364.562,299.772,365.646,307.891,361.212,314.609Z" transform="translate(-339.995 -294.264)" fill="#6bc800"/></g><g transform="translate(0 86.773)"><path d="M115.551,323.389a16.66,16.66,0,0,1-2.5,3.07c-5.659,5.659-11.888,5.469-16.941.285a24.335,24.335,0,0,1-2.445-2.971c-4.482-6.556-3.412-14.58-2.707-17.852a2.032,2.032,0,0,1,1.556-1.556,29.028,29.028,0,0,1,3.174-.5c-.381,3.943-.129,9.654,3.217,14.549a24.366,24.366,0,0,0,2.445,2.971C105.852,326,111.018,326.371,115.551,323.389Z" transform="translate(-90.316 -303.866)" fill="#6bc800"/></g></g><path d="M184.247,87.472a2.359,2.359,0,0,0-1.808-1.808,33.843,33.843,0,0,0-4.518-.651V66.044a2.359,2.359,0,0,0-2.359-2.359H159.051V51.892a2.359,2.359,0,0,0-2.359-2.359h-7.076V2.359A2.359,2.359,0,0,0,147.257,0h-18.87a2.359,2.359,0,0,0-2.359,2.359V49.533h-7.076a2.359,2.359,0,0,0-2.359,2.359V63.685H100.083a2.359,2.359,0,0,0-2.359,2.359v21.7a32.106,32.106,0,0,0-12.218.283A2.359,2.359,0,0,0,83.7,89.83c-.867,4.014-2.2,14.194,4.088,22.01,1.431,1.779,5.081,6.308,10.673,6.69a39.487,39.487,0,0,0,5,13.005,14.162,14.162,0,0,0,13.13,19.423h42.457a14.164,14.164,0,0,0,13.13-19.423,39.95,39.95,0,0,0,5.718-19.517,27.465,27.465,0,0,0,2.259-2.537C186.449,101.665,185.113,91.486,184.247,87.472ZM173.2,68.4V85a22.735,22.735,0,0,0-12.774,4.753c-1.9,1.531-6.954,5.6-6.711,11.865a14.2,14.2,0,0,0,4.042,8.841,55.667,55.667,0,0,0-4.878,10.265,18.958,18.958,0,0,0-12.869-7.375l.011-21.45a13.655,13.655,0,0,0,8.071-3.323c4.6-4.26,3.907-10.708,3.645-13.135A20.855,20.855,0,0,0,149.66,68.4H173.2Zm-35.38.147a2.212,2.212,0,0,0-2.212,2.21l-.008,16.4a8.727,8.727,0,0,1-4.917-2.048c-2.863-2.649-2.387-7.05-2.158-9.165.628-5.81,4.53-10.69,9.26-14.121a27.094,27.094,0,0,1,5.693,5.511,2.372,2.372,0,0,0,.17.227,17.349,17.349,0,0,1,3.4,8.382c.229,2.115.7,6.517-2.158,9.165a8.69,8.69,0,0,1-4.865,2.042l.008-16.391a2.211,2.211,0,0,0-2.21-2.212ZM130.746,4.717H144.9V49.533H130.746Zm-9.435,49.533h33.022v9.435H146.6a33.01,33.01,0,0,0-7.537-6.7,2.36,2.36,0,0,0-2.557,0,32.995,32.995,0,0,0-7.537,6.7h-7.662ZM102.442,68.4h23.475a20.862,20.862,0,0,0-2.079,7.037c-.263,2.427-.96,8.875,3.645,13.135A13.676,13.676,0,0,0,135.6,91.9l-.011,21.451a18.959,18.959,0,0,0-13.48,8.289,86.824,86.824,0,0,0-9.924-11.421,12.66,12.66,0,0,0,2.041-6.246c.244-6.267-4.809-10.334-6.711-11.865a20.594,20.594,0,0,0-5.074-2.991V68.4Zm-10.98,40.479c-4.375-5.436-4.067-12.573-3.437-16.533a24.915,24.915,0,0,1,11.242.625c.057.021.115.04.174.057a16.278,16.278,0,0,1,5.118,2.755c1.657,1.334,5.106,4.11,4.954,8.007a7.518,7.518,0,0,1-.875,3.142c-3.688-3.274-7.59-6.349-11.8-9.711a2.359,2.359,0,1,0-2.947,3.684c4.15,3.315,8.183,6.492,11.824,9.733-1.088,1.064-3.366,3.083-6.247,3.2-3.9.152-6.673-3.3-8.007-4.954Zm14.895,18.167a34.748,34.748,0,0,1-3.219-9.185,16.814,16.814,0,0,0,6.035-4.006,81.232,81.232,0,0,1,7.822,8.8A14.1,14.1,0,0,0,106.356,127.05Zm52.694,19.191H116.594a9.435,9.435,0,1,1,4.512-17.72c.959,1.489,1.917,3.061,2.875,4.738a2.359,2.359,0,1,0,4.1-2.34c-1-1.751-2-3.4-3.012-4.956a14.212,14.212,0,0,1,10.523-7.847l-.01,21.048a2.211,2.211,0,1,0,4.423,0l.01-21.058a14.2,14.2,0,0,1,11,8.857q-.844,3.444-1.375,7.15a2.359,2.359,0,1,0,4.67.668,68.354,68.354,0,0,1,1.307-6.762,9.434,9.434,0,1,1,3.435,18.221Zm10.234-19.194a14.094,14.094,0,0,0-12.117-4.264,51.712,51.712,0,0,1,4.182-9.095c3.506,2.464,7.565,3.291,11.559,1.7A35.2,35.2,0,0,1,169.285,127.046Zm7.2-20.523a18.463,18.463,0,0,1-2.563,2.763c-3.32,2.866-6.7,2.835-10,.443A56.657,56.657,0,0,1,174.677,98.55a2.359,2.359,0,1,0-2.947-3.684,61.962,61.962,0,0,0-11.24,11.53,8.751,8.751,0,0,1-2.058-4.962c-.152-3.9,3.3-6.673,4.955-8.007,4.56-3.67,10.814-4.347,16.533-3.437C180.551,93.951,180.859,101.087,176.483,106.524Z"/></g><rect width="190" height="190" transform="translate(1125.051 4221)" fill="none"/></g></svg>