<svg xmlns="http://www.w3.org/2000/svg" width="190" height="190" viewBox="0 0 190 190"><g transform="translate(-1125.051 -4536)"><g transform="translate(1140.655 4561)"><ellipse cx="20.494" cy="13.026" rx="20.494" ry="13.026" transform="matrix(-0.993, 0.116, -0.116, -0.993, 56.731, 105.521)" fill="#92dd7a"/><path d="M73.889,298.79a31.556,31.556,0,0,0-5.657,1.186c1.421,5.093,5.215,15.577,13.869,23.644,8.533-2.487,14.359-8.278,13.658-14.273C94.923,302.2,85.132,297.475,73.889,298.79Z" transform="translate(-40.537 -216.767)" fill="#7ec66a"/><path d="M48.271,235.159a7.383,7.383,0,0,1,10.236-1.9l42.939,29.5v17.863L50.17,245.4A7.383,7.383,0,0,1,48.271,235.159Z" transform="translate(-25.111 -168.416)" fill="#c68d6d"/><ellipse cx="20.494" cy="13.027" rx="20.494" ry="13.027" transform="translate(59.877 42.931) rotate(82.975)" fill="#b1ef97"/><path d="M115.245,246.467c5.566-.686,9.632-6.8,10.5-14.791-11.734-.165-21.411-6.065-26.126-9.559a31.6,31.6,0,0,0,.193,5.6C101.193,238.953,108.1,247.347,115.245,246.467Z" transform="translate(-63.288 -161.26)" fill="#92dd7a"/><path d="M172.924,318.949l19.956,13.711V314.8l-16.229-11.15Z" transform="translate(-116.545 -220.451)" fill="#b2785b"/><ellipse cx="20.495" cy="13.027" rx="20.495" ry="13.027" transform="translate(121.16 9.329) rotate(102.48)" fill="#92dd7a"/><path d="M298.052,74.107c.645,7,3.958,12.439,8.928,13.539,7.024,1.555,14.7-6.144,17.148-17.2a28.088,28.088,0,0,0-.215-13.82C318.323,58.364,306.534,63.117,298.052,74.107Z" transform="translate(-207.39 -41.115)" fill="#7ec66a"/><path d="M298.935,98.755a7.383,7.383,0,0,0-10.236-1.9l-42.939,29.5V144.22l51.276-35.229A7.383,7.383,0,0,0,298.935,98.755Z" transform="translate(-169.425 -69.385)" fill="#c68d6d"/><ellipse cx="20.494" cy="13.026" rx="20.494" ry="13.026" transform="translate(107.008 40.681) rotate(14.159)" fill="#b1ef97"/><path d="M374.259,166.316a31.471,31.471,0,0,0-5.8-2.073c-10.975-2.768-21.3.643-23.059,7.618-1.52,6.027,3.853,12.745,12.421,16.246C358.506,174.213,368.81,168.416,374.259,166.316Z" transform="translate(-241.582 -118.545)" fill="#92dd7a"/><path d="M260.224,171.67l-14.464,9.937V199.47l19.419-13.341Z" transform="translate(-169.425 -124.635)" fill="#b2785b"/><path d="M226.253,143.672h0a7.383,7.383,0,0,1-7.361-7.361V14.862A7.383,7.383,0,0,1,226.253,7.5h0a7.383,7.383,0,0,1,7.361,7.361V136.31A7.383,7.383,0,0,1,226.253,143.672Z" transform="translate(-149.919 -5.446)" fill="#e0ae94"/><path d="M141.493,51.531a29.391,29.391,0,0,0-14.109-7.824c-.53-.134-1.06-.25-1.59-.358l2.982-2.048a9.417,9.417,0,0,0-9.326-16.287,27.186,27.186,0,0,0-1.525-11.758c-1.842-4.762-5.049-7.869-9.031-8.751-4.108-.91-8.437.662-12.19,4.425a29.389,29.389,0,0,0-7.409,14.332,32.637,32.637,0,0,0-.2,13.1,2.055,2.055,0,0,0,4.018-.864,26.885,26.885,0,0,1,.19-11.343,25.258,25.258,0,0,1,6.307-12.318C102.337,9.1,105.319,7.924,108,8.517c5.61,1.242,8.712,9.968,6.916,19.452h0L85.751,48.01V9.417a9.416,9.416,0,1,0-18.833,0V85.382l-5.968-4.1A19.654,19.654,0,0,0,62.223,79a29.392,29.392,0,0,0,2.2-15.984,29.393,29.393,0,0,0-6.013-14.971c-3.378-4.1-7.539-6.081-11.714-5.564s-7.732,3.442-10.012,8.242a27.863,27.863,0,0,0-2.45,12.21A9.416,9.416,0,0,0,23.9,78.673l3.58,2.46a26.674,26.674,0,0,0-9.813,5.14c-3.819,3.285-5.663,7.3-5.194,11.309.489,4.179,3.394,7.753,8.18,10.063a27.768,27.768,0,0,0,11.987,2.53,34.3,34.3,0,0,0,3.982-.234,30.467,30.467,0,0,0,13.756-4.974,2.055,2.055,0,0,0-2.36-3.365,26.3,26.3,0,0,1-11.873,4.257c-9.927,1.162-18.9-2.848-19.59-8.755-.649-5.552,6.289-11.262,15.514-12.819l34.854,23.946v22.633a9.416,9.416,0,0,0,18.833,0v-60l16.523-11.352a16.777,16.777,0,0,0,3.623,5.622,29.391,29.391,0,0,0,14.109,7.825,30.482,30.482,0,0,0,6.278.973,1.879,1.879,0,0,0,2.169-1.934,2.055,2.055,0,0,0-1.934-2.169,29.534,29.534,0,0,1-5.509-.855,25.262,25.262,0,0,1-12.129-6.663c-2.651-2.8-3.741-5.817-3.068-8.485s3.062-4.8,6.726-6.015a27.4,27.4,0,0,1,25.967,6.549c2.652,2.8,3.741,5.817,3.068,8.485-.7,2.79-3.251,4.976-7.173,6.156a2.055,2.055,0,0,0,1.184,3.936c5.283-1.589,8.919-4.9,9.974-9.086C146.589,59.765,145.145,55.392,141.493,51.531Zm-101.1.96c1.656-3.486,4.072-5.59,6.8-5.927a6.371,6.371,0,0,1,.778-.048c2.489,0,5.04,1.448,7.261,4.145a25.255,25.255,0,0,1,5.107,12.862c1.223,9.92-2.884,19.671-9.4,19.691-5.646.017-11.2-7.518-12.374-17.007A25.256,25.256,0,0,1,40.393,52.491ZM26.223,75.286a5.307,5.307,0,0,1,6.01-8.748l2.479,1.7A28.8,28.8,0,0,0,40.5,81.682c3.026,3.676,6.68,5.645,10.411,5.645.433,0,4.667.033,7.365-2.9l8.645,5.939v12.877Zm55.419,55.579a5.312,5.312,0,0,1-5.307,5.307h0a5.312,5.312,0,0,1-5.307-5.307V9.417a5.307,5.307,0,1,1,10.613,0V130.864ZM111.251,43.9c-5.046,1.667-8.392,4.832-9.421,8.912a10.611,10.611,0,0,0-.314,2.227L85.751,65.873V52.984c.037-.022.076-.04.113-.065l34.573-23.753a5.307,5.307,0,0,1,6.01,8.748L119.5,42.685A25.915,25.915,0,0,0,111.251,43.9Z" transform="translate(0)"/></g><rect width="190" height="190" transform="translate(1125.051 4536)" fill="none"/></g></svg>