<svg xmlns="http://www.w3.org/2000/svg" width="190" height="190" viewBox="0 0 190 190"><g transform="translate(-1125.051 -4855)"><g transform="translate(1143.05 4872)"><g transform="translate(10.942 10.941)"><path d="M17.387,166.111H147.732a1.389,1.389,0,0,1,1.387,1.387v88.715a1.389,1.389,0,0,1-1.387,1.387H17.387A1.389,1.389,0,0,1,16,256.212V167.5A1.389,1.389,0,0,1,17.387,166.111Z" transform="translate(-16 -124.481)" fill="#7e6451" fill-rule="evenodd"/><g transform="translate(0 0)"><path d="M65.771,166.111H99.347v.658a8.239,8.239,0,0,0,6.4,8.094c6.075,1.443,14.843,5.008,18.756,13.773,6.294,14.1,14.337,13.428,24.619,10.414-2.906,5.555-8.971,8.114-15.191,8.01-4.788,11.431-1.515,33.714-1.515,33.714-9.061-14.524-10.515-22.148-8.2-36.148a17.089,17.089,0,0,1-7.594-7.543c-5.908-12.053-27.7-10.188-27.7-10.188-.285,46.475,17.722,29.15,28.857,70.7C112.806,240.3,94.28,237.178,82.133,222.85a43.78,43.78,0,0,0-9.86,26.747s-8.71-17.153,4.65-34.5c-3.573-6.871-5.835-15.834-5.76-28.2-18.247,4.972-22.226,19-28.361,34.561,15.245,17.893,5.976,36.142,5.976,36.142a43.77,43.77,0,0,0-9.959-26.867c-4.474,9.332-10.8,18.686-22.329,26.536a1.438,1.438,0,0,1-.142-.139c14.12-19.106,15.609-38.159,20.495-53.682-4.925-.1-13.688.268-20.842,3.469,0,0,4.279-10.193,25.507-14.589,3.843-6.774,9.568-12.435,19.206-16.544a8.171,8.171,0,0,0,5.057-7.653Z" transform="translate(-16 -124.481)" fill="#7e6451" fill-rule="evenodd"/><path d="M350.614,51.847c-4.914-9.023,7.231-7.86,12.8-12a.832.832,0,0,1,1.329.661c.1,14.495-9.378,18.015-14.071,11.427A.775.775,0,0,1,350.614,51.847Z" transform="translate(-256.987 -33.11)" fill="#c6ea94" fill-rule="evenodd"/><path d="M109,66.382c6.075,1.443,14.843,5.008,18.756,13.773,5.866,13.142,13.253,13.451,22.556,10.992a.832.832,0,0,1,.879,1.3c-3.079,4.109-8.177,6.085-13.452,6.131a.819.819,0,0,0-.769.532c-3.313,8.574-2.431,22.65-1.751,29.374a.832.832,0,0,1-1.547.5c-7.158-12.269-8.3-19.716-6.3-32.262a.819.819,0,0,0-.416-.858,16.946,16.946,0,0,1-7.084-7.267c-5.238-10.684-22.96-10.432-26.917-10.237a.832.832,0,0,0-.791.831c-.071,41.385,14.7,31.148,25.708,60.051a.832.832,0,0,1-1.436.806c-7.53-9.761-20.788-14.1-30.4-24.938a.831.831,0,0,0-1.278.04A43.559,43.559,0,0,0,75.8,137.347a.832.832,0,0,1-1.624.148,33.731,33.731,0,0,1,5.7-30.469.815.815,0,0,0,.077-.874c-3.331-6.6-5.464-15.108-5.524-26.636a.833.833,0,0,0-1.073-.793c-17.159,5.171-21.194,18.724-27.106,33.793a.813.813,0,0,0,.135.836c10.778,12.942,8.859,26,7.021,32.145a.832.832,0,0,1-1.624-.148,43.562,43.562,0,0,0-8.867-22.062.832.832,0,0,0-1.4.14,63.851,63.851,0,0,1-18.188,22.758.832.832,0,0,1-1.206-1.114c11.532-17.462,13.328-34.7,17.665-49.045a.832.832,0,0,0-.793-1.073A53.9,53.9,0,0,0,21.623,97.5a.832.832,0,0,1-.931-1.3C23.22,92.97,29.674,87.048,44.4,83.923a.8.8,0,0,0,.548-.4C48.792,76.9,54.488,71.347,63.973,67.3a8.171,8.171,0,0,0,5.057-7.653V16.832A.834.834,0,0,1,69.863,16h31.912a.834.834,0,0,1,.832.832V58.288a8.242,8.242,0,0,0,6.4,8.094Z" transform="translate(-19.261 -16)" fill="#d5a889" fill-rule="evenodd"/><path d="M69.032,166.111h33.576v.658a8.24,8.24,0,0,0,6.4,8.094c6.075,1.443,14.843,5.008,18.756,13.773,5.866,13.142,13.253,13.451,22.556,10.992a.832.832,0,0,1,.879,1.3c-3.079,4.109-8.177,6.085-13.452,6.131a.819.819,0,0,0-.769.532c-3.313,8.574-2.431,22.65-1.751,29.374a.832.832,0,0,1-1.547.5c-7.158-12.269-8.3-19.717-6.3-32.262a.819.819,0,0,0-.416-.858,16.946,16.946,0,0,1-7.084-7.267c-5.238-10.684-22.96-10.432-26.917-10.237a.832.832,0,0,0-.791.831c-.071,41.385,14.7,31.148,25.708,60.051a.832.832,0,0,1-1.436.806c-7.53-9.761-20.788-14.1-30.4-24.937a.831.831,0,0,0-1.278.04A43.559,43.559,0,0,0,75.8,245.828a.832.832,0,0,1-1.624.148,33.731,33.731,0,0,1,5.7-30.469.815.815,0,0,0,.077-.874c-3.331-6.6-5.464-15.108-5.524-26.636a.833.833,0,0,0-1.073-.793C56.191,192.375,52.155,205.928,46.243,221a.813.813,0,0,0,.135.836c10.778,12.942,8.859,26,7.021,32.145a.832.832,0,0,1-1.624-.148,43.562,43.562,0,0,0-8.867-22.062.832.832,0,0,0-1.4.14,63.851,63.851,0,0,1-18.188,22.758.832.832,0,0,1-1.206-1.114c11.532-17.462,13.328-34.7,17.665-49.045a.832.832,0,0,0-.793-1.073,53.9,53.9,0,0,0-17.359,2.543.832.832,0,0,1-.931-1.3c2.529-3.229,8.983-9.151,23.711-12.275a.8.8,0,0,0,.548-.4c3.842-6.632,9.537-12.18,19.023-16.224a8.171,8.171,0,0,0,5.057-7.653v-2.019Z" transform="translate(-19.261 -124.481)" fill="#efc7a4" fill-rule="evenodd"/></g></g><path d="M142.119,142.117V90.967a19,19,0,0,1-11.907,4.479c-3.86,11.116-.967,31.3-.937,31.507a1.942,1.942,0,0,1-3.568,1.309c-8.824-14.143-10.8-22.151-8.682-36.147a18.7,18.7,0,0,1-7.208-7.718c-4.33-8.834-18.924-9.3-24.021-9.186.11,23.581,5.285,29.183,11.793,36.23,5.542,6,11.805,12.787,16.8,30.675ZM12.884,54.513V87.731c3.516-3.48,10.178-8.01,22.32-10.663,4.463-7.5,10.743-12.8,19.691-16.61a6.216,6.216,0,0,0,3.878-5.869v-.077Zm49.771-3.884H82.2V29.352a1.941,1.941,0,0,1,3.882,0V50.629h6.262v-13.3a31.162,31.162,0,0,1-3.371.406c-.042,0-.084,0-.126,0a1.941,1.941,0,0,1-.123-3.877,27.768,27.768,0,0,0,3.619-.485v-20.5H86.087v6.692a1.941,1.941,0,1,1-3.882,0V12.882H62.655V50.629Zm-28.539,70.2a63.32,63.32,0,0,1-17.534,21.287H41.7a40.479,40.479,0,0,0-7.588-21.287Zm14.271,11.784c.385-6.268-.794-15.623-8.417-25.057q.527-1.349,1.04-2.682c5.173-13.4,9.319-24.137,23.173-28.9.209,10,1.986,18.332,5.409,25.379a35.787,35.787,0,0,0-7,24.111,33.08,33.08,0,0,0,2.89,11.471,1.94,1.94,0,0,0,3.671-.818,41.959,41.959,0,0,1,8.027-23.775c4.7,5,10.074,8.555,15.291,12.008,7.747,5.125,14.523,9.611,17.739,17.767H46.459a34.768,34.768,0,0,0,1.928-9.5Zm-35.5,5.177V94.64a46.557,46.557,0,0,1,16.293-2.8c-.935,3.253-1.746,6.607-2.6,10.112-2.67,11.028-5.663,23.364-13.7,35.839Zm114.2-45.02c-2.979,7.11-3.013,17.942-2.541,25.625-4.638-9.211-5.288-15.989-3.468-26.992a1.943,1.943,0,0,0-1.018-2.038A15.14,15.14,0,0,1,113.3,82.69c-6.419-13.1-28.669-11.349-29.613-11.268a1.941,1.941,0,0,0-1.776,1.921c-.163,26.671,5.854,33.188,12.822,40.735a57.433,57.433,0,0,1,10.7,14.949,93.479,93.479,0,0,0-10.818-7.916c-5.587-3.7-11.364-7.518-16.06-13.056a1.943,1.943,0,0,0-2.982.025,45.311,45.311,0,0,0-9,18.1,31.949,31.949,0,0,1,6.826-23.44,1.94,1.94,0,0,0,.184-2.08c-3.8-7.3-5.608-16.226-5.541-27.288a1.943,1.943,0,0,0-2.451-1.886c-17.719,4.828-22.814,18.023-28.207,31.993q-.713,1.846-1.45,3.73a1.938,1.938,0,0,0,.328,1.969c5.943,6.974,8.72,14.723,8.255,23.032-.033.6-.083,1.176-.146,1.737a44.573,44.573,0,0,0-9.117-17.988,1.942,1.942,0,0,0-3.247.4,61.5,61.5,0,0,1-12.728,18.28c6.08-11.144,8.7-21.957,11.072-31.766,1.054-4.351,2.049-8.459,3.281-12.374a1.939,1.939,0,0,0-1.813-2.524q-.818-.017-1.618-.017A58.743,58.743,0,0,0,16.91,89.328c3.428-2.906,9.513-6.485,19.933-8.642a1.939,1.939,0,0,0,1.295-.942c4.045-7.13,9.854-12.126,18.279-15.717a10.114,10.114,0,0,0,6.237-9.438v-.077H92.428a10.227,10.227,0,0,0,7.81,8.7c6.009,1.425,13.91,4.783,17.432,12.673,5.656,12.671,12.976,14.333,20.861,12.972a16.081,16.081,0,0,1-9.628,2.724,1.924,1.924,0,0,0-1.823,1.19Zm15.04-38.258v29.53c-4.471,1.233-8.159,1.794-11.351.831-3.812-1.151-6.848-4.509-9.553-10.569-4.169-9.34-13.22-13.243-20.079-14.873v0a6.263,6.263,0,0,1-4.776-4.922h45.76Zm-36.4-26.949a29.655,29.655,0,0,0,2.54-1.9,1.941,1.941,0,0,1,2.564,2.914,30.362,30.362,0,0,1-2.538,1.95,3.9,3.9,0,0,0,3.171.261c2.332-.816,4.86-4.03,5.249-10.439a34.33,34.33,0,0,1-5.375,2.041c-2.619.833-5.326,1.691-5.852,3.007A3.159,3.159,0,0,0,105.716,27.563ZM146,52.571v91.488a1.942,1.942,0,0,1-1.94,1.942H10.943A1.942,1.942,0,0,1,9,144.059V52.571a1.941,1.941,0,0,1,1.942-1.942h47.83V10.94A1.94,1.94,0,0,1,60.713,9H94.29a1.94,1.94,0,0,1,1.941,1.94v21.4a37.935,37.935,0,0,0,6.139-2.721,7.037,7.037,0,0,1-.5-5.665c1.208-3.018,4.8-4.158,8.283-5.262,2.757-.874,5.608-1.78,6.981-3.439a1.94,1.94,0,0,1,3.434,1.12c.659,11.079-3.614,16.6-7.832,18.079a7.823,7.823,0,0,1-2.6.449,8.189,8.189,0,0,1-5.405-2.135,40.917,40.917,0,0,1-8.5,3.653V50.629h47.83A1.941,1.941,0,0,1,146,52.571ZM70.913,37.888a1.943,1.943,0,0,1,1.942,1.942v4.163a1.941,1.941,0,1,1-3.883,0V39.83A1.943,1.943,0,0,1,70.913,37.888Zm1.942-17.523V31.272a1.941,1.941,0,1,1-3.883,0V20.365a1.941,1.941,0,1,1,3.883,0Z" fill-rule="evenodd"/></g><rect width="190" height="190" transform="translate(1125.051 4855)" fill="none"/></g></svg>