<svg height="190" viewBox="0 0 190.052 190" width="190.052" xmlns="http://www.w3.org/2000/svg"><ellipse cx="49.026" cy="30.217" fill="#0e9c4a" rx="49.026" ry="30.217" transform="matrix(.37088163 -.92868015 .92868015 .37088163 97.48 136.179)"/><path d="m369.565 194.945c-10.043 25.141-30.751 40.508-46.248 34.317-5.351-2.138-9.386-6.585-11.964-12.513a56.593 56.593 0 0 0 44.147-79.68 19.329 19.329 0 0 1 4.191 1.139c15.499 6.192 19.923 31.583 9.874 56.737z" opacity=".12" transform="translate(-197.801 -81.843)"/><ellipse cx="30.217" cy="49.026" fill="#0e9c4a" rx="30.217" ry="49.026" transform="matrix(.92868015 -.37088163 .37088163 .92868015 -0 67.591)"/><path d="m95.72 228.814c-7.361 2.929-15.906 1-23.919-4.538a49.166 49.166 0 0 0 -11.307-86.935c15.359-5.024 35.287 10.2 45.107 34.726 10.032 25.134 5.616 50.556-9.88 56.748z" opacity=".12" transform="translate(-31.287 -81.389)"/><ellipse cx="94.975" cy="75.243" fill="#0e9c4a" rx="33.912" ry="55.02"/><path d="m255.112 87.986c0 30.383-15.183 55.02-33.912 55.02-6.467 0-12.524-2.954-17.678-8.059a63.512 63.512 0 0 0 12.837-101.423 21.69 21.69 0 0 1 4.842-.558c18.729 0 33.912 24.621 33.912 55.02z" opacity=".12" transform="translate(-126.226 -12.743)"/><path d="m158.079 64.032c-8.079-3.232-17.62-1.232-26.857 5.625a51.483 51.483 0 0 0 -5.611 4.887c-2.975-26.552-17.575-46.778-35.1-46.778s-32.136 20.247-35.1 46.82c-10.254-10.099-22.376-14.586-32.463-10.554-16.368 6.539-21.234 33.011-10.848 59.009 7.71 19.3 27.09 41.9 46.865 35.862l8.485 21.239a1.749 1.749 0 0 0 3.248-1.3l-8.481-21.23c7.215-3.629 11.934-11.384 13.8-21.234a25.3 25.3 0 0 0 12.747 4.851v25.857a1.748 1.748 0 1 0 3.5 0v-25.855a25.3 25.3 0 0 0 12.756-4.856c1.867 9.85 6.579 17.61 13.793 21.239l-8.482 21.231a1.749 1.749 0 1 0 3.248 1.3l8.485-21.24c18.98 5.749 38.656-15.314 46.866-35.861 8.154-20.415 8.906-51.118-10.849-59.009zm-97.167 90.319-8.447-21.145 6.535-15.238a1.748 1.748 0 0 0 -3.213-1.38l-5.159 12.025-4.178-10.466 5.55-12.947a1.748 1.748 0 1 0 -3.213-1.378l-4.176 9.733-4.679-11.712 4.714-10.984a1.748 1.748 0 1 0 -3.213-1.38l-3.333 7.771-4.092-10.25a1.749 1.749 0 0 0 -3.248 1.3l4.09 10.239-7.767-3.333a1.748 1.748 0 1 0 -1.383 3.214l10.981 4.713 4.678 11.71-9.729-4.175a1.748 1.748 0 1 0 -1.38 3.213l12.95 5.554 4.18 10.465-12.022-5.158a1.748 1.748 0 1 0 -1.38 3.213l15.236 6.538 8.448 21.148c-17.607 5.036-35.392-16.569-42.314-33.9-9.671-24.206-5.681-48.641 8.897-54.463 10.823-4.322 22.784 3.039 30.776 11.822-1.18 19.679 4.231 42.436 17.957 54.833-1.378 9.509-5.5 16.994-12.065 20.417zm31.35-42.517 13.22-13.22a1.748 1.748 0 0 0 -2.472-2.472l-10.748 10.747v-13.254l11.238-11.235a1.748 1.748 0 0 0 -2.472-2.472l-8.767 8.767v-14.761l9.544-9.545a1.748 1.748 0 0 0 -2.472-2.472l-7.072 7.073v-12.89a1.748 1.748 0 0 0 -3.5 0v12.9l-7.071-7.077a1.748 1.748 0 0 0 -2.473 2.477l9.548 9.549v14.751l-8.765-8.769a1.748 1.748 0 0 0 -2.476 2.469l11.241 11.246v13.254l-10.748-10.749a1.748 1.748 0 0 0 -2.472 2.472l13.22 13.221v25.879c-41.337-3.686-39.705-106.46 1.749-106.46 41.481 0 43.051 102.778 1.748 106.461zm73.419 9.91c-9.31 23.3-27.934 38.027-42.317 33.9l8.449-21.15 15.236-6.538a1.748 1.748 0 0 0 -1.38-3.213l-12.021 5.157 4.181-10.465 12.944-5.554a1.748 1.748 0 1 0 -1.38-3.213l-9.729 4.175 4.678-11.711 10.981-4.712a1.748 1.748 0 0 0 -1.38-3.213l-7.767 3.332 4.09-10.238a1.749 1.749 0 1 0 -3.246-1.301l-4.095 10.249-3.334-7.772a1.748 1.748 0 1 0 -3.213 1.378l4.713 10.986-4.678 11.71-4.177-9.734a1.748 1.748 0 1 0 -3.213 1.38l5.556 12.946-4.179 10.472-5.16-12.026a1.748 1.748 0 0 0 -3.213 1.38l6.538 15.239-8.447 21.144c-6.56-3.423-10.687-10.909-12.064-20.417 13.994-12.639 19.086-35.723 17.96-54.765a51.287 51.287 0 0 1 7.294-6.7c6.894-5.114 15.536-8.36 23.477-5.185 17.815 7.115 16.077 36.486 8.896 54.459z" transform="translate(4.461 -9.291)"/><path d="m.052 0h190v190h-190z" fill="none"/></svg>