<svg xmlns="http://www.w3.org/2000/svg" width="220.708" height="220.707" viewBox="0 0 220.708 220.707"><path d="M704,390.946H613l87.9-23.553-1.32-4.922-87.9,23.553,78.811-45.5-2.547-4.413-78.811,45.5,64.349-64.349-3.6-3.6-64.348,64.348,45.5-78.811-4.413-2.547-45.5,78.811,23.553-87.9-4.922-1.32-23.554,87.906V283.141h-5.1v91l-23.553-87.9-4.922,1.32,23.553,87.9-45.5-78.811-4.413,2.547,45.5,78.811-64.348-64.348-3.6,3.6,64.35,64.349-78.813-45.5-2.548,4.413,78.811,45.5-87.9-23.553-1.319,4.922,87.9,23.553h-91v5.095h91l-87.9,23.553,1.319,4.922,87.9-23.552-78.809,45.5,2.548,4.413,78.813-45.5-64.35,64.35,3.6,3.6,64.351-64.35-45.5,78.814,4.413,2.547,45.5-78.81-23.553,87.9,4.922,1.319,23.553-87.9v91h5.1V412.843l23.554,87.9,4.922-1.319-23.553-87.9,45.5,78.81,4.413-2.547-45.5-78.814,64.351,64.35,3.6-3.6-64.349-64.349,78.811,45.5,2.547-4.413-78.809-45.5,87.9,23.552,1.32-4.922L613,396.041h91Z" transform="translate(-483.29 -283.141)" fill="#fff"/></svg>