<svg xmlns="http://www.w3.org/2000/svg" xmlns:xlink="http://www.w3.org/1999/xlink" width="110.048" height="135.825" viewBox="0 0 110.048 135.825"><defs><clipPath id="a"><rect width="32.509" height="23.995" transform="translate(0 0)" fill="none"/></clipPath></defs><g transform="translate(-1246.914 -184.3)"><g transform="translate(12781.333 11977)"><path d="M206.85,99.851h0c11.223-15.011-.987-36.158-19.6-33.944-7.388-17.225-31.807-17.225-39.195,0-18.611-2.214-30.821,18.933-19.6,33.944-11.223,15.011.987,36.158,19.6,33.944,7.388,17.225,31.807,17.225,39.195,0C205.863,136.009,218.073,114.862,206.85,99.851Z" transform="translate(-11656.156 -11845.688)" fill="#fff"/><g transform="translate(-11535.509 -11790.016)"><g transform="translate(1.09 8.173)"><g transform="translate(0 0)"><g transform="translate(0 37.357)"><path d="M88.549,137.289c-3.422-.971-7.076-1.249-10.545-1.942-4.671-.925-9.018-2.96-13.689-3.931A114.473,114.473,0,0,0,50.533,129.7c-5.134-.416-10.267-.925-15.4-1.295A36.739,36.739,0,0,0,21.3,129.565c-1.017.324-2.035.694-3.006,1.11A43.921,43.921,0,0,0,8.078,134.7c-2.4,1.295-5.272,2.775-6.521,5.365a6.035,6.035,0,0,0,1.295,6.475,13.216,13.216,0,0,0,6.336,3.376,28.279,28.279,0,0,0,6.2.925,1.638,1.638,0,0,0,.139,1.295c.74,1.387,2.59,1.341,3.977,1.341,2.636,0,5.689.277,8.047-1.064a5.06,5.06,0,0,0,2.5,1.757,18.936,18.936,0,0,0,4.532,1.017,39.367,39.367,0,0,0,13.366-.786,3.394,3.394,0,0,0,1.942.971,18.227,18.227,0,0,0,4.486.139,28.356,28.356,0,0,0,9.573-2.22,6.47,6.47,0,0,0,1.9-1.341,12.082,12.082,0,0,0,4.949-.509c1.989-.555,4.024-1.11,6.012-1.711,3.1-.925,6.058-2.174,9.065-3.284,2.22-.832,5.319-1.8,6.613-3.977,1.665-2.682-1.9-4.486-3.977-5.087Z" transform="translate(-1.09 -110.072)" fill="#d2a481"/><g transform="translate(3.828)"><path d="M10.908,122.569a14.887,14.887,0,0,0,2.081,1.8,22.569,22.569,0,0,0,3.7,2.127c2.682,1.2,6.336.647,9.2,1.249,4.949,1.017,9.388,3.006,14.429,3.561a76.5,76.5,0,0,0,15.262,0c2.5-.231,4.995-.509,7.446-.971a66.112,66.112,0,0,0,7.908-2.035c2.59-.832,5.18-1.665,7.816-2.4,1.8-.509,3.607-.832,5.411-1.2,1.341-.277,2.682-.555,3.977-.925a10.893,10.893,0,0,0,3.654-1.665,2.069,2.069,0,0,0,.925-2.636,6.183,6.183,0,0,0-1.48-1.8c-.971-.925-1.989-1.8-3.006-2.682a145.882,145.882,0,0,1-11.978-10.73c-1.9-2.035-3.792-4.07-5.735-6.012-.925-.879-1.85-1.8-2.821-2.682A25.582,25.582,0,0,0,62.937,92a23.985,23.985,0,0,0-5.781-2.312,20.2,20.2,0,0,0-11.238.6A32.471,32.471,0,0,0,35.6,96.716c-3.561,3.006-7.03,6.1-10.545,9.2-1.711,1.526-3.469,3.006-5.226,4.486-1.387,1.156-2.729,2.4-4.209,3.422-1.8,1.2-4.07,2.035-5.457,3.746-1.48,1.85-.694,3.607.6,5.041Z" transform="translate(-9.366 -89.062)" fill="#8c664b"/><path d="M93.039,119.265a6.183,6.183,0,0,0-1.48-1.8c-.971-.925-1.989-1.8-3.006-2.682a145.884,145.884,0,0,1-11.978-10.73c-1.9-2.035-3.792-4.07-5.735-6.012-.925-.879-1.85-1.8-2.821-2.682a25.581,25.581,0,0,0-4.764-3.561,23.985,23.985,0,0,0-5.781-2.312,19.533,19.533,0,0,0-5.411-.509,2.7,2.7,0,0,1,.832.185,3.369,3.369,0,0,1,2.127,1.572c.6,1.2.139,2.5.231,3.792a28.79,28.79,0,0,0,1.295,5.134,18.437,18.437,0,0,1,.555,5.272,11.952,11.952,0,0,1-.971,4.579,10.869,10.869,0,0,1-3.052,3.885,29.389,29.389,0,0,0-3.654,3.1,8.889,8.889,0,0,0-1.295,1.942,11.119,11.119,0,0,0-.74,2.4,12.042,12.042,0,0,1-1.295,4.44,4.53,4.53,0,0,1-1.665,1.572,6.266,6.266,0,0,1-2.4.694,25.736,25.736,0,0,1-2.682.046c-.925,0-1.85.139-2.775.139a24.024,24.024,0,0,1-5.735-.694,42.548,42.548,0,0,0-5.827-.971c-1.757-.139-3.561,0-5.319-.231a13.142,13.142,0,0,1-4.532-1.526,15,15,0,0,1-3.469-2.4A9.054,9.054,0,0,1,9.7,119.5a4.622,4.622,0,0,0,1.434,2.821,14.887,14.887,0,0,0,2.081,1.8,22.569,22.569,0,0,0,3.7,2.127c2.682,1.2,6.336.647,9.2,1.249,4.949,1.017,9.388,3.006,14.429,3.561a76.5,76.5,0,0,0,15.262,0c2.5-.231,4.995-.509,7.446-.971a66.106,66.106,0,0,0,7.908-2.035c2.59-.832,5.18-1.665,7.816-2.4,1.8-.509,3.607-.832,5.411-1.2,1.341-.277,2.682-.555,3.977-.925a10.893,10.893,0,0,0,3.654-1.665,2.069,2.069,0,0,0,.925-2.636Z" transform="translate(-9.546 -88.95)" fill="#8c664b" opacity="0.6"/><path d="M107.286,172.106a5.178,5.178,0,0,0-.925-.786,3.671,3.671,0,0,0-1.249-.462,8.755,8.755,0,0,0-2.682-.185c-.832,0-1.711.092-2.544.139a23.358,23.358,0,0,0-2.59.277,12.085,12.085,0,0,0-1.249.277,4.243,4.243,0,0,0-1.064.416,7.332,7.332,0,0,0-1.48,1.2,8.912,8.912,0,0,0-1.341,1.619,3.2,3.2,0,0,0-.462.879,80.856,80.856,0,0,0,8.186-.416c2.5-.231,4.995-.509,7.446-.971a7.188,7.188,0,0,0,1.064-.231,8.879,8.879,0,0,0-1.156-1.757Z" transform="translate(-53.622 -132.864)" fill="#8c664b" opacity="0.6"/><path d="M148.511,119.884a6.184,6.184,0,0,0-1.48-1.8c-.971-.925-1.989-1.8-3.006-2.682a145.878,145.878,0,0,1-11.978-10.73c-1.9-2.035-3.792-4.07-5.735-6.012-.925-.879-1.85-1.8-2.821-2.682a25.582,25.582,0,0,0-4.764-3.561,23.986,23.986,0,0,0-5.781-2.312H112.9a18.644,18.644,0,0,1,2.729,3.006,43.739,43.739,0,0,0,3.746,4.486c.879.832,1.9,1.526,2.821,2.266,1.11.879,2.22,1.757,3.284,2.636a37.113,37.113,0,0,1,5.781,5.966,25.318,25.318,0,0,1,2.266,3.515c.324.6.6,1.2.879,1.85.185.462.37.879.6,1.341.509.879,1.156,1.711,1.665,2.59a4.987,4.987,0,0,1,.879,2.636,2.686,2.686,0,0,1-1.619,2.266,8.259,8.259,0,0,1-3.469.786,13.667,13.667,0,0,0-3.654.509,7.859,7.859,0,0,0-3.1,2.544,13.206,13.206,0,0,0-1.85,2.96l2.775-.832c2.59-.832,5.18-1.665,7.816-2.4,1.8-.509,3.607-.832,5.411-1.2,1.341-.277,2.682-.555,3.977-.925a10.893,10.893,0,0,0,3.654-1.665,2.069,2.069,0,0,0,.925-2.636Z" transform="translate(-65.018 -89.568)" fill="#8c664b" opacity="0.6"/><path d="M148.756,167.069c-.37-2.035-4.116-1.711-5.642-1.156-1.249.462-2.914,1.387-3.145,2.821-.278,1.711,1.665,2.174,2.96,2.174a10.933,10.933,0,0,0,4.024-.786C148.062,169.659,149.5,168.364,148.756,167.069Z" transform="translate(-79.553 -130.093)" fill="#634833"/><path d="M168.466,163.966a.741.741,0,0,0-.694-.185,1,1,0,0,0-.509.092.4.4,0,0,0-.277.139s-.092,0-.092.046h0c-.092,0-.185.092-.277.139a.908.908,0,0,0-.416.6c0,.185,0,.462.185.555a1.7,1.7,0,0,0,1.8-.139c.37-.278.74-.832.324-1.249Z" transform="translate(-93.667 -129.164)" fill="#634833"/><path d="M43.815,167.462a4.362,4.362,0,0,0-2.636-1.8.657.657,0,0,1-.277-.092,5.2,5.2,0,0,0-1.9-.185h-.786a7.779,7.779,0,0,0-5.18,1.9,3,3,0,0,0-.832.879c-.647,1.295.74,2.22,1.711,2.729a13.329,13.329,0,0,0,7.307,1.434,3.9,3.9,0,0,0,2.867-1.48,3.1,3.1,0,0,0-.231-3.376Z" transform="translate(-21.554 -130.024)" fill="#997053"/><path d="M45.836,168.126a4.445,4.445,0,0,0-1.85-1.526,2.425,2.425,0,0,1,.509.462,2.5,2.5,0,0,1,.6,2.035,2.882,2.882,0,0,1-1.48,2.174,7.276,7.276,0,0,1-4.07.832,10.478,10.478,0,0,1-3.746-.647h.092A13.329,13.329,0,0,0,43.2,172.89a3.9,3.9,0,0,0,2.867-1.48,3.1,3.1,0,0,0-.231-3.376Z" transform="translate(-23.575 -130.688)" fill="#8c664b" opacity="0.6"/><path d="M71.252,176.586a.353.353,0,0,1-.231-.093,2.161,2.161,0,0,0-.462-.231,1.768,1.768,0,0,0-1.572.6.722.722,0,0,0-.185.879l.046.046a.639.639,0,0,0,.231.416,1.616,1.616,0,0,0,.6.231,1.044,1.044,0,0,0,.74-.092,2.157,2.157,0,0,0,.925-.555.72.72,0,0,0-.139-1.249Z" transform="translate(-41.267 -135.864)" fill="#8c664b"/><path d="M108.7,174.379a.143.143,0,0,0-.046-.092,1.089,1.089,0,0,0-.092-.37c-.462-1.11-1.942-1.48-3.006-1.619a8.7,8.7,0,0,0-2.451,0c-1.989.231-4.44.6-6.1,1.85a1.968,1.968,0,0,0-.879,2.359,2.115,2.115,0,0,0,1.526.832,4.331,4.331,0,0,0,.74.185,19.868,19.868,0,0,0,4.394.231c2.035-.092,4.856-.416,5.92-2.451.139-.277.277-.6.046-.879Z" transform="translate(-55.914 -133.704)" fill="#634833"/><path d="M186.544,155.281a1.848,1.848,0,0,0-1.434-.231,3.738,3.738,0,0,0-2.174.647c-.786.462-2.127,1.711-1.387,2.729.786,1.064,2.5.416,3.422,0a3.906,3.906,0,0,0,1.757-1.341,1.308,1.308,0,0,0-.231-1.8Z" transform="translate(-101.802 -124.456)" fill="#634833"/><path d="M13.883,156.239a3.229,3.229,0,0,0-3.006.37,1.762,1.762,0,0,0-1.249,1.48c-.6,2.867,3.33,4.3,5.5,4.347a1.379,1.379,0,0,0,1.295-1.11,5.554,5.554,0,0,0-2.544-5.087Z" transform="translate(-9.474 -124.998)" fill="#997053"/><path d="M13.955,156.339a1.357,1.357,0,0,0-.462-.139,5,5,0,0,1,1.434,1.665,2.65,2.65,0,0,1-.139,2.682,1.736,1.736,0,0,1-1.156.647,2.06,2.06,0,0,1-1.064-.139,5.9,5.9,0,0,1-2.266-1.434,4.671,4.671,0,0,1-.6-.74c.139,2.359,3.561,3.561,5.55,3.607a1.379,1.379,0,0,0,1.295-1.11A5.554,5.554,0,0,0,14,156.293Z" transform="translate(-9.546 -125.098)" fill="#8c664b" opacity="0.6"/><path d="M129.9,165.312a1.886,1.886,0,0,0-2.127.185,2.546,2.546,0,0,0-1.156.462,2.312,2.312,0,0,0-.879,1.11.952.952,0,0,0,.647,1.249,3.574,3.574,0,0,0,1.85.046,3.259,3.259,0,0,0,1.8-.832,1.433,1.433,0,0,0-.092-2.266Z" transform="translate(-71.885 -129.862)" fill="#8c664b" opacity="0.4"/><path d="M174.819,150.709a.346.346,0,0,0-.046-.231c0-.093-.092-.139-.139-.185a.669.669,0,0,0-.324-.092h-.231a.831.831,0,0,0-.416.185,1.081,1.081,0,0,0-.324.324s0,.092-.046.092a.5.5,0,0,0-.092.278v.185c0,.093.092.185.185.277.046,0,.092.046.185.092h.278a.34.34,0,0,0,.277-.092l.185-.092a.666.666,0,0,0,.139-.092h0a.557.557,0,0,0,.231-.231.657.657,0,0,0,.092-.278v-.092h0Z" transform="translate(-97.43 -121.873)" fill="#634833"/><path d="M69.767,106.772c-1.341-.462-2.682.6-3.422,1.9-.046.046-.092.139-.139.185-.647.786-2.22,2.914-.786,3.746a2.577,2.577,0,0,0,2.174-.231,5.551,5.551,0,0,0,1.85-1.434c.74-.971,2.22-3.469.324-4.116Z" transform="translate(-39.182 -98.47)" fill="#8c664b" opacity="0.5"/><path d="M36.889,140c.647-1.387-2.174-.694-1.434.37.092.092.185.231.324.231h.231a.608.608,0,0,0,.462-.139.557.557,0,0,0,.231-.231c.092-.092.139-.139.139-.231Z" transform="translate(-23.322 -115.973)" fill="#8c664b" opacity="0.5"/><path d="M44.535,141.546a2.033,2.033,0,0,0-2.312.139,3.326,3.326,0,0,0-.971.555c-.647.509-1.665,1.619-1.064,2.544.647,1.017,2.266.37,3.006-.092C44.072,144.182,45.783,142.563,44.535,141.546Z" transform="translate(-25.835 -117.057)" fill="#8c664b" opacity="0.5"/><path d="M23.441,151.17v-.046c0-.092-.046-.139-.139-.185a.637.637,0,0,0-.185-.139h-.185a.587.587,0,0,0-.277.046h-.092a199.052,199.052,0,0,1-.185.093h-.046l-.046.046h0a.143.143,0,0,1-.046.092h0a.143.143,0,0,1-.046.092h0a.351.351,0,0,1-.092.185h0v.139a.34.34,0,0,0,.092.277l.092.092a.669.669,0,0,0,.324.092.586.586,0,0,0,.277-.046.4.4,0,0,0,.277-.139c.092-.046.139-.139.231-.231a1.01,1.01,0,0,0,.139-.231v-.324Z" transform="translate(-16.211 -122.195)" fill="#8c664b" opacity="0.5"/><path d="M59.906,152.182a2.058,2.058,0,0,0-.971.555,3.492,3.492,0,0,0-.509.647h0a.555.555,0,0,0-.046.694.707.707,0,0,0,.832.139c.231-.139.462-.277.74-.462a2.541,2.541,0,0,0,.416-.324,1.1,1.1,0,0,0,.278-.509C60.831,152.413,60.368,152.089,59.906,152.182Z" transform="translate(-35.656 -122.93)" fill="#8c664b" opacity="0.5"/><path d="M92.4,100.6c-1.064-.786-2.359.37-2.775,1.341a.979.979,0,0,1-.139.324,5.153,5.153,0,0,0-.324,3.145,1.112,1.112,0,0,0,1.2.832,2.643,2.643,0,0,0,1.757-1.295,5.024,5.024,0,0,0,.694-2.127c.092-.694.139-1.711-.509-2.174Z" transform="translate(-52.191 -95.071)" fill="#8c664b" opacity="0.5"/><path d="M88.724,137.277c-.231-.647-1.11-.324-1.387.139a.755.755,0,0,0-.093.694.457.457,0,0,0,.324.324h.092c.093.324.6.092.647-.185a1.18,1.18,0,0,0,.324-.462v-.046h0a.547.547,0,0,0,.046-.462Z" transform="translate(-51.201 -114.731)" fill="#8c664b" opacity="0.5"/><path d="M101.208,151.768a1.342,1.342,0,0,0-1.711-.832,2.378,2.378,0,0,0-1.757,1.989,2.277,2.277,0,0,0-.277.786c-.139.879.139,2.035,1.2,2.081,1.249.046,2.127-1.2,2.4-2.266a3.254,3.254,0,0,0,.092-1.757Z" transform="translate(-56.701 -122.238)" fill="#8c664b" opacity="0.4"/><path d="M127.6,140.948a.5.5,0,0,0-.37-.37,1.281,1.281,0,0,0-.6.046,2.011,2.011,0,0,0-.324.185c-.092.092-.185.139-.231.277a.882.882,0,0,0-.092.6.507.507,0,0,0,.555.37,1.105,1.105,0,0,0,.647-.231h.046s.093-.046.093-.092a.665.665,0,0,1,.092-.139.774.774,0,0,0,.185-.694Z" transform="translate(-72.038 -116.69)" fill="#8c664b" opacity="0.4"/><path d="M142.188,149.21a1.19,1.19,0,0,0-1.341-.925.787.787,0,0,0-.324.046,2.036,2.036,0,0,0-.74.093,1.871,1.871,0,0,0-1.064,2.127,1.385,1.385,0,0,0,.879.879,1.835,1.835,0,0,0,1.8-.324,1.921,1.921,0,0,0,.832-1.9Z" transform="translate(-78.859 -120.837)" fill="#8c664b" opacity="0.4"/><path d="M134.331,121.837c-.046-1.2-.971-3.145-2.266-3.515-1.48-.416-2.266,1.2-2.174,2.4a4.245,4.245,0,0,0,.462,1.48,2.878,2.878,0,0,0,.6,1.434,1.689,1.689,0,0,0,1.942.37,2.26,2.26,0,0,0,1.434-2.127Z" transform="translate(-74.147 -104.702)" fill="#8c664b" opacity="0.4"/><path d="M159.548,151a.432.432,0,0,0-.231-.324.228.228,0,0,1-.139-.046.667.667,0,0,1-.139-.092.88.88,0,0,0-1.11.555.633.633,0,0,0,.092.694.33.33,0,0,0,.277.139h.416a.383.383,0,0,0,.37-.139h0c.139-.046.231-.185.324-.277a1.013,1.013,0,0,0,.139-.231V151Z" transform="translate(-89.189 -122.026)" fill="#8c664b" opacity="0.4"/><path d="M98.665,126.17a.185.185,0,0,0-.092-.185c-.092-.092-.185-.185-.277-.185h-.416a.255.255,0,0,0-.231.092.38.38,0,0,0-.277.185.73.73,0,0,0-.231.277c0,.046-.092.139-.092.185,0,.092-.046.139-.046.231a.39.39,0,0,0,.092.324s0,.092.046.092c0,.046.092.092.185.139h.37a.691.691,0,0,0,.324-.139s.092-.046.092-.092h0s.092-.046.092-.092a.474.474,0,0,0,.231-.277.351.351,0,0,1,.092-.185,1,1,0,0,0,0-.37Z" transform="translate(-56.471 -108.757)" fill="#8c664b" opacity="0.5"/><path d="M74.641,156.035a3.637,3.637,0,0,0-1.85.185,3.976,3.976,0,0,0-1.989,1.064c-1.064.925-2.174,2.4-1.526,3.839,1.48,3.376,6.567.324,6.937-2.312a2.316,2.316,0,0,0-1.526-2.821Z" transform="translate(-41.466 -124.979)" fill="#8c664b" opacity="0.5"/><path d="M39.327,168.015c-.509-.647-1.711-.694-2.775-.462a3.307,3.307,0,0,0-1.156.139,3.758,3.758,0,0,0-2.22,1.387,1.3,1.3,0,0,0,.647,1.9,4.334,4.334,0,0,0,2.544,0A5.819,5.819,0,0,0,38.633,170c.555-.416,1.2-1.341.694-2.035Z" transform="translate(-22.061 -131.132)" fill="#8c664b" opacity="0.5"/><path d="M13.975,158.084a1.912,1.912,0,0,0-.879-.231H13a1.034,1.034,0,0,0-1.11.416,1.465,1.465,0,0,0,0,2.081,1.711,1.711,0,0,0,1.249.324,1.911,1.911,0,0,0,1.619-.786c.462-.74-.092-1.434-.74-1.8Z" transform="translate(-10.491 -125.964)" fill="#8c664b" opacity="0.5"/><path d="M116.836,111.316a.924.924,0,0,0-1.249,0c-.277.231-.74.786-.416,1.156,0,.046.092.092.139.139a2.439,2.439,0,0,0,.139.555c.046.139.277.185.416.185a1.315,1.315,0,0,0,.555-.185,1.3,1.3,0,0,0,.37-1.85Z" transform="translate(-66.179 -100.841)" fill="#8c664b" opacity="0.4"/><path d="M102.727,175.012c-1.2-.971-3.191-.092-3.977.971a.642.642,0,0,0,.092.879.987.987,0,0,0,.694.462,3.48,3.48,0,0,0,3.284-1.434.59.59,0,0,0-.092-.832Z" transform="translate(-57.343 -134.984)" fill="#8c664b"/><path d="M144.182,168.4h-.231a1.251,1.251,0,0,0-.694.139,1.216,1.216,0,0,0-.786,1.295c.092.647.832.694,1.295.462A1.813,1.813,0,0,0,144.783,169C144.83,168.631,144.506,168.446,144.182,168.4Z" transform="translate(-80.899 -131.656)" fill="#8c664b"/><path d="M128.654,167.8c-.462,0-.832.786-.277.786S129.209,167.8,128.654,167.8Z" transform="translate(-73.187 -131.333)" fill="#8c664b"/><path d="M115.523,149.185c-.046-.139-.231-.185-.324-.185a1.574,1.574,0,0,0-.462.046,1.276,1.276,0,0,0-.647.555,2.581,2.581,0,0,0-.231.37.593.593,0,0,0,.185.647.746.746,0,0,0,.324.185,1.28,1.28,0,0,0,.416-.046,1.645,1.645,0,0,0,.74-.647.893.893,0,0,0,.139-.462A.781.781,0,0,0,115.523,149.185Z" transform="translate(-65.513 -121.228)" fill="#8c664b"/><path d="M176.894,158.3c-.555,0-1.064.971-.324.971S177.634,158.3,176.894,158.3Z" transform="translate(-99.043 -126.227)" fill="#8c664b"/><g transform="translate(79.995 31.272)"><path d="M183.576,160.1Z" transform="translate(-182.992 -158.467)" fill="#8c664b"/><path d="M183.7,157.346a.143.143,0,0,0,.092-.046h0Z" transform="translate(-183.069 -156.962)" fill="#8c664b"/><path d="M184.123,157.231a.33.33,0,0,0-.139-.278v-.231a.316.316,0,0,0-.462-.093c-.185.093-.324.139-.509.231h0a1.746,1.746,0,0,0-.555.462.492.492,0,0,0,0,.647.578.578,0,0,0,.6.185h.231c.231,0,.416-.185.6-.324a.638.638,0,0,0,.231-.6Z" transform="translate(-182.336 -156.569)" fill="#8c664b"/></g><path d="M131.119,120.8c-.6,0-1.156,1.064-.37,1.064S131.905,120.8,131.119,120.8Z" transform="translate(-74.403 -106.07)" fill="#8c664b"/><path d="M74.832,134.8a1.145,1.145,0,0,0-1.48-.277,2.345,2.345,0,0,0-1.156,1.249v.046a1.2,1.2,0,0,0-.139.879c.416,1.572,3.7-.462,2.821-1.942Z" transform="translate(-43.044 -113.368)" fill="#634833"/><path d="M84.206,125.1c-.462,0-.925.832-.277.832S84.854,125.1,84.206,125.1Z" transform="translate(-49.273 -108.381)" fill="#634833"/></g><path d="M83.394,178.393l-.277-.139a1.236,1.236,0,0,0-1.156-.462c-.6.092-1.572.694-1.387,1.434.139.509.832.6,1.249.555a2.023,2.023,0,0,0,1.665-.74c.139-.185.185-.555-.046-.647Z" transform="translate(-43.801 -136.7)" fill="#997053"/><path d="M128.5,175.54c-.139-.416-.37-.74-.832-.74a1.829,1.829,0,0,0-1.341.694c-.231.278-.37.647-.046.925a1.394,1.394,0,0,0,1.665-.139,2.645,2.645,0,0,0,.324-.37C128.406,175.817,128.545,175.679,128.5,175.54Z" transform="translate(-68.279 -135.096)" fill="#997053"/><path d="M163.571,166.67c-.046-.231-.231-.324-.462-.37h-.555a1.455,1.455,0,0,0-.786.6.521.521,0,0,0,.092.74.745.745,0,0,0,.324.185,2.611,2.611,0,0,0,.6,0,1.1,1.1,0,0,0,.6-.324,1.055,1.055,0,0,0,.277-.555v-.231Z" transform="translate(-87.396 -130.527)" fill="#8c664b"/><path d="M177.641,163.556c0-.092-.046-.139-.139-.231a.427.427,0,0,0-.416-.139h-.231a.831.831,0,0,0-.416.185h0a.143.143,0,0,0-.092.046c-.139.139-.324.277-.37.462a1.549,1.549,0,0,0,0,.462c.139.277.462.277.74.231a1.1,1.1,0,0,0,.6-.324c0-.046.092-.092.139-.185.092-.092.092-.231.139-.37v-.185Z" transform="translate(-95.084 -128.846)" fill="#997053"/><path d="M152.846,156.467a.542.542,0,0,0-.416-.509h0a.143.143,0,0,1-.092-.046c-.647-.509-1.526.277-1.572,1.017h0c0,.185-.092.416.046.555a.636.636,0,0,0,.37.231,1.106,1.106,0,0,0,1.526-.74,1.232,1.232,0,0,0,.139-.555Z" transform="translate(-81.527 -124.856)" fill="#997053"/><path d="M115.4,135.3c-.416,0-.786.74-.231.74S115.96,135.3,115.4,135.3Z" transform="translate(-62.261 -113.864)" fill="#997053"/><path d="M32.48,163.6v-.185a.434.434,0,0,0-.416-.231h-.139a.925.925,0,0,0-.6.092.705.705,0,0,0-.324.555.523.523,0,0,0,.509.555h.139a.525.525,0,0,0,.37-.139h0c.092,0,.139-.092.185-.139.092,0,.139-.092.185-.185A.307.307,0,0,0,32.48,163.6Z" transform="translate(-17.167 -128.84)" fill="#997053"/><path d="M79.241,118.131c0-.046,0-.092-.092-.139a.665.665,0,0,1-.139-.092h-.37a1.049,1.049,0,0,0-.185.046.351.351,0,0,0-.185.092l-.277.277h0v.046h0a.353.353,0,0,0-.092.231v.139c0,.092,0,.139.046.185l.092.092a.228.228,0,0,1,.139.046,1,1,0,0,0,.509-.046c.092,0,.185-.092.277-.139h0c.046,0,.092-.093.185-.139h0c0-.046.092-.092.092-.139s.046-.092.093-.139v-.37Z" transform="translate(-42.377 -104.511)" fill="#997053"/><path d="M48.995,130.292a.773.773,0,0,0-.555-.046h0a.5.5,0,0,0-.37.092,1.57,1.57,0,0,0-.277.277.622.622,0,0,0-.092.416.307.307,0,0,0,.185.231c.092.046.139.046.231.092h.231a.746.746,0,0,0,.416-.139.729.729,0,0,0,.324-.324.669.669,0,0,0,.092-.324c0-.139-.046-.324-.185-.37Z" transform="translate(-26.144 -111.122)" fill="#997053"/><path d="M64.254,125.2c-.462,0-.832.786-.277.786S64.809,125.2,64.254,125.2Z" transform="translate(-34.743 -108.435)" fill="#997053"/><path d="M109.13,97.3c-.462,0-.879.786-.277.786S109.731,97.3,109.13,97.3Z" transform="translate(-58.854 -93.438)" fill="#997053"/></g><g transform="translate(12.122)"><path d="M119.906,8.371c-7.585.647-15.539,4.532-19.47,11.331A20.331,20.331,0,0,0,97.8,29.228c-.046,4.532,3.1,8.556,7.955,7.492,3.145-.647,5.827-3.191,7.631-5.781a31.448,31.448,0,0,0,3.33-6.29,66.956,66.956,0,0,0,2.22-6.706c.324-1.11.647-2.266.971-3.376a11.936,11.936,0,0,1,1.064-2.5A9.818,9.818,0,0,1,124.253,8.6c.185-.139.416-.231.6-.37a35.229,35.229,0,0,0-4.949.092Z" transform="translate(-65.195 -8.173)" fill="#a1bd30"/><path d="M121.933,10.157a17.017,17.017,0,0,0-1.711,2.359c-.462.74-.879,1.526-1.295,2.312-.37.786-.74,1.619-1.064,2.451-.37.925-.786,1.85-1.156,2.729a29.816,29.816,0,0,1-1.341,2.729,17.738,17.738,0,0,1-1.619,2.5,14.117,14.117,0,0,1-1.989,2.081,8.74,8.74,0,0,1-2.451,1.434,2.368,2.368,0,0,1-2.4-.231,3.062,3.062,0,0,1-.694-1.017,5.314,5.314,0,0,1-.324-1.665,8.1,8.1,0,0,1,1.017-3.561,11.536,11.536,0,0,1,.971-1.619,16.727,16.727,0,0,1,1.017-1.48,31.054,31.054,0,0,1,2.22-2.682,29.483,29.483,0,0,1,5.226-4.394c.971-.647,1.942-1.2,2.914-1.757,1.017-.555,2.035-1.017,3.1-1.48a12.045,12.045,0,0,1,1.156-.462h-.6a30.951,30.951,0,0,0-5.319,2.081,31.031,31.031,0,0,0-9.25,6.983,36.164,36.164,0,0,0-3.654,4.764,26.5,26.5,0,0,0-1.619,2.729,23.917,23.917,0,0,0-1.295,2.96c-.37.925-.74,1.9-1.064,2.867a3.624,3.624,0,0,1-.416.971c-.139.185-.324.416-.555.37-.37,0-.647-.37-.879-.6a3.348,3.348,0,0,1-.509-.879,6.772,6.772,0,0,1-.324-2.359,13.583,13.583,0,0,1,.231-2.359c.092-.74.231-1.48.37-2.174A18.249,18.249,0,0,0,97.7,29.4c-.046,4.532,3.1,8.556,7.955,7.492,3.145-.647,5.827-3.191,7.631-5.781a31.448,31.448,0,0,0,3.33-6.29,66.963,66.963,0,0,0,2.22-6.706c.324-1.11.647-2.266.971-3.376a11.935,11.935,0,0,1,1.064-2.5,9.818,9.818,0,0,1,3.284-3.469c.185-.139.416-.231.6-.37h-.832a9.486,9.486,0,0,0-2.035,1.8Z" transform="translate(-65.141 -8.295)" fill="#a1bd30"/><path d="M53.8,44a22.429,22.429,0,0,0-2.266-2.914,21.322,21.322,0,0,0-2.544-2.035,23.119,23.119,0,0,0-5.5-2.312,24.21,24.21,0,0,0-3.1-.555C39.324,36.092,38.307,36,37.243,36A25.851,25.851,0,0,0,31,36.694a20.632,20.632,0,0,0-3.7,1.295,5.907,5.907,0,0,1,3.977,1.989A43.048,43.048,0,0,1,34.7,44.232a35.615,35.615,0,0,0,3.885,4.44,20.011,20.011,0,0,0,4.856,3.422,16.212,16.212,0,0,0,4.394,1.387,9.05,9.05,0,0,0,4.717-.231,5.1,5.1,0,0,0,1.9-1.2A3.827,3.827,0,0,0,55.6,49.5c.185-1.989-.832-3.885-1.85-5.5Z" transform="translate(-27.3 -23.131)" fill="#a1bd30"/><path d="M56.38,44a22.429,22.429,0,0,0-2.266-2.914,21.322,21.322,0,0,0-2.544-2.035,23.119,23.119,0,0,0-5.5-2.312,24.211,24.211,0,0,0-3.1-.555C41.9,36.092,40.887,36,39.823,36h0c.694.092,1.387.231,2.081.37A17.254,17.254,0,0,1,45.512,37.8c1.064.6,2.081,1.295,3.1,1.989a5.647,5.647,0,0,1,2.127,2.174.045.045,0,0,1-.046.046,2.423,2.423,0,0,1-1.2-.462c-.416-.231-.786-.462-1.2-.647a23.071,23.071,0,0,0-2.96-1.156q-1.318-.416-2.636-.694c-.879-.231-1.8-.416-2.682-.555a8.067,8.067,0,0,0-2.359-.046,9.472,9.472,0,0,0,1.11.231,18.612,18.612,0,0,1,2.775.647,17.919,17.919,0,0,1,2.544,1.156,24.227,24.227,0,0,1,3.607,2.359,14.182,14.182,0,0,1,2.5,2.5,4.118,4.118,0,0,1,1.11,2.914,2.167,2.167,0,0,1-.647,1.341,3,3,0,0,1-1.711.832,5.217,5.217,0,0,1-2.22-.231,10.466,10.466,0,0,1-1.989-.786,16.852,16.852,0,0,1-4.209-2.96,24.67,24.67,0,0,1-1.85-1.942c-.555-.6-1.064-1.295-1.572-1.942a12.366,12.366,0,0,0-3.561-3.376,8,8,0,0,0-1.434-.647,8.907,8.907,0,0,1,1.8,1.387,43.048,43.048,0,0,1,3.422,4.255,35.614,35.614,0,0,0,3.885,4.44,20.011,20.011,0,0,0,4.856,3.422,16.212,16.212,0,0,0,4.394,1.387,9.05,9.05,0,0,0,4.717-.231,5.1,5.1,0,0,0,1.9-1.2,3.827,3.827,0,0,0,1.156-2.544c.185-1.989-.832-3.885-1.85-5.5Z" transform="translate(-29.88 -23.131)" fill="#a1bd30"/><path d="M86.034,27.315a28.25,28.25,0,0,0-2.914,4.44,52.621,52.621,0,0,0-2.4,5.18,33.972,33.972,0,0,0-2.5,8.325c-.416,3.1-.694,6.243-.832,9.342a28.965,28.965,0,0,0-.971-2.821c-.185-.509-.37-.971-.6-1.48a28.163,28.163,0,0,0-4.532-8.232c-.231-.277-.416-.6-.647-.879a20.236,20.236,0,0,0-2.359-2.544c-.832-.647-1.665-1.249-2.544-1.8-.879-.6-1.8-1.2-2.729-1.711a13.268,13.268,0,0,0-3.145-1.295A7.32,7.32,0,0,0,58.1,33.6a6,6,0,0,1,1.48.647c.647.324,1.295.694,1.942,1.017a17.432,17.432,0,0,1,3.469,2.312,32.858,32.858,0,0,1,5.55,6.058,43.982,43.982,0,0,1,3.931,7.446A33.929,33.929,0,0,1,76,55.2a33.529,33.529,0,0,1,.74,3.746,4.731,4.731,0,0,0,1.8,0c.092-1.249,0-2.5.046-3.746a36.627,36.627,0,0,1,.231-3.931,67.2,67.2,0,0,1,1.064-7.538,45.812,45.812,0,0,1,2.081-7.353A47.045,47.045,0,0,1,85.2,29.673a20.411,20.411,0,0,1,2.312-3.33,18.38,18.38,0,0,1,1.295-1.387,10.86,10.86,0,0,0,.879-1.156,19.719,19.719,0,0,0-3.561,3.515Z" transform="translate(-43.856 -16.573)" fill="#405621"/><path d="M121.1,15.8a1.022,1.022,0,0,0-1.064-.324A6.222,6.222,0,0,0,117.032,17c-.37.277-1.48,1.064-1.434,1.711v.416c.139.694.971.647,1.48.509a7.131,7.131,0,0,0,2.266-1.2,5.409,5.409,0,0,0,1.665-1.572A1.1,1.1,0,0,0,121.1,15.8Z" transform="translate(-74.761 -12.087)" fill="#a1bd30"/><path d="M110.714,28.222v-.046c-.046-.046-.185,0-.231,0a.685.685,0,0,0-.6.509v.139a.229.229,0,0,0,.231.324,1.762,1.762,0,0,0,.462-.139.622.622,0,0,0,.277-.324c.092-.185.092-.37-.092-.462Z" transform="translate(-71.68 -18.914)" fill="#a1bd30"/><path d="M46.424,46.854a6.369,6.369,0,0,0-1.017-1.2,4.833,4.833,0,0,0-1.48-1.064,1.221,1.221,0,0,0-1.572.555,1.45,1.45,0,0,0,.231,1.48c.509.786,1.619,1.942,2.682,1.989a1.033,1.033,0,0,0,.647,0,1,1,0,0,0,.74-.74,1.49,1.49,0,0,0-.277-1.064Z" transform="translate(-35.325 -27.695)" fill="#a1bd30"/><path d="M54.255,55.931a.248.248,0,0,0-.139-.185.228.228,0,0,1-.139-.046h-.185a.34.34,0,0,0-.277.092l-.139.139s-.046.139,0,.185V56.3a.351.351,0,0,0,.092.185h0a.466.466,0,0,0,.139.046h.185a.24.24,0,0,0,.185-.093.425.425,0,0,0,.185-.277v-.231Z" transform="translate(-41.305 -33.72)" fill="#a1bd30"/><path d="M97.6,95.574a2.739,2.739,0,0,0-1.619-.416,3.2,3.2,0,0,0-1.619.185c-1.295.462-2.127,1.9-1.156,3.1a3.048,3.048,0,0,0,3.607.832C98.249,98.673,99.081,96.592,97.6,95.574Z" transform="translate(-62.499 -54.91)" fill="#331c05"/><g transform="translate(37.137 41.589)"><path d="M110.1,98.747a.689.689,0,0,0-.185-.416.853.853,0,0,0-.555-.231.9.9,0,0,0-.6.139,2.744,2.744,0,0,1-.37.185c-.092,0-.185.092-.277.139a1.1,1.1,0,0,0-.509.879v.277c0,.092.092.185.139.277a.746.746,0,0,0,.6.277,1.256,1.256,0,0,0,.786-.277l.555-.416a1.04,1.04,0,0,0,.416-.925Z" transform="translate(-107.6 -98.1)" fill="#331c05"/><path d="M111.7,101.593s.092-.092.139-.092c-.046,0-.092.092-.139.139h0Z" transform="translate(-109.804 -99.928)" fill="#513d98"/><path d="M112.146,101.193H112.1l.092-.092Z" transform="translate(-110.019 -99.713)" fill="#513d98"/></g><path d="M105.42,106.669a2.938,2.938,0,0,0-2.821-.324,2.838,2.838,0,0,0-3.33,2.081c-.324,1.989,2.359,2.451,3.792,2.312a3.464,3.464,0,0,0,2.682-1.48,1.941,1.941,0,0,0-.277-2.636Z" transform="translate(-65.97 -60.825)" fill="#331c05"/><path d="M104.24,108.993a1.365,1.365,0,0,0-1.387-.139,1.416,1.416,0,0,0-1.665,1.017c-.139.971,1.156,1.2,1.85,1.156a1.808,1.808,0,0,0,1.341-.74.939.939,0,0,0-.139-1.295Z" transform="translate(-67.011 -62.224)" fill="#4c3425"/></g></g></g></g></g><g transform="matrix(0.883, -0.469, 0.469, 0.883, 1316.993, 298.938)"><g clip-path="url(#a)"><path d="M.19,21.575C1.161,25.826,14.9,24.053,21,19.542S33.958,6,32.241,2.576,16.827-1.186,9.917,3.56-.936,16.634.19,21.575" fill="#495723"/><path d="M4.356,17.9l.836-.542c.544-.329,1.268-.871,2.231-1.394.476-.269.993-.561,1.537-.87s1.142-.593,1.753-.9,1.241-.627,1.906-.9l2-.862,2.048-.737c.67-.257,1.351-.45,2.006-.644s1.288-.393,1.9-.527l1.724-.381a11.786,11.786,0,0,1,1.468-.266l1.139-.16.991-.139a.187.187,0,0,1,.065.369l-.012,0-.971.207c-.614.148-1.506.28-2.545.581-.522.137-1.088.285-1.685.443s-1.21.387-1.857.576-1.311.4-1.971.661l-2.009.752L12.928,14c-.661.257-1.282.576-1.894.861s-1.212.545-1.756.837l-1.549.8c-.965.483-1.75.949-2.308,1.245s-.874.481-.874.481a.186.186,0,0,1-.253-.074.188.188,0,0,1,.062-.248"/><path d="M6.388,8.717s.165-.181.455-.5A15.89,15.89,0,0,1,8.081,6.94l.906-.8a10.8,10.8,0,0,1,1.063-.822c.383-.263.754-.575,1.182-.814L12.5,3.734c.441-.232.9-.434,1.336-.648a11.337,11.337,0,0,1,1.323-.558,17.178,17.178,0,0,1,2.432-.752,13.13,13.13,0,0,1,1.769-.318l.673-.1a.187.187,0,0,1,.073.366l-.019,0-.647.164c-.408.118-1.006.217-1.689.468l-1.11.362c-.393.132-.786.329-1.208.487a10.917,10.917,0,0,0-1.272.565c-.421.216-.858.42-1.28.652l-1.242.723c-.421.223-.785.519-1.162.767-.364.267-.75.484-1.064.751s-.631.495-.916.717c-.572.437-1.016.878-1.342,1.151l-.506.446a.187.187,0,0,1-.265-.017.189.189,0,0,1,0-.251"/></g></g></g></svg>