<svg xmlns="http://www.w3.org/2000/svg" width="126" height="126" viewBox="0 0 126 126"><g transform="translate(-1210.051 -4365)"><circle cx="63" cy="63" r="63" transform="translate(1210.051 4365)" fill="#aed139"/><g transform="translate(1229.05 4384.167)"><g transform="translate(6 5.834)"><path d="M23.843,10.036c6.075,3.649,3.923,8.56,4.468,8.447-5.15,1.064-9.394.624-12.767-1.172S8,8,8,8,20.571,8.07,23.843,10.036Z" transform="translate(-6.69 -6.581)" fill="#2e7d32" fill-rule="evenodd"/><path d="M72.187,7.9s1.363,5.864-1.145,9.144c-2.754,3.6-9.9,2.632-9.9,2.632s.022-7.248,4.675-10.158A11.556,11.556,0,0,1,72.187,7.9Z" transform="translate(-25.014 -6.543)" fill="#2e7d32" fill-rule="evenodd"/><path d="M43.363,37C49.8,37,55.2,40.816,58.735,45.633c-5.178,8.548-10.42,12.638-15.72,12.78S32.359,54.749,26.952,47.5C29.866,40.689,36.185,37,43.363,37Z" transform="translate(-13.225 -16.581)" fill="#795548" fill-rule="evenodd"/><path d="M41.823,67.645c-6.013-.175-15.476-.364-15.476-.364a5.243,5.243,0,0,1-4.118-2.2c-3.107-4.36-10.2-14.3-13.573-18.834a3.374,3.374,0,0,1,.613-4.51,3.078,3.078,0,0,1,4.181.161l8.707,8.707c.341.341,2.116-.194,2.211-.668A3.954,3.954,0,0,1,28.326,46.9H51.12a5.241,5.241,0,0,1,4.319,2.272l2.454,3.57A22.336,22.336,0,0,0,41.823,67.645Z" transform="translate(-6.705 -17.96)" fill="#64b5f6" fill-rule="evenodd"/><circle cx="18.345" cy="18.345" r="18.345" transform="translate(38 38.109)" fill="#ffd54f"/><path d="M86.181,81.552,84.588,96.621c-6.431-1.562-7.6-6.153-8.275-9.778C75.644,83.247,78.319,75,78.319,75,81.178,75.868,83.866,77.676,86.181,81.552Z" transform="translate(-30.209 -29.684)" fill="#48b74d" fill-rule="evenodd"/><path d="M87.685,98.524s-.862-11.629,1.688-15.463A16.735,16.735,0,0,1,97.452,77c3.835,5,5.056,9.432,3.48,13.1-1.569,3.65-13.246,8.424-13.246,8.424Z" transform="translate(-34.119 -30.374)" fill="#48b74d" fill-rule="evenodd"/><path d="M62.345,42.632A19.655,19.655,0,1,1,42.69,62.287,19.665,19.665,0,0,1,62.345,42.632Zm0,2.621A17.034,17.034,0,1,0,79.379,62.287,17.042,17.042,0,0,0,62.345,45.253Zm-4.2,28.708a1.327,1.327,0,0,1-.242-.145c-4.116-3.1-6.363-6.668-7.092-10.585-.719-3.862.052-8.1,2.1-12.623A1.312,1.312,0,0,1,54.742,50a20.74,20.74,0,0,1,7.208,5.6,19.938,19.938,0,0,1,6.9-4.363,1.31,1.31,0,0,1,1.527.419c4.207,5.486,5.373,10.391,3.643,14.414-1.69,3.931-6.29,7.181-14.175,9.27a1.31,1.31,0,0,1-1.622-1.019C58.195,74.205,58.172,74.082,58.15,73.961ZM62.9,71.655c4.632-1.692,7.536-3.881,8.711-6.613,1.339-3.113.293-6.793-2.713-10.974a14.827,14.827,0,0,0-6.55,5.178c-1.985,2.984-2.556,6.788-2.03,11.492a36.978,36.978,0,0,0,4.833-8.148l-1.6-2.137a1.31,1.31,0,0,1,2.1-1.572l.55.734q.219-.758.4-1.549a1.31,1.31,0,1,1,2.555.583,30.792,30.792,0,0,1-2.24,6.431l.7-.144a1.31,1.31,0,0,1,.529,2.567l-2.849.587c-.744,1.238-1.548,2.42-2.388,3.566Zm-2.642-14a17.9,17.9,0,0,0-5.5-4.674,17.617,17.617,0,0,0-1.359,9.766,13.548,13.548,0,0,0,4.238,7.405q-.117-1.377-.11-2.659a18.815,18.815,0,0,1-1.439-3.489l-1.2-.518a1.311,1.311,0,0,1,.467-2.513,42.05,42.05,0,0,1-.575-4.485,1.31,1.31,0,1,1,2.612-.2A35.786,35.786,0,0,0,58.243,62a14.882,14.882,0,0,1,1.92-4.208c.03-.045.06-.09.091-.135ZM40.727,56.9,25.6,56.465a6.552,6.552,0,0,1-5.147-2.746C17.354,49.364,10.266,39.438,6.9,34.907a4.563,4.563,0,0,1,.693-6.185l.119-.1a4.39,4.39,0,0,1,5.96.229l5.739,5.739a19.6,19.6,0,0,1,14.976-9.566c-1.078-2.728-3.259-4.764-6.839-5.935-5.355,1.048-9.778.515-13.31-1.366-3.632-1.934-6.356-5.3-8.151-10A1.311,1.311,0,0,1,7.261,5.943c7.318-.275,12.875.416,16.466,2.167,3.689,1.8,5.52,4.645,5.3,8.714a12.955,12.955,0,0,1,6.635,4.954,6.5,6.5,0,0,1,.507-.858,7.777,7.777,0,0,1,4.722-2.967c.856-4.757,2.555-8.221,5.118-10.183a10.075,10.075,0,0,1,7.282-1.882,1.31,1.31,0,0,1,1.157.991c1.133,4.59.606,8.061-1.444,10.335-1.986,2.2-5.536,3.379-10.874,3.147a5.7,5.7,0,0,0-3.815,2.064,5.127,5.127,0,0,0-.833,2.563,19.521,19.521,0,0,1,14.855,8.758A6.549,6.549,0,0,1,55.814,36.3l2.769,4.028a22.186,22.186,0,0,0-2.735.647l-2.194-3.191a3.931,3.931,0,0,0-3.239-1.7H27.621A2.621,2.621,0,0,0,25,38.7v.655a2.621,2.621,0,0,0,2.621,2.621h13.1a1.31,1.31,0,0,1,0,2.621h-13.1a5.24,5.24,0,0,1-4.559-2.653L11.819,30.7a1.769,1.769,0,0,0-2.4-.092l-.119.1A1.942,1.942,0,0,0,9,33.344C12.377,37.885,19.482,47.833,22.592,52.2a3.931,3.931,0,0,0,3.088,1.648l15.867.453a22.051,22.051,0,0,0-.82,2.6ZM26.39,15.7a6.116,6.116,0,0,0-3.81-5.232C19.582,9,15.094,8.423,9.272,8.511a14.563,14.563,0,0,0,6.2,6.9A14.83,14.83,0,0,0,23,16.989L13.3,12.367A1.311,1.311,0,0,1,14.426,10ZM21.33,36.507l1.152,1.152a5.243,5.243,0,0,1,5.138-4.2H48.83a16.728,16.728,0,0,0-12.692-5.9A16.945,16.945,0,0,0,21.33,36.507ZM45.445,17.7c2.583-.225,4.447-.946,5.61-2.236,1.426-1.584,1.676-3.949,1.059-7.005-4.034,0-6.5,2.485-7.881,6.8l4.779-4.38a1.31,1.31,0,0,1,1.77,1.931Z" transform="translate(-6 -5.834)" fill-rule="evenodd"/></g></g></g></svg>