<svg xmlns="http://www.w3.org/2000/svg" xmlns:xlink="http://www.w3.org/1999/xlink" width="1240" height="161.144" viewBox="0 0 1240 161.144"><defs><clipPath id="a"><rect width="1240" height="161.144" fill="#567d56" stroke="#707070" stroke-width="1"/></clipPath><linearGradient id="b" x1="1.257" y1="0.189" x2="0.352" y2="0.464" gradientUnits="objectBoundingBox"><stop offset="0" stop-color="#aed139"/><stop offset="1" stop-color="#e1ef97"/></linearGradient></defs><g clip-path="url(#a)"><path d="M0,0H1259.407V283.46H0Z" transform="translate(1259.407 221.144) rotate(180)" fill="url(#b)"/><path d="M329.528,429.105c14.6,6.26,30.055,1.758,45.146-.06,21.854-2.629,43.825-5.09,65.471-6.064,26.148-1.214,51.975-4.254,77-14.412,11.729-4.759,22.141-11.921,33.558-17.4a153.043,153.043,0,0,1,22.574-8.4c9.055-2.693,17.419.728,17.37,7.372-.159,20.187-7.266,39.677-27.694,57.243-13.843,11.92-31.524,18.641-49.905,24.443q-32.111,10.152-64.015,20.745c-26.367,8.735-52.968,15.649-80.266,19.689-13.379,1.991-26.748,5.517-40.144,7.649-16.994,2.7-33.945,4-49.833,1.6-16.09-2.44-31.783-5.637-47.7-8.422-6.1-1.073-12.491-1.689-18.484-2.937-22.649-4.718-46.978-6.781-67.625-14.728-3.776-1.447-7.828-2.578-11.742-3.86-5.319-1.736-9.048.851-11.946,4.27-9.893,11.714-19.788,23.441-29.37,35.281-10.384,12.847-20.906,25.694-30.463,38.8a208.7,208.7,0,0,0-18.317,29.4c-4.2,8.441-5.612,17.231-9.023,25.822-1.309,3.31-4.291,6.709-7.339,9.645-4.514,4.341-11.615,5.41-16.423,2.514C-.092,631-5.293,623.055-1.2,610.979c4.093-12.114,12.528-23.222,19.461-34.687A275.553,275.553,0,0,1,36.5,549.579c7.346-9.4,16.227-18.3,23.84-27.642q20.192-24.707,39.51-49.72c2.437-3.138-5.4-7.962-5.433-8.454-.617-7.705-10.113-9.647-15.676-14.015-10.291-8.109-22.7-14.972-28.336-25.8a243.755,243.755,0,0,1-15.157-36.276c-10.1-30.52-10.285-63.12-10.126-95.749a86.388,86.388,0,0,1,10.615-41.8c4.345-7.92,10.77-15.736,17.835-22.857,11.55-11.663,24.24-22.8,36.681-34.018,14.437-13.049,32.433-12.712,42.175-1.942,10.323,11.381,13.885,24.755,13.747,39.722a158.269,158.269,0,0,1-9.543,52.1c-5.171,14.465-6.973,29.14-9.723,43.718-1.833,9.765-3.014,19.526-3.9,29.249-.686,7.409-.275,14.674,4.83,20.63,4.921,5.768,9.756,5.322,15.149-1.582,9.017-11.551,12.626-23.624,15.492-35.8,2.748-11.747,6.149-23.51,8.657-35.249,3.5-16.456,6.379-32.9,9.618-49.334,2.975-15.041,5.812-30.071,9.232-45.112,1.671-7.327,4.409-14.692,6.818-22.03,6.264-19.165,19-36.82,34.856-53.8,11.567-12.4,22.823-24.928,34-37.5,9.244-10.4,22.039-17.41,35.977-23.637,14.246-6.368,28.172-13.229,42.436-19.6,16.271-7.275,32.524-14.688,49.216-21.16,8.92-3.456,17.111-1.493,23.48,2.579,8.813,5.618,5.493,12.677.084,21.792-7.289,12.32-15.734,24.407-22.921,36.744-4.727,8.1-8.264,16.452-12.034,24.73-4.076,9-8.308,18.017-11.586,27.079-6.709,18.568-18.689,35.866-32.495,52.95-13.165,16.281-25.774,32.794-34.011,50.349-4.778,10.179-10.067,20.324-14.182,30.548-1.544,3.863-.878,8.034-.343,11.849.337,2.422,2.985,2.656,6.377.9A41.841,41.841,0,0,0,308.868,274.9c6.364-10.845,11.209-22.045,18.323-32.7,8.442-12.658,18.672-24.908,28-37.375,10.891-14.553,22.229-28.979,32.3-43.742C402.584,139,416.972,116.58,441.144,98.077c16.231-12.413,33.573-24.2,51.371-35.333,24.47-15.3,51.556-27.147,79.735-37.038,15.494-5.445,31.42-8.26,47.432-11.361,23.168-4.5,46.209-10.433,69.278-15.856,12.6-2.954,19.285-1.613,20.107,8.17,1.422,16.753-2.954,33.677-12.175,50.247-6.3,11.335-15.516,22.23-24.342,33.017-20.882,25.488-41.636,51.055-63.719,76.111-17.9,20.324-36.24,40.723-57.059,59.591-15.016,13.619-34.34,24.9-51.946,37.044-11.494,7.913-23.5,15.387-34.962,23.311C457,291.4,448.155,294.8,438.731,297.134a80.434,80.434,0,0,0-37.613,20.436c-4.248,4.116-3.531,6.658,2.91,6.115a95.954,95.954,0,0,0,23.216-4.623c12.972-4.546,25.7-9.835,38.091-15.538,27.2-12.525,54.346-25.186,81.106-38.359a186.662,186.662,0,0,0,56.319-42.237c13.323-14.682,27.182-29.257,45.951-40.779A153.5,153.5,0,0,1,674,169.708c10.848-4.114,22.812.642,23.12,8.944.208,5.315-.961,10.974-2.523,16.463-7.184,25.2-28.263,46.462-49.6,67.621a118.7,118.7,0,0,0-22.167,30.37c-12.555,24.342-30.859,46.071-61.15,62.2-16.9,8.991-33.422,18.6-51,26.529-23.731,10.709-48.967,17.674-74.766,22.539-29.548,5.563-59.308,8.071-88.645,16.4-3.563,1.011-7.343,1.673-10.618,3.167-2.638,1.162-4.654,3.325-7.113,5.17" transform="translate(169.926 -273.809) rotate(16)" fill="#aed139" opacity="0.23"/></g></svg>