<svg xmlns="http://www.w3.org/2000/svg" width="126" height="126" viewBox="0 0 126 126"><g transform="translate(-580.051 -4365)"><circle cx="63" cy="63" r="63" transform="translate(580.051 4365)" fill="#aed139"/><g transform="translate(601.102 4392.247)"><g transform="translate(0 -0.003)"><path d="M82.1,30V60.763a2.805,2.805,0,0,1-2.8,2.8H3.8a2.805,2.805,0,0,1-2.8-2.8V30Z" transform="translate(0.398 10.555)" fill="sienna" fill-rule="evenodd"/><path d="M56.8,30V60.763a2.805,2.805,0,0,1-2.8,2.8h4.195a2.8,2.8,0,0,0,2.8-2.8V30Z" transform="translate(21.509 10.555)" fill="#783e22" fill-rule="evenodd"/><path d="M28.983,45.788a6.992,6.992,0,0,1-13.983,0A10.4,10.4,0,0,1,21.992,36,10.4,10.4,0,0,1,28.983,45.788Z" transform="translate(5.975 12.945)" fill="#825a2c" fill-rule="evenodd"/><path d="M20.6,36a10.4,10.4,0,0,0-2.1,1.026,9.971,9.971,0,0,1,4.894,8.762A6.971,6.971,0,0,1,18.5,52.425a6.9,6.9,0,0,0,9.089-6.636A10.4,10.4,0,0,0,20.6,36Z" transform="translate(7.369 12.945)" fill="#624421" fill-rule="evenodd"/><path d="M24.381,19.655v1.958c-.028.447-.056.713-.056.713s-7.061.853-10.879-2.964S9,7,9,7s8.53.629,12.361,4.447a12.532,12.532,0,0,1,3.02,8.208Z" transform="translate(3.585 1.394)" fill="#60a917" fill-rule="evenodd"/><path d="M21.361,11.447C17.53,7.629,9,7,9,7s.021.259.069.682a17.265,17.265,0,0,1,8.1,3.764,12.532,12.532,0,0,1,3.02,8.208v1.958c-.02.313-.039.53-.049.636a19,19,0,0,0,4.195.077s.028-.266.056-.713V19.655a12.532,12.532,0,0,0-3.027-8.208Z" transform="translate(3.585 1.394)" fill="#549414" fill-rule="evenodd"/><path d="M33.885,9.131c-.811-.1-1.3-.14-1.3-.14s.07,1.007.322,2.489a10.615,10.615,0,0,1-1.972,2.881c-3.817,3.817-10.879,2.964-10.879,2.964s-.028-.266-.056-.713V14.655a12.532,12.532,0,0,1,3.02-8.208C26.852,2.629,35.381,2,35.381,2A31.891,31.891,0,0,1,33.885,9.131Z" transform="translate(7.966 -0.598)" fill="#60a917" fill-rule="evenodd"/><path d="M35.367,2a32.979,32.979,0,0,0-4.263.682,31.816,31.816,0,0,1-1.428,6.449c-.811-.1-1.3-.14-1.3-.14s.07,1.007.322,2.489a10.615,10.615,0,0,1-1.972,2.881,11.444,11.444,0,0,1-6.691,2.888v.077s7.061.853,10.879-2.964a10.614,10.614,0,0,0,1.972-2.881c-.245-1.482-.315-2.489-.315-2.489s.489.042,1.3.14A31.891,31.891,0,0,0,35.367,2Z" transform="translate(7.98 -0.598)" fill="#549414" fill-rule="evenodd"/><path d="M48.983,45.788a6.992,6.992,0,0,1-13.983,0A10.4,10.4,0,0,1,41.992,36,10.4,10.4,0,0,1,48.983,45.788Z" transform="translate(13.941 12.945)" fill="#825a2c" fill-rule="evenodd"/><path d="M40.6,36a10.4,10.4,0,0,0-2.1,1.026,9.971,9.971,0,0,1,4.894,8.762A6.971,6.971,0,0,1,38.5,52.425a6.9,6.9,0,0,0,9.089-6.636A10.4,10.4,0,0,0,40.6,36Z" transform="translate(15.335 12.945)" fill="#624421" fill-rule="evenodd"/><path d="M44.381,19.655v1.958c-.028.447-.056.713-.056.713s-7.061.853-10.879-2.964c-2.5-2.517-3.636-7.047-4.125-9.872C29.07,8.007,29,7,29,7s.489.042,1.3.14c2.545.35,8.152,1.412,11.061,4.307A12.532,12.532,0,0,1,44.381,19.655Z" transform="translate(11.551 1.394)" fill="#60a917" fill-rule="evenodd"/><path d="M41.361,11.447C38.453,8.552,32.845,7.489,30.3,7.14,29.489,7.042,29,7,29,7s.017.25.066.685a17.269,17.269,0,0,1,8.1,3.761,12.532,12.532,0,0,1,3.02,8.208v1.958c-.02.313-.039.53-.049.636a19,19,0,0,0,4.188.077s.028-.266.056-.713V19.655A12.532,12.532,0,0,0,41.361,11.447Z" transform="translate(11.551 1.394)" fill="#549414" fill-rule="evenodd"/><path d="M55.381,2s-.629,8.53-4.447,12.361-10.879,2.964-10.879,2.964-.028-.266-.056-.713V14.655a12.532,12.532,0,0,1,3.02-8.208C46.852,2.629,55.381,2,55.381,2Z" transform="translate(15.932 -0.598)" fill="#60a917" fill-rule="evenodd"/><path d="M51.1,2.682c-.238,2.082-1.205,8.495-4.378,11.679a11.444,11.444,0,0,1-6.691,2.888l.007.077s7.061.853,10.879-2.964S55.367,2,55.367,2a32.979,32.979,0,0,0-4.263.682Z" transform="translate(15.946 -0.598)" fill="#549414" fill-rule="evenodd"/><path d="M82.1,24.594v8.194H1V24.594A1.4,1.4,0,0,1,2.594,23.21c4.195.657,5.174,2.587,10.977,2.587,6.992,0,6.992-2.8,13.983-2.8s6.992,2.8,13.983,2.8S48.528,23,55.52,23s6.992,2.8,14,2.8c5.817,0,6.8-1.93,10.991-2.587A1.4,1.4,0,0,1,82.1,24.594Z" transform="translate(0.398 7.767)" fill="#ff9801" fill-rule="evenodd"/><path d="M58.653,23.154a14.579,14.579,0,0,0-2.785.724,1.368,1.368,0,0,1,.185.66v8.194h4.195V24.538a1.4,1.4,0,0,0-1.594-1.384Z" transform="translate(22.253 7.823)" fill="#f57c00" fill-rule="evenodd"/><path d="M80.695,30.592a18.187,18.187,0,0,0-4.31,1.272,14.9,14.9,0,0,1-6.47,1.3,14.962,14.962,0,0,1-6.488-1.3,17.236,17.236,0,0,0-6.1-1.456v-6.39c.027-.509.039-1.218,0-2.043V19.2h.387c2.563,0,7.144-.466,10.138-3.459C72,11.6,72.681,2.871,72.712,2.5a1.4,1.4,0,0,0-1.5-1.5c-.369.027-9.1.709-13.243,4.852a13.02,13.02,0,0,0-3.328,7.831,9.716,9.716,0,0,0-.744-.839C51.24,10.18,46.678,8.951,43.664,8.4a33.685,33.685,0,0,0,1.082-5.9,1.4,1.4,0,0,0-1.5-1.5c-.371.027-9.089.716-13.248,4.852a12.955,12.955,0,0,0-3.322,7.831,9.536,9.536,0,0,0-.745-.839C21.788,8.706,13.056,8.023,12.687,7.993a1.4,1.4,0,0,0-1.5,1.5c.027.369.709,9.1,4.852,13.243C19.032,25.73,23.613,26.2,26.176,26.2h.387v4.216a17.213,17.213,0,0,0-6.126,1.458,14.914,14.914,0,0,1-6.469,1.292,14.872,14.872,0,0,1-6.455-1.3A18.261,18.261,0,0,0,3.2,30.592a2.764,2.764,0,0,0-2.225.636A2.806,2.806,0,0,0,0,33.362V72.315A4.2,4.2,0,0,0,4.195,76.51H79.7A4.2,4.2,0,0,0,83.9,72.315V33.362a2.806,2.806,0,0,0-.979-2.134,2.752,2.752,0,0,0-2.225-.636ZM62.39,34.46a17.556,17.556,0,0,0,7.526,1.5,17.5,17.5,0,0,0,7.508-1.5,15.5,15.5,0,0,1,3.679-1.1v6.792H57.331V33.213A14.8,14.8,0,0,1,62.39,34.46ZM29.364,33.213a14.773,14.773,0,0,1,5.06,1.249,17.515,17.515,0,0,0,7.51,1.5,17.505,17.505,0,0,0,7.51-1.5,14.784,14.784,0,0,1,5.088-1.25v6.943H29.364Zm0-9.2c.027-.509.039-1.218,0-2.043V19.2h.38c2.564,0,7.154-.466,10.146-3.459.115-.115.222-.243.333-.366a16.919,16.919,0,0,0,3.785,7.355c2.994,2.994,7.575,3.459,10.138,3.459h.387V30.4a17.213,17.213,0,0,0-6.126,1.458,14.914,14.914,0,0,1-6.473,1.3,14.924,14.924,0,0,1-6.473-1.3,17.233,17.233,0,0,0-6.1-1.457ZM59.945,7.835C62.38,5.4,67.158,4.384,69.711,4c-.382,2.553-1.4,7.331-3.833,9.766S59.32,16.438,57.331,16.4V15.251A11.263,11.263,0,0,1,59.945,7.835ZM54.534,22.243v1.148c-2,.034-6.119-.2-8.548-2.632s-3.451-7.212-3.833-9.766c2.553.382,7.331,1.4,9.766,3.833A11.263,11.263,0,0,1,54.534,22.243ZM31.974,7.837C34.414,5.4,39.19,4.386,41.745,4a31.113,31.113,0,0,1-.887,4.012l-.206-.021a1.4,1.4,0,0,0-1.5,1.5c.008.108.076.937.263,2.145a8.9,8.9,0,0,1-1.507,2.134C35.483,16.2,31.384,16.45,29.36,16.4V15.1a11.122,11.122,0,0,1,2.613-7.263ZM18.02,20.759c-2.434-2.434-3.451-7.212-3.833-9.766,2.553.382,7.331,1.4,9.766,3.833a11.263,11.263,0,0,1,2.615,7.411v1.148c-1.99.039-6.119-.2-8.548-2.626ZM6.477,34.463a17.469,17.469,0,0,0,7.492,1.5,17.505,17.505,0,0,0,7.51-1.5,14.784,14.784,0,0,1,5.088-1.25v6.943H2.8l-.018-6.8a15.624,15.624,0,0,1,3.7,1.107ZM81.1,72.315a1.4,1.4,0,0,1-1.4,1.4H4.195a1.4,1.4,0,0,1-1.4-1.4V42.95H26.568v6.038A11.684,11.684,0,0,0,19.576,59.73a8.39,8.39,0,1,0,16.78,0,11.684,11.684,0,0,0-6.992-10.742V42.95h25.17v6.038A11.684,11.684,0,0,0,47.542,59.73a8.39,8.39,0,0,0,16.78,0,11.684,11.684,0,0,0-6.992-10.742V42.95H81.1ZM27.966,51.435a8.857,8.857,0,0,1,5.593,8.295,5.593,5.593,0,1,1-11.186,0A8.858,8.858,0,0,1,27.966,51.435Zm27.966,0a8.857,8.857,0,0,1,5.593,8.295,5.593,5.593,0,0,1-11.186,0A8.858,8.858,0,0,1,55.932,51.435Z" transform="translate(0 -0.997)"/><circle cx="1.5" cy="1.5" r="1.5" transform="translate(6.949 44.756)"/><circle cx="1.5" cy="1.5" r="1.5" transform="translate(14.949 44.756)"/><ellipse cx="1.5" cy="1" rx="1.5" ry="1" transform="translate(10.949 50.756)"/><circle cx="1.5" cy="1.5" r="1.5" transform="translate(6.949 55.756)"/><circle cx="1.5" cy="1.5" r="1.5" transform="translate(14.949 55.756)"/><circle cx="1.5" cy="1.5" r="1.5" transform="translate(10.949 61.756)"/><circle cx="1.5" cy="1.5" r="1.5" transform="translate(6.949 66.756)"/><circle cx="1.5" cy="1.5" r="1.5" transform="translate(14.949 66.756)"/><circle cx="1.5" cy="1.5" r="1.5" transform="translate(69.949 61.756)"/><circle cx="1.5" cy="1.5" r="1.5" transform="translate(65.949 66.756)"/><circle cx="1.5" cy="1.5" r="1.5" transform="translate(73.949 66.756)"/><circle cx="1.5" cy="1.5" r="1.5" transform="translate(35.949 44.756)"/><circle cx="1.5" cy="1.5" r="1.5" transform="translate(44.949 44.756)"/><circle cx="1.5" cy="1.5" r="1.5" transform="translate(35.949 66.756)"/><circle cx="1.5" cy="1.5" r="1.5" transform="translate(44.949 66.756)"/><circle cx="1" cy="1" r="1" transform="translate(40.949 50.756)"/><ellipse cx="1" cy="1.5" rx="1" ry="1.5" transform="translate(40.949 59.756)"/><circle cx="1.5" cy="1.5" r="1.5" transform="translate(65.949 44.756)"/><circle cx="1.5" cy="1.5" r="1.5" transform="translate(73.949 44.756)"/><ellipse cx="1.5" cy="1" rx="1.5" ry="1" transform="translate(69.949 50.756)"/><circle cx="1.5" cy="1.5" r="1.5" transform="translate(65.949 55.756)"/><circle cx="1.5" cy="1.5" r="1.5" transform="translate(73.949 55.756)"/></g></g></g></svg>