<svg xmlns="http://www.w3.org/2000/svg" xmlns:xlink="http://www.w3.org/1999/xlink" width="126" height="126" viewBox="0 0 126 126"><defs><clipPath id="a"><path d="M0-682.665H80v80H0Z" transform="translate(0 682.665)"/></clipPath></defs><g transform="translate(2651 7294)"><circle cx="63" cy="63" r="63" transform="translate(-2651 -7294)" fill="#aed139"/><g transform="translate(-2628 -6588.335)"><g transform="translate(0 -682.665)"><g clip-path="url(#a)"><g transform="translate(15 16.25)"><path d="M-150.666-150.666h0a20,20,0,0,1-20-20h0A20,20,0,0,1-150.666-150.666Z" transform="translate(170.666 170.666)" fill="#7bdaa9"/></g><g transform="translate(45 21.25)"><path d="M0-150.666H0a20,20,0,0,0,20-20h0A20,20,0,0,0,0-150.666Z" transform="translate(0 170.666)" fill="#7bdaa9"/></g><g transform="translate(45 21.25)"><path d="M-122.382-2.663a20.005,20.005,0,0,1-16.241,19.293c0,.118,0,.235,0,.353a20,20,0,0,0,20-20,20.11,20.11,0,0,0-3.755.353" transform="translate(138.628 3.016)" fill="#39c17b"/></g><g transform="translate(15 16.25)"><path d="M-28.284-2.663A20.005,20.005,0,0,0-12.043,16.631c0,.118,0,.235,0,.353a20,20,0,0,1-20-20,20.11,20.11,0,0,1,3.755.353" transform="translate(32.039 3.016)" fill="#39c17b"/></g><g transform="translate(0 43.75)"><path d="M0-150.666v-20H24.482a1.25,1.25,0,0,1,.884.366l6.4,6.4a2.5,2.5,0,0,0,1.768.732H46.464a2.5,2.5,0,0,0,1.768-.732l6.4-6.4a1.25,1.25,0,0,1,.884-.366H80v20" transform="translate(0 170.666)" fill="#e68f5e"/></g><g transform="translate(33.75 56.25)"><path d="M2.5,1H0V-1H2.5Z" fill="#fff"/></g><g transform="translate(38.75 56.25)"><path d="M2.5,1H0V-1H2.5Z"/></g><g transform="translate(43.75 56.25)"><path d="M2.5,1H0V-1H2.5Z" fill="#fff"/></g><path d="M80-166.916H0v-3.75H80Z" transform="translate(0 230.666)" fill="#e1763a"/><g transform="translate(12.5 43.75)"><path d="M33.964,8.5H21.035a3.477,3.477,0,0,1-2.475-1.025l-6.4-6.4A.252.252,0,0,0,11.982,1H0V-1H11.982a2.235,2.235,0,0,1,1.591.659l6.4,6.4a1.49,1.49,0,0,0,1.061.439H33.964a1.49,1.49,0,0,0,1.061-.439l6.4-6.4A2.235,2.235,0,0,1,43.018-1H67.5V1H43.018a.252.252,0,0,0-.177.073l-6.4,6.4A3.477,3.477,0,0,1,33.964,8.5Z" transform="translate(0 0)"/></g><g transform="translate(0 43.75)"><path d="M10,1H0V-1H10Z"/></g><g transform="translate(65 63.75)"><path d="M15,1H0V-1H15Z"/></g><g transform="translate(0 63.75)"><path d="M62.5,1H0V-1H62.5Z"/></g><g transform="translate(0 53.75)"><path d="M18.75,1H0V-1H18.75Z"/></g><g transform="translate(61.25 53.75)"><path d="M18.75,1H0V-1H18.75Z"/></g><g transform="translate(40 31.25)"><path d="M1-150.666H-1v-20H1Z" transform="translate(0 170.666)"/></g><g transform="translate(15 16.25)"><path d="M24.293,25.707l-25-25L.707-.707l25,25Z"/></g><g transform="translate(15 16.25)"><path d="M-149.666-149.666h-1a20.869,20.869,0,0,1-8.174-1.651,20.929,20.929,0,0,1-6.675-4.5,20.929,20.929,0,0,1-4.5-6.675,20.87,20.87,0,0,1-1.651-8.174v-1h1a20.87,20.87,0,0,1,8.174,1.651,20.929,20.929,0,0,1,6.675,4.5,20.929,20.929,0,0,1,4.5,6.675,20.869,20.869,0,0,1,1.651,8.174Zm-19.973-19.973a18.832,18.832,0,0,0,1.466,6.368,18.938,18.938,0,0,0,4.072,6.04,18.938,18.938,0,0,0,6.04,4.072,18.832,18.832,0,0,0,6.368,1.466,18.832,18.832,0,0,0-1.466-6.368,18.938,18.938,0,0,0-4.072-6.04,18.938,18.938,0,0,0-6.04-4.072A18.832,18.832,0,0,0-169.639-169.639Z" transform="translate(170.666 170.666)"/></g><g transform="translate(40 21.25)"><path d="M-212.626,25.707l-1.414-1.414,25-25,1.414,1.414Z" transform="translate(213.333)"/></g><g transform="translate(45 21.25)"><path d="M0-149.666H-1v-1a20.87,20.87,0,0,1,1.651-8.174,20.929,20.929,0,0,1,4.5-6.675,20.929,20.929,0,0,1,6.675-4.5A20.87,20.87,0,0,1,20-171.666h1v1a20.87,20.87,0,0,1-1.651,8.174,20.928,20.928,0,0,1-4.5,6.675,20.928,20.928,0,0,1-6.675,4.5A20.869,20.869,0,0,1,0-149.666Zm18.973-19.973a18.832,18.832,0,0,0-6.368,1.466,18.938,18.938,0,0,0-6.04,4.072,18.938,18.938,0,0,0-4.072,6.04,18.832,18.832,0,0,0-1.466,6.368A18.832,18.832,0,0,0,7.4-153.159a18.938,18.938,0,0,0,6.04-4.072,18.938,18.938,0,0,0,4.072-6.04A18.832,18.832,0,0,0,18.973-169.639Z" transform="translate(0 170.666)"/></g></g></g></g></g></svg>