<svg xmlns="http://www.w3.org/2000/svg" xmlns:xlink="http://www.w3.org/1999/xlink" width="126" height="126" viewBox="0 0 126 126"><defs><clipPath id="a"><path d="M0-682.665H86.669V-596H0Z" transform="translate(0 682.665)"/></clipPath></defs><g transform="translate(-895.051 -4365)"><circle cx="63" cy="63" r="63" transform="translate(895.051 4365)" fill="#aed139"/><g transform="translate(915.051 5067.665)"><path d="M526.4-261.449h5.247v-20.309H526.4Z" transform="translate(-459.574 -350.009)" fill="#fd8087"/><path d="M414.243-261.449h5.247v-20.309h-5.247Z" transform="translate(-361.652 -350.009)" fill="#f2fbff"/><g transform="translate(0 -682.665)"><g clip-path="url(#a)"><g transform="translate(1.27 59.829)"><path d="M-201.457-62.642a1.405,1.405,0,0,1-1.381-1.176,9.7,9.7,0,0,0-9.641-7.933,9.7,9.7,0,0,0-9.641,7.933,1.405,1.405,0,0,1-1.381,1.176h-3.337a3.914,3.914,0,0,0-3.913,3.913,3.914,3.914,0,0,0,3.913,3.914h76.3a3.914,3.914,0,0,0,3.914-3.913,3.914,3.914,0,0,0-3.914-3.914Z" transform="translate(230.753 71.752)" fill="#e8ad8c"/></g><g transform="translate(17.003 59.829)"><path d="M-48.84-54.555a1.406,1.406,0,0,0,1.381,1.176h5.078a1.406,1.406,0,0,1-1.381-1.176A9.7,9.7,0,0,0-53.4-62.488a10.039,10.039,0,0,0-2.539.326,9.626,9.626,0,0,1,7.1,7.608" transform="translate(55.943 62.488)" fill="#e19a74"/></g><g transform="translate(76.407 68.938)"><path d="M-34.922,0H-40a3.914,3.914,0,0,1,3.913,3.914A3.914,3.914,0,0,1-40,7.827h5.078a3.914,3.914,0,0,0,3.913-3.913A3.914,3.914,0,0,0-34.922,0" transform="translate(40)" fill="#e19a74"/></g><g transform="translate(43.944 9.903)"><path d="M-207.649,0H-231.26A1.63,1.63,0,0,0-232.5.574L-237.456,6.4a1.63,1.63,0,0,0-.388,1.056v33.7a1.629,1.629,0,0,0,1.629,1.629h33.522a1.629,1.629,0,0,0,1.629-1.629V7.453a1.63,1.63,0,0,0-.388-1.056L-206.408.574A1.63,1.63,0,0,0-207.649,0" transform="translate(237.845)" fill="#2ed1e1"/></g><g transform="translate(69.4 9.903)"><path d="M-75.2-43.991l-4.955-5.824a1.629,1.629,0,0,0-1.241-.574h-4.74a1.629,1.629,0,0,1,1.241.574l4.955,5.824a1.629,1.629,0,0,1,.388,1.056v33.7A1.629,1.629,0,0,1-81.182-7.6h4.74a1.629,1.629,0,0,0,1.629-1.629v-33.7a1.63,1.63,0,0,0-.388-1.056" transform="translate(86.137 50.388)" fill="#03bed7"/></g><g transform="translate(51.185 16.31)"><path d="M-149.937-74.567a.5.5,0,0,0,.494-.533,11.183,11.183,0,0,0-11.148-10.31A11.183,11.183,0,0,0-171.739-75.1a.5.5,0,0,0,.494.533Z" transform="translate(171.741 85.41)" fill="#ffe177"/></g><g transform="translate(24.401 36.841)"><path d="M-5.176-61.278c5.219,4.557,11.509.3,12.244-6.589a1.275,1.275,0,0,0-.723-1.295c-4.813-2.219-13.6-1.231-12.105,6.836a1.828,1.828,0,0,0,.584,1.048" transform="translate(5.929 70.189)" fill="#68ca44"/></g><g transform="translate(1.68 29.53)"><path d="M-86.723-59.009c-5.285,5.082-11.852.794-12.6-6.259a1.275,1.275,0,0,1,.723-1.295c4.912-2.265,13.963-1.189,12,7.345a.426.426,0,0,1-.118.209" transform="translate(99.334 67.59)" fill="#68ca44"/></g><g transform="translate(24.401 36.841)"><path d="M-.565-58.386h0a8.017,8.017,0,0,1-5.269-2.139,2.838,2.838,0,0,1-.91-1.619,9.143,9.143,0,0,1-.014-3.59,6.293,6.293,0,0,1,1.31-2.728c1.463-1.758,3.907-2.727,6.882-2.727a12.989,12.989,0,0,1,5.329,1.119,2.271,2.271,0,0,1,1.3,2.309C7.493-62.417,3.784-58.386-.565-58.386Zm2-10.8a6.866,6.866,0,0,0-5.344,2.006,5.473,5.473,0,0,0-.868,4.675.831.831,0,0,0,.259.477A5.976,5.976,0,0,0-.565-60.386a5.859,5.859,0,0,0,4.293-2.072,9.733,9.733,0,0,0,2.345-5.515.276.276,0,0,0-.147-.281A11.108,11.108,0,0,0,1.435-69.189Z" transform="translate(5.929 70.189)"/></g><g transform="translate(1.68 29.53)"><path d="M-91.693-55.786c-4.349,0-8.058-4.031-8.627-9.376a2.27,2.27,0,0,1,1.3-2.309,12.989,12.989,0,0,1,5.328-1.119,11.151,11.151,0,0,1,3.834.642,7.045,7.045,0,0,1,3.132,2.187,6.366,6.366,0,0,1,1.283,2.918,9.782,9.782,0,0,1-.185,3.849,1.42,1.42,0,0,1-.4.706A8.182,8.182,0,0,1-91.693-55.786Zm-2-10.8a11.108,11.108,0,0,0-4.491.935.275.275,0,0,0-.147.28,9.732,9.732,0,0,0,2.345,5.515,5.859,5.859,0,0,0,4.293,2.072,6.16,6.16,0,0,0,4.152-1.825,5.683,5.683,0,0,0-.752-4.9A6.791,6.791,0,0,0-93.694-66.59Z" transform="translate(99.334 67.59)"/></g><g transform="translate(66.83 52.69)"><path d="M0-110.738a1,1,0,0,1-1-1v-16.249a1,1,0,0,1,1-1,1,1,0,0,1,1,1v16.249A1,1,0,0,1,0-110.738Z" transform="translate(0 127.986)"/></g><g transform="translate(72.077 52.69)"><path d="M0-110.738a1,1,0,0,1-1-1v-16.249a1,1,0,0,1,1-1,1,1,0,0,1,1,1v16.249A1,1,0,0,1,0-110.738Z" transform="translate(0 127.986)"/></g><g transform="translate(52.59 52.69)"><path d="M0-110.738a1,1,0,0,1-1-1v-16.249a1,1,0,0,1,1-1,1,1,0,0,1,1,1v16.249A1,1,0,0,1,0-110.738Z" transform="translate(0 127.986)"/></g><g transform="translate(57.838 52.69)"><path d="M0-110.738a1,1,0,0,1-1-1v-16.249a1,1,0,0,1,1-1,1,1,0,0,1,1,1v16.249A1,1,0,0,1,0-110.738Z" transform="translate(0 127.986)"/></g><g transform="translate(19.543 41.161)"><path d="M-91.857,12.245a1,1,0,0,1-1-1,8.085,8.085,0,0,1,1-3.9,8.085,8.085,0,0,1,2.761-2.926l8.364-5.269a1,1,0,0,1,1.379.313A1,1,0,0,1-79.662.846l-8.364,5.269a6.032,6.032,0,0,0-2.831,5.13A1,1,0,0,1-91.857,12.245Z" transform="translate(91.857)"/></g><g transform="translate(7.88 33.85)"><path d="M11.663,26.979a1,1,0,0,1-1-1v-14.9a5.6,5.6,0,0,0-2.6-4.746L-.538.843A1,1,0,0,1-.843-.538,1,1,0,0,1,.538-.843l8.6,5.486a7.6,7.6,0,0,1,3.526,6.432v14.9A1,1,0,0,1,11.663,26.979Z"/></g><g transform="translate(1.269 59.829)"><path d="M-138.733-115.47h-52.419a1,1,0,0,1-1-1,1,1,0,0,1,1-1h52.419a2.917,2.917,0,0,0,2.913-2.913,2.917,2.917,0,0,0-2.913-2.914h-50.92a2.4,2.4,0,0,1-2.367-2.007,8.465,8.465,0,0,0-2.948-5.056,8.935,8.935,0,0,0-5.708-2.047,8.936,8.936,0,0,0-5.708,2.047,8.465,8.465,0,0,0-2.948,5.056A2.4,2.4,0,0,1-211.7-123.3h-3.337a2.917,2.917,0,0,0-2.914,2.914,2.917,2.917,0,0,0,2.914,2.913h17.955a1,1,0,0,1,1,1,1,1,0,0,1-1,1h-17.955a4.919,4.919,0,0,1-4.914-4.913,4.919,4.919,0,0,1,4.914-4.914h3.337a.407.407,0,0,0,.4-.346,10.466,10.466,0,0,1,3.64-6.254,10.94,10.94,0,0,1,6.987-2.51,10.939,10.939,0,0,1,6.987,2.51,10.466,10.466,0,0,1,3.64,6.254.407.407,0,0,0,.4.346h50.92a4.919,4.919,0,0,1,4.913,4.914A4.919,4.919,0,0,1-138.733-115.47Z" transform="translate(218.949 133.406)"/></g><g transform="translate(59.392 22.058)"><path d="M-20.23-34.041a1,1,0,0,1-.867-.5l-2.942-5.1A1,1,0,0,1-23.673-41a1,1,0,0,1,1.366.366l2.942,5.1a1,1,0,0,1-.366,1.366A1,1,0,0,1-20.23-34.041Z" transform="translate(23.173 40.137)"/></g><g transform="translate(51.185 16.31)"><path d="M-149.937-73.567h-21.308a1.5,1.5,0,0,1-1.1-.48,1.5,1.5,0,0,1-.394-1.131,12.144,12.144,0,0,1,3.851-7.973,12.139,12.139,0,0,1,8.294-3.26,12.138,12.138,0,0,1,8.293,3.26,12.144,12.144,0,0,1,3.851,7.973,1.5,1.5,0,0,1-.394,1.131A1.5,1.5,0,0,1-149.937-73.567Zm-20.748-2H-150.5a10.15,10.15,0,0,0-3.163-6.119,10.145,10.145,0,0,0-6.931-2.724,10.145,10.145,0,0,0-6.931,2.724A10.15,10.15,0,0,0-170.685-75.567Z" transform="translate(171.741 85.41)"/></g><g transform="translate(43.944 9.903)"><path d="M-254.556-55.814h-33.522a2.632,2.632,0,0,1-2.629-2.629v-33.7a2.632,2.632,0,0,1,.627-1.7l4.955-5.824a2.625,2.625,0,0,1,2-.925h23.612a2.625,2.625,0,0,1,2,.926l4.955,5.823a2.631,2.631,0,0,1,.627,1.7v5.192a1,1,0,0,1-1,1,1,1,0,0,1-1-1v-5.192a.629.629,0,0,0-.15-.408l-4.955-5.824a.628.628,0,0,0-.479-.222h-23.612a.628.628,0,0,0-.479.221l-4.955,5.824a.63.63,0,0,0-.15.408v33.7a.63.63,0,0,0,.629.629h33.522a.63.63,0,0,0,.629-.629V-81.03a1,1,0,0,1,1-1,1,1,0,0,1,1,1v22.587A2.632,2.632,0,0,1-254.556-55.814Z" transform="translate(289.707 99.6)"/></g><g transform="translate(64.105 34.025)"><path d="M0,12.792a1,1,0,0,1-1-1V0A1,1,0,0,1,0-1,1,1,0,0,1,1,0V11.792A1,1,0,0,1,0,12.792Z" transform="translate(0)"/></g><g transform="translate(70.85 34.025)"><path d="M0,12.792a1,1,0,0,1-1-1V0A1,1,0,0,1,0-1,1,1,0,0,1,1,0V11.792A1,1,0,0,1,0,12.792Z" transform="translate(0)"/></g><g transform="translate(64.105 39.719)"><path d="M6.745,1H0A1,1,0,0,1-1,0,1,1,0,0,1,0-1H6.745a1,1,0,0,1,1,1A1,1,0,0,1,6.745,1Z" transform="translate(0 0)"/></g><g transform="translate(53.818 36.948)"><path d="M0-59.991a1,1,0,0,1-1-1V-69.86a1,1,0,0,1,1-1,1,1,0,0,1,1,1v8.869A1,1,0,0,1,0-59.991Z" transform="translate(0 69.86)"/></g><g transform="translate(53.818 36.948)"><path d="M-40.209-22.467a3.73,3.73,0,0,1,3.725,3.725,3.73,3.73,0,0,1-3.725,3.725,3.73,3.73,0,0,1-3.725-3.725A3.73,3.73,0,0,1-40.209-22.467Zm0,5.451a1.727,1.727,0,0,0,1.725-1.725,1.727,1.727,0,0,0-1.725-1.725,1.727,1.727,0,0,0-1.725,1.725A1.727,1.727,0,0,0-40.209-17.016Z" transform="translate(42.935 21.467)"/></g></g></g></g></g></svg>