<svg xmlns="http://www.w3.org/2000/svg" xmlns:xlink="http://www.w3.org/1999/xlink" width="86.985" height="90.223" viewBox="0 0 86.985 90.223"><defs><clipPath id="a"><rect width="32.509" height="23.995" transform="translate(0 0)" fill="none"/></clipPath></defs><g transform="translate(-904.977 -194.699)"><g transform="translate(70)"><path d="M163.25,278.12h0a27.762,27.762,0,0,1-27.762-27.762V231.4a27.762,27.762,0,1,1,55.524,0v18.962A27.762,27.762,0,0,1,163.25,278.12" transform="translate(699.489 -8.935)" fill="#fff"/><g transform="translate(11956.641 12151.291)"><g transform="translate(-11118.372 -11929.982)"><path d="M486.345,244.666,486,248.639l-.092,1.048-1.933,22.15c0,3.826-8.185,6.93-18.281,6.93s-18.281-3.1-18.281-6.93l-1.96-22.469-.094-1.077-.316-3.625Z" transform="translate(-442.033 -227.89)" fill="#fea28b"/><g transform="translate(3.325 20.949)"><path d="M482.874,250.978a65.93,65.93,0,0,1-33.639,0A21.071,21.071,0,0,1,445.4,249.4l.094,1.076a23.173,23.173,0,0,0,3.468,1.372,66.8,66.8,0,0,0,34.186,0,24.993,24.993,0,0,0,2.8-1.053l.092-1.048A22.887,22.887,0,0,1,482.874,250.978Z" transform="translate(-445.4 -249.4)" fill="#b8854c"/></g><path d="M489.588,234.158c0-4.708-10.736-8.525-23.979-8.525s-23.979,3.817-23.979,8.525c0,.015,0,.031,0,.046h0v8.479h0c0,.015,0,.031,0,.046,0,4.154,10.736,7.522,23.979,7.522s23.979-3.368,23.979-7.522c0-.015,0-.031,0-.046h0V234.2h0C489.587,234.188,489.588,234.173,489.588,234.158Z" transform="translate(-441.628 -225.633)" fill="#fea28b"/><path d="M489.588,234.158a3.793,3.793,0,0,1-1,2.439c-2.95,3.52-12.125,6.086-22.985,6.086-11.219,0-20.64-2.739-23.256-6.439a3.584,3.584,0,0,1-.724-2.086c0-4.709,10.736-8.525,23.979-8.525S489.588,229.45,489.588,234.158Z" transform="translate(-441.628 -225.633)" fill="#fea28b"/><g transform="translate(2.165 1.659)"><path d="M487.292,235.3c-.72-.783-.715-2.091-1.548-2.752a1.9,1.9,0,0,0-.9-.377,1.272,1.272,0,0,0-.745-.345c-.271-.028-.727.135-.963-.009-.191-.117-.37-.5-.545-.673a3.588,3.588,0,0,0-1.442-.85c-.533-.161-1.1-.2-1.632-.366-.978-.312-1.788-1.065-2.792-1.267s-2.067.184-3.1.081a11.762,11.762,0,0,1-2.556-.829,7.435,7.435,0,0,0-4.422-.112,6.325,6.325,0,0,1-2.2.47,6.606,6.606,0,0,1-1.4-.375,6.89,6.89,0,0,0-4.58.187,11.223,11.223,0,0,1-2.537.98,17,17,0,0,1-2.391-.093,4.891,4.891,0,0,0-2.622.772c-.754.48-1.182,1.368-2.106,1.5a6.373,6.373,0,0,0-2.252,1.233l-.011.006a3.1,3.1,0,0,0-.953.888,3.066,3.066,0,0,0-.624.991,1.86,1.86,0,0,1-.545.584,2.135,2.135,0,0,1-.347.167,2.858,2.858,0,0,0,.336.529c2.38,3.022,11.413,5.215,21.481,5.215,9.794,0,18.537-2.039,21.262-4.957a3.688,3.688,0,0,0,.331-.406A2.308,2.308,0,0,1,487.292,235.3Z" transform="translate(-444.084 -227.515)" fill="#976a40"/><g transform="translate(4.923 2.525)"><path d="M452.856,236a2.709,2.709,0,0,0-3.177,1.781c-.108.264.611.326.7.1.334-.82,1.095-1.8,2.106-1.559.13.032.405.063.5-.067S453,236.031,452.856,236Z" transform="translate(-449.669 -231.036)" fill="#b8854c"/><path d="M485.032,234.383a.577.577,0,0,0-.516,0c-.108.08-.155.189,0,.263.973.459,1.161,1.6,1.3,2.557.038.267.763.24.73,0C486.386,236.1,486.136,234.9,485.032,234.383Z" transform="translate(-453.789 -230.847)" fill="#b8854c"/><path d="M462.1,230.823a1.675,1.675,0,0,0-.629-.35c-1.33-.361-2.522,1.138-2.9,2.232-.149.436-.35,1.222.081,1.57a3.107,3.107,0,0,0,2.925-.062,2.325,2.325,0,0,0,.364-.423l.455-.623a2.3,2.3,0,0,0,.364-.629,1.667,1.667,0,0,0-.6-1.663Z" transform="translate(-450.703 -230.384)" fill="#b8854c"/><path d="M475.968,232.845a1.75,1.75,0,0,0,1.065.264c.519.015,1.137-.02,1.409-.462a1.26,1.26,0,0,0,.152-.561,1.573,1.573,0,0,0-.237-1.093,2.23,2.23,0,0,0-2.578-.331A1.82,1.82,0,0,0,475.968,232.845Z" transform="translate(-452.731 -230.38)" fill="#b8854c"/><path d="M477.54,238.158c-.457-1.142-1.274-2.23-2.534-2.164a2.858,2.858,0,0,0-3.091-1.95c-.488.05-.149.394.194.359a2.2,2.2,0,0,1,2.225,1.832c.041.216.393.2.549.16,1.033-.279,1.659,1.122,1.954,1.862C476.926,238.483,477.646,238.426,477.54,238.158Z" transform="translate(-452.277 -230.812)" fill="#b8854c"/><path d="M465.586,237.778a2.169,2.169,0,0,0-2.52,1.5c-.056.215.659.268.73,0a1.485,1.485,0,0,1,1.6-1.14C465.735,238.2,466.069,237.863,465.586,237.778Z" transform="translate(-451.257 -231.253)" fill="#b8854c"/></g></g></g><path d="M473.543,212.836a3.657,3.657,0,0,0-5.695,1.4l-.022,0a3.26,3.26,0,0,0-2.45-1.633,3.771,3.771,0,0,0-3.55,1.22,1.562,1.562,0,0,0-.148,1.523,1.8,1.8,0,0,0,1.6.844,4.242,4.242,0,0,0,2.021-.318c.345-.147.661-.346.989-.524.36-.2,1.049-.5,1.143.05q0,6.7-.174,13.4c-.008.318.9.327.911,0q.087-3.432.13-6.866.023-1.736.033-3.472.005-.849.008-1.7c0-.738-.123-1.666.72-2a2.05,2.05,0,0,1,1.068-.068c1.078.171,1.862,1.045,3.04.821a1.338,1.338,0,0,0,1.166-1.022A1.989,1.989,0,0,0,473.543,212.836Z" transform="translate(-11562.361 -12154)" fill="#469a9a"/></g></g><g transform="matrix(0.883, -0.469, 0.469, 0.883, 951.993, 263.736)"><g clip-path="url(#a)"><path d="M.19,21.575C1.161,25.826,14.9,24.053,21,19.542S33.958,6,32.241,2.576,16.827-1.186,9.917,3.56-.936,16.634.19,21.575" fill="#495723"/><path d="M4.356,17.9l.836-.542c.544-.329,1.268-.871,2.231-1.394.476-.269.993-.561,1.537-.87s1.142-.593,1.753-.9,1.241-.627,1.906-.9l2-.862,2.048-.737c.67-.257,1.351-.45,2.006-.644s1.288-.393,1.9-.527l1.724-.381a11.786,11.786,0,0,1,1.468-.266l1.139-.16.991-.139a.187.187,0,0,1,.065.369l-.012,0-.971.207c-.614.148-1.506.28-2.545.581-.522.137-1.088.285-1.685.443s-1.21.387-1.857.576-1.311.4-1.971.661l-2.009.752L12.928,14c-.661.257-1.282.576-1.894.861s-1.212.545-1.756.837l-1.549.8c-.965.483-1.75.949-2.308,1.245s-.874.481-.874.481a.186.186,0,0,1-.253-.074.188.188,0,0,1,.062-.248"/><path d="M6.388,8.717s.165-.181.455-.5A15.89,15.89,0,0,1,8.081,6.94l.906-.8a10.8,10.8,0,0,1,1.063-.822c.383-.263.754-.575,1.182-.814L12.5,3.734c.441-.232.9-.434,1.336-.648a11.337,11.337,0,0,1,1.323-.558,17.178,17.178,0,0,1,2.432-.752,13.13,13.13,0,0,1,1.769-.318l.673-.1a.187.187,0,0,1,.073.366l-.019,0-.647.164c-.408.118-1.006.217-1.689.468l-1.11.362c-.393.132-.786.329-1.208.487a10.917,10.917,0,0,0-1.272.565c-.421.216-.858.42-1.28.652l-1.242.723c-.421.223-.785.519-1.162.767-.364.267-.75.484-1.064.751s-.631.495-.916.717c-.572.437-1.016.878-1.342,1.151l-.506.446a.187.187,0,0,1-.265-.017.189.189,0,0,1,0-.251"/></g></g></g></svg>