<svg height="132" viewBox="0 0 132 132" width="132" xmlns="http://www.w3.org/2000/svg" xmlns:xlink="http://www.w3.org/1999/xlink"><clipPath id="a"><path d="m0-682.665h105.372v105.372h-105.372z" transform="translate(0 682.665)"/></clipPath><path d="m0 0h132v132h-132z" fill="none"/><g clip-path="url(#a)" transform="translate(14 13)"><path d="m-187.88-170.9h-25.783a4.211 4.211 0 0 1 -4.162-3.555l-4.349-27.64h42.8l-4.349 27.64a4.211 4.211 0 0 1 -4.162 3.555" fill="#e6b67c" transform="translate(237.062 274.731)"/><path d="m-46.624 0-4.349 27.64a4.211 4.211 0 0 1 -4.162 3.555h8.235a4.211 4.211 0 0 0 4.162-3.555l4.346-27.64z" fill="#deac6f" transform="translate(96.085 72.634)"/><path d="m-277.97-45.821h-48.63a2.105 2.105 0 0 1 -2.1-2.105v-4.154a2.1 2.1 0 0 1 2.1-2.105h48.632a2.105 2.105 0 0 1 2.105 2.105v4.153a2.105 2.105 0 0 1 -2.105 2.105" fill="#d1974f" transform="translate(338.577 118.455)"/><path d="m-45.1 0h-8.232a2.105 2.105 0 0 1 2.105 2.105v4.154a2.105 2.105 0 0 1 -2.105 2.105h8.232a2.105 2.105 0 0 0 2.1-2.105v-4.154a2.105 2.105 0 0 0 -2.1-2.105" fill="#b88545" transform="translate(105.708 64.27)"/><path d="m-90.779-91.711c-1.343 8.534-10.633 14.163-10.633 14.163s-7.111-8.206-5.768-16.74 10.633-14.163 10.633-14.163 7.111 8.206 5.768 16.74" fill="#45ad4c" transform="translate(137.928 109.994)"/><path d="m-80.826-47.719c3.725 6.783.227 15.854.227 15.854s-9.538-1.927-13.263-8.71-.227-15.854-.227-15.854 9.538 1.927 13.263 8.71" fill="#90ef96" transform="translate(117.089 64.312)"/><path d="m-77.312-47.719c-3.725-6.783-13.263-8.71-13.263-8.71a23.173 23.173 0 0 0 -.849 2.946 15.764 15.764 0 0 1 5.879 5.764c2.4 4.364 1.8 9.674 1.075 12.907a26.356 26.356 0 0 0 7.384 2.946s3.5-9.071-.227-15.854" fill="#87de8d" transform="translate(113.576 64.312)"/><path d="m-4.038-65.637c2.206 5.449 9.23 7.751 9.23 7.751s3.448-6.532 1.242-11.981-9.234-7.75-9.234-7.75-3.448 6.532-1.242 11.981" fill="#45ad4c" transform="translate(22.944 110.538)"/><path d="m-86.108-4.291c7.283 2.633 10.657 11.75 10.657 11.75s-8.434 4.849-15.717 2.216-10.657-11.751-10.657-11.751 8.434-4.849 15.717-2.216" fill="#90ef96" transform="translate(103.369 45.248)"/><path d="m-49.743-4.291a16.323 16.323 0 0 0 -9.079-.271c.284.08.566.169.847.271 7.283 2.633 10.657 11.751 10.657 11.751a26.383 26.383 0 0 1 -6.638 2.486c7.074 1.994 14.87-2.486 14.87-2.486s-3.374-9.118-10.657-11.751" fill="#87de8d" transform="translate(67.004 45.247)"/><path d="m-83.368-83.274c-5.476 5.474-15.173 4.654-15.173 4.654s-.817-9.686 4.66-15.157 15.174-4.654 15.174-4.654.817 9.686-4.659 15.157" fill="#90ef96" transform="translate(142.648 122.651)"/><path d="m-108.863-.235a26.33 26.33 0 0 0 -8.194.835c.054 2.468-.193 9.818-4.7 14.317a15.6 15.6 0 0 1 -6.979 3.815c.012.533.037.839.037.839s9.7.816 15.174-4.654 4.659-15.157 4.659-15.157" fill="#87de8d" transform="translate(172.802 24.455)"/><path d="m-158.547 0h-19.48a4.3 4.3 0 0 0 -4.3 4.3v77.908l-5.16 3.719 5.16 3.719v8.188a4.3 4.3 0 0 0 4.3 4.3h19.48a4.3 4.3 0 0 0 4.3-4.3v-93.534a4.3 4.3 0 0 0 -4.3-4.3" fill="#e9f1ff" transform="translate(258.076 1.612)"/><path d="m-45.1 0h-8.232a4.3 4.3 0 0 1 4.3 4.3v93.534a4.3 4.3 0 0 1 -4.3 4.3h8.232a4.3 4.3 0 0 0 4.3-4.3v-93.534a4.3 4.3 0 0 0 -4.3-4.3" fill="#dde9ff" transform="translate(144.63 1.612)"/><path d="m-38.926-47.441a3.553 3.553 0 0 1 -3.553 3.552 3.552 3.552 0 0 1 -3.552-3.552c0-1.962 3.552-8.659 3.552-8.659s3.553 6.7 3.553 8.659" fill="#fff" transform="translate(132.268 67.355)"/><path d="m-44.632-22.316a4.073 4.073 0 0 1 -4.073 4.073 4.073 4.073 0 0 1 -4.073-4.073 4.073 4.073 0 0 1 4.073-4.073 4.073 4.073 0 0 1 4.073 4.073" fill="#fff" transform="translate(138.495 75.109)"/><path d="m-227.6-65.755h-25.783a5.219 5.219 0 0 1 -3.391-1.245 5.21 5.21 0 0 1 -1.762-3.15l-4.349-27.64a1 1 0 0 1 .228-.805 1 1 0 0 1 .76-.35h42.8a1 1 0 0 1 .76.35 1 1 0 0 1 .228.805l-2.379 15.119a1 1 0 0 1 -1.143.832 1 1 0 0 1 -.832-1.143l2.2-13.963h-40.464l4.167 26.484a3.2 3.2 0 0 0 3.174 2.71h25.786a3.2 3.2 0 0 0 3.174-2.71l.7-4.44a1 1 0 0 1 1.143-.832 1 1 0 0 1 .832 1.143l-.7 4.44a5.211 5.211 0 0 1 -1.765 3.15 5.219 5.219 0 0 1 -3.384 1.245z" transform="translate(276.786 170.583)"/><path d="m-277.97-44.821h-48.63a3.109 3.109 0 0 1 -3.1-3.105v-4.154a3.109 3.109 0 0 1 3.1-3.105h48.632a3.109 3.109 0 0 1 3.105 3.105v4.153a3.109 3.109 0 0 1 -3.107 3.106zm-48.63-8.364a1.106 1.106 0 0 0 -1.1 1.105v4.153a1.106 1.106 0 0 0 1.1 1.105h48.632a1.106 1.106 0 0 0 1.105-1.105v-4.153a1.106 1.106 0 0 0 -1.105-1.105z" transform="translate(338.577 118.455)"/><path d="m0-172.276a1 1 0 0 1 -1-1v-31.624a1 1 0 0 1 1-1 1 1 0 0 1 1 1v31.628a1 1 0 0 1 -1 .996z" transform="translate(36.281 237.532)"/><path d="m4.586-34.86a1 1 0 0 1 -.856-.482 1 1 0 0 1 .337-1.373 28.311 28.311 0 0 0 4.66-3.77 23.142 23.142 0 0 0 3.425-4.271 14.866 14.866 0 0 0 2.078-5.424 14.86 14.86 0 0 0 -.312-5.8 23.122 23.122 0 0 0 -1.947-5.115 29.767 29.767 0 0 0 -2.732-4.333 29.568 29.568 0 0 0 -2.8 2.215 22.85 22.85 0 0 0 -5.529 7.17 1 1 0 0 1 -1.325.494 1 1 0 0 1 -.495-1.325 24.877 24.877 0 0 1 6.054-7.857 28.459 28.459 0 0 1 3.787-2.887 1 1 0 0 1 1.274.2 29.72 29.72 0 0 1 3.521 5.366 25.179 25.179 0 0 1 2.129 5.577 16.857 16.857 0 0 1 .351 6.607 16.863 16.863 0 0 1 -2.364 6.181 25.2 25.2 0 0 1 -3.74 4.655 29.749 29.749 0 0 1 -5 4.027 1 1 0 0 1 -.516.145z" transform="translate(31.931 68.307)"/><path d="m1.185-81.65a1 1 0 0 1 -.2-.02 26.6 26.6 0 0 1 -5.15-1.744 23.456 23.456 0 0 1 -4.42-2.575 15.954 15.954 0 0 1 -3.926-4.138 1 1 0 0 1 .3-1.381 1 1 0 0 1 1.381.3c3 4.7 9.109 6.747 11.354 7.361a26.575 26.575 0 0 0 .952-4.369c.347-2.681.385-6.559-1.4-9.812s-5.076-5.3-7.527-6.448a26.65 26.65 0 0 0 -4.2-1.546 25.407 25.407 0 0 0 -1.143 7.422 1 1 0 0 1 -.991 1.009 1 1 0 0 1 -1.009-.991 26.94 26.94 0 0 1 1.556-9 1 1 0 0 1 1.131-.62 26.783 26.783 0 0 1 5.459 1.885 22.7 22.7 0 0 1 4.587 2.8 15.222 15.222 0 0 1 3.9 4.522 15.2 15.2 0 0 1 1.725 5.712 22.645 22.645 0 0 1 -.1 5.37 26.712 26.712 0 0 1 -1.342 5.613 1 1 0 0 1 -.937.65z" transform="translate(35.306 115.097)"/><path d="m-54.606-107.1a1 1 0 0 1 -.466-.116 1 1 0 0 1 -.418-1.351c.055-.106 3.193-6.214 1.2-11.138-1.578-3.9-5.954-6.087-7.789-6.857a17.5 17.5 0 0 0 -1.485 7.1 1 1 0 0 1 -.963 1.036 1 1 0 0 1 -1.036-.963 19.823 19.823 0 0 1 2.086-8.909 1 1 0 0 1 1.2-.484 20.61 20.61 0 0 1 4 1.932 14 14 0 0 1 5.843 6.394 13.982 13.982 0 0 1 .249 8.654 20.564 20.564 0 0 1 -1.533 4.168 1 1 0 0 1 -.888.534z" transform="translate(82.741 160.751)"/><path d="m-90.838-6.075a14.875 14.875 0 0 1 5.07.843 15.234 15.234 0 0 1 5.068 3.149 22.675 22.675 0 0 1 3.477 4.1 26.726 26.726 0 0 1 2.705 5.1 1 1 0 0 1 -.439 1.214 25.8 25.8 0 0 1 -11.486 3.132 14.875 14.875 0 0 1 -5.07-.843 15.235 15.235 0 0 1 -5.072-3.149 22.675 22.675 0 0 1 -3.477-4.1 26.724 26.724 0 0 1 -2.705-5.1 1 1 0 0 1 .439-1.214 25.8 25.8 0 0 1 11.49-3.132zm14.108 13.075a26.593 26.593 0 0 0 -2.175-3.91c-1.513-2.241-4.05-5.178-7.543-6.44a12.885 12.885 0 0 0 -4.39-.724 23.627 23.627 0 0 0 -9.708 2.463 26.592 26.592 0 0 0 2.175 3.906c1.513 2.241 4.05 5.178 7.543 6.441a12.885 12.885 0 0 0 4.39.724 23.627 23.627 0 0 0 9.708-2.46z" transform="translate(103.369 45.248)"/><path d="m7.774 8.67a1 1 0 0 1 -.7-.288l-7.774-7.67a1 1 0 0 1 -.012-1.412 1 1 0 0 1 1.412-.012l7.774 7.67a1 1 0 0 1 -.7 1.712z" transform="translate(28.428 53.002)"/><path d="m-97.173-77.577c-.888 0-1.429-.045-1.452-.047a1 1 0 0 1 -.912-.912 26.709 26.709 0 0 1 .284-5.764 22.651 22.651 0 0 1 1.409-5.183 15.214 15.214 0 0 1 3.256-5 16.69 16.69 0 0 1 7.871-4.191 27.676 27.676 0 0 1 6.641-.8c.888 0 1.429.045 1.452.047a1 1 0 0 1 .912.912 26.708 26.708 0 0 1 -.288 5.764 22.651 22.651 0 0 1 -1.409 5.183 15.215 15.215 0 0 1 -3.256 5 16.69 16.69 0 0 1 -7.871 4.191 27.677 27.677 0 0 1 -6.637.8zm-.407-2h.407c2.613 0 9.119-.429 13.1-4.4 2.626-2.624 3.676-6.357 4.095-9.028a26.569 26.569 0 0 0 .31-4.461c-.124 0-.26 0-.407 0-2.613 0-9.119.429-13.1 4.4-2.626 2.623-3.676 6.357-4.095 9.028a26.571 26.571 0 0 0 -.31 4.458z" transform="translate(142.648 122.651)"/><path d="m-47.267 8.383a1 1 0 0 1 -.7-.289 1 1 0 0 1 -.008-1.414l7.3-7.383a1 1 0 0 1 1.414-.008 1 1 0 0 1 .002 1.411l-7.3 7.383a1 1 0 0 1 -.708.3z" transform="translate(84.078 44.032)"/><path d="m-8.169-16.913a1.544 1.544 0 0 0 0-3.087 1.544 1.544 0 0 0 0 3.087" transform="translate(44.13 112.799)"/><path d="m-55.244-8.653a1 1 0 0 1 -.708-.294 1 1 0 0 1 0-1.414 6.994 6.994 0 0 1 4.97-2.054 6.994 6.994 0 0 1 4.969 2.054 1 1 0 0 1 0 1.414 1 1 0 0 1 -1.414 0 5.048 5.048 0 0 0 -7.115 0 1 1 0 0 1 -.702.294z" transform="translate(87.182 99.789)"/><path d="m-82.662-16.081a1 1 0 0 1 -.706-.292 9.624 9.624 0 0 0 -6.838-2.827 9.623 9.623 0 0 0 -6.838 2.826 1 1 0 0 1 -1.414 0 1 1 0 0 1 0-1.414 11.61 11.61 0 0 1 8.25-3.41 11.611 11.611 0 0 1 8.25 3.41 1 1 0 0 1 0 1.414 1 1 0 0 1 -.704.293z" transform="translate(126.408 102.319)"/><path d="m-186.4-202.513h-19.48a5.305 5.305 0 0 1 -5.3-5.3v-7.676l-4.744-3.42a1 1 0 0 1 -.415-.811 1 1 0 0 1 .415-.811l4.744-3.42v-77.4a5.305 5.305 0 0 1 5.3-5.3h19.48a5.305 5.305 0 0 1 5.3 5.3v42.878a1 1 0 0 1 -1 1 1 1 0 0 1 -1-1v-42.878a3.3 3.3 0 0 0 -3.3-3.3h-19.48a3.3 3.3 0 0 0 -3.3 3.3v77.909a1 1 0 0 1 -.415.811l-4.034 2.908 4.034 2.908a1 1 0 0 1 .415.811v8.188a3.3 3.3 0 0 0 3.3 3.3h19.48a3.3 3.3 0 0 0 3.3-3.3v-42.454a1 1 0 0 1 1-1 1 1 0 0 1 1 1v42.454a5.305 5.305 0 0 1 -5.3 5.303z" transform="translate(285.931 307.258)"/><path d="m-42.478-42.888a4.558 4.558 0 0 1 -4.552-4.552c0-.621.194-1.865 1.869-5.485.889-1.922 1.764-3.573 1.8-3.643a1 1 0 0 1 .883-.531 1 1 0 0 1 .883.531c.037.069.911 1.72 1.8 3.643 1.675 3.62 1.869 4.864 1.869 5.485a4.558 4.558 0 0 1 -4.552 4.552zm0-11.012c-1.251 2.53-2.551 5.51-2.551 6.46a2.555 2.555 0 0 0 2.552 2.552 2.555 2.555 0 0 0 2.553-2.552c0-.236-.121-1.269-1.684-4.645-.303-.652-.605-1.277-.872-1.815z" transform="translate(132.268 67.355)"/><path d="m-48.705-27.389a5.079 5.079 0 0 1 5.073 5.073 5.079 5.079 0 0 1 -5.073 5.073 5.079 5.079 0 0 1 -5.073-5.073 5.079 5.079 0 0 1 5.073-5.073zm0 8.147a3.077 3.077 0 0 0 3.073-3.073 3.077 3.077 0 0 0 -3.073-3.073 3.077 3.077 0 0 0 -3.073 3.073 3.077 3.077 0 0 0 3.073 3.072z" transform="translate(138.495 75.109)"/><path d="m0 4.953a1 1 0 0 1 -1-1v-3.953a1 1 0 0 1 1-1 1 1 0 0 1 1 1v3.953a1 1 0 0 1 -1 1z" transform="translate(89.789 44.767)"/><path d="m0 4.953a1 1 0 0 1 -1-1v-3.953a1 1 0 0 1 1-1 1 1 0 0 1 1 1v3.953a1 1 0 0 1 -1 1z" transform="translate(89.789 56.866)"/><path d="m-21.658 1h-3.953a1 1 0 0 1 -1-1 1 1 0 0 1 1-1h3.953a1 1 0 0 1 1 1 1 1 0 0 1 -1 1z" transform="translate(119.473 52.793)"/><path d="m-21.658 1h-3.953a1 1 0 0 1 -1-1 1 1 0 0 1 1-1h3.953a1 1 0 0 1 1 1 1 1 0 0 1 -1 1z" transform="translate(107.374 52.793)"/><path d="m-15.314-14.314a1 1 0 0 1 -.707-.293l-2.8-2.8a1 1 0 0 1 0-1.414 1 1 0 0 1 1.414 0l2.8 2.8a1 1 0 0 1 0 1.414 1 1 0 0 1 -.707.293z" transform="translate(110.778 73.782)"/><path d="m-15.314-14.315a1 1 0 0 1 -.707-.293l-2.8-2.8a1 1 0 0 1 0-1.414 1 1 0 0 1 1.414 0l2.8 2.8a1 1 0 0 1 0 1.414 1 1 0 0 1 -.707.293z" transform="translate(102.222 65.228)"/><path d="m-18.109 3.8a1 1 0 0 1 -.707-.293 1 1 0 0 1 0-1.414l2.8-2.8a1 1 0 0 1 1.414 0 1 1 0 0 1 0 1.414l-2.8 2.8a1 1 0 0 1 -.707.293z" transform="translate(110.778 47.117)"/><path d="m-18.109 3.8a1 1 0 0 1 -.707-.293 1 1 0 0 1 0-1.414l2.8-2.8a1 1 0 0 1 1.414 0 1 1 0 0 1 0 1.414l-2.8 2.8a1 1 0 0 1 -.707.293z" transform="translate(102.222 55.673)"/><path d="m10.328 1h-10.328a1 1 0 0 1 -1-1 1 1 0 0 1 1-1h10.328a1 1 0 0 1 1 1 1 1 0 0 1 -1 1z" transform="translate(84.615 36.093)"/><path d="m10.328 1h-10.328a1 1 0 0 1 -1-1 1 1 0 0 1 1-1h10.328a1 1 0 0 1 1 1 1 1 0 0 1 -1 1z" transform="translate(84.615 69.493)"/><path d="m-46.031 12.537a1 1 0 0 1 -.523-.149 1 1 0 0 1 -.327-1.376l7.1-11.537a1 1 0 0 1 1.381-.326 1 1 0 0 1 .326 1.375l-7.1 11.537a1 1 0 0 1 -.857.476z" transform="translate(132.268 82.12)"/><path d="m-8.168-16.913a1.544 1.544 0 0 0 0-3.087 1.544 1.544 0 0 0 0 3.087" transform="translate(94.405 101.299)"/><path d="m-8.169-16.913a1.544 1.544 0 0 0 0-3.087 1.544 1.544 0 0 0 0 3.087" transform="translate(101.51 111.39)"/></g></svg>