<svg height="63.497" viewBox="0 0 66.312 63.497" width="66.312" xmlns="http://www.w3.org/2000/svg"><g fill="#56681c"><path d="m215.75 76.3a3.454 3.454 0 1 1 3.438-3.454 3.45 3.45 0 0 1 -3.438 3.454zm0-5.208a1.754 1.754 0 1 0 1.737 1.754 1.748 1.748 0 0 0 -1.737-1.756z" transform="translate(-182.23 -62.372)"/><path d="m99.176 381.3a3.3 3.3 0 1 1 3.273-3.3 3.291 3.291 0 0 1 -3.273 3.3zm0-4.9a1.6 1.6 0 1 0 1.573 1.6 1.589 1.589 0 0 0 -1.573-1.6z" transform="translate(-82.315 -324.425)"/><path d="m41.158 30.333a6.5 6.5 0 0 0 2.1-3.16 1.5 1.5 0 0 0 -1.2-1.8 1.5 1.5 0 0 0 -.951-1.953 6.39 6.39 0 0 0 -3.757.247 6.508 6.508 0 0 0 -1.663-3.4 1.488 1.488 0 0 0 -2.159.138 1.489 1.489 0 0 0 -2.159-.138 6.507 6.507 0 0 0 -1.663 3.4 6.392 6.392 0 0 0 -3.757-.247 1.5 1.5 0 0 0 -.951 1.953 1.5 1.5 0 0 0 -1.2 1.8 6.5 6.5 0 0 0 2.1 3.16 6.72 6.72 0 0 0 -2.017 2.882 33.972 33.972 0 0 0 -9.381 7.619 17.978 17.978 0 0 1 -13.648 6.275.85.85 0 1 0 0 1.7 19.676 19.676 0 0 0 14.939-6.868 32.265 32.265 0 0 1 8.47-7 1.428 1.428 0 0 0 .731.351 1.436 1.436 0 0 0 -.074.77 63.525 63.525 0 0 0 -8.618 11.467.858.858 0 0 0 .733 1.281 25.049 25.049 0 0 1 8.176.99.851.851 0 0 0 .542-1.612 22.028 22.028 0 0 0 -7.212-1.079 61.86 61.86 0 0 1 7.561-9.82 6.513 6.513 0 0 0 3.6-.289 6.508 6.508 0 0 0 1.663 3.4 1.488 1.488 0 0 0 2.159-.138 1.547 1.547 0 0 0 1.147.551 1.445 1.445 0 0 0 1.012-.413 6.509 6.509 0 0 0 1.664-3.4 6.39 6.39 0 0 0 3.756.247 1.5 1.5 0 0 0 .951-1.953 1.5 1.5 0 0 0 1.2-1.8 6.5 6.5 0 0 0 -2.1-3.16zm-.83 5.35a5.776 5.776 0 0 1 -3.307-.652.858.858 0 0 0 -1.22.7 5.936 5.936 0 0 1 -1.091 3.218 1.462 1.462 0 0 0 -1.187-.605 1.462 1.462 0 0 0 -1.187.605 5.934 5.934 0 0 1 -1.091-3.217.858.858 0 0 0 -1.22-.7 5.777 5.777 0 0 1 -3.307.652 1.5 1.5 0 0 0 -1.186-2.073 5.864 5.864 0 0 1 2.22-2.576.858.858 0 0 0 0-1.4 5.862 5.862 0 0 1 -2.22-2.576 1.5 1.5 0 0 0 1.186-2.073 5.779 5.779 0 0 1 3.307.652.858.858 0 0 0 1.22-.7 5.933 5.933 0 0 1 1.091-3.217 1.475 1.475 0 0 0 2.374 0 5.932 5.932 0 0 1 1.09 3.212.858.858 0 0 0 1.22.7 5.78 5.78 0 0 1 3.307-.652 1.5 1.5 0 0 0 1.186 2.073 5.864 5.864 0 0 1 -2.22 2.576.858.858 0 0 0 0 1.4 5.865 5.865 0 0 1 2.22 2.576 1.5 1.5 0 0 0 -1.186 2.073z" transform="translate(-.002 -19.861)"/><circle cx="30.12" cy="30.342" r="1.134"/><path d="m378.193 219.3a3.454 3.454 0 1 1 3.438-3.454 3.45 3.45 0 0 1 -3.438 3.454zm0-5.208a1.754 1.754 0 1 0 1.737 1.754 1.748 1.748 0 0 0 -1.737-1.756z" transform="translate(-321.656 -185.11)"/><path d="m64.172 173.333a6.5 6.5 0 0 0 2.1-3.16 1.5 1.5 0 0 0 -1.2-1.8 1.5 1.5 0 0 0 -.951-1.953 6.39 6.39 0 0 0 -3.757.247 6.508 6.508 0 0 0 -1.663-3.4 1.488 1.488 0 0 0 -2.159.138 1.489 1.489 0 0 0 -2.159-.138 6.507 6.507 0 0 0 -1.663 3.4 6.392 6.392 0 0 0 -3.757-.247 1.5 1.5 0 0 0 -.951 1.953 1.5 1.5 0 0 0 -1.2 1.8 5.563 5.563 0 0 0 1 1.986h-13.3a.85.85 0 0 0 0 1.7h13.851a7.036 7.036 0 0 0 -1.068 1.436 72.826 72.826 0 0 1 -22.095 2.474.856.856 0 0 0 -.6 1.5l8.342 7a1.443 1.443 0 0 0 .058.831 1.505 1.505 0 0 0 -1.218 1.2 48.02 48.02 0 0 1 -9.174-5.529 25.869 25.869 0 0 0 -10.919-4.917c-.644-.182-1.427.287-1.185 1.051l3.076 9.725a7.883 7.883 0 0 0 -.342 1.2 7.766 7.766 0 0 0 -.959-.257l-5.255-10.859a.847.847 0 0 0 -.838-.477l-5.41.465a.85.85 0 1 0 .146 1.698l4.827-.415 4.6 9.514a4.28 4.28 0 0 0 -.6.126 1.461 1.461 0 0 0 -.946 1.848 1.46 1.46 0 0 0 -1.109 1.746 6.137 6.137 0 0 0 1.939 2.963 6.137 6.137 0 0 0 -1.939 2.963 1.46 1.46 0 0 0 1.106 1.742 1.462 1.462 0 0 0 .946 1.848 5.975 5.975 0 0 0 3.493-.213 6.152 6.152 0 0 0 1.56 3.17 1.447 1.447 0 0 0 2.061-.082 1.5 1.5 0 0 0 1.074.487 1.406 1.406 0 0 0 .987-.4 6.15 6.15 0 0 0 1.56-3.17 5.977 5.977 0 0 0 3.493.213 1.461 1.461 0 0 0 .946-1.848 1.433 1.433 0 0 0 1.109-1.746 6.137 6.137 0 0 0 -1.939-2.963 6.137 6.137 0 0 0 1.939-2.963 1.46 1.46 0 0 0 -1.109-1.746 1.462 1.462 0 0 0 -.946-1.848 5.98 5.98 0 0 0 -3.493.213 6.152 6.152 0 0 0 -1.56-3.17 1.447 1.447 0 0 0 -2.061.083 1.448 1.448 0 0 0 -2.061-.083l-.043.044-2.191-6.927a24.3 24.3 0 0 1 9.009 4.339 49.73 49.73 0 0 0 10.933 6.358 7.783 7.783 0 0 0 1.388 1.584 6.5 6.5 0 0 0 -2.1 3.16 1.5 1.5 0 0 0 1.2 1.8 1.5 1.5 0 0 0 .951 1.953 6.387 6.387 0 0 0 3.757-.247 6.508 6.508 0 0 0 1.663 3.4 1.488 1.488 0 0 0 2.165-.133 1.547 1.547 0 0 0 1.147.551 1.445 1.445 0 0 0 1.012-.413 6.509 6.509 0 0 0 1.663-3.4 6.389 6.389 0 0 0 3.756.247 1.5 1.5 0 0 0 .951-1.953 1.5 1.5 0 0 0 1.2-1.8 6.5 6.5 0 0 0 -2.1-3.16 6.5 6.5 0 0 0 2.1-3.16 1.5 1.5 0 0 0 -1.2-1.8 1.5 1.5 0 0 0 -.951-1.953 6.39 6.39 0 0 0 -3.757.247 6.508 6.508 0 0 0 -1.663-3.4 1.488 1.488 0 0 0 -2.159.138 1.489 1.489 0 0 0 -2.159-.138 6.507 6.507 0 0 0 -1.663 3.4 6.578 6.578 0 0 0 -3.529-.305l-6.594-5.532a77.019 77.019 0 0 0 19.222-2.374 1.5 1.5 0 0 0 1.2 1.113 1.5 1.5 0 0 0 .951 1.953 6.387 6.387 0 0 0 3.756-.261 6.508 6.508 0 0 0 1.663 3.4 1.488 1.488 0 0 0 2.159-.138 1.547 1.547 0 0 0 1.147.551 1.445 1.445 0 0 0 1.012-.413 6.509 6.509 0 0 0 1.663-3.4 6.39 6.39 0 0 0 3.756.247 1.5 1.5 0 0 0 .951-1.953 1.5 1.5 0 0 0 1.2-1.8 6.493 6.493 0 0 0 -2.1-3.16zm-49.391 17.767a5.637 5.637 0 0 1 .967-2.946 1.447 1.447 0 0 0 2.225 0 5.638 5.638 0 0 1 .967 2.946.858.858 0 0 0 1.222.7 5.406 5.406 0 0 1 3-.619 1.467 1.467 0 0 0 1.113 1.953 5.528 5.528 0 0 1 -2.039 2.343.858.858 0 0 0 0 1.4 5.528 5.528 0 0 1 2.039 2.343 1.464 1.464 0 0 0 -1.113 1.953 5.4 5.4 0 0 1 -3-.619.858.858 0 0 0 -1.222.7 5.639 5.639 0 0 1 -.967 2.946 1.435 1.435 0 0 0 -2.225 0 5.639 5.639 0 0 1 -.967-2.946.881.881 0 0 0 -.848-.788.851.851 0 0 0 -.374.086 5.4 5.4 0 0 1 -3 .619 1.467 1.467 0 0 0 -1.113-1.953 5.529 5.529 0 0 1 2.039-2.343.858.858 0 0 0 0-1.4 5.527 5.527 0 0 1 -2.039-2.343 1.464 1.464 0 0 0 1.113-1.953 5.4 5.4 0 0 1 3 .619.858.858 0 0 0 1.222-.7zm19.945-4.386a5.779 5.779 0 0 1 3.307.652.858.858 0 0 0 1.22-.7 5.933 5.933 0 0 1 1.091-3.217 1.475 1.475 0 0 0 2.374 0 5.932 5.932 0 0 1 1.091 3.218.858.858 0 0 0 1.22.7 5.78 5.78 0 0 1 3.307-.652 1.5 1.5 0 0 0 1.186 2.073 5.864 5.864 0 0 1 -2.22 2.576.858.858 0 0 0 0 1.4 5.865 5.865 0 0 1 2.22 2.576 1.5 1.5 0 0 0 -1.186 2.073 5.776 5.776 0 0 1 -3.307-.652.858.858 0 0 0 -1.22.7 5.936 5.936 0 0 1 -1.091 3.218 1.462 1.462 0 0 0 -1.187-.605 1.462 1.462 0 0 0 -1.187.605 5.934 5.934 0 0 1 -1.091-3.217.858.858 0 0 0 -1.22-.7 5.777 5.777 0 0 1 -3.307.652 1.5 1.5 0 0 0 -1.186-2.073 5.863 5.863 0 0 1 2.22-2.576.858.858 0 0 0 0-1.4 5.862 5.862 0 0 1 -2.22-2.576 1.5 1.5 0 0 0 1.186-2.073zm28.616-8.03a5.776 5.776 0 0 1 -3.307-.652.858.858 0 0 0 -1.22.7 5.936 5.936 0 0 1 -1.091 3.218 1.462 1.462 0 0 0 -1.187-.605 1.462 1.462 0 0 0 -1.187.605 5.934 5.934 0 0 1 -1.091-3.217.858.858 0 0 0 -1.22-.7 5.777 5.777 0 0 1 -3.307.652 1.5 1.5 0 0 0 -1.186-2.073 5.864 5.864 0 0 1 2.22-2.576.858.858 0 0 0 0-1.4 5.862 5.862 0 0 1 -2.22-2.576 1.5 1.5 0 0 0 1.186-2.073 5.779 5.779 0 0 1 3.307.652.858.858 0 0 0 1.22-.7 5.933 5.933 0 0 1 1.091-3.217 1.475 1.475 0 0 0 2.374 0 5.932 5.932 0 0 1 1.091 3.218.858.858 0 0 0 1.22.7 5.78 5.78 0 0 1 3.307-.652 1.5 1.5 0 0 0 1.186 2.073 5.864 5.864 0 0 1 -2.22 2.576.858.858 0 0 0 0 1.4 5.865 5.865 0 0 1 2.22 2.576 1.5 1.5 0 0 0 -1.186 2.073z" transform="translate(.001 -142.599)"/><path d="m272.3 351.484a3.454 3.454 0 1 1 3.438-3.454 3.45 3.45 0 0 1 -3.438 3.454zm0-5.208a1.754 1.754 0 1 0 1.737 1.754 1.748 1.748 0 0 0 -1.737-1.754z" transform="translate(-230.764 -298.567)"/></g></svg>