<svg xmlns="http://www.w3.org/2000/svg" width="82" height="82" viewBox="0 0 82 82"><g transform="translate(6557 8179.014)"><g transform="translate(-6567.151 -8189.073)"><circle cx="36" cy="36" r="36" transform="translate(15.151 15.059)" fill="#aed139"/><path d="M36,0A36,36,0,1,0,72,36,36,36,0,0,0,36,0m0-5A40.989,40.989,0,0,1,64.991,64.991,41,41,0,1,1,20.039-1.776,40.748,40.748,0,0,1,36-5Z" transform="translate(15.151 15.059)" fill="#fff"/></g><g transform="translate(-6555.667 -8178.593)"><g transform="translate(20 19.997)"><path d="M41.716,400A1.716,1.716,0,1,1,40,401.716,1.716,1.716,0,0,1,41.716,400Z" transform="translate(-38.284 -367.39)" fill="#73665c"/><circle cx="2.346" cy="2.346" r="2.346" transform="translate(35.025 23.722)" fill="#73665c"/><path d="M68.617,40.858l-3.433,4.291-9.074-.395-7.66-.333-3-.13-6.865,2.574L30,42.574l3.433-1.716,5.149,2.574,6.865-2.574,18.021.858L66.042,40Z" transform="translate(-29.142 -38.283)" fill="#73665c"/><g transform="translate(4.29 7.512)"><path d="M73.24,140.058a2.61,2.61,0,0,1-3.182,3.182,2.61,2.61,0,0,1,3.182-3.182Z" transform="translate(-69.997 -137.211)" fill="#a5c63b"/><path d="M164.058,108.277a2.737,2.737,0,0,1,.681,2.5,2.609,2.609,0,0,1-3.182-3.181A2.736,2.736,0,0,1,164.058,108.277Z" transform="translate(-153.643 -107.536)" fill="#a5c63b"/><path d="M354.058,132.237a2.736,2.736,0,0,1,.681,2.5,2.61,2.61,0,0,1-3.182-3.182A2.736,2.736,0,0,1,354.058,132.237Z" transform="translate(-327.339 -129.439)" fill="#a5c63b"/><path d="M145.039,180.916a5.9,5.9,0,0,1-1.317-4.062c.007-.124.01-.25.009-.377a6.5,6.5,0,0,0-13.008.027c0,.118,0,.235.009.352a5.852,5.852,0,0,1-1.31,4.05,10.118,10.118,0,1,0,15.617.009Z" transform="translate(-122.209 -164.64)" fill="#a5c63b"/></g><path d="M451.064,170.025a.858.858,0,1,1-1.04.625A.858.858,0,0,1,451.064,170.025Z" transform="translate(-413.097 -157.127)"/><path d="M451.066,390.025a.858.858,0,1,1-1.041.624A.859.859,0,0,1,451.066,390.025Z" transform="translate(-413.099 -358.247)"/><path d="M401.066,440.025a.858.858,0,1,1-1.041.624A.859.859,0,0,1,401.066,440.025Z" transform="translate(-367.39 -403.956)"/><path d="M381.066,240.025a.858.858,0,1,1-1.041.624A.859.859,0,0,1,381.066,240.025Z" transform="translate(-349.106 -221.119)"/><path d="M191.066,290.025a.858.858,0,1,1-1.041.624A.859.859,0,0,1,191.066,290.025Z" transform="translate(-175.41 -266.829)"/><path d="M111.066,260.025a.858.858,0,1,1-1.041.624A.859.859,0,0,1,111.066,260.025Z" transform="translate(-102.276 -239.403)"/><path d="M61.066,340.025a.858.858,0,1,1-1.041.624A.859.859,0,0,1,61.066,340.025Z" transform="translate(-56.566 -312.538)"/><path d="M51.066,230.025a.858.858,0,1,1-1.041.624.859.859,0,0,1,1.041-.624Z" transform="translate(-47.425 -211.978)"/><path d="M128.084,189.177h-.07a10.976,10.976,0,0,1-8.4-17.959,4.99,4.99,0,0,0,1.115-3.459c-.007-.138-.011-.271-.011-.4a7.362,7.362,0,0,1,14.724-.031c0,.137,0,.282-.011.427a5.026,5.026,0,0,0,1.123,3.47,10.975,10.975,0,0,1-8.476,17.949Zm0-27.461a5.652,5.652,0,0,0-5.646,5.646c0,.1,0,.2.008.308a6.7,6.7,0,0,1-1.506,4.641,9.26,9.26,0,0,0,7.083,15.15h.059a9.258,9.258,0,0,0,7.151-15.141,6.739,6.739,0,0,1-1.512-4.653c.006-.115.009-.221.008-.326A5.657,5.657,0,0,0,128.085,161.716Z" transform="translate(-108.776 -147.986)"/><path d="M168.46,332.062h-.006a7.182,7.182,0,0,1-5.493-11.751.858.858,0,1,1,1.323,1.093,5.465,5.465,0,0,0,4.18,8.942.858.858,0,0,1-.005,1.716Z" transform="translate(-149.193 -294.254)"/><path d="M29.44,38.582a.858.858,0,0,1-.384-.091L20.474,34.2a.858.858,0,0,1,0-1.535l3.433-1.716a.858.858,0,0,1,.768,0l4.814,2.407L36,30.914a.858.858,0,0,1,.342-.054l17.739.845,2.34-1.56a.858.858,0,0,1,.747-.1l2.574.858a.858.858,0,0,1,.4,1.35l-3.433,4.291a.862.862,0,0,1-.707.321l-19.563-.851-6.7,2.513a.86.86,0,0,1-.3.055Zm-6.663-5.149,6.712,3.356L36,34.346a.857.857,0,0,1,.339-.054l19.3.839,2.392-2.99-1.009-.336L54.8,33.289a.857.857,0,0,1-.517.143l-17.845-.85-6.7,2.512a.858.858,0,0,1-.685-.036l-4.765-2.383Z" transform="translate(-20 -29.142)"/><path d="M235.858,89.971a.858.858,0,0,1-.858-.858V82.378a.858.858,0,0,1,1.716,0v6.735A.858.858,0,0,1,235.858,89.971Z" transform="translate(-216.55 -76.24)"/><path d="M61.528,135.018a4.135,4.135,0,0,1-.788-.077.858.858,0,0,1-.678-.678,3.573,3.573,0,0,1,.916-3.272A3.479,3.479,0,0,1,63.463,130a4.125,4.125,0,0,1,.788.077.858.858,0,0,1,.678.678,3.571,3.571,0,0,1-.916,3.273A3.475,3.475,0,0,1,61.528,135.018Zm1.754-3.3a1.656,1.656,0,0,0-1.574,1.573,1.656,1.656,0,0,0,1.574-1.573Z" transform="translate(-56.552 -120.557)"/><path d="M344.961,126.517h0a3.478,3.478,0,0,1-2.485-.993,3.571,3.571,0,0,1-.916-3.273.858.858,0,0,1,.678-.678,4.128,4.128,0,0,1,.788-.077,3.475,3.475,0,0,1,2.484.993,3.571,3.571,0,0,1,.916,3.273.858.858,0,0,1-.678.678A4.125,4.125,0,0,1,344.961,126.517Zm-1.755-3.3a1.656,1.656,0,0,0,1.574,1.573,1.656,1.656,0,0,0-1.574-1.573Z" transform="translate(-313.894 -112.786)"/><path d="M154.962,102.557a3.475,3.475,0,0,1-2.484-.993,3.57,3.57,0,0,1-.916-3.272.858.858,0,0,1,.678-.678,4.128,4.128,0,0,1,.788-.077,3.475,3.475,0,0,1,2.484.993,3.572,3.572,0,0,1,.916,3.272.858.858,0,0,1-.678.678A4.129,4.129,0,0,1,154.962,102.557Zm-1.754-3.3a1.656,1.656,0,0,0,1.573,1.573,1.656,1.656,0,0,0-1.573-1.573Z" transform="translate(-140.2 -90.883)"/><path d="M32.574,395.149a2.574,2.574,0,1,1,2.574-2.574A2.577,2.577,0,0,1,32.574,395.149Zm0-3.433a.858.858,0,1,0,.858.858A.859.859,0,0,0,32.574,391.716Z" transform="translate(-29.142 -358.248)"/><path d="M423,296.007a3,3,0,1,1,3-3A3.007,3.007,0,0,1,423,296.007Zm0-4.291A1.287,1.287,0,1,0,424.291,293,1.289,1.289,0,0,0,423,291.716Z" transform="translate(-385.674 -266.83)"/><path d="M365.146,24.288a.854.854,0,0,1-.441-.122l-4.291-2.574a.858.858,0,1,1,.883-1.472l4.291,2.574a.858.858,0,0,1-.442,1.594Z" transform="translate(-330.821 -19.997)"/><path d="M300.858,89.227a.858.858,0,0,1-.611-1.461l2.082-2.111a.858.858,0,0,1,1.222,1.205l-2.082,2.111A.856.856,0,0,1,300.858,89.227Z" transform="translate(-275.972 -79.787)"/><path d="M120.855,44.288a.859.859,0,0,1-.814-1.13l.858-2.574a.858.858,0,0,1,1.628.543l-.858,2.574A.858.858,0,0,1,120.855,44.288Z" transform="translate(-111.415 -38.281)"/></g></g></g></svg>