<svg height="132" viewBox="0 0 132 132" width="132" xmlns="http://www.w3.org/2000/svg"><path d="m0 0h132v132h-132z" fill="none"/><g transform="translate(16.75 16.931)"><path d="m53 16.122v59.317h9.366v-59.317a3.122 3.122 0 0 0 -3.122-3.122h-3.122a3.122 3.122 0 0 0 -3.122 3.122z" fill="#919191" transform="translate(29.03 7.152)"/><path d="m58.122 15h-1.561a1.561 1.561 0 0 0 -1.561 1.561v57.756h6.244v-56.2a3.122 3.122 0 0 0 -3.122-3.117z" fill="#828282" transform="translate(30.152 8.274)"/><path d="m53 20h9.366v18.732h-9.366z" fill="#ffff8c" transform="translate(29.03 11.079)"/><path d="m55 20h6.244v18.732h-6.244z" fill="#fff56e" transform="translate(30.152 11.079)"/><rect fill="#d88d6f" height="96.78" rx="2" width="71.805" x="2.421" y="1.421"/><rect fill="#cd7e5a" height="93.659" rx="2" width="68.683" x="5.543" y="4.543"/><path d="m0 0h82.732v62.439h-82.732z" fill="#f4faff" transform="matrix(0 1 -1 0 69.543 10.787)"/><path d="m18 1h21.854v6.244a3.122 3.122 0 0 1 -3.122 3.122h-15.61a3.122 3.122 0 0 1 -3.122-3.122z" fill="#919191" transform="translate(9.396 .421)"/><path d="m0 0h1.561a6.244 6.244 0 0 1 6.239 6.244v1.556h-1.556a6.244 6.244 0 0 1 -6.244-6.239z" fill="#aaf06e" transform="matrix(-1 0 -0 -1 38.323 29.518)"/><path d="m31.244 14h1.556v1.561a6.244 6.244 0 0 1 -6.239 6.239h-1.561v-1.556a6.244 6.244 0 0 1 6.244-6.244z" fill="#aaf06e" transform="translate(13.323 7.713)"/><path d="m33.488 27.683c0 2.156-2.8 3.122-6.244 3.122s-6.244-.966-6.244-3.122 2.8-4.683 6.244-4.683 6.244 2.527 6.244 4.683z" fill="#cd7e5a" transform="translate(11.079 12.762)"/><path d="m18 3v3.122a3.122 3.122 0 0 0 3.122 3.122h15.61a3.122 3.122 0 0 0 3.122-3.122v-3.122z" fill="#828282" transform="translate(9.396 1.543)"/><path d="m53 53 3.512 11.512h2.341l3.513-11.512z" fill="#ffff8c" transform="translate(29.03 29.591)"/><path d="m55 53 .39 11.512h2.341l3.513-11.512z" fill="#fff56e" transform="translate(30.152 29.591)"/><path d="m8.25 32.421a1.171 1.171 0 0 0 1.171 1.171h24.979a1.171 1.171 0 1 0 0-2.341h-24.979a1.171 1.171 0 0 0 -1.171 1.17z" transform="translate(3.927 17.39)"/><path d="m8.25 36.421a1.171 1.171 0 0 0 1.171 1.171h49.951a1.171 1.171 0 1 0 0-2.341h-49.951a1.171 1.171 0 0 0 -1.171 1.17z" transform="translate(3.927 19.634)"/><path d="m59.372 39.25h-49.951a1.171 1.171 0 1 0 0 2.341h49.951a1.171 1.171 0 1 0 0-2.341z" transform="translate(3.927 21.878)"/><path d="m54.323 51.25h-35.9a1.171 1.171 0 0 0 0 2.341h35.9a1.171 1.171 0 0 0 0-2.341z" transform="translate(8.976 28.61)"/><path d="m54.323 55.25h-35.9a1.171 1.171 0 0 0 0 2.341h35.9a1.171 1.171 0 0 0 0-2.341z" transform="translate(8.976 30.854)"/><path d="m17.975 51.823a1.171 1.171 0 0 0 -1.656 0l-4.691 4.691-1.38-1.38a1.171 1.171 0 1 0 -1.655 1.656l2.207 2.21a1.169 1.169 0 0 0 1.655 0l5.52-5.518a1.171 1.171 0 0 0 0-1.656z" transform="translate(3.927 28.739)"/><path d="m54.323 43.25h-35.9a1.171 1.171 0 0 0 0 2.341h35.9a1.171 1.171 0 0 0 0-2.341z" transform="translate(8.976 24.122)"/><path d="m54.323 47.25h-35.9a1.171 1.171 0 0 0 0 2.341h35.9a1.171 1.171 0 0 0 0-2.341z" transform="translate(8.976 26.366)"/><path d="m17.975 43.823a1.171 1.171 0 0 0 -1.656 0l-4.691 4.691-1.38-1.38a1.171 1.171 0 1 0 -1.655 1.656l2.207 2.21a1.169 1.169 0 0 0 1.655 0l5.52-5.518a1.171 1.171 0 0 0 0-1.656z" transform="translate(3.927 24.251)"/><path d="m26.665 23.4h.39v4.01c-3.59.518-6.244 3.3-6.244 5.746 0 2.688 2.772 4.293 7.415 4.293s7.415-1.6 7.415-4.293c0-2.446-2.654-5.228-6.244-5.746v-4.01h.39a7.424 7.424 0 0 0 7.413-7.418v-1.561a1.171 1.171 0 0 0 -1.17-1.171h-1.56a7.4 7.4 0 0 0 -6.244 3.45 7.4 7.4 0 0 0 -6.244-3.451h-1.561a1.171 1.171 0 0 0 -1.171 1.171v1.561a7.424 7.424 0 0 0 7.415 7.419zm2.735-2.735a5.079 5.079 0 0 1 5.073-5.073h.39v.39a5.079 5.079 0 0 1 -5.073 5.073h-.39zm-1.174 8.975c2.894 0 5.073 2.131 5.073 3.512 0 2.7-10.146 2.7-10.146 0-.001-1.381 2.179-3.512 5.073-3.512zm-6.635-14.049h.39a5.079 5.079 0 0 1 5.073 5.073v.39h-.39a5.079 5.079 0 0 1 -5.073-5.073z" transform="translate(10.098 7.293)"/><path d="m71.1.25h-65.557a4.3 4.3 0 0 0 -4.293 4.293v90.536a4.3 4.3 0 0 0 4.293 4.293h65.557a4.3 4.3 0 0 0 4.3-4.293v-90.536a4.3 4.3 0 0 0 -4.3-4.293zm-20.679 7.415v-.39h1.951a1.954 1.954 0 0 1 1.951 1.951v.39h-4.394a4.229 4.229 0 0 0 .492-1.951zm-26.147 8.975h28.1a4.3 4.3 0 0 0 4.293-4.293v-.39h11.705v80.39h-60.098v-80.39h11.708v.39a4.3 4.3 0 0 0 4.293 4.293zm-1.951-4.293v-.39h32v.39a1.954 1.954 0 0 1 -1.951 1.953h-28.1a1.954 1.954 0 0 1 -1.949-1.952zm6.244-9.756h19.512v5.074a1.954 1.954 0 0 1 -1.951 1.951h-15.61a1.954 1.954 0 0 1 -1.951-1.951zm-6.244 7.025v-.39a1.954 1.954 0 0 1 1.951-1.951h1.951v.39a4.229 4.229 0 0 0 .492 1.951zm50.732 85.463a1.954 1.954 0 0 1 -1.955 1.951h-65.557a1.954 1.954 0 0 1 -1.951-1.951v-90.536a1.954 1.954 0 0 1 1.951-1.952h20.683v2.342h-1.952a4.3 4.3 0 0 0 -4.293 4.293v.39h-12.881a1.171 1.171 0 0 0 -1.171 1.171v82.731a1.171 1.171 0 0 0 1.171 1.171h62.443a1.171 1.171 0 0 0 1.171-1.171v-82.731a1.171 1.171 0 0 0 -1.171-1.171h-12.878v-.39a4.3 4.3 0 0 0 -4.293-4.293h-1.951v-2.342h20.679a1.954 1.954 0 0 1 1.951 1.951z"/><path d="m65.128 18.494h-1.171v-1.951a4.3 4.3 0 0 0 -4.293-4.293h-3.121a4.3 4.3 0 0 0 -4.293 4.293v59.317a1.193 1.193 0 0 0 .067.39l4.616 13.078v2.142a1.171 1.171 0 0 0 2.341 0v-2.142l4.616-13.078a1.193 1.193 0 0 0 .067-.39v-55.025h1.171a1.171 1.171 0 0 1 1.172 1.171v17.951a1.171 1.171 0 1 0 2.341 0v-17.951a3.515 3.515 0 0 0 -3.512-3.512zm-7.028 67.122-3.025-8.586h6.057zm3.512-10.927h-7.021v-30.439h7.024zm0-32.78h-7.021v-16.391h7.024zm0-18.732h-7.021v-6.634a1.954 1.954 0 0 1 1.951-1.951h3.122a1.954 1.954 0 0 1 1.951 1.951z" transform="translate(28.61 6.732)"/></g></svg>