<svg xmlns="http://www.w3.org/2000/svg" width="82" height="82" viewBox="0 0 82 82"><g transform="translate(6886.5 8179.014)"><g transform="translate(-6896.651 -8189.073)"><circle cx="36" cy="36" r="36" transform="translate(15.151 15.059)" fill="#aed139"/><path d="M36,0A36,36,0,1,0,72,36,36,36,0,0,0,36,0m0-5A40.989,40.989,0,0,1,64.991,64.991,41,41,0,1,1,20.039-1.776,40.748,40.748,0,0,1,36-5Z" transform="translate(15.151 15.059)" fill="#fff"/></g><g transform="translate(-6875.733 -8164.667)"><path d="M32.844,15.111S33.667,11,27.911,11s-5.756,6.578-8.222,9.044S9,24.155,9,33.2s16.444,13.978,18.911-1.644c0,0,.822-9.867,3.289-13.155Z" transform="translate(-0.178 -1.6)" fill="#55b56a"/><path d="M51.978,3H47.867S46.222,4.644,45.4,8.756C43.756,5.467,39.644,3,39.644,3L38,6.289a23.179,23.179,0,0,1,7.4,9.044V42.466a12.416,12.416,0,0,1-3.289,8.222h4.111a14.746,14.746,0,0,0,2.467-8.222V11.222A12.415,12.415,0,0,1,51.978,3Z" transform="translate(-5.333 -0.178)" fill="#55b56a"/><path d="M37.644,16s6.578,2.467,7.4,7.4v7.4S43.4,22.578,36,19.289Z" transform="translate(-4.978 -2.489)" fill="#3e8051"/><path d="M24.621,25.022c-3.838,0-3.562,2.455-7.4,2.455a7,7,0,0,1-3.618-.966A10.809,10.809,0,0,0,9,35.693C9,44.737,25.443,49.67,27.91,34.048a62.639,62.639,0,0,1,1.115-7.324C27.82,26,27.033,25.022,24.621,25.022Z" transform="translate(-0.177 -4.093)" fill="#fcf05a"/><path d="M32.627,10.368c-.974-1.188-2.62-1.79-4.894-1.79-4.395,0-5.863,3.4-7.043,6.135a10.586,10.586,0,0,1-1.76,3.151,13.578,13.578,0,0,1-2.593,1.727C13.016,21.495,8,24.377,8,31.6c0,4.7,4.229,8.852,9.425,9.259q.387.031.779.031c4.31,0,9.079-2.813,10.348-10.866.208-2.5,1.091-9.2,2.758-12.156,6.084,3.1,7.781,9.861,7.934,10.534v13.9A11.6,11.6,0,0,1,36.2,49.929a.822.822,0,0,0,.581,1.4h4.111A.822.822,0,0,0,41.546,51a15.478,15.478,0,0,0,2.631-8.715V11.028A11.6,11.6,0,0,1,47.225,3.4.822.822,0,0,0,46.644,2H42.533a.822.822,0,0,0-.581.241,10.812,10.812,0,0,0-2.214,4.286,20.121,20.121,0,0,0-5-4.41.829.829,0,0,0-1.163.34L31.928,5.746a.822.822,0,0,0,.28,1.052,22.319,22.319,0,0,1,7.037,8.535v1.878a15.561,15.561,0,0,0-5.717-4.23,4.127,4.127,0,0,0-.9-2.613ZM17.554,39.22c-3.8-.3-7.91-3.3-7.91-7.62a9.885,9.885,0,0,1,3.869-8.209,7.564,7.564,0,0,0,3.536.816,6.437,6.437,0,0,0,4.166-1.372,4.856,4.856,0,0,1,3.23-1.083,4.834,4.834,0,0,1,3.233,1.09c.082.056.164.109.247.164a62.02,62.02,0,0,0-1.006,6.824C25.455,39.11,19.384,39.362,17.554,39.22ZM28.325,21.3a6.237,6.237,0,0,0-3.881-1.189,6.437,6.437,0,0,0-4.166,1.372,4.856,4.856,0,0,1-3.234,1.083,6.115,6.115,0,0,1-1.968-.3c.7-.453,1.405-.861,2.079-1.248a14.446,14.446,0,0,0,2.937-1.987A11.608,11.608,0,0,0,22.2,15.364c1.142-2.644,2.22-5.142,5.534-5.142,1.746,0,2.96.395,3.61,1.174a2.588,2.588,0,0,1,.528,1.867l-1.553,3.106a15.346,15.346,0,0,0-1.993,4.923ZM33.719,5.844l.913-1.824a15.166,15.166,0,0,1,4.7,4.925.822.822,0,0,0,1.542-.2,12.51,12.51,0,0,1,2.044-5.1h1.963a13.545,13.545,0,0,0-2.346,7.4V42.289a14.346,14.346,0,0,1-2.083,7.4H38.543a13.545,13.545,0,0,0,2.346-7.4V15.155a.81.81,0,0,0-.067-.324,24.142,24.142,0,0,0-7.1-8.988ZM39.244,21v2.755a16.654,16.654,0,0,0-7.113-7.335l.923-1.847C34.66,15.32,38.628,17.5,39.244,21Z"/><path d="M26,31h1.644v1.644H26Z" transform="translate(-3.2 -5.156)"/><path d="M20,34h1.644v1.644H20Z" transform="translate(-2.133 -5.689)"/><path d="M25,37h1.644v1.644H25Z" transform="translate(-3.022 -6.222)"/><path d="M14.222,39.2c-1.463-2.264.149-5.9.164-5.938l-1.5-.679c-.082.182-2,4.481-.053,7.5,1.156,1.794,3.362,2.7,6.558,2.7V41.149C16.8,41.149,15.056,40.491,14.222,39.2Z" transform="translate(-0.705 -5.438)"/></g></g></svg>