<svg height="60" viewBox="0 0 39.992 60" width="39.992" xmlns="http://www.w3.org/2000/svg"><g transform="translate(-10.008)"><path d="m49 41.445c0 10.48-9.878 18.78-21.521 17.406a18.938 18.938 0 0 1 -15.548-12.065c-4.378-12.312 7.676-22.754 15.492-44.059a2.786 2.786 0 0 1 5.154 0c6.669 18.178 16.423 28.448 16.423 38.718z" fill="#02a9f4"/><path d="m32.577 2.727a2.8 2.8 0 0 0 -4.077-1.313 2.535 2.535 0 0 1 1.077 1.313c6.669 18.173 16.423 28.448 16.423 38.718 0 9.255-7.7 16.805-17.526 17.5 11.206.8 20.526-7.321 20.526-17.5 0-10.27-9.754-20.54-16.423-38.718z" fill="#0377bc"/><circle cx="23.5" cy="32.5" fill="#008a00" r="3.5"/><circle cx="36.5" cy="45.5" fill="#008a00" r="3.5"/><path d="m27.361 59.844a22.371 22.371 0 0 0 2.616.156 20.823 20.823 0 0 0 13.867-5.147 17.787 17.787 0 0 0 6.156-13.408c0-6.1-3.2-12.013-7.246-19.494a143.622 143.622 0 0 1 -9.238-19.569 3.786 3.786 0 0 0 -7.032 0 143.516 143.516 0 0 1 -9.239 19.57c-5.127 9.474-9.177 16.957-6.256 25.168a20.057 20.057 0 0 0 16.372 12.724zm-8.361-36.944a145.1 145.1 0 0 0 9.362-19.829 1.788 1.788 0 0 1 3.276 0 145.151 145.151 0 0 0 9.362 19.829c3.913 7.232 7 12.944 7 18.542a15.812 15.812 0 0 1 -5.484 11.91 19.047 19.047 0 0 1 -14.92 4.5 18.015 18.015 0 0 1 -14.722-11.4c-2.623-7.374 1.049-14.158 6.126-23.552z"/><path d="m20 50a1 1 0 0 0 .707-.293l20-20a1 1 0 1 0 -1.414-1.414l-20 20a1 1 0 0 0 .707 1.707z"/><path d="m23.5 37a4.5 4.5 0 1 0 -4.5-4.5 4.5 4.5 0 0 0 4.5 4.5zm0-7a2.5 2.5 0 1 1 -2.5 2.5 2.5 2.5 0 0 1 2.5-2.5z"/><path d="m36.5 41a4.5 4.5 0 1 0 4.5 4.5 4.5 4.5 0 0 0 -4.5-4.5zm0 7a2.5 2.5 0 1 1 2.5-2.5 2.5 2.5 0 0 1 -2.5 2.5z"/></g></svg>