<svg xmlns="http://www.w3.org/2000/svg" width="60.021" height="60.006" viewBox="0 0 60.021 60.006"><g transform="translate(0.011 0.006)"><path d="M30,38a9.968,9.968,0,0,0,7.62-3.53,6.989,6.989,0,0,0,12.31-3.54A7.592,7.592,0,0,0,51,31a8,8,0,0,0,1.99-15.75A2.09,2.09,0,0,0,53,15a7,7,0,0,0-7-7,6.9,6.9,0,0,0-3.17.76,14.486,14.486,0,0,0-25.66,0A6.9,6.9,0,0,0,14,8a7,7,0,0,0-7,7,2.09,2.09,0,0,0,.01.25A8,8,0,0,0,9,31a7.592,7.592,0,0,0,1.07-.07,6.989,6.989,0,0,0,12.31,3.54A9.968,9.968,0,0,0,30,38Z" fill="#e4e1e5"/><path d="M33,48.9a3.041,3.041,0,0,1-3.355,3.084,3.165,3.165,0,0,1-2.639-3.33c.112-2.239,1.7-4.435,2.519-5.422a.611.611,0,0,1,.95,0C31.321,44.249,33,46.572,33,48.9Z" fill="#4a5ae8"/><path d="M24,55.9a3.041,3.041,0,0,1-3.356,3.084A3.165,3.165,0,0,1,18,55.649c.112-2.239,1.7-4.435,2.518-5.422a.612.612,0,0,1,.951,0C22.318,51.249,24,53.572,24,55.9Z" fill="#4a5ae8"/><path d="M15,46.9a3.041,3.041,0,0,1-3.356,3.084A3.165,3.165,0,0,1,9,46.649c.112-2.239,1.7-4.435,2.518-5.422a.612.612,0,0,1,.951,0C13.318,42.249,15,44.572,15,46.9Z" fill="#4a5ae8"/><path d="M7,55.9a3.041,3.041,0,0,1-3.355,3.084,3.165,3.165,0,0,1-2.639-3.33c.112-2.239,1.7-4.435,2.519-5.422a.611.611,0,0,1,.95,0C5.321,51.249,7,53.572,7,55.9Z" fill="#4a5ae8"/><path d="M36,55.9a3.041,3.041,0,0,0,3.355,3.084,3.165,3.165,0,0,0,2.639-3.33c-.112-2.239-1.7-4.435-2.519-5.422a.611.611,0,0,0-.95,0C37.679,51.249,36,53.572,36,55.9Z" fill="#4a5ae8"/><path d="M45,46.9a3.041,3.041,0,0,0,3.355,3.084,3.165,3.165,0,0,0,2.639-3.33c-.112-2.239-1.7-4.435-2.519-5.422a.611.611,0,0,0-.95,0C46.679,42.249,45,44.572,45,46.9Z" fill="#4a5ae8"/><path d="M53,55.9a3.04,3.04,0,0,0,3.355,3.084,3.165,3.165,0,0,0,2.639-3.33c-.112-2.239-1.7-4.435-2.519-5.422a.611.611,0,0,0-.95,0C54.677,51.249,53,53.572,53,55.9Z" fill="#4a5ae8"/><path d="M4.007,60A4.092,4.092,0,0,0,8,55.9c0-2.589-1.726-5.063-2.754-6.306a1.661,1.661,0,0,0-2.492,0A11.2,11.2,0,0,0,.007,55.6a4.179,4.179,0,0,0,3.519,4.373A4.338,4.338,0,0,0,4.007,60Zm-2-4.3a8.925,8.925,0,0,1,2-4.463A8.6,8.6,0,0,1,6,55.9a2.064,2.064,0,0,1-2.237,2.09A2.178,2.178,0,0,1,2.005,55.7Z" fill="#262626"/><path d="M21,60A4.092,4.092,0,0,0,25,55.9c0-2.589-1.725-5.063-2.754-6.306a1.661,1.661,0,0,0-2.492,0A11.2,11.2,0,0,0,17,55.6a4.179,4.179,0,0,0,3.52,4.373,4.319,4.319,0,0,0,.48.027Zm-2-4.3a8.925,8.925,0,0,1,2-4.463,8.6,8.6,0,0,1,2,4.66,2.063,2.063,0,0,1-2.237,2.09A2.179,2.179,0,0,1,19,55.7Z" fill="#262626"/><path d="M39.008,60A4.092,4.092,0,0,0,43,55.9c0-2.589-1.726-5.063-2.754-6.306a1.661,1.661,0,0,0-2.492,0A11.2,11.2,0,0,0,35.008,55.6a4.179,4.179,0,0,0,3.52,4.373,4.319,4.319,0,0,0,.48.027Zm-2-4.3a8.908,8.908,0,0,1,2-4.463,8.6,8.6,0,0,1,2,4.66,2.064,2.064,0,0,1-2.238,2.09A2.179,2.179,0,0,1,37.007,55.7Z" fill="#262626"/><path d="M56.007,60A4.092,4.092,0,0,0,60,55.9c0-2.589-1.726-5.063-2.754-6.306a1.661,1.661,0,0,0-2.492,0A11.2,11.2,0,0,0,52.007,55.6a4.179,4.179,0,0,0,3.519,4.373,4.339,4.339,0,0,0,.481.027Zm-2-4.3A8.925,8.925,0,0,1,56,51.235a8.6,8.6,0,0,1,2,4.66,2.064,2.064,0,0,1-2.237,2.09A2.178,2.178,0,0,1,54,55.7Z" fill="#262626"/><path d="M48.005,51a4.092,4.092,0,0,0,4-4.1c0-2.589-1.725-5.063-2.754-6.306a1.661,1.661,0,0,0-2.492,0A11.2,11.2,0,0,0,44,46.6a4.179,4.179,0,0,0,3.52,4.373A4.32,4.32,0,0,0,48,51Zm-2-4.3a8.925,8.925,0,0,1,2-4.465,8.6,8.6,0,0,1,2,4.66,2.063,2.063,0,0,1-2.237,2.09A2.179,2.179,0,0,1,46,46.7Z" fill="#262626"/><path d="M30.007,52.972A4.092,4.092,0,0,0,34,48.868c0-2.589-1.726-5.063-2.754-6.306a1.661,1.661,0,0,0-2.492,0,11.2,11.2,0,0,0-2.747,6.008,4.179,4.179,0,0,0,3.519,4.373,4.338,4.338,0,0,0,.481.029Zm-2-4.3a8.922,8.922,0,0,1,2-4.462,8.594,8.594,0,0,1,2,4.66,2.064,2.064,0,0,1-2.237,2.09,2.18,2.18,0,0,1-1.765-2.29Z" fill="#262626"/><path d="M12.005,50.972A4.092,4.092,0,0,0,16,46.868c0-2.589-1.725-5.063-2.754-6.306a1.661,1.661,0,0,0-2.492,0A11.206,11.206,0,0,0,8.007,46.57a4.179,4.179,0,0,0,3.52,4.373,4.32,4.32,0,0,0,.478.029Zm-2-4.3a8.922,8.922,0,0,1,2-4.464,8.594,8.594,0,0,1,2,4.66,2.064,2.064,0,0,1-2.237,2.09A2.18,2.18,0,0,1,10,46.67Z" fill="#262626"/><path d="M53.985,14.506A8.006,8.006,0,0,0,43.259,7.482a15.5,15.5,0,0,0-19.673-6.1,1,1,0,0,0,.828,1.82A13.5,13.5,0,0,1,41.944,9.22a1,1,0,0,0,1.345.424A6,6,0,0,1,52,15v.129a1,1,0,0,0,.746,1.09A7,7,0,0,1,51,30a6.5,6.5,0,0,1-.927-.06.981.981,0,0,0-.747.193,1,1,0,0,0-.388.667,5.988,5.988,0,0,1-10.547,3.033,1,1,0,0,0-.765-.363H37.62a1,1,0,0,0-.763.353,8.988,8.988,0,0,1-13.714,0,1,1,0,0,0-.763-.353h-.006a1,1,0,0,0-.765.363A5.988,5.988,0,0,1,11.062,30.8a1,1,0,0,0-.388-.667.983.983,0,0,0-.747-.193A6.5,6.5,0,0,1,9,30,7,7,0,0,1,7.256,16.219,1.015,1.015,0,0,0,8,15.13,1.134,1.134,0,0,1,8,15a6,6,0,0,1,8.711-5.352,1,1,0,0,0,1.345-.424,13.588,13.588,0,0,1,3.566-4.308A1,1,0,1,0,20.378,3.35a15.392,15.392,0,0,0-3.637,4.132A8.006,8.006,0,0,0,6.015,14.506,9,9,0,0,0,9,32h.26a7.991,7.991,0,0,0,13.113,3.927,10.994,10.994,0,0,0,15.254,0A7.991,7.991,0,0,0,50.74,32H51a9,9,0,0,0,2.985-17.494Z" fill="#262626"/></g></svg>