<svg xmlns="http://www.w3.org/2000/svg" width="66.312" height="63.497" viewBox="0 0 66.312 63.497"><g transform="translate(0.001 -2.814)"><g transform="translate(-0.001 2.814)"><g transform="translate(30.082 7.018)"><path d="M215.75,76.3a3.454,3.454,0,1,1,3.438-3.454A3.45,3.45,0,0,1,215.75,76.3Zm0-5.208a1.754,1.754,0,1,0,1.737,1.754A1.748,1.748,0,0,0,215.75,71.09Z" transform="translate(-212.312 -69.39)" fill="#56681c"/></g><g transform="translate(13.588 50.278)"><path d="M99.176,381.3a3.3,3.3,0,1,1,3.273-3.3A3.291,3.291,0,0,1,99.176,381.3Zm0-4.9a1.6,1.6,0,1,0,1.573,1.6A1.589,1.589,0,0,0,99.176,376.4Z" transform="translate(-95.903 -374.703)" fill="#56681c"/></g><path d="M41.158,30.333a6.5,6.5,0,0,0,2.1-3.16,1.5,1.5,0,0,0-1.2-1.8,1.5,1.5,0,0,0-.951-1.953,6.39,6.39,0,0,0-3.757.247,6.508,6.508,0,0,0-1.663-3.4,1.488,1.488,0,0,0-2.159.138,1.489,1.489,0,0,0-2.159-.138,6.507,6.507,0,0,0-1.663,3.4,6.392,6.392,0,0,0-3.757-.247,1.5,1.5,0,0,0-.951,1.953,1.5,1.5,0,0,0-1.2,1.8,6.5,6.5,0,0,0,2.1,3.16,6.72,6.72,0,0,0-2.017,2.882A33.972,33.972,0,0,0,14.5,40.834,17.978,17.978,0,0,1,.852,47.109a.85.85,0,1,0,0,1.7,19.676,19.676,0,0,0,14.939-6.868,32.265,32.265,0,0,1,8.47-7,1.428,1.428,0,0,0,.731.351,1.436,1.436,0,0,0-.074.77A63.525,63.525,0,0,0,16.3,47.529a.858.858,0,0,0,.733,1.281,25.049,25.049,0,0,1,8.176.99.851.851,0,0,0,.542-1.612,22.028,22.028,0,0,0-7.212-1.079A61.86,61.86,0,0,1,26.1,37.289,6.513,6.513,0,0,0,29.7,37a6.508,6.508,0,0,0,1.663,3.4,1.488,1.488,0,0,0,2.159-.138,1.547,1.547,0,0,0,1.147.551,1.445,1.445,0,0,0,1.012-.413A6.509,6.509,0,0,0,37.345,37a6.39,6.39,0,0,0,3.756.247,1.5,1.5,0,0,0,.951-1.953,1.5,1.5,0,0,0,1.2-1.8,6.5,6.5,0,0,0-2.1-3.16Zm-.83,5.35a5.776,5.776,0,0,1-3.307-.652.858.858,0,0,0-1.22.7,5.936,5.936,0,0,1-1.091,3.218,1.462,1.462,0,0,0-1.187-.605h0a1.462,1.462,0,0,0-1.187.605,5.934,5.934,0,0,1-1.091-3.217.858.858,0,0,0-1.22-.7,5.777,5.777,0,0,1-3.307.652,1.5,1.5,0,0,0-1.186-2.073,5.864,5.864,0,0,1,2.22-2.576.858.858,0,0,0,0-1.4,5.862,5.862,0,0,1-2.22-2.576,1.5,1.5,0,0,0,1.186-2.073,5.779,5.779,0,0,1,3.307.652.858.858,0,0,0,1.22-.7,5.933,5.933,0,0,1,1.091-3.217,1.475,1.475,0,0,0,2.374,0A5.932,5.932,0,0,1,35.8,24.933a.858.858,0,0,0,1.22.7,5.78,5.78,0,0,1,3.307-.652,1.5,1.5,0,0,0,1.186,2.073,5.864,5.864,0,0,1-2.22,2.576.858.858,0,0,0,0,1.4,5.865,5.865,0,0,1,2.22,2.576,1.5,1.5,0,0,0-1.186,2.073Z" transform="translate(-0.002 -19.861)" fill="#56681c"/></g><g transform="translate(28.985 32.022)"><circle cx="1.134" cy="1.134" r="1.134" fill="#56681c"/></g><g transform="translate(53.098 30.094)"><path d="M378.193,219.3a3.454,3.454,0,1,1,3.438-3.454A3.45,3.45,0,0,1,378.193,219.3Zm0-5.208a1.754,1.754,0,1,0,1.737,1.754A1.748,1.748,0,0,0,378.193,214.09Z" transform="translate(-374.755 -212.39)" fill="#56681c"/></g><g transform="translate(-0.001 23.076)"><path d="M64.172,173.333a6.5,6.5,0,0,0,2.1-3.16,1.5,1.5,0,0,0-1.2-1.8,1.5,1.5,0,0,0-.951-1.953,6.39,6.39,0,0,0-3.757.247,6.508,6.508,0,0,0-1.663-3.4,1.488,1.488,0,0,0-2.159.138,1.489,1.489,0,0,0-2.159-.138,6.507,6.507,0,0,0-1.663,3.4,6.392,6.392,0,0,0-3.757-.247,1.5,1.5,0,0,0-.951,1.953,1.5,1.5,0,0,0-1.2,1.8,5.563,5.563,0,0,0,1,1.986l-13.3,0h0a.85.85,0,0,0,0,1.7l13.851,0a7.036,7.036,0,0,0-1.068,1.436A72.826,72.826,0,0,1,25.2,177.769a.856.856,0,0,0-.6,1.5l8.342,7A1.443,1.443,0,0,0,33,187.1a1.505,1.505,0,0,0-1.218,1.2,48.02,48.02,0,0,1-9.174-5.529,25.869,25.869,0,0,0-10.919-4.917c-.644-.182-1.427.287-1.185,1.051l3.076,9.725a7.883,7.883,0,0,0-.342,1.2,7.766,7.766,0,0,0-.959-.257L7.024,178.714a.847.847,0,0,0-.838-.477l-5.41.465A.85.85,0,1,0,.922,180.4l4.827-.415,4.6,9.514a4.28,4.28,0,0,0-.6.126,1.461,1.461,0,0,0-.946,1.848,1.46,1.46,0,0,0-1.109,1.746,6.137,6.137,0,0,0,1.939,2.963,6.137,6.137,0,0,0-1.939,2.963A1.46,1.46,0,0,0,8.8,200.887a1.462,1.462,0,0,0,.946,1.848,5.975,5.975,0,0,0,3.493-.213,6.152,6.152,0,0,0,1.56,3.17,1.447,1.447,0,0,0,2.061-.082,1.5,1.5,0,0,0,1.074.487,1.406,1.406,0,0,0,.987-.4,6.15,6.15,0,0,0,1.56-3.17,5.977,5.977,0,0,0,3.493.213,1.461,1.461,0,0,0,.946-1.848,1.433,1.433,0,0,0,1.109-1.746h0a6.137,6.137,0,0,0-1.939-2.963,6.137,6.137,0,0,0,1.939-2.963,1.46,1.46,0,0,0-1.109-1.746,1.462,1.462,0,0,0-.946-1.848,5.98,5.98,0,0,0-3.493.213,6.152,6.152,0,0,0-1.56-3.17,1.447,1.447,0,0,0-2.061.083,1.448,1.448,0,0,0-2.061-.083l-.043.044-2.191-6.927a24.3,24.3,0,0,1,9.009,4.339,49.73,49.73,0,0,0,10.933,6.358,7.783,7.783,0,0,0,1.388,1.584,6.5,6.5,0,0,0-2.1,3.16,1.5,1.5,0,0,0,1.2,1.8,1.5,1.5,0,0,0,.951,1.953,6.387,6.387,0,0,0,3.757-.247,6.508,6.508,0,0,0,1.663,3.4A1.488,1.488,0,0,0,41.531,202a1.547,1.547,0,0,0,1.147.551,1.445,1.445,0,0,0,1.012-.413,6.509,6.509,0,0,0,1.663-3.4,6.389,6.389,0,0,0,3.756.247,1.5,1.5,0,0,0,.951-1.953,1.5,1.5,0,0,0,1.2-1.8,6.5,6.5,0,0,0-2.1-3.16,6.5,6.5,0,0,0,2.1-3.16,1.5,1.5,0,0,0-1.2-1.8,1.5,1.5,0,0,0-.951-1.953,6.39,6.39,0,0,0-3.757.247,6.508,6.508,0,0,0-1.663-3.4,1.488,1.488,0,0,0-2.159.138,1.489,1.489,0,0,0-2.159-.138,6.507,6.507,0,0,0-1.663,3.4,6.578,6.578,0,0,0-3.529-.305l-6.594-5.532a77.019,77.019,0,0,0,19.222-2.374,1.5,1.5,0,0,0,1.2,1.113,1.5,1.5,0,0,0,.951,1.953A6.387,6.387,0,0,0,52.714,180a6.508,6.508,0,0,0,1.663,3.4,1.488,1.488,0,0,0,2.159-.138,1.547,1.547,0,0,0,1.147.551,1.445,1.445,0,0,0,1.012-.413,6.509,6.509,0,0,0,1.663-3.4,6.39,6.39,0,0,0,3.756.247,1.5,1.5,0,0,0,.951-1.953,1.5,1.5,0,0,0,1.2-1.8,6.493,6.493,0,0,0-2.1-3.16ZM14.781,191.1a5.637,5.637,0,0,1,.967-2.946,1.447,1.447,0,0,0,2.225,0,5.638,5.638,0,0,1,.967,2.946.858.858,0,0,0,1.222.7,5.406,5.406,0,0,1,3-.619,1.467,1.467,0,0,0,1.113,1.953,5.528,5.528,0,0,1-2.039,2.343.858.858,0,0,0,0,1.4,5.528,5.528,0,0,1,2.039,2.343,1.464,1.464,0,0,0-1.113,1.953,5.4,5.4,0,0,1-3-.619.858.858,0,0,0-1.222.7,5.639,5.639,0,0,1-.967,2.946,1.435,1.435,0,0,0-2.225,0,5.639,5.639,0,0,1-.967-2.946.881.881,0,0,0-.848-.788.851.851,0,0,0-.374.086,5.4,5.4,0,0,1-3,.619,1.467,1.467,0,0,0-1.113-1.953,5.529,5.529,0,0,1,2.039-2.343.858.858,0,0,0,0-1.4,5.527,5.527,0,0,1-2.039-2.343,1.464,1.464,0,0,0,1.113-1.953,5.4,5.4,0,0,1,3,.619.858.858,0,0,0,1.222-.7Zm19.945-4.386a5.779,5.779,0,0,1,3.307.652.858.858,0,0,0,1.22-.7,5.933,5.933,0,0,1,1.091-3.217,1.475,1.475,0,0,0,2.374,0,5.932,5.932,0,0,1,1.091,3.218.858.858,0,0,0,1.22.7,5.78,5.78,0,0,1,3.307-.652,1.5,1.5,0,0,0,1.186,2.073,5.864,5.864,0,0,1-2.22,2.576.858.858,0,0,0,0,1.4,5.865,5.865,0,0,1,2.22,2.576,1.5,1.5,0,0,0-1.186,2.073,5.776,5.776,0,0,1-3.307-.652.858.858,0,0,0-1.22.7,5.936,5.936,0,0,1-1.091,3.218,1.462,1.462,0,0,0-1.187-.605h0a1.462,1.462,0,0,0-1.187.605,5.934,5.934,0,0,1-1.091-3.217.858.858,0,0,0-1.22-.7,5.777,5.777,0,0,1-3.307.652,1.5,1.5,0,0,0-1.186-2.073,5.863,5.863,0,0,1,2.22-2.576.858.858,0,0,0,0-1.4,5.862,5.862,0,0,1-2.22-2.576,1.5,1.5,0,0,0,1.186-2.073Zm28.616-8.03a5.776,5.776,0,0,1-3.307-.652.858.858,0,0,0-1.22.7,5.936,5.936,0,0,1-1.091,3.218,1.462,1.462,0,0,0-1.187-.605h0a1.462,1.462,0,0,0-1.187.605,5.934,5.934,0,0,1-1.091-3.217.858.858,0,0,0-1.22-.7,5.777,5.777,0,0,1-3.307.652,1.5,1.5,0,0,0-1.186-2.073,5.864,5.864,0,0,1,2.22-2.576.858.858,0,0,0,0-1.4,5.862,5.862,0,0,1-2.22-2.576,1.5,1.5,0,0,0,1.186-2.073,5.779,5.779,0,0,1,3.307.652.858.858,0,0,0,1.22-.7,5.933,5.933,0,0,1,1.091-3.217,1.475,1.475,0,0,0,2.374,0,5.932,5.932,0,0,1,1.091,3.218.858.858,0,0,0,1.22.7,5.78,5.78,0,0,1,3.307-.652,1.5,1.5,0,0,0,1.186,2.073,5.864,5.864,0,0,1-2.22,2.576.858.858,0,0,0,0,1.4,5.865,5.865,0,0,1,2.22,2.576,1.5,1.5,0,0,0-1.186,2.073Z" transform="translate(0.001 -162.861)" fill="#56681c"/><g transform="translate(38.095 25.747)"><path d="M272.3,351.484a3.454,3.454,0,1,1,3.438-3.454A3.45,3.45,0,0,1,272.3,351.484Zm0-5.208a1.754,1.754,0,1,0,1.737,1.754A1.748,1.748,0,0,0,272.3,346.276Z" transform="translate(-268.859 -344.576)" fill="#56681c"/></g></g></g></svg>