<svg height="55.057" viewBox="0 0 81.274 55.057" width="81.274" xmlns="http://www.w3.org/2000/svg"><g transform="translate(0 -129.032)"><g fill="#fff"><path d="m151.12 460.479-28.143 18.762h56.287z" transform="translate(-110.483 -297.774)"/><path d="m34.2 243.819 20.405-13.6-28.8-19.2v38.4l4.031-2.687a1.311 1.311 0 0 1 1.818.364l2.181-1.454a1.311 1.311 0 0 1 .365-1.823z" transform="translate(-23.185 -73.655)"/><path d="m519.519 211.016-28.8 19.2 28.8 19.2z" transform="translate(-440.867 -73.655)"/><path d="m151.12 173.6 28.143-18.762h-56.286zm-3.5-15.716h7a1.311 1.311 0 0 1 1.195.771 8.644 8.644 0 0 1 .737 3.535c0 5.19-4.628 7.676-4.825 7.779a1.31 1.31 0 0 1 -1.217 0c-.2-.1-4.825-2.588-4.825-7.779a8.644 8.644 0 0 1 .737-3.535 1.311 1.311 0 0 1 1.197-.77z" transform="translate(-110.483 -23.185)"/></g><path d="m374.18 216.562a6.437 6.437 0 0 1 -2.853-5.147 6.355 6.355 0 0 1 .229-1.712l.021-.074h5.323l.021.074a6.355 6.355 0 0 1 .229 1.712 6.438 6.438 0 0 1 -2.853 5.147l-.06.043z" fill="#ed1f34" transform="translate(-333.603 -72.409)"/><path d="m375.138 217.377a6.37 6.37 0 0 0 2.811-5.065 6.273 6.273 0 0 0 -.226-1.685h-5.171a6.272 6.272 0 0 0 -.226 1.685 6.37 6.37 0 0 0 2.812 5.065z" fill="#ed1f34" transform="translate(-334.501 -73.306)"/><path d="m351.344 196.91a1.31 1.31 0 0 0 1.217 0c.2-.1 4.825-2.588 4.825-7.779a8.645 8.645 0 0 0 -.737-3.535 1.311 1.311 0 0 0 -1.195-.771h-7a1.311 1.311 0 0 0 -1.195.771 8.642 8.642 0 0 0 -.737 3.535c-.003 5.191 4.625 7.676 4.822 7.779zm-1.977-9.463h5.171a6.273 6.273 0 0 1 .226 1.685 6.37 6.37 0 0 1 -2.811 5.065 6.37 6.37 0 0 1 -2.811-5.065 6.273 6.273 0 0 1 .225-1.685z" transform="translate(-311.315 -50.125)"/><path d="m95.762 203.855-32.168-21.445a1.209 1.209 0 0 0 -1.342 0l-32.167 21.445h-5.278v-2.713l5.53-3.687a1.209 1.209 0 0 0 .335-1.677l-.056-.085 2.351-1.567.056.085a1.209 1.209 0 0 0 1.677.335l22.041-14.694a1.209 1.209 0 0 0 0-2.012l-31.934-21.289v-2.712h5.278l32.169 21.445a1.209 1.209 0 0 0 1.342 0l32.168-21.445h5.278v2.712l-31.934 21.29a1.209 1.209 0 0 0 0 2.012l31.934 21.289v2.713z" fill="#ed1f34" transform="translate(-22.287 -22.287)"/><path d="m101.837 202.1-31.889-21.264a1.311 1.311 0 0 1 0-2.181l31.889-21.26v-2.556h-5.145l-32.143 21.428a1.311 1.311 0 0 1 -1.454 0l-32.143-21.428h-5.145v2.561l31.893 21.255a1.311 1.311 0 0 1 0 2.181l-22.045 14.694a1.31 1.31 0 0 1 -1.818-.364l-2.181 1.454a1.311 1.311 0 0 1 -.363 1.818l-5.486 3.662v2.557h5.145l32.143-21.428a1.31 1.31 0 0 1 1.454 0l32.143 21.428h5.146z" fill="#ed1f34" transform="translate(-23.185 -23.185)"/><path d="m81.274 178.2v-47.857a1.311 1.311 0 0 0 -1.311-1.311h-78.652a1.311 1.311 0 0 0 -1.311 1.311v52.435a1.311 1.311 0 0 0 1.311 1.311h78.652a1.311 1.311 0 0 0 1.311-1.311v-4.578a.028.028 0 0 0 0 0zm-7.767 3.267-32.143-21.429a1.31 1.31 0 0 0 -1.454 0l-32.143 21.429h-5.145v-2.557l5.485-3.657a1.311 1.311 0 0 0 .364-1.818 1.311 1.311 0 0 0 -1.818-.363l-4.031 2.687v-38.4l28.8 19.2-20.405 13.6a1.311 1.311 0 0 0 -.364 1.818 1.31 1.31 0 0 0 1.818.364l22.041-14.694a1.311 1.311 0 0 0 0-2.181l-31.89-21.256v-2.556h5.145l32.143 21.428a1.311 1.311 0 0 0 1.454 0l32.143-21.428h5.145v2.556l-31.889 21.26a1.311 1.311 0 0 0 0 2.181l31.889 21.259v2.557zm-32.87-18.767 28.143 18.767h-56.286zm0-12.289-28.143-18.757h56.286zm38.015-13.055v38.4l-28.8-19.2z"/></g></svg>