<svg xmlns="http://www.w3.org/2000/svg" width="70.857" height="67.311" viewBox="0 0 70.857 67.311"><g transform="translate(-10.497 -22.928)"><path d="M213.662,143.487h.021a.713.713,0,0,0,.712-.692l.058-2.015a.713.713,0,0,0-1.425-.041l-.058,2.015a.713.713,0,0,0,.692.733Z" transform="translate(-173.178 -99.992)"/><path d="M213.9,143.994l-.249-.007a1.215,1.215,0,0,1-1.177-1.247l.058-2.015a1.213,1.213,0,0,1,2.425.07l-.058,2.015a1.206,1.206,0,0,1-.975,1.155Zm-.227-1.007h.013a.214.214,0,0,0,.212-.207l.058-2.015a.213.213,0,0,0-.207-.219h-.011a.21.21,0,0,0-.208.207l-.058,2.015A.213.213,0,0,0,213.67,142.987Z" transform="translate(-173.178 -99.992)" fill="#707070"/><path d="M210.991,184.9a.713.713,0,0,0,.692.733h.021a.713.713,0,0,0,.712-.692l.228-7.845a.713.713,0,1,0-1.425-.041l-.228,7.845Z" transform="translate(-171.481 -131.134)"/><path d="M211.7,186.137h-.031a1.216,1.216,0,0,1-.874-.406l-.341.3.261-8.983a1.213,1.213,0,0,1,2.425.07l-.228,7.845A1.207,1.207,0,0,1,211.7,186.137Zm-.192-1.936-.021.716a.213.213,0,0,0,.207.219h.006a.212.212,0,0,0,.212-.207l.228-7.845a.213.213,0,0,0-.207-.219h-.006a.212.212,0,0,0-.213.207Z" transform="translate(-171.481 -131.134)" fill="#707070"/><path d="M74.413,26.963c-3.5-.94-4.644.595-8.829.252a28.634,28.634,0,0,1-4.161-.463,6.577,6.577,0,0,0-4.156.17,8.128,8.128,0,0,0-4.037,4.352A11.384,11.384,0,0,0,47.39,34.28l-.229-10.155a.713.713,0,0,0-1.14-.554l-2.18,1.635a.713.713,0,0,0-.285.553L43.39,32.75a9.727,9.727,0,0,0-2.807-1.883,3.859,3.859,0,0,0-1.5-2.549c-1.464-.989-3.839-.626-5.411-.386a8.072,8.072,0,0,1-5.5-.962,7.218,7.218,0,0,0-1.562-.657c-3.33-.88-6.712,1.835-7.985,2.858a9.583,9.583,0,0,0-2.686,4.259A8.45,8.45,0,0,1,13.2,37.592c-1.669,1.192-1.87,3.21-2.016,4.683a8.129,8.129,0,0,1-.164,1.159.713.713,0,0,0,1.15.73c.755-.645,1.537-1.287,2.324-1.907a34.941,34.941,0,0,1,5.162-3.719c1.972-.989,3.961-1.18,7.922-1.562,2.581-.13,5.236-.376,6.891-2.375a4.114,4.114,0,0,1,1.246-.96,4.614,4.614,0,0,1,2.7-.314,15.258,15.258,0,0,1,4.733,9.263h.008l-.3,12.776-6.534,2.153a.713.713,0,0,0-.49.677v9.234a14.794,14.794,0,0,0-3,3.869,6.434,6.434,0,0,1-1.531.092,7.3,7.3,0,0,0-2.212.2,4.975,4.975,0,0,0-1.746.8,4.3,4.3,0,0,1-2.743.721,4.967,4.967,0,0,0-1.915.159.713.713,0,1,0,.362,1.379,3.6,3.6,0,0,1,1.435-.117,5.917,5.917,0,0,0,3.661-.962,3.6,3.6,0,0,1,1.308-.6,5.943,5.943,0,0,1,1.815-.157c.223.005.457.011.706,0a27.914,27.914,0,0,1-4.495,6.159.713.713,0,1,0,1.077.934,31.414,31.414,0,0,0,5.345-7.606l.019-.034a14.773,14.773,0,0,1,2.483-3.42l8.9,3.56a6.593,6.593,0,0,1-.071,1.629,9.019,9.019,0,0,0-.081,2.332,8.06,8.06,0,0,1-1.239,1.133c-.859.486-2.782,2.765-2.868,3.767a4.176,4.176,0,0,1-.912,1.676.713.713,0,1,0,1.089.92,5.562,5.562,0,0,0,1.179-2.157,4.176,4.176,0,0,1,.912-1.676,8.243,8.243,0,0,1,1.472-1.4c.174-.134.35-.27.54-.433a12.491,12.491,0,0,0,.386,1.578,12.02,12.02,0,0,1,.249,5.943,11.761,11.761,0,0,0-.277,3.336.713.713,0,0,0,.712.683h.03A.713.713,0,0,0,47.1,89a10.416,10.416,0,0,1,.249-2.987,11.76,11.76,0,0,0,.277-3.336c-.017-.4-.044-.757-.08-1.074.222.2.44.394.648.586a9.985,9.985,0,0,1,.869.915,4.177,4.177,0,0,1,.912,1.676,5.559,5.559,0,0,0,1.179,2.157.713.713,0,0,0,1.089-.92,4.176,4.176,0,0,1-.912-1.676,7.424,7.424,0,0,0-2.172-3.2c-.646-.593-1.359-1.22-2.118-1.863a10.3,10.3,0,0,1-.468-2.856,8.248,8.248,0,0,1,.054-2.115,7.842,7.842,0,0,0,.094-1.958L55.575,68.8a.713.713,0,0,0,.448-.662V66.522a6.944,6.944,0,0,1,2.33,2.727,8.39,8.39,0,0,0,2.79,3.277l3.837,2.657,1.266,5.91a.713.713,0,0,0,1.394-.3l-1.094-5.107A10.18,10.18,0,0,0,67.7,75.8c.809-.041,3.074.469,3.692,1.155A5.562,5.562,0,0,0,73.6,78.043a.713.713,0,1,0,.362-1.379,4.178,4.178,0,0,1-1.709-.847c-.63-.757-3.513-1.524-4.472-1.44a8.372,8.372,0,0,1-1.863-.278l-3.964-2.744a6.96,6.96,0,0,1-2.315-2.719,8.37,8.37,0,0,0-3.616-3.78V58.195a.713.713,0,0,0-.49-.677l-7.678-2.53L47.55,41.414a15.925,15.925,0,0,1,4.291-5.486,15.555,15.555,0,0,1,1.943-1.346,8.334,8.334,0,0,0,3.783,1.872,7.438,7.438,0,0,0,3.842-.341,8.667,8.667,0,0,1,3.227-.464,6.47,6.47,0,0,1,3.3,1.143A9.342,9.342,0,0,0,72.954,38.3a14.5,14.5,0,0,0,7.563-2.516.713.713,0,0,0,.3-.841c-1.518-4.336-3.671-7.022-6.4-7.983Zm-39.3,5.388a5.463,5.463,0,0,0-1.647,1.243c-1.431,1.752-3.66,1.8-6.018,1.961-4.138.4-6.215.6-8.424,1.707a35.356,35.356,0,0,0-5.406,3.874q-.479.378-.955.766a4.181,4.181,0,0,1,1.373-3.15,9.691,9.691,0,0,0,3.225-4.792,8.375,8.375,0,0,1,2.256-3.678c.98-.787,3.382-2.717,5.733-2.717a4.466,4.466,0,0,1,2.26.668,8.712,8.712,0,0,0,2.909,1.022c.433.158,1.121.436,3.471.086,1.352-.206,3.4-.518,4.4.159a3.307,3.307,0,0,1,1.023,2.546,6.3,6.3,0,0,0-4.2.306Zm9.864-6.213.794-.6.652,28.971-.27-.089a.713.713,0,0,0-.446,0l-1.413.466.683-28.752ZM44.254,56.4l1.672-.551.527.174.086,3.808a7.267,7.267,0,0,1-2.362-.187l.077-3.244ZM42.441,36.115a16.666,16.666,0,0,0-1.883-2.625.712.712,0,0,0,.2-.482c0-.155,0-.306,0-.455.225.129.446.264.657.413a8.547,8.547,0,0,1,1.925,1.867l-.069,2.917a16.752,16.752,0,0,0-.83-1.635Zm7.7,24.079a.713.713,0,0,0-.7-1.244,7.162,7.162,0,0,1-1.489.62L47.89,56.5,54.6,58.71v5.5l-2.175-.933a.713.713,0,0,0-.562,1.31L54.6,65.762v1.9l-8.672,3.469L37.614,67.8l.38-.293a18.849,18.849,0,0,0,3.1-2.848.713.713,0,1,0-1.077-.934,16.994,16.994,0,0,1-2.759,2.552V58.71l5.563-1.833-.054,2.26c-.155-.075-.308-.155-.457-.242a.733.733,0,0,0-.947.17.713.713,0,0,0,.205,1.048,8.677,8.677,0,0,0,8.581.081Zm.8-25.37a17.067,17.067,0,0,0-3.453,3.82l-.052-2.295a10.161,10.161,0,0,1,3.33-2.748,10,10,0,0,1,1.831-.717v0a.711.711,0,0,0,.123.673,16.972,16.972,0,0,0-1.779,1.264Zm20.455,1.9a7.974,7.974,0,0,1-2.731-1.154,7.835,7.835,0,0,0-3.938-1.341,10.191,10.191,0,0,0-3.715.518,6.1,6.1,0,0,1-3.173.31,7.312,7.312,0,0,1-3.749-2.122c.886-2.438,2.143-4.018,3.738-4.7a5.289,5.289,0,0,1,3.354-.076,29.87,29.87,0,0,0,4.351.483,23.6,23.6,0,0,0,5.327-.382,5.369,5.369,0,0,1,3.079.05c2.193.772,3.985,2.98,5.332,6.566-2.895,1.7-5.542,2.32-7.875,1.848Z" transform="translate(0 0)" fill="#56681c"/><path d="M46.449,22.928a1.22,1.22,0,0,1,.53.122,1.208,1.208,0,0,1,.683,1.064l.2,9.084a11.848,11.848,0,0,1,5.02-2.366,8.487,8.487,0,0,1,4.185-4.37A5.461,5.461,0,0,1,59.288,26a13.164,13.164,0,0,1,2.22.259,28.2,28.2,0,0,0,4.094.457h.023c.4.033.793.049,1.17.049a15.614,15.614,0,0,0,3.039-.332,12.726,12.726,0,0,1,2.385-.28,8.868,8.868,0,0,1,2.324.326l-.046.172.082-.161c2.88,1.014,5.137,3.8,6.707,8.289a1.206,1.206,0,0,1-.5,1.43A15.026,15.026,0,0,1,72.966,38.8c-.085,0-.172.006-.26.006a10.077,10.077,0,0,1-5.042-1.594,5.962,5.962,0,0,0-3.059-1.065c-.152-.01-.3-.014-.451-.014a8.784,8.784,0,0,0-2.6.459,9.248,9.248,0,0,1-2.724.485,7.043,7.043,0,0,1-1.354-.134,8.721,8.721,0,0,1-3.731-1.753,14.931,14.931,0,0,0-1.585,1.125,15.412,15.412,0,0,0-4.1,5.208l.295,13.1,7.343,2.42a1.211,1.211,0,0,1,.833,1.152v6.367A8.807,8.807,0,0,1,60.09,68.42a6.46,6.46,0,0,0,2.149,2.524l3.889,2.692a7.794,7.794,0,0,0,1.647.24c.052,0,.107-.005.166-.005,1.109,0,3.851.709,4.652,1.577a3.623,3.623,0,0,0,1.5.732,1.213,1.213,0,0,1-.307,2.386,1.219,1.219,0,0,1-.308-.04,6.068,6.068,0,0,1-2.38-1.171l-.039-.029-.032-.036A6.561,6.561,0,0,0,67.8,76.3l-.073,0h-.053c-.153-.008-.316-.017-.494-.032l.948,4.422a1.213,1.213,0,1,1-2.372.508l-1.225-5.717-3.674-2.544A8.892,8.892,0,0,1,57.9,69.465a6.446,6.446,0,0,0-1.379-1.9v.572a1.207,1.207,0,0,1-.762,1.126L47.229,72.68a7.237,7.237,0,0,1-.11,1.714,7.883,7.883,0,0,0-.046,2,9.77,9.77,0,0,0,.406,2.592c.728.618,1.4,1.213,2.008,1.77a7.956,7.956,0,0,1,2.331,3.461,3.636,3.636,0,0,0,.807,1.472,1.213,1.213,0,1,1-1.853,1.565A6.066,6.066,0,0,1,49.5,84.932a3.675,3.675,0,0,0-.818-1.507c-.188-.222-.369-.422-.549-.6a12.069,12.069,0,0,1-.293,3.29,9.877,9.877,0,0,0-.239,2.865,1.214,1.214,0,0,1-1.161,1.263h-.051a1.21,1.21,0,0,1-1.211-1.162,12.19,12.19,0,0,1,.287-3.457,11.52,11.52,0,0,0-.238-5.7c-.078-.263-.157-.529-.23-.826a7.584,7.584,0,0,0-1.307,1.26,3.673,3.673,0,0,0-.818,1.507A6.069,6.069,0,0,1,41.6,84.191a1.213,1.213,0,1,1-1.853-1.565,3.622,3.622,0,0,0,.8-1.459c.168-1.252,2.166-3.531,3.079-4.076a7.539,7.539,0,0,0,1.011-.9,8.75,8.75,0,0,1,.1-2.237,5.119,5.119,0,0,0,.07-1.2L36.52,69.439a15.1,15.1,0,0,0-2.17,3.078l-.019.034a31.754,31.754,0,0,1-5.4,7.689,1.213,1.213,0,0,1-1.833-1.589,27.329,27.329,0,0,0,4.016-5.339c-.1,0-.2,0-.3,0a4.617,4.617,0,0,0-1.24.148,3.063,3.063,0,0,0-1.116.508A6.765,6.765,0,0,1,24.9,75.087a2.085,2.085,0,0,1-.513-.055c-.132-.011-.249-.019-.374-.019a3.169,3.169,0,0,0-.846.126,1.213,1.213,0,1,1-.617-2.346,5.632,5.632,0,0,1,1.46-.206c.236,0,.442.017.624.032l.041,0,.04.01a.95.95,0,0,0,.224.02,4.163,4.163,0,0,0,2.053-.618l.03-.028.034-.023a5.475,5.475,0,0,1,1.9-.872,7.057,7.057,0,0,1,1.855-.228c.174,0,.338,0,.5.008.141,0,.286.007.431.007a5.1,5.1,0,0,0,.773-.051,15.486,15.486,0,0,1,2.816-3.638V58.2a1.211,1.211,0,0,1,.833-1.152L42.361,55l.293-12.334,0-.013A14.757,14.757,0,0,0,38.189,33.8a5.353,5.353,0,0,0-.656-.042,3.715,3.715,0,0,0-1.6.334,3.621,3.621,0,0,0-1.089.844c-1.745,2.092-4.413,2.395-7.225,2.537-3.892.375-5.848.565-7.735,1.511a34.779,34.779,0,0,0-5.071,3.66l-.005,0c-.785.62-1.562,1.258-2.309,1.9A1.213,1.213,0,0,1,10.541,43.3a8.077,8.077,0,0,0,.149-1.076c.147-1.48.369-3.716,2.223-5.04,1.367-.976,1.919-2.351,2.557-3.942a9.974,9.974,0,0,1,2.837-4.463c1.17-.94,3.91-3.141,6.942-3.141a5.81,5.81,0,0,1,1.484.189,7.69,7.69,0,0,1,1.656.692l.189.088a7.514,7.514,0,0,0,3.534.948,10.033,10.033,0,0,0,1.486-.12,18.568,18.568,0,0,1,2.791-.273,5.2,5.2,0,0,1,2.973.74,4.217,4.217,0,0,1,1.654,2.613,10.388,10.388,0,0,1,1.5.872q.2.14.4.292l.141-5.934a1.206,1.206,0,0,1,.485-.941l2.18-1.635A1.221,1.221,0,0,1,46.449,22.928Zm.467,12.5-.254-11.292a.212.212,0,0,0-.12-.187.215.215,0,0,0-.221.021l-2.18,1.635a.212.212,0,0,0-.085.165l-.193,8.122-.818-.782a9.228,9.228,0,0,0-2.666-1.788l-.234-.1-.052-.251A3.394,3.394,0,0,0,38.8,28.733a4.261,4.261,0,0,0-2.414-.568,17.779,17.779,0,0,0-2.641.262,11.026,11.026,0,0,1-1.635.131,8.531,8.531,0,0,1-3.955-1.041l-.221-.1a6.721,6.721,0,0,0-1.458-.617,4.81,4.81,0,0,0-1.228-.156c-2.68,0-5.228,2.047-6.316,2.921A9.2,9.2,0,0,0,16.4,33.616,8.959,8.959,0,0,1,13.494,38c-1.485,1.061-1.665,2.871-1.809,4.325a8.372,8.372,0,0,1-.179,1.241.212.212,0,0,0,.091.236.217.217,0,0,0,.252-.018c.756-.645,1.543-1.291,2.338-1.919l.005,0a35.026,35.026,0,0,1,5.242-3.769c2.055-1.03,4.075-1.225,8.1-1.613l.023,0c4.544-.229,5.682-1.169,6.531-2.194l.031-.034a4.57,4.57,0,0,1,1.387-1.059,4.7,4.7,0,0,1,2.028-.43,6.493,6.493,0,0,1,.957.074l.154.023.114.106a15.751,15.751,0,0,1,4.816,9.069l.1-.012-.326,13.711-6.869,2.264a.213.213,0,0,0-.146.2v9.458l-.167.149a14.185,14.185,0,0,0-2.9,3.746l-.113.2-.221.045a5.859,5.859,0,0,1-1.187.109c-.157,0-.315,0-.455-.007s-.31-.008-.471-.008a6.016,6.016,0,0,0-1.6.195,4.455,4.455,0,0,0-1.563.713,5.041,5.041,0,0,1-2.708.862,2.024,2.024,0,0,1-.423-.04c-.159-.013-.324-.026-.505-.026a4.666,4.666,0,0,0-1.205.173.213.213,0,1,0,.108.412,4.2,4.2,0,0,1,1.1-.158c.181,0,.345.014.5.027l.053,0,.052.016a1.017,1.017,0,0,0,.28.028,5.947,5.947,0,0,0,2.874-.856l.037-.039.044-.03a4.07,4.07,0,0,1,1.461-.673,5.625,5.625,0,0,1,1.494-.181c.156,0,.311,0,.46.007.17,0,.313.007.466.007l.216,0,.882-.021-.436.768a28.33,28.33,0,0,1-4.552,6.239.213.213,0,0,0,.021.3.213.213,0,0,0,.3-.021,31.074,31.074,0,0,0,5.287-7.524l.019-.034A15.332,15.332,0,0,1,36.046,68.5l.233-.23,9.509,3.8.009.328a6.989,6.989,0,0,1-.08,1.735,8.6,8.6,0,0,0-.073,2.221l.008.2-.135.151A8.564,8.564,0,0,1,44.212,77.9l-.028.022-.031.018a8.044,8.044,0,0,0-2.617,3.375l0,.057-.017.054a4.648,4.648,0,0,1-1.005,1.845.213.213,0,0,0,.325.275,5.068,5.068,0,0,0,1.085-1.988,4.648,4.648,0,0,1,1.005-1.845,8.771,8.771,0,0,1,1.548-1.474c.168-.13.34-.263.521-.418l.671-.574.147.871a12.075,12.075,0,0,0,.372,1.52l0,.005a12.52,12.52,0,0,1,.258,6.18,11.333,11.333,0,0,0-.267,3.214.212.212,0,0,0,.212.2H46.4a.213.213,0,0,0,.2-.222,10.84,10.84,0,0,1,.259-3.109,11.332,11.332,0,0,0,.267-3.214c-.016-.374-.041-.714-.077-1.04l-.144-1.3.974.87c.26.232.468.42.653.591a10.477,10.477,0,0,1,.912.961,4.649,4.649,0,0,1,1.005,1.844,5.066,5.066,0,0,0,1.085,1.989.213.213,0,0,0,.3.025.213.213,0,0,0,.025-.3,4.647,4.647,0,0,1-1.005-1.844l-.012-.038-.006-.04a7.1,7.1,0,0,0-1.994-2.891l-.022-.019c-.63-.579-1.337-1.2-2.1-1.85l-.114-.1-.042-.143a10.77,10.77,0,0,1-.488-2.977,8.62,8.62,0,0,1,.062-2.228,7.417,7.417,0,0,0,.086-1.852l-.01-.349,9.178-3.671a.212.212,0,0,0,.134-.2v-2.57l.784.54a7.457,7.457,0,0,1,2.5,2.924,7.89,7.89,0,0,0,2.624,3.081l4,2.769,1.308,6.1a.213.213,0,0,0,.416-.089L65.9,75.077l.722.117a9.585,9.585,0,0,0,1.08.106l.1,0a7.264,7.264,0,0,1,3.928,1.284,5.029,5.029,0,0,0,2,.977.213.213,0,0,0,.108-.412,4.649,4.649,0,0,1-1.883-.931l-.046-.035-.037-.045a8.3,8.3,0,0,0-3.927-1.266c-.044,0-.083,0-.117,0l-.035,0-.036,0a8.885,8.885,0,0,1-1.958-.293l-.088-.022-4.038-2.8a7.461,7.461,0,0,1-2.482-2.915,7.819,7.819,0,0,0-3.4-3.554l-.265-.141V58.195a.213.213,0,0,0-.146-.2l-8.013-2.641-.316-14.046L47.1,41.2a16.424,16.424,0,0,1,4.426-5.656,16.087,16.087,0,0,1,2.006-1.39l.3-.179.27.227a7.856,7.856,0,0,0,3.557,1.764,6.055,6.055,0,0,0,1.164.115,8.32,8.32,0,0,0,2.443-.445,9.609,9.609,0,0,1,2.886-.5c.169,0,.342.005.514.016a6.966,6.966,0,0,1,3.523,1.213l.03.02a9.072,9.072,0,0,0,4.485,1.425c.076,0,.151,0,.224-.005h.024a14.048,14.048,0,0,0,7.3-2.44.212.212,0,0,0,.088-.251c-1.461-4.175-3.505-6.755-6.075-7.669a7.869,7.869,0,0,0-2.047-.288,11.954,11.954,0,0,0-2.2.264,16.671,16.671,0,0,1-3.219.349c-.4,0-.818-.017-1.24-.052a29.071,29.071,0,0,1-4.214-.47A12.493,12.493,0,0,0,59.288,27a4.433,4.433,0,0,0-1.824.381,7.662,7.662,0,0,0-3.779,4.1l-.108.235-.254.047a10.884,10.884,0,0,0-5.586,2.876Zm-.67-10.869.69,30.651-.942-.311a.214.214,0,0,0-.133,0l-2.086.687.7-29.484.016-.228ZM45.9,53.89l-.531-23.577-.567,23.882.74-.244A1.211,1.211,0,0,1,45.9,53.89ZM25.313,27.065a5.083,5.083,0,0,1,2.432.728,8.169,8.169,0,0,0,2.754.969l.046.008.073.027a3.368,3.368,0,0,0,1.342.214,12.971,12.971,0,0,0,1.855-.164,17.635,17.635,0,0,1,2.6-.26,3.8,3.8,0,0,1,2.149.5,3.736,3.736,0,0,1,1.242,2.923l.052.678-.663-.154a7.415,7.415,0,0,0-1.664-.2,5.122,5.122,0,0,0-2.208.473l-.032.015a4.961,4.961,0,0,0-1.458,1.112c-1.482,1.8-3.644,1.941-5.932,2.1l-.415.028c-4.071.393-6.116.59-8.242,1.656a35.191,35.191,0,0,0-5.32,3.82c-.318.251-.637.507-.949.761l-.949.773.136-1.216a4.619,4.619,0,0,1,1.579-3.5,9.293,9.293,0,0,0,3.052-4.57A8.746,8.746,0,0,1,19.2,29.893c1.053-.845,3.516-2.824,6.041-2.827Zm4.976,2.676a9.145,9.145,0,0,1-3.013-1.065l-.011-.006a3.969,3.969,0,0,0-1.952-.606h-.066c-2.175,0-4.449,1.826-5.42,2.606a8.015,8.015,0,0,0-2.105,3.475,10.091,10.091,0,0,1-3.4,5.013,2.583,2.583,0,0,0-.947,1.528,34.941,34.941,0,0,1,5.42-3.872c2.293-1.149,4.4-1.353,8.6-1.758h.013l.425-.029c2.164-.146,4.033-.271,5.241-1.75l.033-.036A5.96,5.96,0,0,1,34.9,31.9l.714-.338v.057a6.8,6.8,0,0,1,3.118-.194A2.308,2.308,0,0,0,38,29.914a2.944,2.944,0,0,0-1.589-.327,16.871,16.871,0,0,0-2.453.249,13.957,13.957,0,0,1-2,.175A4.348,4.348,0,0,1,30.288,29.741ZM59.3,27.426a12.02,12.02,0,0,1,1.97.238,29.425,29.425,0,0,0,4.285.477c.329.012.656.018.971.018a22.85,22.85,0,0,0,4.252-.393,10.494,10.494,0,0,1,1.764-.208,4.592,4.592,0,0,1,1.567.279c2.337.823,4.233,3.131,5.634,6.862l.148.394-.363.213a13.185,13.185,0,0,1-6.571,2.07,8.517,8.517,0,0,1-1.094-.07v.021l-.56-.113A8.5,8.5,0,0,1,68.41,36,7.322,7.322,0,0,0,64.7,34.726h-.011c-.164-.014-.336-.021-.512-.021a10.424,10.424,0,0,0-3.011.517l-.011,0a7.986,7.986,0,0,1-2.327.428,5.626,5.626,0,0,1-1.08-.107,7.8,7.8,0,0,1-4.006-2.258l-.227-.225.109-.3c.935-2.572,2.285-4.251,4.011-4.99A4.045,4.045,0,0,1,59.3,27.426Zm7.226,1.732c-.327,0-.666-.006-1.007-.018a30.3,30.3,0,0,1-4.418-.49,11.42,11.42,0,0,0-1.8-.224,3.09,3.09,0,0,0-1.272.266c-1.4.6-2.523,1.979-3.351,4.109a6.669,6.669,0,0,0,3.26,1.763,4.638,4.638,0,0,0,.89.089,7.094,7.094,0,0,0,2.043-.386,11.421,11.421,0,0,1,3.306-.562c.2,0,.4.008.591.024a8.362,8.362,0,0,1,4.157,1.41,7.5,7.5,0,0,0,2.533,1.086l.042.008a7.368,7.368,0,0,0,1.458.143,11.875,11.875,0,0,0,5.7-1.722c-1.272-3.207-2.912-5.182-4.877-5.874a3.575,3.575,0,0,0-1.235-.222,9.827,9.827,0,0,0-1.593.193A24.048,24.048,0,0,1,66.522,29.158Zm-26.28,2.525.764.437c.262.15.49.293.7.437a9.054,9.054,0,0,1,2.038,1.976l.1.139-.073,3.09-.957.19a16.343,16.343,0,0,0-.778-1.539l-.027-.047a16.212,16.212,0,0,0-1.827-2.546l-.3-.346.319-.331a.212.212,0,0,0,.06-.143c0-.143,0-.286,0-.437ZM42.837,35a8.043,8.043,0,0,0-1.653-1.583l-.01.025a17.227,17.227,0,0,1,1.552,2.175h0l.089.153Zm10.551-2.857-.319.909a.209.209,0,0,0,.039.2l.356.441-.481.3a16.558,16.558,0,0,0-1.687,1.2l-.039.032A16.611,16.611,0,0,0,47.9,38.92l-.881,1.329-.092-4.069.111-.141a10.684,10.684,0,0,1,3.495-2.883,10.532,10.532,0,0,1,1.923-.753Zm-2.947,2.448v0l.184-.15q.357-.291.74-.569-.188.086-.372.18A9.668,9.668,0,0,0,47.94,36.52l.014.628A17.525,17.525,0,0,1,50.441,34.589ZM45.926,55.326l1.019.336.1,4.631-.468.04c-.218.018-.439.028-.657.028a7.763,7.763,0,0,1-1.867-.228l-.389-.1.087-3.645.5.006-.154-.469Zm.035,1.064-.035-.012-1.18.389-.059,2.478a6.761,6.761,0,0,0,1.341.113Zm1.413-.587L55.1,58.349v6.62l-2.872-1.232a.213.213,0,1,0-.168.391l3.04,1.3V68l-9.172,3.669L36.62,67.944l.687-.535c.127-.1.254-.2.383-.3a18.417,18.417,0,0,0,3.023-2.779.213.213,0,0,0-.021-.3.213.213,0,0,0-.3.021,17.392,17.392,0,0,1-2.832,2.621l-.8.619V58.349l6.579-2.168-.089,3.746-.7-.34c-.177-.086-.338-.171-.49-.259a.262.262,0,0,0-.132-.035.211.211,0,0,0-.167.075.213.213,0,0,0-.04.172.208.208,0,0,0,.1.141,8.177,8.177,0,0,0,8.084.076h0a.206.206,0,0,0,.1-.134.213.213,0,0,0-.308-.237,7.681,7.681,0,0,1-1.593.664l-.625.183ZM54.1,59.072,48.406,57.2l.038,1.679a6.486,6.486,0,0,0,.761-.362,1.213,1.213,0,0,1,1.184,2.117h0a9.177,9.177,0,0,1-9.076-.086,1.213,1.213,0,0,1-.351-1.783,1.2,1.2,0,0,1,.963-.469,1.265,1.265,0,0,1,.358.052l.018-.771-4.546,1.5v6.173A15.384,15.384,0,0,0,39.635,63.4a1.213,1.213,0,0,1,1.833,1.589,18.469,18.469,0,0,1-2.855,2.675l7.313,2.925L54.1,67.321V66.091l-2.434-1.044a1.213,1.213,0,1,1,.956-2.229l1.478.634Z" transform="translate(0 0)" fill="#707070"/></g></svg>