<svg height="66.313" viewBox="0 0 52.312 66.313" width="52.312" xmlns="http://www.w3.org/2000/svg"><g fill="#56681c"><path d="m196.228 72.563a1.03 1.03 0 0 1 -1.03-1.03v-8.059a6.686 6.686 0 0 1 6.678-6.678h8.456a1.03 1.03 0 1 1 0 2.059h-8.456a4.624 4.624 0 0 0 -4.619 4.619v8.059a1.03 1.03 0 0 1 -1.029 1.03z" transform="translate(-178.447 -56.796)"/><path d="m128.143 69.616h-10.288a4.851 4.851 0 0 1 -4.846-4.846v-6.944a1.03 1.03 0 0 1 1.03-1.03h10.289a4.851 4.851 0 0 1 4.846 4.846v6.945a1.03 1.03 0 0 1 -1.031 1.029zm-13.075-10.761v5.915a2.789 2.789 0 0 0 2.786 2.786h9.259v-5.914a2.789 2.789 0 0 0 -2.786-2.786z" transform="translate(-110.363 -56.796)"/><path d="m162.185 91.768h-7.052a1.03 1.03 0 0 1 0-2.059h7.052a1.03 1.03 0 1 1 0 2.059z" transform="translate(-144.405 -84.061)"/><path d="m182.4 142.815a3.911 3.911 0 0 1 -3.886-3.455 1.03 1.03 0 1 1 2.045-.239 1.854 1.854 0 0 0 3.681 0 1.03 1.03 0 0 1 2.045.239 3.911 3.911 0 0 1 -3.885 3.455z" transform="translate(-164.62 -124.239)"/><path d="m115.37 189.276a17.8 17.8 0 0 1 -17.781-17.776v-3.08a21.883 21.883 0 0 1 4.193-12.925l1.686-2.325a13.792 13.792 0 0 0 2.643-8.146 8.361 8.361 0 0 1 8.351-8.351h1.815a8.361 8.361 0 0 1 8.351 8.351 13.79 13.79 0 0 0 2.643 8.146l1.686 2.325a21.883 21.883 0 0 1 4.193 12.925v3.08a17.8 17.8 0 0 1 -17.781 17.78zm-.908-50.545a6.3 6.3 0 0 0 -6.292 6.292 15.839 15.839 0 0 1 -3.035 9.355l-1.686 2.325a19.835 19.835 0 0 0 -3.8 11.716v3.081a15.721 15.721 0 0 0 31.443 0v-3.076a19.835 19.835 0 0 0 -3.8-11.716l-1.686-2.325a15.838 15.838 0 0 1 -3.035-9.355 6.3 6.3 0 0 0 -6.292-6.292z" transform="translate(-97.589 -122.964)"/><path d="m136.915 220.154a13.331 13.331 0 0 1 -13.315-13.317v-3.077a17.446 17.446 0 0 1 3.343-10.3l1.686-2.325a18.09 18.09 0 0 0 3.329-8.3 4.057 4.057 0 0 1 4.021-3.493h1.876a4.057 4.057 0 0 1 4.021 3.493 18.088 18.088 0 0 0 3.329 8.3l1.686 2.325a17.446 17.446 0 0 1 3.343 10.305v2.92a13.438 13.438 0 0 1 -13.186 13.473zm-.937-38.76a1.991 1.991 0 0 0 -1.978 1.706 20.405 20.405 0 0 1 -3.7 9.239l-1.686 2.325a15.4 15.4 0 0 0 -2.951 9.1v3.077a11.271 11.271 0 0 0 11.257 11.258h.112a11.372 11.372 0 0 0 11.147-11.414v-2.92a15.4 15.4 0 0 0 -2.951-9.1l-1.686-2.325a20.406 20.406 0 0 1 -3.7-9.239 1.991 1.991 0 0 0 -1.98-1.707z" transform="translate(-119.135 -158.305)"/><path d="m158.465 283.229h-.216a8.982 8.982 0 0 1 -8.641-9v-2.929a13.011 13.011 0 0 1 2.493-7.684 6.678 6.678 0 0 1 5.391-2.75h1.939a6.678 6.678 0 0 1 5.391 2.75 13.012 13.012 0 0 1 2.493 7.685v3.076a8.862 8.862 0 0 1 -8.85 8.853zm-.972-20.3a4.612 4.612 0 0 0 -3.723 1.9 10.964 10.964 0 0 0 -2.1 6.476v2.929a6.91 6.91 0 0 0 6.63 6.939 6.8 6.8 0 0 0 6.958-6.792v-3.081a10.964 10.964 0 0 0 -2.1-6.476 4.613 4.613 0 0 0 -3.724-1.9h-1.939z" transform="translate(-140.682 -225.844)"/><path d="m253.405 189.282a17.79 17.79 0 0 1 -8.891-2.379 1.03 1.03 0 1 1 1.031-1.783 15.723 15.723 0 0 0 23.581-13.62v-3.075a19.819 19.819 0 0 0 -3.8-11.715l-1.685-2.326a15.835 15.835 0 0 1 -3.035-9.355 6.3 6.3 0 0 0 -6.291-6.291h-1.815a6.3 6.3 0 0 0 -6.291 6.291 15.845 15.845 0 0 1 -.158 2.23 1.03 1.03 0 1 1 -2.039-.291 13.747 13.747 0 0 0 .137-1.939 8.359 8.359 0 0 1 8.35-8.35h1.817a8.36 8.36 0 0 1 8.35 8.35 13.788 13.788 0 0 0 2.643 8.146l1.685 2.326a21.865 21.865 0 0 1 4.193 12.924v3.075a17.778 17.778 0 0 1 -17.78 17.782z" transform="translate(-218.873 -122.969)"/><path d="m339.721 370.075a1.339 1.339 0 1 0 1.339 1.339 1.341 1.341 0 0 0 -1.339-1.339z" transform="translate(-297.058 -316.312)"/><path d="m320.144 336.166a1.339 1.339 0 1 0 1.339 1.339 1.34 1.34 0 0 0 -1.339-1.339z" transform="translate(-280.841 -288.222)"/><path d="m359.3 336.166a1.339 1.339 0 1 0 1.339 1.339 1.34 1.34 0 0 0 -1.339-1.339z" transform="translate(-313.276 -288.222)"/></g></svg>