<svg height="80.807" viewBox="0 0 85 80.807" width="85" xmlns="http://www.w3.org/2000/svg"><path d="m1024.8 123.086a20.6 20.6 0 0 1 3.612.147 4.118 4.118 0 0 1 -.684.016 5.536 5.536 0 0 0 -2.314.011l-.054.087c.049.065.049.092.13.119a10 10 0 0 0 5.4 5.856 8.941 8.941 0 0 0 2.265.684l.049.043a10.779 10.779 0 0 1 -6.095-2.45 6.051 6.051 0 0 1 -2.309-4.513z" fill="#3c8920" transform="translate(-994.393 -121.844)"/><path d="m1079.385 126.3a6.756 6.756 0 0 1 2.45.663 3.024 3.024 0 0 1 1.391.967c1.184 1.032 1.564 2.814 1.771 4.3l-.114.223a11.5 11.5 0 0 0 -3.721-3.775c-.663-.407-1.369-.733-2.048-1.114a7.277 7.277 0 0 1 -.413-1.26 4.114 4.114 0 0 0 .684-.004z" fill="#68c02d" transform="translate(-1045.365 -124.906)"/><path d="m1104.139 135.039a4.207 4.207 0 0 1 -1.439-1.592c.016-.1-.005-.158.076-.228.359-.3 1.282.125 1.706.179.016 0 .032.005.049.005a3.024 3.024 0 0 1 1.391.967c.239.413.576.842.418 1.353-.043.136-.1.158-.2.234a1.907 1.907 0 0 1 -1.347-.451c-.219-.147-.436-.306-.654-.467z" fill="#b0d329" transform="translate(-1068.062 -131.347)"/><path d="m1399.7 503.066c2.673-2.151 6.182-2.254 9.435-1.907 1.559.168 6.383 1.114 7.512 2.151l-.016.244-.071-.087a2.257 2.257 0 0 0 -1.3-.234 3.524 3.524 0 0 0 -.869-.272 29.762 29.762 0 0 0 -6.323-1.135l-.022.081c.646.489 1.439.755 2.075 1.287l-.272.065h-.081l-.06-.005a4.2 4.2 0 0 1 -.456.027c-2.694-1.217-3.645-1.89-6.594-.777a10.535 10.535 0 0 0 -2.374 1.217c-.204-.21-.384-.438-.584-.655z" fill="#7d421a" transform="translate(-1348.929 -479.259)"/><path d="m1524.1 513.5c.532.043 1.076.071 1.608.136l-.022.081c.646.489 1.44.755 2.075 1.287l-.271.065h-.082l-.06-.005a11.372 11.372 0 0 0 -3.248-1.564z" fill="#9d5d35" transform="translate(-1466.571 -491.074)"/><path d="m1035.23 124.731c-.081-.022-.081-.049-.13-.119l.054-.087a5.448 5.448 0 0 1 2.314-.011 6.973 6.973 0 0 0 .413 1.26c.674.38 1.385.706 2.048 1.114a11.494 11.494 0 0 1 3.721 3.775 1.287 1.287 0 0 1 .005.717l-.092.005-.043.005a4.168 4.168 0 0 1 -.576-.071l-.049-.043a8.665 8.665 0 0 1 -2.265-.684 10.039 10.039 0 0 1 -5.4-5.861z" fill="#53a02c" transform="translate(-1004.134 -123.104)"/><path d="m1040.2 131.3a22.687 22.687 0 0 1 2.5 1c.674.38 1.385.706 2.048 1.114a11.5 11.5 0 0 1 3.721 3.775 1.288 1.288 0 0 1 .005.717l-.092.005c-.739-2.135-3.938-4.378-5.823-5.4a22.739 22.739 0 0 1 -2.325-1.179c-.007-.016-.023-.021-.034-.032z" fill="#b0d329" transform="translate(-1008.957 -129.634)"/><path d="m1532.623 542.2.06.005a14.865 14.865 0 0 0 -.679 4.145c-.2 3.27-.087 6.676 1.342 9.7.293.625 1.434 2.14 1.515 2.58a8.258 8.258 0 0 1 -1.1-.945 12.657 12.657 0 0 1 -4.079-8.9 9.242 9.242 0 0 1 2.488-6.545c.154-.018.306-.018.453-.04z" fill="#3c8920" transform="translate(-1471.851 -518.214)"/><path d="m1382.749 426.5-.223.418-.087.125a2.563 2.563 0 0 0 .435.369 19.6 19.6 0 0 0 -2.189 1.89h.054c1.157.033 2.292-.147 3.46-.054a29.748 29.748 0 0 1 8.849 2.14 2.4 2.4 0 0 1 .646.353.31.31 0 0 0 .038.043 1.113 1.113 0 0 1 -.054.353.624.624 0 0 0 0 .386.535.535 0 0 1 -.016.32c-1.13-1.037-5.953-1.983-7.512-2.151-3.254-.348-6.763-.244-9.435 1.907-.429-.44-.853-.869-1.314-1.266a12.633 12.633 0 0 1 3.9-1.782 15.263 15.263 0 0 1 3.448-3.051z" fill="#9d5d35" transform="translate(-1325.949 -408.799)"/><path d="m1458.762 436.5a2.557 2.557 0 0 0 .435.369 19.576 19.576 0 0 0 -2.189 1.89 2.682 2.682 0 0 1 -.907.282 9.46 9.46 0 0 1 2.661-2.541z" fill="#7d421a" transform="translate(-1402.265 -418.256)"/><path d="m1602.2 547.5a8.006 8.006 0 0 1 4.324 4.4 10.022 10.022 0 0 1 -.348 7.795 15.8 15.8 0 0 1 -2.249 3.819c.294-6.079.256-10.131-1.727-16.014z" fill="#68c02d" transform="translate(-1540.429 -523.226)"/><path d="m1572.1 541.2c.2.114.385.239.587.348 1.983 5.883 2.021 9.935 1.727 16.008a.658.658 0 0 1 -.353.266l-.136-.136c-.081-.44-1.222-1.956-1.516-2.58-1.429-3.02-1.543-6.421-1.342-9.7a15.074 15.074 0 0 1 .679-4.145h.081z" fill="#53a02c" transform="translate(-1510.916 -517.269)"/><path d="m1586.672 541.2c.2.114.386.239.587.348 1.983 5.883 2.021 9.935 1.727 16.008a.657.657 0 0 1 -.353.266 21 21 0 0 0 .022-2.341c-.016-4.155-.413-10.565-2.254-14.215z" fill="#b0d329" transform="translate(-1525.487 -517.269)"/><path d="m900.616 477.2.255.125a7.377 7.377 0 0 1 1.1 1.657 12.149 12.149 0 0 1 1.755 5.959c-.022 3.417-1.852 6.486-3.694 9.245a12.568 12.568 0 0 1 -1.526 2.108.547.547 0 0 1 -.473.185.362.362 0 0 1 -.13-.038c.087-.608.277-1.238.424-1.836.473-1.917 1.07-3.808 1.554-5.725a29.628 29.628 0 0 0 .929-7.6c-.02-1.353-.145-2.717-.194-4.08z" fill="#1e6016" transform="translate(-874.386 -456.746)"/><path d="m1305.137 170.086c.141-.022.331-.087.451-.011.005.418-.668 1.059-.961 1.369a20.06 20.06 0 0 1 -13.6 6.138c-1.945.033-5.812-.57-7.371-1.744a3.784 3.784 0 0 0 -.565-.3 3.354 3.354 0 0 1 -.494-.272 2.821 2.821 0 0 1 .587-.217l.038.005c.891.092 1.82.087 2.71.092a36.257 36.257 0 0 0 12.847-2.238c1.239-.456 2.412-1.027 3.607-1.575a19.153 19.153 0 0 0 2.751-1.247z" fill="#1e6016" transform="translate(-1238.19 -166.27)"/><path d="m1528.781 391.449a1.458 1.458 0 0 1 .782.054c-.12.592-1.983 1.874-2.526 2.238a18.68 18.68 0 0 1 -14.449 2.711 40.066 40.066 0 0 1 -7.154-2.205 2.567 2.567 0 0 1 -.435-.369l.087-.125c.733-.375 1.477-.722 2.227-1.059a27.93 27.93 0 0 0 14.894 1.114c.871-.191 6.167-1.728 6.574-2.359z" fill="#3c8920" transform="translate(-1448.509 -375.628)"/><path d="m560 268.611.38-.011a12.967 12.967 0 0 0 2.721 1.5 35.69 35.69 0 0 0 18.306 4.166c1.244-.005 2.493-.109 3.732-.109a5.465 5.465 0 0 0 .565.5l-.082.288c-2.135 1.1-7.447 1.651-9.859 1.57-6.344-.207-11.499-3.352-15.763-7.904z" fill="#2d791d" transform="translate(-554.841 -259.477)"/><path d="m1547.7 377.371c4.682-2.276 11.168-2.39 16.285-1.923 1.434.13 2.874.44 4.3.521l.065.005a2.261 2.261 0 0 1 .809.158c-.407.63-5.7 2.167-6.567 2.352a27.984 27.984 0 0 1 -14.892-1.113z" fill="#53a02c" transform="translate(-1488.89 -360.311)"/><path d="m567 268.6c1.945.136 3.889.353 5.839.505 6.616.532 11.624 1 17.659 4.27a22.5 22.5 0 0 1 2.059 1.1l-.125.2-.1-.011a7.01 7.01 0 0 1 -.565-.5c-1.244 0-2.488.109-3.732.109a40.61 40.61 0 0 1 -14.449-2.4 41.88 41.88 0 0 1 -3.857-1.771 13.375 13.375 0 0 1 -2.729-1.502z" fill="#3c8920" transform="translate(-561.461 -259.477)"/><path d="m507.6 485.727a8.115 8.115 0 0 1 1.01-.527 20.531 20.531 0 0 1 -4.28 15.03 21.406 21.406 0 0 1 -12.635 7.5 15.964 15.964 0 0 1 1.678-1.266c.9-.657 1.776-1.331 2.629-2.042a35.371 35.371 0 0 0 10.766-15.3 14.743 14.743 0 0 0 .832-3.395z" fill="#1e6016" transform="translate(-490.251 -464.311)"/><path d="m1686.1 541.323a2.257 2.257 0 0 1 1.3.234l.071.087a.141.141 0 0 0 .027.033 8.77 8.77 0 0 1 .777 1.912c.212.521.445 1.032.7 1.537a37.628 37.628 0 0 0 3 4.949 43.576 43.576 0 0 0 9.033 9.337 19.778 19.778 0 0 0 1.722 1.222 9.942 9.942 0 0 1 1.439.826l-.027.13c-2.124.456-5.557-1.233-7.371-2.211a19.965 19.965 0 0 1 -10.386-13.824 14.645 14.645 0 0 1 -.255-2 11 11 0 0 0 -.011-2.2.119.119 0 0 1 -.019-.032z" fill="#1e6016" transform="translate(-1619.772 -517.348)"/><path d="m1507.235 294a12.872 12.872 0 0 1 6.051-6.2 14.19 14.19 0 0 1 10.858-.054 21.174 21.174 0 0 1 6.247 3.585 3.418 3.418 0 0 1 .972.983l-.092.152a1.458 1.458 0 0 0 -.782-.054 2.284 2.284 0 0 0 -.809-.158l-.065-.005c-1.429-.081-2.868-.391-4.3-.521-5.111-.473-11.6-.353-16.285 1.923-.755.337-1.494.69-2.227 1.059l.223-.418z" fill="#53a02c" transform="translate(-1450.211 -276.587)"/><path d="m1507.14 369.447c1.26-.559 2.374-1.271 3.694-1.727 5.014-1.716 10.788-1.4 15.954-.587a12.124 12.124 0 0 1 2.792.559l-.065-.005c-1.429-.081-2.868-.391-4.3-.521-5.111-.473-11.6-.353-16.285 1.923-.755.337-1.494.69-2.227 1.059l.223-.418z" fill="#68c02d" transform="translate(-1450.117 -352.034)"/><path d="m1665.713 295.743a7.9 7.9 0 0 1 4.541.923 1.427 1.427 0 0 1 .674.847.5.5 0 0 1 -.109.386c-.554.712-2.108.831-2.95.9a7.124 7.124 0 0 1 -4.351-.739 1.435 1.435 0 0 1 -.663-.858.674.674 0 0 1 .163-.549 4.156 4.156 0 0 1 2.695-.91z" fill="#68c02d" transform="translate(-1597.782 -285.131)"/><path d="m687.242 235.5a10.738 10.738 0 0 1 1.966 4.818 12.125 12.125 0 0 1 2.749-3.178l.054.027a3.957 3.957 0 0 0 .494.272 3.527 3.527 0 0 1 .565.3c-2.77 3-3.591 5.975-3.433 10.022.016.375.049.75.081 1.124-.228.092-.456.185-.679.282a10.671 10.671 0 0 0 -1.6.934 11.344 11.344 0 0 0 -1.559 1.5l-.559.69-.3-.38a11.568 11.568 0 0 0 -8.566-4.623 10.169 10.169 0 0 0 -2.347 1.461l-.255-.125-.049-.342-.038-.065a2.078 2.078 0 0 0 -.32-.483 8.994 8.994 0 0 0 1.363-.837 25.285 25.285 0 0 0 -8.822 2.156 8.117 8.117 0 0 0 -1.01.527 24.115 24.115 0 0 0 -4.465 3.1 24.715 24.715 0 0 1 -2.412 2.352 29.416 29.416 0 0 1 4.123-4.1 17.526 17.526 0 0 1 3.151-2.754c.206-.092.418-.239.619-.353a20.489 20.489 0 0 1 12.13-2.211c.88.125 1.711.429 2.58.592l.049.011a11.2 11.2 0 0 0 -2.347-2.586l.081-.288.1.011.125-.2a2.883 2.883 0 0 0 -.087-.527 31.125 31.125 0 0 1 6.285 5.285c.619.674 1.222 1.651 1.885 2.227a2.388 2.388 0 0 0 .331-.114.466.466 0 0 1 .244-.038 8.557 8.557 0 0 0 -.033-1.119 21.5 21.5 0 0 1 .016-2.51c.109-1.271.467-2.477.641-3.732a14.551 14.551 0 0 0 .087-1.885 12.623 12.623 0 0 0 -1.07-4.308l.043-.005.092-.005a1.241 1.241 0 0 0 -.005-.717z" fill="#9d5d35" transform="translate(-647.612 -228.174)"/><g fill="#7d421a"><path d="m1190.238 252.805.092-.005a6.978 6.978 0 0 1 1.32 4.563 3.847 3.847 0 0 1 -.331.978c.005-.266.1-1.021-.049-1.222a12.621 12.621 0 0 0 -1.07-4.308z" transform="translate(-1150.809 -244.535)"/><path d="m1031.687 380.2.1.011a19.087 19.087 0 0 1 3.585 3.449 6.172 6.172 0 0 1 -1.429-.587 11.2 11.2 0 0 0 -2.347-2.586z" transform="translate(-1000.824 -365.014)"/><path d="m1230.951 271.2a3.52 3.52 0 0 1 .565.3c-2.776 3-3.6 5.975-3.438 10.022.016.375.049.75.081 1.124-.228.092-.456.185-.679.282-.114-4.585.505-8.105 3.471-11.728z" transform="translate(-1186.052 -261.935)"/><path d="m662.117 444.3c1.173-.7 2.287-1.472 3.509-2.086a19.493 19.493 0 0 1 13.205-1.765 12.275 12.275 0 0 1 5.72 3.123c.435.435.793.961 1.233 1.391l-.559.69-.3-.38a11.568 11.568 0 0 0 -8.566-4.623 10.17 10.17 0 0 0 -2.347 1.461l-.255-.125-.049-.342-.038-.065a2.077 2.077 0 0 0 -.32-.483 9 9 0 0 0 1.363-.837 25.285 25.285 0 0 0 -8.821 2.156 8.111 8.111 0 0 0 -1.01.527 24.114 24.114 0 0 0 -4.465 3.1 24.712 24.712 0 0 1 -2.417 2.358 29.346 29.346 0 0 1 4.117-4.1z" transform="translate(-647.517 -421.537)"/></g><path d="m941.858 444.511a8.319 8.319 0 0 1 1.423-.049 13.912 13.912 0 0 0 -2.423 1.429l-.038-.065a2.078 2.078 0 0 0 -.32-.483 9.664 9.664 0 0 0 1.358-.832z" fill="#9d5d35" transform="translate(-914.672 -425.778)"/><path d="m827.236 480.925c-.75-.315-1.456-1.554-1.858-2.249a13.57 13.57 0 0 1 -1.8-10.261 12.193 12.193 0 0 1 6-7.616 2.02 2.02 0 0 1 .32.483l.038.065.049.342c.043 1.363.174 2.727.19 4.09a29.625 29.625 0 0 1 -.929 7.6c-.483 1.917-1.081 3.8-1.554 5.725-.147.6-.331 1.228-.424 1.836z" fill="#53a02c" transform="translate(-803.755 -441.237)"/><path d="m889.262 469.8.038.065.049.342c-2.542 3.618-3.3 9.6-3.2 13.949.033 1.418.283 2.906.3 4.242a8.548 8.548 0 0 1 -.288-2.124c-.408-5.083-.361-12.395 3.101-16.474z" fill="#68c02d" transform="translate(-863.119 -449.748)"/><path d="m889.255 495.392c-.016-1.336-.266-2.83-.3-4.242-.1-4.346.657-10.326 3.2-13.949.043 1.363.174 2.727.19 4.09a29.626 29.626 0 0 1 -.929 7.6c-.483 1.917-1.081 3.8-1.554 5.725-.147.6-.331 1.228-.424 1.836l-.038-.011a2.138 2.138 0 0 0 -.145-1.049z" fill="#2d791d" transform="translate(-865.921 -456.746)"/><path d="m560 205.082c.206-.456 3.531-1.727 4.253-2 4.758-1.8 10.495-2.466 15.253-.315a10.838 10.838 0 0 1 5.807 6.062c.2.521.32 1.081.532 1.592a2.962 2.962 0 0 1 .087.527 23.126 23.126 0 0 0 -2.059-1.1c-6.029-3.265-11.038-3.737-17.654-4.27-1.95-.152-3.895-.369-5.839-.505z" fill="#68c02d" transform="translate(-554.841 -195.948)"/><path d="m760.269 212.042c.277-.022.554-.043.831-.043a5.133 5.133 0 0 1 3.563 1.054 1.588 1.588 0 0 1 .489 1.162.983.983 0 0 1 -.348.75 1.82 1.82 0 0 1 -1.217.32c-1.233-.06-3.65-.185-4.655-.869a1.163 1.163 0 0 1 -.56-.766 1.327 1.327 0 0 1 .3-.907 2.244 2.244 0 0 1 1.597-.701z" fill="#ddef82" transform="translate(-742.432 -205.949)"/><path d="m490.987 500.354a25.34 25.34 0 0 0 2.413-2.354 24.118 24.118 0 0 1 4.465-3.1 15.015 15.015 0 0 1 -.826 3.4 35.417 35.417 0 0 1 -10.766 15.3c-.853.712-1.733 1.385-2.629 2.042a15.961 15.961 0 0 0 -1.678 1.266 1.032 1.032 0 0 1 -.527.06l-.038-.12c.049-.158.1-.315.136-.473 1.541-4.386 6.3-12.654 9.45-16.021z" fill="#2d791d" transform="translate(-480.51 -473.484)"/><path d="m1281.5 109.612a20.792 20.792 0 0 1 1.6-3.064 12.685 12.685 0 0 1 8.175-5.622c4.215-.891 9.164.429 12.722 2.759.239.158.614.337.673.625l-.119.136c-.114-.076-.31-.011-.451.011a18.568 18.568 0 0 1 -2.749 1.238c-1.2.543-2.368 1.119-3.607 1.575a36.255 36.255 0 0 1 -12.846 2.238c-.9-.005-1.825 0-2.711-.092l-.038-.005a3.163 3.163 0 0 0 -.587.217z" fill="#3c8920" transform="translate(-1237.149 -100.646)"/><path d="m1307.6 172.473c1.054-1.135 5.052-2.727 6.6-3.194 3.857-1.168 7.963-1.2 11.95-1.293a7.084 7.084 0 0 1 2.629.071c-6.42.185-13.172.565-19.1 3.286-.726.326-1.379.757-2.079 1.13z" fill="#68c02d" transform="translate(-1261.832 -164.24)"/><path d="m1414.958 114.155a4.5 4.5 0 0 1 2.738.38.928.928 0 0 1 .424.6.968.968 0 0 1 -.228.739c-.744.934-2.629 1.249-3.764 1.363a5.251 5.251 0 0 1 -3.042-.31.709.709 0 0 1 -.331-.467 1.022 1.022 0 0 1 .255-.766c.83-1.05 2.671-1.381 3.948-1.539z" fill="#53a02c" transform="translate(-1359.374 -113.364)"/><path d="m1294.171 175.222c.7-.38 1.353-.8 2.075-1.135 5.932-2.721 12.678-3.1 19.1-3.286a18.566 18.566 0 0 1 -2.749 1.238c-1.2.543-2.368 1.119-3.607 1.575a36.257 36.257 0 0 1 -12.847 2.238c-.9-.005-1.825 0-2.71-.092l-.038-.005a4.639 4.639 0 0 0 .776-.533z" fill="#2d791d" transform="translate(-1248.403 -166.989)"/><path d="m465.455 472.372a9.959 9.959 0 0 1 -.288-1.831 24.05 24.05 0 0 1 .771-9.185c1.331-4.541 4.058-9.017 8.316-11.336a14.365 14.365 0 0 1 7.208-1.64 6.644 6.644 0 0 1 1.825.158.984.984 0 0 1 .109.614 6.982 6.982 0 0 1 -.619.353 17.529 17.529 0 0 0 -3.151 2.754 29.42 29.42 0 0 0 -4.123 4.1c-3.151 3.368-7.909 11.635-9.452 16.019-.043.158-.087.315-.136.473-.145-.169-.308-.321-.46-.479z" fill="#53a02c" transform="translate(-465.027 -429.489)"/><path d="m483.748 492.068c-.109-1 2.754-7.23 3.379-8.43 2.569-4.965 6.393-10.087 11.125-13.178a9.825 9.825 0 0 1 2.227-1.26 17.528 17.528 0 0 0 -3.151 2.754 29.419 29.419 0 0 0 -4.123 4.1c-3.151 3.363-7.905 11.631-9.457 16.014z" fill="#b0d329" transform="translate(-482.727 -449.18)"/><path d="m530.093 501.781a1.733 1.733 0 0 1 .6.043 1 1 0 0 1 .636.565 1.813 1.813 0 0 1 .016 1.429c-.424 1.1-2.053 2.211-2.879 3.183-.809.951-1.434 2.086-2.292 2.988a2.616 2.616 0 0 1 -.885.63 1.2 1.2 0 0 1 -.69-.076.852.852 0 0 1 -.527-.478 3.027 3.027 0 0 1 .359-2.162c.909-1.826 3.706-5.487 5.662-6.122z" fill="#ddef82" transform="translate(-520.783 -479.985)"/><path d="m1711.559 518.049c2.531-.826 6.008.049 8.3 1.222a15.161 15.161 0 0 1 7.659 8.957 21.968 21.968 0 0 1 .853 9.1 5.943 5.943 0 0 1 -.364 1.917l-.141.06.027-.13a9.4 9.4 0 0 0 -1.44-.826c-.6-.375-1.162-.793-1.722-1.222a43.568 43.568 0 0 1 -9.033-9.338 38.217 38.217 0 0 1 -3-4.948c-.244-.505-.483-1.016-.7-1.537a8.868 8.868 0 0 0 -.777-1.912.141.141 0 0 0 -.027-.033l.016-.244a.537.537 0 0 0 .016-.32.665.665 0 0 1 0-.386 1.294 1.294 0 0 0 .054-.353z" fill="#2d791d" transform="translate(-1643.508 -495.069)"/><path d="m1711.558 523.711.261-.011a30.844 30.844 0 0 1 11.842 11.939 42.942 42.942 0 0 1 2.645 5.052l-.016.033c-.8-1.336-1.488-2.743-2.3-4.069a34.549 34.549 0 0 0 -9.56-10.543 10.919 10.919 0 0 0 -2.835-1.646c-.033-.005-.06-.016-.092-.022a.665.665 0 0 1 0-.386 1.224 1.224 0 0 0 .055-.347z" fill="#68c02d" transform="translate(-1643.768 -500.719)"/><path d="m1867.214 582.286a1.539 1.539 0 0 1 1.032.125c1.657.82 4.041 3.987 4.623 5.742a2.028 2.028 0 0 1 -.022 1.564.988.988 0 0 1 -.674.516.882.882 0 0 1 -.554.049 1.507 1.507 0 0 1 -.733-.375 30.125 30.125 0 0 1 -2.243-3.52c-.521-.815-1.119-1.57-1.668-2.363-.234-.337-.489-.641-.386-1.081a1.144 1.144 0 0 1 .625-.657z" fill="#53a02c" transform="translate(-1790.435 -556.09)"/><path d="m681.215 1403.3c.837.06 1.662.152 2.488.288a13.055 13.055 0 0 0 1.641.261 32.958 32.958 0 0 1 8.631 3.308c2.558.005 14.069.815 15.715 2.482a.86.86 0 0 1 .163.234.5.5 0 0 1 -.174.413c-2.988 2.808-29.838 3.1-35.362 3.058-3.857-.033-7.724-.2-11.575-.407-2.434-.13-17-1.037-18.322-2.694a.372.372 0 0 1 -.071-.359c.391-.63 1.8-.945 2.515-1.114a58.546 58.546 0 0 1 7.273-1.065c2.026-.212 4.085-.445 6.122-.478.918-.462 1.809-.967 2.754-1.385a35.924 35.924 0 0 1 6.73-2.053c1.108-.081 2.2-.364 3.319-.424a5.169 5.169 0 0 0 .712-.016 2.491 2.491 0 0 0 .635 1.983 4.148 4.148 0 0 0 2.96.967 8.462 8.462 0 0 0 1.429-.158c2.624-.88 1.619-2.243 2.059-2.77.06-.071.255-.06.358-.071z" fill="#317f83" transform="translate(-634.594 -1332.541)"/><path d="m1281.028 1403.3c.836.06 1.662.152 2.488.288a13.053 13.053 0 0 0 1.64.261 32.957 32.957 0 0 1 8.631 3.308 14.113 14.113 0 0 1 3.313 2.77 75.534 75.534 0 0 1 -11.939 1.173 3.354 3.354 0 0 0 -.152-.684 6.7 6.7 0 0 0 -4.557-3.781 10.342 10.342 0 0 1 -1.814-.478.285.285 0 0 1 -.038-.022c2.624-.88 1.619-2.243 2.059-2.77.07-.065.266-.054.369-.065z" fill="#422d22" transform="translate(-1234.407 -1332.541)"/><path d="m890.625 1404.316a5.188 5.188 0 0 0 .712-.016 2.49 2.49 0 0 0 .636 1.983 4.148 4.148 0 0 0 2.96.967 8.46 8.46 0 0 0 1.429-.157.289.289 0 0 1 .038.022 10.361 10.361 0 0 0 1.814.478c1.874.532 3.906 1.868 4.557 3.781a3.281 3.281 0 0 1 .152.684c-1.912.217-4.237.163-6.192.2a147.448 147.448 0 0 1 -22.331-1.195 11.659 11.659 0 0 1 3.427-2.874c.918-.462 1.809-.967 2.754-1.385a35.931 35.931 0 0 1 6.73-2.053c1.103-.093 2.195-.38 3.314-.435z" fill="#5f3b28" transform="translate(-852.163 -1333.486)"/><path d="m1037.138 1454.265a2.461 2.461 0 0 1 1.309.245.619.619 0 0 1 .277.418.726.726 0 0 1 -.185.592c-.929 1.211-3.085 1.733-4.547 1.885a3.681 3.681 0 0 1 -1.434-.228.585.585 0 0 1 -.359-.375.972.972 0 0 1 .288-.592 7.146 7.146 0 0 1 4.651-1.945z" fill="#9d5d35" transform="translate(-1001.391 -1380.735)"/><path d="m1174.539 1053.8a14.867 14.867 0 0 0 5.693.722c.054 1.847.456 17.849.57 18.067a.805.805 0 0 0 .109.13c.12.022.234.049.353.06-.1.011-.3.005-.369.082-.44.527.565 1.885-2.059 2.77a8.374 8.374 0 0 1 -1.429.158 4.189 4.189 0 0 1 -2.96-.967 2.49 2.49 0 0 1 -.636-1.983 5.208 5.208 0 0 1 -.712.016 2.346 2.346 0 0 1 .733-.049c.109-1.787.136-3.585.2-5.372l.3-7.436.1-3.52a19.452 19.452 0 0 1 .1-2.108z" fill="#9d5d35" transform="translate(-1134.638 -1002.025)"/><path d="m1186.928 1053.8a14.867 14.867 0 0 0 5.693.722c.054 1.847.456 17.849.57 18.067a.812.812 0 0 0 .109.13c.119.022.234.049.353.06-.1.011-.3.005-.369.082-.44.527.565 1.885-2.059 2.77a8.373 8.373 0 0 1 -1.428.158 4.19 4.19 0 0 1 -2.96-.967 2.49 2.49 0 0 1 -.635-1.983 6.188 6.188 0 0 0 2.287.4 2.535 2.535 0 0 0 1.852-.76 3.807 3.807 0 0 0 .9-2.064 28.238 28.238 0 0 0 .011-4.84l-.13-8.479a21.872 21.872 0 0 1 -4.2-1.825 7.033 7.033 0 0 0 -.006-.9z" fill="#7d421a" transform="translate(-1147.026 -1002.025)"/><path d="m1046.519 476.728a7.282 7.282 0 0 1 5.649.646 9.16 9.16 0 0 1 1.7 1.184c.462.4.891.831 1.315 1.266.19.212.38.445.581.646a19.027 19.027 0 0 1 2.314 3.471c.369.712.69 1.456 1.081 2.151.407.728.994 1.347 1.423 2.07a13.961 13.961 0 0 1 1.809 8.191 13.412 13.412 0 0 1 -4.264 8.653c-.011.011-.022.016-.033.027a12.747 12.747 0 0 1 -8.094 3.476 14.884 14.884 0 0 1 -5.693-.722l-.282-.136a11.933 11.933 0 0 1 -3.346-1.782 13.456 13.456 0 0 1 -5.16-8.957 14.846 14.846 0 0 1 2.309-9.978c.581-.891 1.331-1.662 1.89-2.553a19.12 19.12 0 0 0 .907-1.793 14.486 14.486 0 0 1 1.488-2.455l.559-.69a12.022 12.022 0 0 1 1.559-1.5 10.962 10.962 0 0 1 1.6-.934c.237-.096.469-.188.688-.281z" fill="#3c8920" transform="translate(-1004.412 -456.013)"/><path d="m1064.4 491.828a7.524 7.524 0 0 1 5.432 1.9 16.189 16.189 0 0 1 3.813 4.862c.435.831.8 1.711 1.266 2.526.326.576.809 1.076 1.173 1.63a12.58 12.58 0 0 1 -1.184 15.054 12.121 12.121 0 0 1 -8.349 4.2.234.234 0 0 1 -.06.011 12.884 12.884 0 0 1 -8.572-2.363 12.328 12.328 0 0 1 -4.916-8.132 14.069 14.069 0 0 1 2.249-9.745c.6-.913 1.358-1.695 1.928-2.624.875-1.429 1.418-2.971 2.433-4.34a6.906 6.906 0 0 1 4.787-2.979z" fill="#68c02d" transform="translate(-1020.934 -470.558)"/><path d="m1095.467 525.95a5.966 5.966 0 0 1 4.427 1.554 15.051 15.051 0 0 1 3.612 4.7c.331.646.608 1.325.945 1.972s.755 1.249 1.119 1.879a11.2 11.2 0 0 1 1.439 4.661 10.622 10.622 0 0 1 -9.881 11.461 10.668 10.668 0 0 1 -6.578-1.6 10.912 10.912 0 0 1 -4.7-6.871 11.787 11.787 0 0 1 1.993-9.169c.494-.733 1.146-1.385 1.6-2.118.641-1.032 1.043-2.2 1.711-3.227a6.989 6.989 0 0 1 4.313-3.242z" fill="#b0d329" transform="translate(-1051.899 -502.834)"/><path d="m1131.3 566.238a4.465 4.465 0 0 1 3.243.918c2.091 1.586 2.765 3.753 3.982 5.937.994 1.787 2.26 3.406 2.526 5.5a8.024 8.024 0 0 1 -1.733 5.812 9.6 9.6 0 0 1 -6.024 3.748 8.913 8.913 0 0 1 -5.818-1.222 8.8 8.8 0 0 1 -3.867-5.475 9.551 9.551 0 0 1 1.228-7.127c.456-.733 1.037-1.385 1.461-2.14.592-1.059.907-2.243 1.564-3.281a5.447 5.447 0 0 1 3.438-2.67z" fill="#ddef82" transform="translate(-1087.621 -540.927)"/><path d="m1164.516 672.314a6.936 6.936 0 0 1 4.715 1.244 7.4 7.4 0 0 1 3 4.883 6.951 6.951 0 0 1 -6.084 8.034 6.931 6.931 0 0 1 -4.786-1.276 7.076 7.076 0 0 1 -2.89-4.7 7.383 7.383 0 0 1 1.385-5.513 6.937 6.937 0 0 1 4.66-2.672z" fill="#5f3b28" transform="translate(-1120.725 -641.223)"/><path d="m1202.222 702.4a5.892 5.892 0 0 1 2.433 3.52 6.9 6.9 0 0 1 -1.353 4.845 7.177 7.177 0 0 1 -4.628 2.96 6.474 6.474 0 0 1 -4.563-.94 3.345 3.345 0 0 1 -.712-.7 6.364 6.364 0 0 0 5.139.125 7.2 7.2 0 0 0 3.922-3.906 7.658 7.658 0 0 0 -.238-5.904z" fill="#7d421a" transform="translate(-1153.835 -669.712)"/><path d="m1168.884 680.341a5.01 5.01 0 0 1 3.308-.837 6.617 6.617 0 0 1 3.531 1.239 7.658 7.658 0 0 1 .239 5.9 7.183 7.183 0 0 1 -3.922 3.906 6.408 6.408 0 0 1 -5.139-.125 6.2 6.2 0 0 1 -.961-1.51 6.968 6.968 0 0 1 -.082-5.28 5.418 5.418 0 0 1 2.51-2.96z" fill="#973a1a" transform="translate(-1127.336 -648.055)"/><path d="m1176.46 686.825a3.379 3.379 0 0 1 2.417-.342 1.124 1.124 0 0 1 .619.7 5.768 5.768 0 0 1 -.57 4.031 5.464 5.464 0 0 1 -2.863 2.792 2.356 2.356 0 0 1 -1.782-.1 1.61 1.61 0 0 1 -.782-1 5.485 5.485 0 0 1 .782-3.8 8.031 8.031 0 0 1 1.662-1.945z" fill="#f36a37" transform="translate(-1134.913 -654.54)"/></svg>