<svg height="132" viewBox="0 0 132 132" width="132" xmlns="http://www.w3.org/2000/svg"><path d="m0 0h132v132h-132z" fill="none"/><g transform="translate(-31.048 -15.42)"><g fill-rule="evenodd"><path d="m126.77 152.43h54.867a5.76 5.76 0 0 1 5.507 5.966v30.559c0 20.087-14.281 36.524-31.734 36.524h-2.41c-17.453 0-31.734-16.437-31.734-36.524v-30.555a5.754 5.754 0 0 1 5.504-5.97z" fill="#016a6e" transform="translate(-56.77 -96.609)"/><path d="m194.622 152.43h38.222a5.76 5.76 0 0 1 5.507 5.966v30.559c0 17.271-10.562 31.846-24.615 35.595-14.06-3.748-24.615-18.321-24.615-35.595v-30.555a5.757 5.757 0 0 1 5.501-5.97z" fill="#32868a" transform="translate(-107.977 -96.609)"/><path d="m65.608 359.5c-5.477-2.62-14.762 2.845-12.076 12.537 1.406 5.063 14 3.748 19.5 4.381 11.188 1.285 26.492.223 38.7.375 4.9.064 37.532 1.106 39.647-6.029 1.391-4.692 1.781-12.677-1.577-15.485-8.315-6.959-14.943-12.4-25.094-4.6-1.668 1.28-14.276-11.161-22.125-1.057-5.909 7.607-19.533-21.012-32.241 7.133-1.055 2.316-4.053 4.256-4.734 2.745z" fill="#b38e7c" transform="translate(-5.288 -241.247)"/><path d="m57.26 400.65c2.85 3.748 13.893 2.684 18.942 3.267 11.188 1.285 26.492.223 38.7.375 4.9.064 37.532 1.106 39.647-6.029a22.136 22.136 0 0 0 .591-2.524 7.329 7.329 0 0 0 -2.168-4.025c-8.315-6.959-14.943-12.4-25.093-4.6-1.668 1.28-14.276-11.161-22.125-1.057-5.909 7.614-19.533-21.012-32.241 7.133-1.043 2.308-4.04 4.248-4.722 2.74-3.75-1.783-9.264.199-11.531 4.72z" fill="#dbc3a9" transform="translate(-8.461 -268.747)"/><path d="m170.114 244.724a19.825 19.825 0 0 0 -23.134-16.9 19.816 19.816 0 0 0 23.134 16.9z" fill="#718446" transform="translate(-76.174 -153.22)"/><path d="m191.5 243.616a19.459 19.459 0 0 0 -7.607-11.257 20.118 20.118 0 0 0 -8.114-3.559 19.5 19.5 0 0 0 7.6 11.257 20.147 20.147 0 0 0 8.121 3.559z" fill="#b4c08b" transform="translate(-97.909 -154.246)"/><path d="m276.86 247.638a19.8 19.8 0 0 1 23.126-16.9 19.813 19.813 0 0 1 -23.126 16.9z" fill="#718446" transform="translate(-174.195 -155.419)"/><path d="m278.28 246.506a19.484 19.484 0 0 1 7.6-11.257 20.234 20.234 0 0 1 8.12-3.559 19.46 19.46 0 0 1 -7.607 11.257 20.1 20.1 0 0 1 -8.113 3.559z" fill="#b4c08b" transform="translate(-175.267 -156.428)"/><path d="m237.278 28.56a5.967 5.967 0 0 1 6.015 6.007l-1.065 36.983c-.091 3.309-1.641 6.113-4.95 6.113s-4.646-2.607-4.756-5.916l-1.252-37.18a5.956 5.956 0 0 1 6.007-6.007z" fill="#6c504d" transform="translate(-139.786 -3.124)"/><path d="m256.372 31.08a5.86 5.86 0 0 1 3.343 5.389l-1.065 36.983c-.064 2.24-.792 4.248-2.281 5.313-1.383-1.016-2.009-2.914-2.08-5.117l-1.258-37.179a5.851 5.851 0 0 1 3.341-5.389z" fill="#88726f" transform="translate(-156.209 -5.026)"/></g><path d="m90.748 61.145a1.833 1.833 0 0 1 -.007-.2v-.083l-.091-2.622h-20.65a3.577 3.577 0 0 0 -2.627 1.2 4.481 4.481 0 0 0 -1.155 3.051v30.557a39.83 39.83 0 0 0 .91 8.517 38.886 38.886 0 0 0 1.543 5.242c5.264-6.287 10.611-5.742 15.471-3.547a45.073 45.073 0 0 1 5.109 2.865c2.99 1.857 5.5 3.422 6.674 1.906.223-.277.444-.549.667-.807a35.432 35.432 0 0 0 -1.467-7.849 19.344 19.344 0 0 0 -2.5-5.208 19.819 19.819 0 0 1 -6.876-.39 22.266 22.266 0 0 1 -13.957-10.2 19.677 19.677 0 0 1 -2.681-7.977 1.716 1.716 0 0 1 1.327-1.96 19.576 19.576 0 0 1 8.546.105 22.266 22.266 0 0 1 13.957 10.2 19.6 19.6 0 0 1 2.684 7.982 1.584 1.584 0 0 1 0 .569 21.391 21.391 0 0 1 2.225 4.332c.459-.606.925-1.175 1.41-1.717a23.2 23.2 0 0 1 1.74-1.737 1.613 1.613 0 0 1 -.034-.736 19.59 19.59 0 0 1 2.676-7.982 22.293 22.293 0 0 1 13.962-10.2 19.583 19.583 0 0 1 8.539-.11 1.711 1.711 0 0 1 1.327 1.967 19.591 19.591 0 0 1 -2.67 7.987 22.293 22.293 0 0 1 -13.962 10.2 20.178 20.178 0 0 1 -6.329.444 17.805 17.805 0 0 0 -2.7 2.46 24.407 24.407 0 0 0 -2.691 3.65c.258 1.126.466 2.316.64 3.574 5.875-3.289 12.586.348 16.82 2.642 1.28.694 1.369 1.83 1.788 1.509a18.918 18.918 0 0 1 8.531-4.033 38.659 38.659 0 0 0 1.224-5.2 39.415 39.415 0 0 0 .527-6.5v-30.556a4.476 4.476 0 0 0 -1.16-3.051 3.582 3.582 0 0 0 -2.627-1.2h-20.393l-.319 10.945a9.157 9.157 0 0 1 -1.8 5.522 5.987 5.987 0 0 1 -4.859 2.252 5.786 5.786 0 0 1 -4.757-2.158 9.062 9.062 0 0 1 -1.71-5.416zm3.358-1.918h6.912l.076-2.607v-.1a1.622 1.622 0 0 1 .007-.189l.699-24.231c.007-.1 0 .056 0-.118a4.028 4.028 0 0 0 -1.224-2.865 4.395 4.395 0 0 0 -2.948-1.273c-.1 0 .056.007-.132.007a1.159 1.159 0 0 1 -.147-.007 4.412 4.412 0 0 0 -2.934 1.273 3.972 3.972 0 0 0 -1.217 2.838c0 .159-.007.069 0 .14l.814 24.233a1.759 1.759 0 0 1 .015.194v.078zm6.814 3.434h-6.7l.223 6.613a5.781 5.781 0 0 0 .959 3.38 2.528 2.528 0 0 0 2.085.876 2.708 2.708 0 0 0 2.205-.981 5.82 5.82 0 0 0 1.035-3.464zm-3.429-38.241c.069 0 .015 0 .223.007a7.86 7.86 0 0 1 5.276 2.267 7.473 7.473 0 0 1 2.24 5.291c0 .069-.007 0-.015.216l-.648 22.6h20.3a6.984 6.984 0 0 1 5.151 2.308 7.923 7.923 0 0 1 2.073 5.374v30.565a43.86 43.86 0 0 1 -.576 7.05 44.562 44.562 0 0 1 -1.023 4.582 14.822 14.822 0 0 1 2.671.591c4.283 1.349 8.141 4.555 12.439 8.149 1.872 1.565 2.8 4.226 3.1 7.17a28.186 28.186 0 0 1 -.974 10.116c-2.365 7.962-32.416 7.413-40.177 7.273l-1.141-.02c-4.082-.049-8.539.034-13.072.125-9 .174-18.294.356-25.8-.508-1.293-.147-2.968-.189-4.8-.231-6.53-.147-14.747-.334-16.153-5.4a12.43 12.43 0 0 1 .584-8.858 11.307 11.307 0 0 1 3.108-3.93 11.662 11.662 0 0 1 4.214-2.183 9.436 9.436 0 0 1 6.439.383 1.669 1.669 0 0 1 .515.307 2.975 2.975 0 0 0 .542-.341 4.977 4.977 0 0 0 1.482-1.815 47.245 47.245 0 0 1 2.841-5.408 41.476 41.476 0 0 1 -2.539-7.815 42.99 42.99 0 0 1 -.993-9.24v-30.555a7.924 7.924 0 0 1 2.073-5.374 6.965 6.965 0 0 1 5.149-2.309h20.537l-.765-22.6c-.007-.194-.015-.208-.015-.243a7.393 7.393 0 0 1 2.232-5.264 7.852 7.852 0 0 1 5.242-2.267c.206 0 .233-.01.26-.01zm9.118 61.98a16.594 16.594 0 0 0 -2 5.1 16.4 16.4 0 0 0 5.473-.356 18.838 18.838 0 0 0 11.772-8.6 16.594 16.594 0 0 0 2-5.1 16.594 16.594 0 0 0 -5.473.348 18.813 18.813 0 0 0 -11.772 8.61zm-14.617 4.389a16.506 16.506 0 0 0 -2-5.1 18.838 18.838 0 0 0 -11.772-8.6 16.481 16.481 0 0 0 -5.472-.356 16.506 16.506 0 0 0 2 5.1 18.856 18.856 0 0 0 11.772 8.607 16.611 16.611 0 0 0 5.472.349zm-32.806 29.551a6.173 6.173 0 0 0 -3.775-.056 8.314 8.314 0 0 0 -2.968 1.536 8.024 8.024 0 0 0 -2.183 2.747 9.141 9.141 0 0 0 -.368 6.473c.724 2.615 7.523 2.767 12.927 2.885 1.96.049 3.763.091 5.117.243 7.337.849 16.486.667 25.351.493 4.555-.091 9.024-.174 13.17-.125.314.007.689.015 1.155.02 7.224.132 35.212.64 36.831-4.818a24.613 24.613 0 0 0 .856-8.816c-.216-2.114-.792-3.957-1.891-4.874-4.018-3.358-7.629-6.356-11.271-7.508-3.437-1.086-7.137-.54-11.681 2.96-1.349 1.035-3.088.1-5.5-1.217-4.256-2.308-11.563-6.265-16.312-.147-3.066 3.949-6.78 1.641-11.2-1.1a40.563 40.563 0 0 0 -4.7-2.649c-4.867-2.2-10.479-2-16.13 10.533a8.658 8.658 0 0 1 -2.544 3.13 6.08 6.08 0 0 1 -1.926 1.016 2.851 2.851 0 0 1 -2.539-.361 2.631 2.631 0 0 1 -.419-.365z"/></g></svg>