<svg height="249" viewBox="0 0 295 249" width="295" xmlns="http://www.w3.org/2000/svg" xmlns:xlink="http://www.w3.org/1999/xlink"><clipPath id="a"><path d="m0-682.665h80v80h-80z" transform="translate(0 682.665)"/></clipPath><path d="m0 0h295v249h-295z" fill="#d2e8e4"/><circle cx="148" cy="104" fill="#aed139" r="63"/><g clip-path="url(#a)" transform="translate(108 64)"><path d="m-150.666-150.666a20 20 0 0 1 -20-20 20 20 0 0 1 20 20z" fill="#7bdaa9" transform="translate(185.666 186.916)"/><path d="m0-150.666a20 20 0 0 0 20-20 20 20 0 0 0 -20 20z" fill="#7bdaa9" transform="translate(45 191.916)"/><path d="m-122.382-2.663a20.005 20.005 0 0 1 -16.241 19.293v.353a20 20 0 0 0 20-20 20.11 20.11 0 0 0 -3.755.353" fill="#39c17b" transform="translate(183.628 24.266)"/><path d="m-28.284-2.663a20.005 20.005 0 0 0 16.241 19.294v.353a20 20 0 0 1 -20-20 20.11 20.11 0 0 1 3.755.353" fill="#39c17b" transform="translate(47.039 19.266)"/><path d="m0-150.666v-20h24.482a1.25 1.25 0 0 1 .884.366l6.4 6.4a2.5 2.5 0 0 0 1.768.732h12.93a2.5 2.5 0 0 0 1.768-.732l6.4-6.4a1.25 1.25 0 0 1 .884-.366h24.484v20" fill="#e68f5e" transform="translate(0 214.416)"/><path d="m2.5 1h-2.5v-2h2.5z" fill="#fff" transform="translate(33.75 56.25)"/><path d="m2.5 1h-2.5v-2h2.5z" transform="translate(38.75 56.25)"/><path d="m2.5 1h-2.5v-2h2.5z" fill="#fff" transform="translate(43.75 56.25)"/><path d="m80-166.916h-80v-3.75h80z" fill="#e1763a" transform="translate(0 230.666)"/><path d="m33.964 8.5h-12.929a3.477 3.477 0 0 1 -2.475-1.025l-6.4-6.4a.252.252 0 0 0 -.178-.075h-11.982v-2h11.982a2.235 2.235 0 0 1 1.591.659l6.4 6.4a1.49 1.49 0 0 0 1.061.439h12.93a1.49 1.49 0 0 0 1.061-.439l6.4-6.4a2.235 2.235 0 0 1 1.593-.659h24.482v2h-24.482a.252.252 0 0 0 -.177.073l-6.4 6.4a3.477 3.477 0 0 1 -2.477 1.027z" transform="translate(12.5 43.75)"/><path d="m10 1h-10v-2h10z" transform="translate(0 43.75)"/><path d="m15 1h-15v-2h15z" transform="translate(65 63.75)"/><path d="m62.5 1h-62.5v-2h62.5z" transform="translate(0 63.75)"/><path d="m18.75 1h-18.75v-2h18.75z" transform="translate(0 53.75)"/><path d="m18.75 1h-18.75v-2h18.75z" transform="translate(61.25 53.75)"/><path d="m1-150.666h-2v-20h2z" transform="translate(40 201.916)"/><path d="m24.293 25.707-25-25 1.414-1.414 25 25z" transform="translate(15 16.25)"/><path d="m-149.666-149.666h-1a20.869 20.869 0 0 1 -8.174-1.651 20.929 20.929 0 0 1 -6.675-4.5 20.929 20.929 0 0 1 -4.5-6.675 20.87 20.87 0 0 1 -1.651-8.174v-1h1a20.87 20.87 0 0 1 8.174 1.651 20.929 20.929 0 0 1 6.675 4.5 20.929 20.929 0 0 1 4.5 6.675 20.869 20.869 0 0 1 1.651 8.174zm-19.973-19.973a18.832 18.832 0 0 0 1.466 6.368 18.938 18.938 0 0 0 4.072 6.04 18.938 18.938 0 0 0 6.04 4.072 18.832 18.832 0 0 0 6.368 1.466 18.832 18.832 0 0 0 -1.466-6.368 18.938 18.938 0 0 0 -4.072-6.04 18.938 18.938 0 0 0 -6.04-4.072 18.832 18.832 0 0 0 -6.368-1.466z" transform="translate(185.666 186.916)"/><path d="m-212.626 25.707-1.414-1.414 25-25 1.414 1.414z" transform="translate(253.333 21.25)"/><path d="m0-149.666h-1v-1a20.87 20.87 0 0 1 1.651-8.174 20.929 20.929 0 0 1 4.5-6.675 20.929 20.929 0 0 1 6.675-4.5 20.87 20.87 0 0 1 8.174-1.651h1v1a20.87 20.87 0 0 1 -1.651 8.174 20.928 20.928 0 0 1 -4.5 6.675 20.928 20.928 0 0 1 -6.675 4.5 20.869 20.869 0 0 1 -8.174 1.651zm18.973-19.973a18.832 18.832 0 0 0 -6.368 1.466 18.938 18.938 0 0 0 -6.04 4.072 18.938 18.938 0 0 0 -4.072 6.04 18.832 18.832 0 0 0 -1.466 6.368 18.832 18.832 0 0 0 6.373-1.466 18.938 18.938 0 0 0 6.04-4.072 18.938 18.938 0 0 0 4.072-6.04 18.832 18.832 0 0 0 1.461-6.368z" transform="translate(45 191.916)"/></g></svg>