<svg xmlns="http://www.w3.org/2000/svg" width="65" height="65" viewBox="0 0 65 65"><g transform="translate(-6.044 -6.003)"><g transform="translate(6.044 6.003)"><path d="M47.537,67.1a18.162,18.162,0,0,1-4.745-.621C32.35,63.682,26.315,52.2,29.36,40.837A22.021,22.021,0,0,1,40.381,26.881l0,0a7.236,7.236,0,0,0,3.19-3.2l.007-.013c.754-1.405,1.691-3.266,2.582-5.037a8.4,8.4,0,0,1,9.683-4.34l1.738.466a8.4,8.4,0,0,1,6.216,8.6l-.325,5.665a7.284,7.284,0,0,0,1.168,4.392A20.643,20.643,0,0,1,67.16,38.9a19.067,19.067,0,0,0-22.1,18.809A18.958,18.958,0,0,0,47.537,67.1Z" transform="translate(-15.948 -9.519)" fill="#2e7d32" fill-rule="evenodd"/><path d="M37.059,65.519a18.4,18.4,0,0,1-10.447,3.274C15.8,68.793,7,59.264,7,47.5a22.017,22.017,0,0,1,7.034-16.333l0,0a7.244,7.244,0,0,0,2.253-3.918l0-.015c.365-1.553.788-3.592,1.19-5.533a8.4,8.4,0,0,1,8.23-6.7h1.8a8.4,8.4,0,0,1,8.23,6.7l1.152,5.556a7.288,7.288,0,0,0,2.265,3.94,21.284,21.284,0,0,1,6.264,10.271,19.063,19.063,0,0,0-8.364,24.053Z" transform="translate(-6.464 -9.958)" fill="#cddc39" fill-rule="evenodd"/><path d="M43.013,72.709a10.612,10.612,0,1,1,1.2-3.747,18.933,18.933,0,0,0-1.2,3.747Z" transform="translate(-13.499 -28.424)" fill="#795548" fill-rule="evenodd"/><circle cx="16.25" cy="16.25" r="16.25" transform="translate(31.915 31.938)" fill="#ffee58"/><path d="M80.058,82.871l.094-.091a1.819,1.819,0,0,0,.317.265l0,.007A.56.56,0,0,1,80.058,82.871Zm.412.181.369-.138a1.9,1.9,0,0,0,.673-1.282s0-.007,0-.01c.092-.874.188-1.971.188-1.971A4.122,4.122,0,0,1,85.838,76a4,4,0,0,1,4.135,3.46l.19,2.174a1.922,1.922,0,0,0,.679,1.291,8.164,8.164,0,0,1,2.849,6.244,7.85,7.85,0,1,1-15.69,0,8.227,8.227,0,0,1,2.836-6.252.56.56,0,0,1-.365.136Zm0-.007-.006-.03.012.033Zm-.006-.03-.143-.39.041-.037C80.409,82.768,80.447,82.941,80.463,83.015Z" transform="translate(-37.68 -36.777)" fill="#388e3c" fill-rule="evenodd"/><path d="M37.987,64.142a18.7,18.7,0,0,1-4.117-.375A18.758,18.758,0,0,1,26.216,65.4C15.11,65.4,6.044,55.631,6.044,43.545A22.579,22.579,0,0,1,13.261,26.8l.005,0a6.685,6.685,0,0,0,2.078-3.615c0-.01,0-.019.006-.029.364-1.549.786-3.583,1.187-5.519a8.965,8.965,0,0,1,8.517-7.141,5.8,5.8,0,0,1,2.1-4.207,1.121,1.121,0,0,1,1.482,1.682,3.716,3.716,0,0,0-1.329,2.523,8.968,8.968,0,0,1,8,5.317l.475-.944a8.965,8.965,0,0,1,10.329-4.63l.759.2a8.255,8.255,0,0,1,3.5-3.2,1.121,1.121,0,1,1,1,2.008A6.136,6.136,0,0,0,49.1,11.131,8.967,8.967,0,0,1,54.48,19.87l-.325,5.666a6.724,6.724,0,0,0,1.078,4.054,21.221,21.221,0,0,1,2.662,5.9,19.06,19.06,0,0,0-2.438-.313,18.866,18.866,0,0,0-2.1-4.363h0a8.963,8.963,0,0,1-1.438-5.407l.325-5.666a6.723,6.723,0,0,0-4.973-6.88L45.531,12.4a6.724,6.724,0,0,0-7.747,3.472c-.533,1.06-1.083,2.152-1.6,3.16l.862,4.158a6.721,6.721,0,0,0,2.091,3.637,21.833,21.833,0,0,1,6.4,10.418,19.028,19.028,0,0,0-2,1.192,19.646,19.646,0,0,0-5.888-9.94h0a8.967,8.967,0,0,1-2.789-4.85L33.7,18.085a6.724,6.724,0,0,0-6.584-5.359h-1.8a6.724,6.724,0,0,0-6.584,5.359c-.4,1.952-.829,4-1.195,5.555a8.928,8.928,0,0,1-2.77,4.817A20.338,20.338,0,0,0,8.285,43.545c0,10.8,8.007,19.612,17.931,19.612a16.764,16.764,0,0,0,9.848-3.221A18.952,18.952,0,0,0,37.987,64.142ZM35.339,51.734a11.206,11.206,0,1,1,2.084-6.51A18.911,18.911,0,0,0,35.339,51.734ZM26.216,36.261a8.966,8.966,0,1,0,8.966,8.966A8.969,8.969,0,0,0,26.216,36.261Zm-5.6,8.966a1.121,1.121,0,0,1-2.241,0,7.848,7.848,0,0,1,7.845-7.845,1.121,1.121,0,0,1,0,2.241A5.606,5.606,0,0,0,20.613,45.226Zm33.621-7.845a16.81,16.81,0,1,1-16.81,16.81A16.819,16.819,0,0,1,54.234,37.382Zm0,2.241A14.569,14.569,0,1,0,68.8,54.192,14.576,14.576,0,0,0,54.234,39.623Zm1.252,5.193a4.459,4.459,0,0,1,3.433,3.822l.19,2.173a1.359,1.359,0,0,0,.483.913,8.723,8.723,0,0,1,3.047,6.671,8.41,8.41,0,1,1-16.81,0,8.787,8.787,0,0,1,3.031-6.677l0,0a1.347,1.347,0,0,0,.479-.9l0-.019c.091-.87.187-1.961.187-1.961A4.625,4.625,0,0,1,53.2,44.783a6.811,6.811,0,0,1,1.9-3.692,1.121,1.121,0,0,1,1.622,1.547,4.768,4.768,0,0,0-1.239,2.178Zm1.39,6.191-.19-2.174a2.311,2.311,0,0,0-2.441-1.925,2.438,2.438,0,0,0-2.481,2.117s-.1,1.107-.188,1.983a3.583,3.583,0,0,1-1.254,2.409,6.547,6.547,0,0,0-2.251,4.978,6.17,6.17,0,1,0,12.328,0,6.485,6.485,0,0,0-2.256-4.962h0a3.6,3.6,0,0,1-1.264-2.425Zm-2.643,10.47a1.121,1.121,0,1,1,0,2.241,5.19,5.19,0,0,1-5.043-5.323,1.121,1.121,0,0,1,2.241,0A2.95,2.95,0,0,0,54.234,61.476Z" transform="translate(-6.044 -6.003)" fill-rule="evenodd"/></g></g></svg>