<svg xmlns="http://www.w3.org/2000/svg" width="80.1" height="76.469" viewBox="0 0 80.1 76.469"><g transform="translate(0 -11.604)"><path d="M101.883,46.364a1.526,1.526,0,0,0-.61,1.238c-.127,2.252-.341,4.472-.268,6.736.094,2.9.684,5.8.591,8.7-.042,1.319-.227,4.407-2.209,4.089-1.914-.308-1.644-3.374-1.628-4.763.038-3.291.668-6.545.657-9.836a12.031,12.031,0,0,0-.709-4c-.489-1.419-.664-2.4-2.33-2.467a40.391,40.391,0,0,1-5.745-.592c-1.375-.257-2.678-.719-4.025-1.071s-2.793-.453-4.12-.945c-3.311-1.227-5.644-4.895-7-7.927-2.318-5.181-2.83-10.445-3.782-15.94-.621-3.586,2.347-2.7,4.687-2.121a36.006,36.006,0,0,1,9.056,3.331c2.806,1.589,5.727,3.14,8.034,5.4a17.393,17.393,0,0,1,3.052,3.584c.61,1.04,1.095,2.154,1.683,3.21.806,1.448.539,3.351,1.522,4.619.523-.289.713-1.009.888-1.551a19.813,19.813,0,0,1,1.123-3.818,35.561,35.561,0,0,1,2.073-3.107,21.522,21.522,0,0,1,5.7-5.178,45.459,45.459,0,0,1,6.715-3.916c2.835-1.248,6.017-2.783,9.141-3.027,1.267-.1,2.2-.283,2.627.981.862,2.565-.584,6.184-1.388,8.623-.937,2.846-1.489,5.8-2.447,8.65-.852,2.531-2.829,4.164-4.98,5.636-3.254,2.227-7.5,3.231-11.312,4.1-1.263.287-2.3.732-3.594.908A3.1,3.1,0,0,0,101.883,46.364Z" transform="translate(-59.573 -4.491)" fill="#7cd15d"/><path d="M42.614,327.147a21.079,21.079,0,0,0-6.625-.048c-3.045.25-6.048.221-9.1.169-5.494-.094-10.947.113-16.43.2-.543.009-2.327-.43-2.8-.1-.906.633-.255,3.8-.192,4.691.4,5.539-.032,11.2.638,16.7.12.982.03,2.461.8,3.2,1.048,1.005,3.383.418,4.749.427,3.1.021,6.183.322,9.283.154,3.462-.187,6.9.25,10.346.128,4.187-.148,8.365-.371,12.555-.2a67.254,67.254,0,0,0,8.543.128c2.715-.234,5.416-.009,8.166-.158,2.58-.139,5.16.069,7.745.031,2.119-.031,4.2-.342,6.315-.45a32.142,32.142,0,0,0,4.207-.246c1.807-.343,1.784-1.97,1.929-3.537.215-2.327.517-4.637.715-6.973.264-3.118.3-6.269.388-9.4.026-.955.606-3.413-.281-4.034-.768-.538-2.887.08-3.755.112-2.669.1-5.364.177-8.035.09-3.973-.13-7.971-.162-11.939-.356-2.781-.136-5.649-.368-8.41-.234a12.266,12.266,0,0,0-3.651.484,3.621,3.621,0,0,1-3.257-.035A7.143,7.143,0,0,0,42.614,327.147Z" transform="translate(-6.058 -265.931)" fill="#ec9b5e"/><g transform="translate(1.057 45.037)"><path d="M43.674,228.568c-1.248-1.879-3.922-3.961-6.261-3.026a5.67,5.67,0,0,0-2.839,3.659c-.531,1.688-.1,3.65-.61,5.231-.533-1.119-1.873-.9-2.778-.374-.767.446-1.248,1.666-2.03,1.86a3.611,3.611,0,0,0-2.3-1.615,4.4,4.4,0,0,0-1.035-.247c-.343,0-.98.416-1.184.383-.91-.151-.537-1.918-.978-2.726-.5-.923-2.015-2.284-3.13-2.268-2.536.036-1.522,3.736-3.925,3.641a3.133,3.133,0,0,0-3.216,2.119c-.367.835-.235,2.224-1,2.606-1.206.6-2.311-.413-3.511.541-1.091.868-3.316,2.6-1.3,3.389,3.755,1.48,7.727.379,11.6.159,2.757-.157,5.384-.478,8.155-.383a87.844,87.844,0,0,0,8.8.3c1.64-.108,3.261-.5,4.909-.592.559-.031,1.665.346,2.159.035,1.012-.638.924-3.959,1-5.007A21.2,21.2,0,0,0,43.674,228.568Z" transform="translate(-6.761 -225.311)" fill="#b46133"/><path d="M263.4,228.876c0,3.177.2,6.251.49,9.4.075.832.081,1.712.194,2.533.16,1.162.235.871,1.294,1.107.86.191,1.313.754,2.188.892,1.185.186,2.435-.336,3.621-.4a101.686,101.686,0,0,1,10.532.2c3.082.152,6.161.273,9.242.382,2.653.094,5.823.553,8.444,0,1.676-.355,2.186-2.174,1.958-3.693-.265-1.765-1.223-2.129-2.832-2.082-.424.013-1.205.117-1.476-.254-.493-.675.38-1.672-.526-2.407-1.619-1.313-2.9.853-4.372.775-1.85-2.574-5.9-2.911-7.276.37-1.513-1.848-3.345-1.242-4.41.7-.373.679-.255,1.034-1.024,1-.488-.019-1.088-.571-1.525-.778-1.357-.644-2.187-.421-3.656-.2-.411-1.546,2.408-2.595,1.337-4.264a2.454,2.454,0,0,0-1.942-1.017c-.932-.048-1.24.719-2.031.776-.361-1.213.515-2.337-.014-3.648a3.845,3.845,0,0,0-1.837-2.219,5.214,5.214,0,0,0-3.173.37,6.209,6.209,0,0,0-1.623.782C264.386,227.654,264.1,228.457,263.4,228.876Z" transform="translate(-223.249 -225.816)" fill="#b46133"/></g><path d="M199.642,334.038c-2.51,1.977-5.645,3.973-6.47,7.23-.637,2.514-.471,6.476.971,8.74a4.228,4.228,0,0,0,2.736,1.91c.919.217,1.865-.158,2.693,0,.992.185,1.766,1.129,2.972,1.307,4.778.705,9.039-4,9.871-8.409.731-3.874-1.909-8.388-5.1-10.481-1.285-.843-2.02-.363-3.429-.118C202.067,334.529,200.945,333.1,199.642,334.038Z" transform="translate(-162.653 -271.716)" fill="#fdd2b9"/><path d="M79.056,55.966a3.626,3.626,0,0,0-2.684-.591l-.131.018a2.989,2.989,0,0,0-.123-1.285c-.739-2.1-3.4-2.085-5.053-1.224a5.452,5.452,0,0,0-1.224.9,4.127,4.127,0,0,0-2.193-2.116,3.64,3.64,0,0,0-3.281.613,5,5,0,0,0-1.17,1.182q-.122.173-.225.356c-.016-.022-.032-.044-.049-.064a3.245,3.245,0,0,0-.976-.757,3.149,3.149,0,0,0-2.561-.036,4.534,4.534,0,0,0-2.455,2.662,1.675,1.675,0,0,0-.267-.3,5.218,5.218,0,0,0-1.485-.763,3.383,3.383,0,0,0-1.209-.2,7.74,7.74,0,0,0,.422-1,3.268,3.268,0,0,0-.286-2.92A2.685,2.685,0,0,0,51.843,49.4a3.5,3.5,0,0,0-.834.119q.02-.151.036-.3a5.6,5.6,0,0,0-.191-2.279,3.593,3.593,0,0,0-3.107-2.7,6.74,6.74,0,0,0-4.162.663A4.681,4.681,0,0,0,41.952,46.3c.015-1.17.018-2.34-.054-3.505a3.821,3.821,0,0,0,.836.025c.92-.077,1.862-.2,2.779-.319a45.308,45.308,0,0,0,5.676-1.091c1.837-.49,3.6-1.218,5.394-1.834a13.738,13.738,0,0,0,7-6.047,34.6,34.6,0,0,0,3.343-9.688,98.24,98.24,0,0,0,1.593-10.19c.169-1.378-.5-2.065-1.871-2.049a22.777,22.777,0,0,0-4.495.446,22.329,22.329,0,0,0-5.071,1.543c-1.567.756-3.14,1.453-4.737,2.144-3.174,1.374-5.646,3.95-8.192,6.212a13.063,13.063,0,0,0-3.134,3.685,14.81,14.81,0,0,0-1.447,4.827c-.094.605-.178,1.2-.252,1.8-.073-.6-.157-1.193-.251-1.8a14.81,14.81,0,0,0-1.447-4.827,13.065,13.065,0,0,0-3.134-3.685c-2.546-2.262-5.018-4.838-8.192-6.212-1.6-.691-3.17-1.388-4.737-2.144a22.329,22.329,0,0,0-5.071-1.543A22.778,22.778,0,0,0,11.99,11.6c-1.374-.016-2.04.671-1.871,2.049a98.286,98.286,0,0,0,1.593,10.19,34.594,34.594,0,0,0,3.343,9.688,13.738,13.738,0,0,0,7,6.047c1.794.616,3.557,1.344,5.394,1.834A45.275,45.275,0,0,0,33.123,42.5c.916.123,1.859.242,2.779.319a3.827,3.827,0,0,0,.919-.037c.038.166.07.314.1.421a13.431,13.431,0,0,1,.339,2.521c.015.258.033.517.049.776a4.745,4.745,0,0,0-1.291-1.229,5.838,5.838,0,0,0-4.507-.768,4.865,4.865,0,0,0-3.168,3.082,11.052,11.052,0,0,0-.677,2.642c-.068.48-.13.964-.176,1.446-.015.159-.023.318-.03.477a3,3,0,0,0-.871-.107,3.9,3.9,0,0,0-1.911.651,5.925,5.925,0,0,0-1.4,1.347,3.857,3.857,0,0,0-.336.506c-.085-.132-.159-.242-.186-.273A3.652,3.652,0,0,0,21.6,53.4a3.787,3.787,0,0,0-1.342-.319,3.859,3.859,0,0,0-.989.074,6.184,6.184,0,0,0-.1-1.208,6.506,6.506,0,0,0-.654-1.724A3.919,3.919,0,0,0,15.789,48.1a3.554,3.554,0,0,0-3.182,1.184,4.556,4.556,0,0,0-.933,1.654,5.5,5.5,0,0,0-.206.954c-.005.037-.01.074-.015.111a3.368,3.368,0,0,0-.53-.111,4.083,4.083,0,0,0-1.4.16A4.513,4.513,0,0,0,7.363,53.4a4.746,4.746,0,0,0-1.007,2.42,3.966,3.966,0,0,0-.073,1.016c-.183,0-.357.013-.405.012-1.872-.04-3.961.2-5.23,1.744a2.58,2.58,0,0,0-.315,2.97c-.042.413-.141.832-.148,1.243-.025,1.354.081,2.707.178,4.056.178,2.464-.122,4.909.1,7.361.109,1.2.332,2.387.366,3.588C.865,79.071.793,80.337.815,81.6c.035,1.981,0,4.639,2.108,5.556a12.271,12.271,0,0,0,6.784.4c2.618-.42,5.186.091,7.813.116,2.523.024,5.037.124,7.559.161,1.278.019,2.56.017,3.837.065,1.311.049,2.616.188,3.929.172,2.87-.035,5.758-.305,8.627-.43,2.9-.126,5.794-.081,8.692-.283a1.145,1.145,0,0,0,.414-.105c4.186.04,8.349.325,12.53.572a62.357,62.357,0,0,0,6.715,0c2-.1,4.292.2,6.126-.81,1.855-1.021,2.333-3.366,2.635-5.273a21.089,21.089,0,0,0,.354-3.317c0-1.187-.094-2.371-.082-3.562.023-2.437.107-4.885.254-7.318.127-2.1.344-4.2.437-6.3a5.81,5.81,0,0,0,.548-2.652A3.04,3.04,0,0,0,79.056,55.966Zm-35.17,7.312a4.066,4.066,0,0,0-.146-.427c.424.271.787.6,1.214.881a8.2,8.2,0,0,1,2.659,2.946,11.732,11.732,0,0,1,.834,8.121,7.237,7.237,0,0,1-4.759,5.532,16.1,16.1,0,0,1-2.144.268,6.929,6.929,0,0,1-1.946-.041c-.325-.052-.668-.1-1.009-.156a5.774,5.774,0,0,0,1.017-.72A4.032,4.032,0,0,0,40.941,77.7a4.509,4.509,0,0,0-.455-2.764c-.615-1.537-1.742-3.683-1.079-5.364.385-.977,1.606-1.439,2.442-1.959a5.387,5.387,0,0,0,1.932-1.786A3.08,3.08,0,0,0,43.886,63.279Zm-1.665,1.913c-.9,1.239-2.656,1.49-3.68,2.579-2.3,2.448-.39,5.8.5,8.375a1.727,1.727,0,0,1-.4,2.043,3.746,3.746,0,0,1-1.834,1.105,4.935,4.935,0,0,1-4.262-1.27,6.969,6.969,0,0,1-1.9-4.31,9.876,9.876,0,0,1,.232-2.481,10.717,10.717,0,0,1,.665-2.327,11.232,11.232,0,0,1,3.579-3.749,15.5,15.5,0,0,0,2.077-1.8c.248-.275.49-.559.724-.847.009.012.016.025.025.037a2.815,2.815,0,0,0,2.7.841,2.777,2.777,0,0,0,1.184-.535C42.31,63.62,42.78,64.425,42.221,65.192ZM40.565,35.535a40.6,40.6,0,0,1,.778-5.212,11.535,11.535,0,0,1,1.87-4.589,24.2,24.2,0,0,1,3.522-3.365,27.888,27.888,0,0,1,7.231-5.115c1.383-.637,2.734-1.3,4.09-1.991a21.622,21.622,0,0,1,4.293-1.392,20.127,20.127,0,0,1,4.131-.6,4.039,4.039,0,0,0,.48-.033.391.391,0,0,1,0,.136c-.039.205-.04.431-.067.64-.1.74-.193,1.48-.312,2.217-.485,3.006-1.153,5.941-1.919,8.883a24.871,24.871,0,0,1-3.33,8.06,11.9,11.9,0,0,1-2.914,2.952,12.06,12.06,0,0,1-1.787,1.135c-.582.255-1.209.436-1.8.669A38.057,38.057,0,0,1,50.6,39.287a44.18,44.18,0,0,1-4.372.838c-.737.117-1.449.217-2.193.279-.313.026-.643.1-.972.143.019-.033.036-.069.056-.1.332-.539.583-1.122.914-1.66.3-.481.714-.869,1.015-1.348l.065-.105a10.751,10.751,0,0,0,3.759.113,20.654,20.654,0,0,0,2.591-.251c.43-.075.863-.162,1.289-.263.395-.094.746-.3,1.133-.4.149-.036.081-.242-.061-.223-.746.1-1.568-.034-2.323-.008-.735.025-1.465,0-2.2-.017-.766-.023-1.535,0-2.3-.059a10.031,10.031,0,0,1-1.124-.1c.055-.079.108-.158.167-.237.595-.79,1.154-1.612,1.75-2.4.63.164,1.317.164,1.952.276.8.142,1.628.212,2.44.306a13.316,13.316,0,0,0,2.466.12,9.1,9.1,0,0,1,2.168-.111c.333.059.479-.424.142-.515a25.349,25.349,0,0,0-3.434-.463c-1.492-.19-2.965-.485-4.451-.69-.116-.016-.254-.022-.394-.032.842-1,1.707-1.959,2.511-2.991.081-.1.166-.205.25-.306a8.171,8.171,0,0,0,1.128.266c.638.152,1.272.351,1.9.533.672.194,1.341.43,2.026.574a5.92,5.92,0,0,0,1.647.228.245.245,0,0,0,.229-.174l.027-.1a.213.213,0,0,0-.323-.235c-.353-.128-.708-.331-1.061-.458-.569-.2-1.135-.413-1.7-.631-.974-.376-1.983-.647-2.961-1,.538-.547,1.093-1.078,1.6-1.658q.24-.272.484-.538c.294.139.617.234.91.35.7.278,1.394.557,2.117.77,1.064.313,2.584,1.083,3.682.751a.13.13,0,0,0,.057-.216,11,11,0,0,0-2.576-1.293c-.973-.422-1.949-.8-2.906-1.261-.107-.052-.206-.1-.3-.138.437-.44.888-.867,1.361-1.282q.571-.5,1.125-1.007a6.653,6.653,0,0,0,1.381.368c1.059.263,2.087.628,3.148.883.334.08.563-.4.24-.569a22.139,22.139,0,0,0-2.255-1.02,15.015,15.015,0,0,1-1.624-.495c.582-.56,1.145-1.136,1.684-1.736.3.144.648.217.965.379.585.3,1.188.467,1.776.741.088.041.227-.054.152-.152A5.763,5.763,0,0,0,61.4,19.379c-.092-.043-.179-.086-.258-.133.345-.415.679-.842,1-1.286.129-.18-.169-.351-.3-.173a6.287,6.287,0,0,1-1.017,1.084.745.745,0,0,1-.031-.166c-.016-.222.1-.505.1-.735a7.573,7.573,0,0,1-.095-1.524.344.344,0,0,0-.626-.264,2.866,2.866,0,0,0-.322,1.663c-.024.558-.241,1.139.069,1.654.012.021.026.039.039.058-.451.337-.909.665-1.331,1.018-.1.084-.2.165-.3.247a4.012,4.012,0,0,0-.01-.507,5.171,5.171,0,0,1-.031-1.163,3.639,3.639,0,0,0-.076-1.695.4.4,0,0,0-.542-.142c-.661.362-.611,1.48-.635,2.135a7.29,7.29,0,0,0,.205,2.241c-.585.456-1.174.908-1.754,1.374-.251.2-.492.41-.728.623-.042-.454-.08-.906-.093-1.365s-.09-.914-.146-1.381a4.054,4.054,0,0,1-.164-1.009.41.41,0,0,0-.595-.457c-.856.4-.512,1.8-.5,2.529.017.762.051,1.482.133,2.241a3.04,3.04,0,0,0,.128.627c-.389.391-.775.786-1.172,1.176-.185.182-.37.361-.554.54.016-.46.03-.92.035-1.38.011-1.065-.327-2.059-.357-3.106a.335.335,0,0,0-.656-.089c-.071.259-.23.466-.283.73a4.6,4.6,0,0,0,.015,1.053c.02.658-.052,1.321-.067,1.979a9.551,9.551,0,0,0,.018,2.106c-.284.3-.563.6-.834.925-.583.693-1.214,1.342-1.827,2.008-.043-.55-.082-1.1-.077-1.653.012-1.236.524-3.084-.163-4.172a.3.3,0,0,0-.515,0,5.311,5.311,0,0,0-.489,2.315,17.879,17.879,0,0,0-.145,2.786,15.062,15.062,0,0,0,.148,2.167q-.863,1.06-1.7,2.142c0-.168.008-.325.005-.454q-.022-1.222.025-2.444c.028-.724.037-1.442.017-2.166a10.956,10.956,0,0,0-.2-1.576.338.338,0,0,0-.232-.476l-.081-.014a.414.414,0,0,0-.45.183,4.517,4.517,0,0,0-.324,2.195c-.035.928-.131,1.853-.157,2.782A10.112,10.112,0,0,0,43.727,36a7.74,7.74,0,0,1-.458.662A12.954,12.954,0,0,0,42.2,38.02c-.334.553-.669,1.1-1.011,1.646l-.1.163A5.485,5.485,0,0,1,40.4,37.4a.836.836,0,0,0-.015-.086C40.449,36.721,40.527,36.131,40.565,35.535Zm-1.247,5.01a3.365,3.365,0,0,0,.925,1.527,2.766,2.766,0,0,0,.767.481c-.121.644-.25,1.288-.329,1.943-.126,1.045-.1,2.1-.229,3.139a49.519,49.519,0,0,0,0,6.685c.014,1.043.09,2.068.121,3.108s.221,2.028.285,3.05c.015.235.13.836.008,1.04-.182.3-.885.288-1.165.227-.478-.1-.43-.162-.531-.573-.019-.078-.034-.154-.052-.23a27.216,27.216,0,0,0,.34-5,57.715,57.715,0,0,0-.187-6.264,57.014,57.014,0,0,0-.581-5.817,9.277,9.277,0,0,0-.481-1.645c.063-.047.126-.093.185-.146A3.362,3.362,0,0,0,39.317,40.545Zm-2.881-2.525a12.975,12.975,0,0,0-1.07-1.361A7.738,7.738,0,0,1,34.908,36a10.113,10.113,0,0,0,.226-3.568c-.025-.929-.122-1.853-.157-2.782a4.516,4.516,0,0,0-.324-2.195.414.414,0,0,0-.45-.183l-.081.014a.338.338,0,0,0-.232.476,10.954,10.954,0,0,0-.2,1.576c-.02.724-.011,1.442.017,2.166q.046,1.221.025,2.444c0,.13,0,.286.005.454-.561-.719-1.127-1.436-1.7-2.142a15.106,15.106,0,0,0,.148-2.167,17.9,17.9,0,0,0-.145-2.786,5.313,5.313,0,0,0-.489-2.315.3.3,0,0,0-.515,0c-.687,1.087-.175,2.935-.163,4.172.005.554-.034,1.1-.077,1.653-.612-.665-1.244-1.315-1.827-2.008-.271-.322-.55-.628-.834-.925a9.551,9.551,0,0,0,.018-2.106c-.015-.658-.087-1.32-.067-1.979a4.6,4.6,0,0,0,.015-1.053c-.053-.264-.212-.471-.283-.73a.335.335,0,0,0-.656.089c-.029,1.047-.367,2.041-.357,3.106,0,.46.019.92.035,1.38-.184-.179-.368-.358-.554-.54-.4-.39-.783-.786-1.172-1.176a3.038,3.038,0,0,0,.128-.627c.081-.759.115-1.479.133-2.241.017-.731.361-2.128-.5-2.529a.41.41,0,0,0-.595.457,4.061,4.061,0,0,1-.164,1.009c-.056.467-.133.909-.146,1.381s-.051.91-.093,1.365c-.236-.213-.477-.422-.728-.623-.58-.466-1.168-.917-1.754-1.374A7.285,7.285,0,0,0,21.6,19.45c-.025-.656.026-1.773-.635-2.135a.4.4,0,0,0-.542.142,3.64,3.64,0,0,0-.076,1.695,5.17,5.17,0,0,1-.031,1.163,4.013,4.013,0,0,0-.01.507c-.1-.083-.2-.163-.3-.247-.422-.354-.88-.681-1.331-1.018.013-.019.027-.038.039-.058.31-.515.093-1.1.069-1.654a2.866,2.866,0,0,0-.322-1.663.344.344,0,0,0-.626.264,7.572,7.572,0,0,1-.095,1.524c.006.23.118.514.1.735a.756.756,0,0,1-.031.166,6.288,6.288,0,0,1-1.017-1.084c-.128-.178-.425-.007-.3.173.318.444.652.871,1,1.286-.079.047-.166.089-.258.133a5.764,5.764,0,0,0-1.989,1.584c-.075.1.064.193.152.152.588-.274,1.19-.443,1.776-.741.317-.161.662-.235.965-.379.539.6,1.1,1.175,1.684,1.736a15.016,15.016,0,0,1-1.624.495,22.14,22.14,0,0,0-2.255,1.02c-.323.165-.094.65.24.569,1.061-.255,2.089-.62,3.148-.883a6.656,6.656,0,0,0,1.381-.368q.555.507,1.125,1.007c.473.414.924.842,1.361,1.282-.091.042-.19.086-.3.138-.957.465-1.932.839-2.906,1.261a10.992,10.992,0,0,0-2.576,1.293.13.13,0,0,0,.057.216c1.1.332,2.618-.438,3.682-.751.723-.213,1.418-.491,2.117-.77.292-.117.615-.211.91-.35q.243.266.484.538c.512.58,1.067,1.11,1.6,1.658-.978.35-1.987.622-2.961,1-.564.218-1.13.426-1.7.631-.353.127-.708.329-1.061.458a.213.213,0,0,0-.323.235l.027.1a.245.245,0,0,0,.229.174,5.909,5.909,0,0,0,1.647-.228c.685-.144,1.355-.38,2.026-.574.63-.182,1.263-.382,1.9-.533a8.182,8.182,0,0,0,1.128-.266c.085.1.169.2.25.306.8,1.032,1.668,2,2.511,2.991-.14.011-.278.016-.394.032-1.486.206-2.959.5-4.451.69a25.327,25.327,0,0,0-3.434.463c-.337.091-.191.574.142.515a9.1,9.1,0,0,1,2.168.111,13.317,13.317,0,0,0,2.466-.12c.812-.094,1.635-.163,2.44-.306.634-.112,1.322-.112,1.952-.276.6.792,1.155,1.614,1.75,2.4.059.078.112.158.167.237a10.063,10.063,0,0,1-1.124.1c-.765.058-1.533.036-2.3.059-.734.022-1.464.042-2.2.017-.755-.026-1.578.109-2.323.008-.142-.019-.211.187-.061.223.387.093.738.3,1.133.4.425.1.858.187,1.289.263a20.654,20.654,0,0,0,2.591.251,10.751,10.751,0,0,0,3.759-.113l.065.105c.3.479.719.866,1.015,1.348.331.538.582,1.121.914,1.66.02.033.037.067.056.1-.33-.047-.66-.117-.972-.143-.744-.062-1.457-.163-2.193-.279a44.235,44.235,0,0,1-4.372-.838,38.032,38.032,0,0,1-4.228-1.359c-.593-.233-1.22-.415-1.8-.669a12.073,12.073,0,0,1-1.787-1.135A11.908,11.908,0,0,1,17.3,33.171a24.87,24.87,0,0,1-3.33-8.06c-.767-2.942-1.435-5.878-1.919-8.883-.119-.737-.216-1.477-.312-2.217-.027-.209-.028-.435-.067-.64a.391.391,0,0,1,0-.136,4.041,4.041,0,0,0,.48.033,20.116,20.116,0,0,1,4.131.6,21.622,21.622,0,0,1,4.293,1.392c1.356.691,2.707,1.354,4.09,1.991A27.892,27.892,0,0,1,31.9,22.369a24.2,24.2,0,0,1,3.522,3.365,11.535,11.535,0,0,1,1.87,4.589,40.568,40.568,0,0,1,.778,5.212c.038.6.116,1.186.18,1.778a.835.835,0,0,0-.015.086,5.488,5.488,0,0,1-.684,2.43l-.1-.163C37.105,39.119,36.77,38.573,36.436,38.021ZM2.983,59.377A7.41,7.41,0,0,1,6.3,58.942c1.017,0,2.035-.268,2.138-1.467.041-.473-.159-.916-.123-1.393a3,3,0,0,1,.361-1.252A2.626,2.626,0,0,1,11.4,53.765c1.088.149,1.758-.144,1.779-1.288A2.739,2.739,0,0,1,14.7,49.895a1.906,1.906,0,0,1,2.274,1.1,8.653,8.653,0,0,1,.738,3.315c.074.472.61.628,1,.57.973-.142,1.87-.509,2.751.19.572.455.749,1.2,1.482,1.451a.716.716,0,0,0,.864-.49,3.006,3.006,0,0,1,2.129-1.7c.884-.189,1.538.5,2.4.416,1.1-.1,1.5-1.044,1.434-2.032a15.116,15.116,0,0,1,.013-3.065c.259-1.954,1.153-3.668,3.352-3.614a4.741,4.741,0,0,1,4.338,3.307s0,.009.007.013c.036.563.073,1.125.105,1.688.1,1.775.107,3.572.041,5.348-.033.869-.061,1.741-.153,2.605a6.629,6.629,0,0,0-.009,1.142c-.509-.057-1.041-.039-1.483-.045-1-.014-2.017-.07-3.014-.173a37.36,37.36,0,0,0-6.713.359c-2.437.191-4.927-.079-7.374-.029-2.386.049-4.784.26-7.156.509a39.707,39.707,0,0,1-7.438.528,3.865,3.865,0,0,1-1.935-.454C1.665,60.325,2.443,59.648,2.983,59.377Zm74.089,6.576c-.214,2.083-.33,4.129-.353,6.221-.011.992-.128,1.976-.14,2.968-.013,1.1.061,2.187.054,3.281a20.466,20.466,0,0,1-.361,3.143,6.809,6.809,0,0,1-.949,2.949,3.391,3.391,0,0,1-2.4.922c-1.028.135-2.065.028-3.1.081a54.319,54.319,0,0,1-6.239.044c-2.19-.141-4.408-.3-6.6-.35-2.116-.052-4.214-.072-6.335-.045-.7.009-1.4.045-2.095.093q-6.678-.075-13.331.466c-2.528.206-5.024.081-7.553.127-2.554.046-5.1-.057-7.655-.019-1.143.017-2.288.088-3.431.032-1.347-.066-2.678-.3-4.02-.419-2.39-.2-4.737.492-7.125.119-.678-.106-1.855-.2-2.1-.928a12.181,12.181,0,0,1-.359-3.63c-.015-1.067.026-2.136-.016-3.2-.051-1.306-.309-2.6-.437-3.9-.258-2.63.057-5.242-.377-7.874-.182-1.1-.324-2.222-.457-3.336a10.222,10.222,0,0,0,4.146.479c2.188-.061,4.316-.538,6.488-.678,2.086-.134,4.153-.409,6.247-.467,2.175-.061,4.319.167,6.488.23,1.181.034,2.33-.183,3.505-.176,1.1.006,2.191-.089,3.293-.088a23.251,23.251,0,0,1,2.993.174,8.221,8.221,0,0,0,1.336.049c-.692.462-1.372.943-2.066,1.4a18.319,18.319,0,0,0-2.314,1.732,13.485,13.485,0,0,0-1.7,2.121,6.4,6.4,0,0,0-.833,2.4A13.721,13.721,0,0,0,28.878,73a8.648,8.648,0,0,0,1.676,5.26A6.919,6.919,0,0,0,32.247,80a7.233,7.233,0,0,0,2.639.918,6.205,6.205,0,0,0,1.893.075,2.666,2.666,0,0,0,.374.318,6.591,6.591,0,0,0,1.719.77,10.919,10.919,0,0,0,3.738.288A7.993,7.993,0,0,0,48.72,79a8.4,8.4,0,0,0,1.573-3.277c.235-1.356.43-2.679.534-4.056a11.41,11.41,0,0,0-2.3-7.259,10.1,10.1,0,0,0-1.657-1.7c1.012.013,2.01.068,3.029.141,2.5.181,5.03.152,7.539.218,2.6.068,5.179-.061,7.777-.052,2.68.009,5.356.252,8.035.238a14.346,14.346,0,0,0,4.1-.375C77.168,63.905,77.178,64.922,77.072,65.954Zm1.139-7.126c-.065.83-.21,1.649-1.049,2.019a8.94,8.94,0,0,1-2.988.365c-1.135.052-2.27,0-3.4-.051-4.553-.206-9.088-.028-13.639-.137-2.459-.059-4.932-.059-7.384-.229-1.207-.084-2.387-.135-3.6-.108-.723.016-1.449,0-2.174-.01a3.074,3.074,0,0,0-1.455-.312c-.07-.882-.231-1.764-.28-2.642-.148-2.692-.255-5.388-.306-8.09-.008-.422-.008-.845-.006-1.268,1.277-1.617,3.085-2.835,5.245-2.5a2.706,2.706,0,0,1,1.408.487,2.564,2.564,0,0,1,.606,1.272,4.23,4.23,0,0,1,0,1.758c-.113.607-.459,1.155-.549,1.748-.107.707.631,1.584,1.372,1.055a3.173,3.173,0,0,1,1.834-.871.7.7,0,0,1,.8.727,3.629,3.629,0,0,1-.662,1.846,7.428,7.428,0,0,0-.934,1.571,1.008,1.008,0,0,0,1.225,1.225c.493-.1.932-.383,1.427-.5a2.057,2.057,0,0,1,1.46.285c.772.4,1.014,1.22,1.885,1.516a.914.914,0,0,0,1.028-.418c.5-1.049.725-2.389,1.9-2.939a1.383,1.383,0,0,1,1.693.236c.4.428.576.925,1.106,1.237a.842.842,0,0,0,1.011-.13c.492-.62.555-1.384,1.135-1.976a2.078,2.078,0,0,1,2.508-.61c1.036.66,1.34,3.667,3.11,2.227a5.627,5.627,0,0,1,1.965-1.35c.688-.2,1.756-.228,1.916.666.141.786-.452,1.534.3,2.175s1.546.019,2.375.084C78.127,57.269,78.284,57.9,78.212,58.828Z" transform="translate(0 0)"/></g></svg>