<svg height="249" viewBox="0 0 295 249" width="295" xmlns="http://www.w3.org/2000/svg" xmlns:xlink="http://www.w3.org/1999/xlink"><clipPath id="a"><path d="m0-682.665h86.669v86.665h-86.669z" transform="translate(0 682.665)"/></clipPath><path d="m-0 0h295v249h-295z" fill="#d2e8e4"/><circle cx="148" cy="104" fill="#aed139" r="63"/><path d="m526.4-261.449h5.247v-20.309h-5.247z" fill="#fd8087" transform="translate(-354.574 393.656)"/><path d="m414.243-261.449h5.247v-20.309h-5.247z" fill="#f2fbff" transform="translate(-256.652 393.656)"/><g clip-path="url(#a)" transform="translate(105 61)"><path d="m-201.457-62.642a1.405 1.405 0 0 1 -1.381-1.176 9.7 9.7 0 0 0 -9.641-7.933 9.7 9.7 0 0 0 -9.641 7.933 1.405 1.405 0 0 1 -1.381 1.176h-3.337a3.914 3.914 0 0 0 -3.913 3.913 3.914 3.914 0 0 0 3.913 3.914h76.3a3.914 3.914 0 0 0 3.914-3.913 3.914 3.914 0 0 0 -3.914-3.914z" fill="#e8ad8c" transform="translate(232.023 131.581)"/><path d="m-48.84-54.555a1.406 1.406 0 0 0 1.381 1.176h5.078a1.406 1.406 0 0 1 -1.381-1.176 9.7 9.7 0 0 0 -9.638-7.933 10.039 10.039 0 0 0 -2.539.326 9.626 9.626 0 0 1 7.1 7.608" fill="#e19a74" transform="translate(72.946 122.317)"/><path d="m-34.922 0h-5.078a3.914 3.914 0 0 1 3.913 3.914 3.914 3.914 0 0 1 -3.913 3.913h5.078a3.914 3.914 0 0 0 3.913-3.913 3.914 3.914 0 0 0 -3.913-3.914" fill="#e19a74" transform="translate(116.407 68.938)"/><path d="m-207.649 0h-23.611a1.63 1.63 0 0 0 -1.24.574l-4.956 5.826a1.63 1.63 0 0 0 -.388 1.056v33.7a1.629 1.629 0 0 0 1.629 1.629h33.522a1.629 1.629 0 0 0 1.629-1.629v-33.703a1.63 1.63 0 0 0 -.388-1.056l-4.956-5.823a1.63 1.63 0 0 0 -1.241-.574" fill="#2ed1e1" transform="translate(281.789 9.903)"/><path d="m-75.2-43.991-4.955-5.824a1.629 1.629 0 0 0 -1.241-.574h-4.74a1.629 1.629 0 0 1 1.241.574l4.955 5.824a1.629 1.629 0 0 1 .388 1.056v33.7a1.629 1.629 0 0 1 -1.63 1.635h4.74a1.629 1.629 0 0 0 1.629-1.629v-33.7a1.63 1.63 0 0 0 -.388-1.056" fill="#03bed7" transform="translate(155.537 60.291)"/><path d="m-149.937-74.567a.5.5 0 0 0 .494-.533 11.183 11.183 0 0 0 -11.148-10.31 11.183 11.183 0 0 0 -11.148 10.31.5.5 0 0 0 .494.533z" fill="#ffe177" transform="translate(222.926 101.72)"/><path d="m-5.176-61.278c5.219 4.557 11.509.3 12.244-6.589a1.275 1.275 0 0 0 -.723-1.295c-4.813-2.219-13.6-1.231-12.105 6.836a1.828 1.828 0 0 0 .584 1.048" fill="#68ca44" transform="translate(30.33 107.03)"/><path d="m-86.723-59.009c-5.285 5.082-11.852.794-12.6-6.259a1.275 1.275 0 0 1 .723-1.295c4.912-2.265 13.963-1.189 12 7.345a.426.426 0 0 1 -.118.209" fill="#68ca44" transform="translate(101.014 97.12)"/><path d="m-.565-58.386a8.017 8.017 0 0 1 -5.269-2.139 2.838 2.838 0 0 1 -.91-1.619 9.143 9.143 0 0 1 -.014-3.59 6.293 6.293 0 0 1 1.31-2.728c1.463-1.758 3.907-2.727 6.882-2.727a12.989 12.989 0 0 1 5.329 1.119 2.271 2.271 0 0 1 1.3 2.309c-.57 5.344-4.279 9.375-8.628 9.375zm2-10.8a6.866 6.866 0 0 0 -5.344 2.006 5.473 5.473 0 0 0 -.868 4.675.831.831 0 0 0 .259.477 5.976 5.976 0 0 0 3.953 1.642 5.859 5.859 0 0 0 4.293-2.072 9.733 9.733 0 0 0 2.345-5.515.276.276 0 0 0 -.147-.281 11.108 11.108 0 0 0 -4.491-.935z" transform="translate(30.33 107.03)"/><path d="m-91.693-55.786c-4.349 0-8.058-4.031-8.627-9.376a2.27 2.27 0 0 1 1.3-2.309 12.989 12.989 0 0 1 5.328-1.119 11.151 11.151 0 0 1 3.834.642 7.045 7.045 0 0 1 3.132 2.187 6.366 6.366 0 0 1 1.283 2.918 9.782 9.782 0 0 1 -.185 3.849 1.42 1.42 0 0 1 -.4.706 8.182 8.182 0 0 1 -5.665 2.502zm-2-10.8a11.108 11.108 0 0 0 -4.491.935.275.275 0 0 0 -.147.28 9.732 9.732 0 0 0 2.345 5.515 5.859 5.859 0 0 0 4.293 2.072 6.16 6.16 0 0 0 4.152-1.825 5.683 5.683 0 0 0 -.752-4.9 6.791 6.791 0 0 0 -5.401-2.081z" transform="translate(101.014 97.12)"/><path d="m0-110.738a1 1 0 0 1 -1-1v-16.249a1 1 0 0 1 1-1 1 1 0 0 1 1 1v16.249a1 1 0 0 1 -1 1z" transform="translate(66.83 180.676)"/><path d="m0-110.738a1 1 0 0 1 -1-1v-16.249a1 1 0 0 1 1-1 1 1 0 0 1 1 1v16.249a1 1 0 0 1 -1 1z" transform="translate(72.077 180.676)"/><path d="m0-110.738a1 1 0 0 1 -1-1v-16.249a1 1 0 0 1 1-1 1 1 0 0 1 1 1v16.249a1 1 0 0 1 -1 1z" transform="translate(52.59 180.676)"/><path d="m0-110.738a1 1 0 0 1 -1-1v-16.249a1 1 0 0 1 1-1 1 1 0 0 1 1 1v16.249a1 1 0 0 1 -1 1z" transform="translate(57.838 180.676)"/><path d="m-91.857 12.245a1 1 0 0 1 -1-1 8.085 8.085 0 0 1 1-3.9 8.085 8.085 0 0 1 2.761-2.926l8.364-5.269a1 1 0 0 1 1.379.313 1 1 0 0 1 -.309 1.383l-8.364 5.269a6.032 6.032 0 0 0 -2.831 5.13 1 1 0 0 1 -1 1z" transform="translate(111.4 41.161)"/><path d="m11.663 26.979a1 1 0 0 1 -1-1v-14.9a5.6 5.6 0 0 0 -2.6-4.746l-8.601-5.49a1 1 0 0 1 -.305-1.381 1 1 0 0 1 1.381-.305l8.6 5.486a7.6 7.6 0 0 1 3.526 6.432v14.9a1 1 0 0 1 -1.001 1.004z" transform="translate(7.88 33.85)"/><path d="m-138.733-115.47h-52.419a1 1 0 0 1 -1-1 1 1 0 0 1 1-1h52.419a2.917 2.917 0 0 0 2.913-2.913 2.917 2.917 0 0 0 -2.913-2.914h-50.92a2.4 2.4 0 0 1 -2.367-2.007 8.465 8.465 0 0 0 -2.948-5.056 8.935 8.935 0 0 0 -5.708-2.047 8.936 8.936 0 0 0 -5.708 2.047 8.465 8.465 0 0 0 -2.948 5.056 2.4 2.4 0 0 1 -2.368 2.004h-3.337a2.917 2.917 0 0 0 -2.914 2.914 2.917 2.917 0 0 0 2.914 2.913h17.955a1 1 0 0 1 1 1 1 1 0 0 1 -1 1h-17.955a4.919 4.919 0 0 1 -4.914-4.913 4.919 4.919 0 0 1 4.914-4.914h3.337a.407.407 0 0 0 .4-.346 10.466 10.466 0 0 1 3.64-6.254 10.94 10.94 0 0 1 6.987-2.51 10.939 10.939 0 0 1 6.987 2.51 10.466 10.466 0 0 1 3.64 6.254.407.407 0 0 0 .4.346h50.92a4.919 4.919 0 0 1 4.913 4.914 4.919 4.919 0 0 1 -4.92 4.916z" transform="translate(220.218 193.235)"/><path d="m-20.23-34.041a1 1 0 0 1 -.867-.5l-2.942-5.1a1 1 0 0 1 .366-1.359 1 1 0 0 1 1.366.366l2.942 5.1a1 1 0 0 1 -.366 1.366 1 1 0 0 1 -.499.127z" transform="translate(82.565 62.195)"/><path d="m-149.937-73.567h-21.308a1.5 1.5 0 0 1 -1.1-.48 1.5 1.5 0 0 1 -.394-1.131 12.144 12.144 0 0 1 3.851-7.973 12.139 12.139 0 0 1 8.294-3.26 12.138 12.138 0 0 1 8.293 3.26 12.144 12.144 0 0 1 3.851 7.973 1.5 1.5 0 0 1 -.394 1.131 1.5 1.5 0 0 1 -1.093.48zm-20.748-2h20.185a10.15 10.15 0 0 0 -3.163-6.119 10.145 10.145 0 0 0 -6.931-2.724 10.145 10.145 0 0 0 -6.931 2.724 10.15 10.15 0 0 0 -3.16 6.119z" transform="translate(222.926 101.72)"/><path d="m-254.556-55.814h-33.522a2.632 2.632 0 0 1 -2.629-2.629v-33.7a2.632 2.632 0 0 1 .627-1.7l4.955-5.824a2.625 2.625 0 0 1 2-.925h23.612a2.625 2.625 0 0 1 2 .926l4.955 5.823a2.631 2.631 0 0 1 .627 1.7v5.192a1 1 0 0 1 -1 1 1 1 0 0 1 -1-1v-5.192a.629.629 0 0 0 -.15-.408l-4.955-5.824a.628.628 0 0 0 -.479-.222h-23.612a.628.628 0 0 0 -.479.221l-4.955 5.824a.63.63 0 0 0 -.15.408v33.7a.63.63 0 0 0 .629.629h33.522a.63.63 0 0 0 .629-.629v-22.586a1 1 0 0 1 1-1 1 1 0 0 1 1 1v22.587a2.632 2.632 0 0 1 -2.625 2.629z" transform="translate(333.651 109.503)"/><path d="m0 12.792a1 1 0 0 1 -1-1v-11.792a1 1 0 0 1 1-1 1 1 0 0 1 1 1v11.792a1 1 0 0 1 -1 1z" transform="translate(64.105 34.025)"/><path d="m0 12.792a1 1 0 0 1 -1-1v-11.792a1 1 0 0 1 1-1 1 1 0 0 1 1 1v11.792a1 1 0 0 1 -1 1z" transform="translate(70.85 34.025)"/><path d="m6.745 1h-6.745a1 1 0 0 1 -1-1 1 1 0 0 1 1-1h6.745a1 1 0 0 1 1 1 1 1 0 0 1 -1 1z" transform="translate(64.105 39.719)"/><path d="m0-59.991a1 1 0 0 1 -1-1v-8.869a1 1 0 0 1 1-1 1 1 0 0 1 1 1v8.869a1 1 0 0 1 -1 1z" transform="translate(53.818 106.808)"/><path d="m-40.209-22.467a3.73 3.73 0 0 1 3.725 3.725 3.73 3.73 0 0 1 -3.725 3.725 3.73 3.73 0 0 1 -3.725-3.725 3.73 3.73 0 0 1 3.725-3.725zm0 5.451a1.727 1.727 0 0 0 1.725-1.725 1.727 1.727 0 0 0 -1.725-1.725 1.727 1.727 0 0 0 -1.725 1.725 1.727 1.727 0 0 0 1.725 1.725z" transform="translate(96.753 58.415)"/></g></svg>