<svg height="62.256" viewBox="0 0 85 62.256" width="85" xmlns="http://www.w3.org/2000/svg"><path d="m7.5 76h27.5v59.766h-27.5z" fill="#80d261" transform="translate(-6.255 -74.755)"/><path d="m173.167 76h27.5v59.766h-27.5z" fill="#f1eef0" transform="translate(-144.419 -74.755)"/><path d="m338.833 76h27.5v59.766h-27.5z" fill="#e94444" transform="translate(-282.582 -74.755)"/><path d="m474.5 76h4.981v59.766h-4.981z" fill="#d83131" transform="translate(-395.726 -74.755)"/><path d="m216.862 196.619c-1.52-.566-5.039-1.668-7.228-.717a34.352 34.352 0 0 0 5.674 3.254.4.4 0 0 1 -.031.74l-4.562 1.708c-8.322 1.377-8.7-7.911-9.816-9.67a1.834 1.834 0 0 0 -2.465-.768.166.166 0 0 1 -.223-.209 4.447 4.447 0 0 1 2.4-2.6c2.02-.82 2.783 2.374 3.514 3.6a4.79 4.79 0 0 0 1.937 1.468 13.8 13.8 0 0 0 -.286-4.817.58.58 0 0 1 .294-.643c1.617-.843 7.848-3.211 11.307 8.162a.394.394 0 0 1 -.511.485z" fill="#dc8758" transform="translate(-165.295 -167.478)"/><path d="m215.825 291.126a.334.334 0 0 1 .281.552c-5.725 6.644-10.816 6.359-10.816 6.359s-5.093.284-10.818-6.359a.334.334 0 0 1 .281-.552c1.923.17 6.961 1 10.1 5.094a.55.55 0 0 0 .869 0c3.143-4.091 8.178-4.92 10.103-5.094z" fill="#68ca44" transform="translate(-162.118 -254.165)"/><path d="m83.755 68.5h-5.417a1.245 1.245 0 0 0 0 2.49h4.172v57.275h-25.01v-57.275h15.083a1.245 1.245 0 0 0 0-2.49h-71.338a1.245 1.245 0 0 0 -1.245 1.245v10.708a1.245 1.245 0 0 0 2.49 0v-9.463h25.01v57.275h-25.01v-42.225a1.245 1.245 0 0 0 -2.49 0v43.47a1.245 1.245 0 0 0 1.245 1.245h30.643a1.245 1.245 0 0 0 0-2.49h-1.894v-57.275h25.012v33.868a1.569 1.569 0 0 0 -1.409-.638c-2.047.181-7 1.021-10.426 4.9-3.427-3.884-8.38-4.724-10.427-4.9a1.579 1.579 0 0 0 -1.333 2.6c5.662 6.524 10.67 6.785 11.761 6.792.691.013 5.994-.1 11.759-6.792.028-.033.051-.068.076-.1v21.543h-17.3a1.245 1.245 0 0 0 0 2.49h46.048a1.245 1.245 0 0 0 1.245-1.242v-59.766a1.245 1.245 0 0 0 -1.245-1.245zm-48.563 38.675a12.263 12.263 0 0 1 6.2 3.693 14.942 14.942 0 0 1 -6.2-3.693zm9.762 3.695a12.26 12.26 0 0 1 6.2-3.695 14.944 14.944 0 0 1 -6.2 3.694z" transform="translate(0 -68.5)"/><path d="m191.438 169.918a1.245 1.245 0 0 0 -1.458.987c-.066.34-1.556 8.394 2.508 15.083a1.245 1.245 0 0 0 2.128-1.293 17.43 17.43 0 0 1 -2.273-6.877.793.793 0 0 1 .381.366 10.159 10.159 0 0 1 .536 1.6c.849 2.942 2.536 8.792 8.7 8.792a11.258 11.258 0 0 0 1.836-.159 1.256 1.256 0 0 0 .233-.062l4.564-1.709a1.646 1.646 0 0 0 .118-3.034c-.53-.246-1.255-.6-2.05-1.018a18.342 18.342 0 0 1 2.645.778h.008a1.639 1.639 0 0 0 2.129-2.018c-1.505-4.949-3.733-8.073-6.622-9.286a7.691 7.691 0 0 0 -6.455.384 1.831 1.831 0 0 0 -.931 2.016 15.022 15.022 0 0 1 .283 1.722l-.075-.169c-.8-1.965-2.2-4.2-4.626-3.232a5.114 5.114 0 0 0 -.8.411 17.72 17.72 0 0 1 .206-1.827 1.245 1.245 0 0 0 -.987-1.457zm2.515 5.18c.155-.063.219-.089.46.187a7.738 7.738 0 0 1 .955 1.752 11.338 11.338 0 0 0 .563 1.15 5.812 5.812 0 0 0 2.427 1.931 1.254 1.254 0 0 0 1.812-.937 14.757 14.757 0 0 0 -.2-4.732 5.045 5.045 0 0 1 3.883-.083c1.856.779 3.454 2.884 4.668 6.128-1.992-.569-4.582-.987-6.509-.149a1.254 1.254 0 0 0 -.252 2.137 30.308 30.308 0 0 0 4.129 2.518l-2.617.98c-4.98.765-6.446-2.819-7.62-6.886a9.358 9.358 0 0 0 -.825-2.241 3.31 3.31 0 0 0 -1.557-1.348 2.642 2.642 0 0 1 .683-.405z" transform="translate(-158.173 -153.062)"/></svg>