<svg xmlns="http://www.w3.org/2000/svg" width="63.515" height="62.298" viewBox="0 0 63.515 62.298"><g transform="translate(-3.735 -4.28)"><path d="M64.035,28.153a29.317,29.317,0,0,0-9.048-7.876,74.611,74.611,0,0,0,4.467-9.451A1.123,1.123,0,0,0,58.842,9.4c-.8-.34-19.67-8.259-32.26-3.722a17.609,17.609,0,0,0-9.929,9.085,16.036,16.036,0,0,0,.1,12.356l-3.783,1.626a1.123,1.123,0,1,0,.888,2.064l3.782-1.626c.11.227.213.467.328.686A30.605,30.605,0,0,0,7.35,38.058a17.6,17.6,0,0,0-3.462,13,16.032,16.032,0,0,0,6.744,10.353l-2.309,3.41a1.124,1.124,0,0,0,1.861,1.26l2.3-3.4a16.054,16.054,0,0,0,12.124,2.409A17.606,17.606,0,0,0,35.4,57.049a25.554,25.554,0,0,0,2.751-7.141,16.632,16.632,0,0,0,7.6,4.6,16.05,16.05,0,0,0,12.209-1.938l2.168,3.484a1.124,1.124,0,1,0,1.908-1.187l-2.176-3.5A16.034,16.034,0,0,0,66.995,41.28a17.605,17.605,0,0,0-2.96-13.127Zm-39.577-1.9c1.482,2.478,6.88,5.45,9.924,4.839a1.124,1.124,0,1,0-.444-2.2c-1.929.39-6.2-1.889-7.39-3.534l9.492-4.081a11.077,11.077,0,0,0,8.092,3.689h.019a1.124,1.124,0,1,0,.018-2.247,8.874,8.874,0,0,1-5.923-2.39l8.98-3.861a1.123,1.123,0,1,0-.888-2.064l-8.98,3.861a8.875,8.875,0,0,1,2.34-5.943,1.124,1.124,0,1,0-1.656-1.52,11.076,11.076,0,0,0-2.889,8.41l-9.493,4.081c-.374-2,.908-6.662,2.52-7.795a1.123,1.123,0,1,0-1.293-1.838c-2.534,1.782-4.094,7.746-3.313,10.529l-4.761,2.047a13.836,13.836,0,0,1-.1-10.574,15.284,15.284,0,0,1,8.63-7.865C35.915,4.7,48.54,7.77,56.95,11.06c-1.648,4.054-8.188,18.8-18,23.732a15.282,15.282,0,0,1-11.645.851A13.836,13.836,0,0,1,19.7,28.3Zm21.167,6.5.472.758a8.8,8.8,0,0,1-1.412.081q.477-.408.94-.839ZM48,32.321l-.742-1.192c.762-.808,1.491-1.654,2.188-2.522A8.557,8.557,0,0,1,48,32.321ZM6.106,50.7A15.286,15.286,0,0,1,9.132,39.428a28.579,28.579,0,0,1,10-7.629,15.112,15.112,0,0,0,7.408,5.956c.031.011.063.018.094.029l-3.423,5.055a8.866,8.866,0,0,1-1.235-6.265,1.124,1.124,0,1,0-2.214-.386,11.077,11.077,0,0,0,2.1,8.64L16.07,53.384c-1.391-1.481-2.827-6.1-2.082-7.922a1.123,1.123,0,1,0-2.079-.851c-1.173,2.867.73,8.731,2.888,10.654l-2.906,4.291A13.841,13.841,0,0,1,6.106,50.7Zm27.36,5.2a15.283,15.283,0,0,1-9.346,7,13.842,13.842,0,0,1-10.367-2.084l2.9-4.287c2.588,1.288,8.743.872,10.968-1.279a1.124,1.124,0,1,0-1.562-1.615c-1.415,1.37-6.236,1.753-8.129,1.01l5.8-8.56a11.055,11.055,0,0,0,8.8-1.252,1.124,1.124,0,1,0-1.181-1.913A8.874,8.874,0,0,1,25.069,44.1l3.863-5.706a15.754,15.754,0,0,0,3.83.251,25.659,25.659,0,0,0,2.515,7.407,16.783,16.783,0,0,0,1.034,1.63A24.966,24.966,0,0,1,33.466,55.9Zm12.858-3.571a15.284,15.284,0,0,1-9.071-7.351A23.292,23.292,0,0,1,35.006,38.4a18.085,18.085,0,0,0,4.954-1.6A21.223,21.223,0,0,0,42.2,35.486a9.916,9.916,0,0,0,5.159.06l5.462,8.775c-1.917.67-6.722.1-8.085-1.321a1.123,1.123,0,1,0-1.623,1.554c2.1,2.19,8.168,2.923,10.9,1.682l2.747,4.414a13.838,13.838,0,0,1-10.44,1.684ZM64.792,40.838a13.841,13.841,0,0,1-6.121,8.623l-2.739-4.4c2.23-1.839,4.357-7.625,3.3-10.535a1.124,1.124,0,1,0-2.111.77c.675,1.85-.937,6.411-2.384,7.837l-5.46-8.773a11.089,11.089,0,0,0,2.433-8.553,1.047,1.047,0,0,0-.055-.156c.793-1.145,1.531-2.3,2.21-3.429a27.09,27.09,0,0,1,8.341,7.23,15.287,15.287,0,0,1,2.591,11.385Z" transform="translate(0 0)" fill="#56681c"/></g></svg>